ply
format ascii 1.0
comment Created by Open3D
element vertex 97
property double x
property double y
property double z
element face 167
property list uchar uint vertex_indices
end_header
0 1 1
0.0166667 1 1
0.015 0.987931 1
0.0133333 0.975862 1
0.0116667 0.963793 1
0.01 0.951724 1
0.00833333 0.939655 1
0.00666667 0.927586 1
0.005 0.915517 1
0.00333333 0.903448 1
0.00166667 0.891379 1
0 0.87931 1
0.0333333 1 1
0.03 0.977586 1
0.0266667 0.955172 1
0.0233333 0.932759 1
0.02 0.910345 1
0.0166667 0.887931 1
0.0133333 0.865517 1
0.01 0.843103 1
0.00666667 0.82069 1
0.00333333 0.798276 1
0 0.775862 1
0.03 0.965517 1
0.0266667 0.931034 1
0.0233333 0.896552 1
0.02 0.862069 1
0.0166667 0.827586 1
0.0133333 0.793103 1
0.01 0.758621 1
0.00666667 0.724138 1
0.00333333 0.689655 1
0 0.655172 1
0.05 1 1
0.045 0.955172 1
0.04 0.910345 1
0.035 0.865517 1
0.03 0.82069 1
0.025 0.775862 1
0.02 0.731034 1
0.015 0.686207 1
0.01 0.641379 1
0.005 0.596552 1
0 0.551724 1
0.0666667 1 1
0.06 0.943103 1
0.0533333 0.886207 1
0.0466667 0.82931 1
0.04 0.772414 1
0.0333333 0.715517 1
0.0266667 0.658621 1
0.02 0.601724 1
0.0133333 0.544828 1
0.00666667 0.487931 1
0 0.431034 1
0.06 0.932759 1
0.0533333 0.865517 1
0.0466667 0.798276 1
0.04 0.731034 1
0.0333333 0.663793 1
0.0266667 0.596552 1
0.02 0.52931 1
0.0133333 0.462069 1
0.00666667 0.394828 1
0 0.327586 1
0.0833333 1 1
0.075 0.92069 1
0.0666667 0.841379 1
0.0583333 0.762069 1
0.05 0.682759 1
0.0416667 0.603448 1
0.0333333 0.524138 1
0.025 0.444828 1
0.0166667 0.365517 1
0.00833333 0.286207 1
0 0.206897 1
0.1 1 1
0.09 0.910345 1
0.08 0.82069 1
0.07 0.731034 1
0.06 0.641379 1
0.05 0.551724 1
0.04 0.462069 1
0.03 0.372414 1
0.02 0.282759 1
0.01 0.193103 1
0 0.103448 1
0.09 0.9 1
0.08 0.8 1
0.07 0.7 1
0.06 0.6 1
0.05 0.5 1
0.04 0.4 1
0.03 0.3 1
0.02 0.2 1
0.01 0.1 1
0 5.55112e-17 1
3 0 2 1
3 1 2 13
3 1 13 12
3 12 13 23
3 12 23 34
3 12 34 33
3 33 34 45
3 33 45 44
3 44 45 55
3 44 55 66
3 44 66 65
3 65 66 77
3 65 77 76
3 76 77 87
3 0 3 2
3 2 3 14
3 2 14 13
3 13 14 24
3 13 24 23
3 23 24 35
3 23 35 34
3 34 35 46
3 34 46 45
3 45 46 56
3 45 56 55
3 55 56 67
3 55 67 66
3 66 67 78
3 66 78 77
3 77 78 88
3 77 88 87
3 0 4 3
3 3 4 15
3 3 15 14
3 14 15 25
3 14 25 24
3 24 25 36
3 24 36 35
3 35 36 47
3 35 47 46
3 46 47 57
3 46 57 56
3 56 57 68
3 56 68 67
3 67 68 79
3 67 79 78
3 78 79 89
3 78 89 88
3 0 5 4
3 4 5 16
3 4 16 15
3 15 16 26
3 15 26 25
3 25 26 37
3 25 37 36
3 36 37 48
3 36 48 47
3 47 48 58
3 47 58 57
3 57 58 69
3 57 69 68
3 68 69 80
3 68 80 79
3 79 80 90
3 79 90 89
3 0 6 5
3 5 6 17
3 5 17 16
3 16 17 27
3 16 27 26
3 26 27 38
3 26 38 37
3 37 38 49
3 37 49 48
3 48 49 59
3 48 59 58
3 58 59 70
3 58 70 69
3 69 70 81
3 69 81 80
3 80 81 91
3 80 91 90
3 0 7 6
3 6 7 18
3 6 18 17
3 17 18 28
3 17 28 27
3 27 28 39
3 27 39 38
3 38 39 50
3 38 50 49
3 49 50 60
3 49 60 59
3 59 60 71
3 59 71 70
3 70 71 82
3 70 82 81
3 81 82 92
3 81 92 91
3 0 8 7
3 7 8 19
3 7 19 18
3 18 19 29
3 18 29 28
3 28 29 40
3 28 40 39
3 39 40 51
3 39 51 50
3 50 51 61
3 50 61 60
3 60 61 72
3 60 72 71
3 71 72 83
3 71 83 82
3 82 83 93
3 82 93 92
3 0 9 8
3 8 9 20
3 8 20 19
3 19 20 30
3 19 30 29
3 29 30 41
3 29 41 40
3 40 41 52
3 40 52 51
3 51 52 62
3 51 62 61
3 61 62 73
3 61 73 72
3 72 73 84
3 72 84 83
3 83 84 94
3 83 94 93
3 0 10 9
3 9 10 21
3 9 21 20
3 20 21 31
3 20 31 30
3 30 31 42
3 30 42 41
3 41 42 53
3 41 53 52
3 52 53 63
3 52 63 62
3 62 63 74
3 62 74 73
3 73 74 85
3 73 85 84
3 84 85 95
3 84 95 94
3 0 11 10
3 10 11 22
3 10 22 21
3 21 22 32
3 21 32 31
3 31 32 43
3 31 43 42
3 42 43 54
3 42 54 53
3 53 54 64
3 53 64 63
3 63 64 75
3 63 75 74
3 74 75 86
3 74 86 85
3 85 86 96
3 85 96 95
