ply
format ascii 1.0
comment Created by Open3D
element vertex 98
property double x
property double y
property double z
element face 168
property list uchar uint vertex_indices
end_header
1 1 5.55112e-17
1 1 5.55112e-17
1 0.87931 5.55112e-17
1 0.891379 0.00166667
1 0.903448 0.00333333
1 0.915517 0.005
1 0.927586 0.00666667
1 0.939655 0.00833333
1 0.951724 0.01
1 0.963793 0.0116667
1 0.975862 0.0133333
1 0.987931 0.015
1 1 0.0166667
1 0.775862 5.55112e-17
1 0.798276 0.00333333
1 0.82069 0.00666667
1 0.843103 0.01
1 0.865517 0.0133333
1 0.887931 0.0166667
1 0.910345 0.02
1 0.932759 0.0233333
1 0.955172 0.0266667
1 0.977586 0.03
1 1 0.0333333
1 0.655172 5.55112e-17
1 0.689655 0.00333333
1 0.724138 0.00666667
1 0.758621 0.01
1 0.793103 0.0133333
1 0.827586 0.0166667
1 0.862069 0.02
1 0.896552 0.0233333
1 0.931034 0.0266667
1 0.965517 0.03
1 0.551724 5.55112e-17
1 0.596552 0.005
1 0.641379 0.01
1 0.686207 0.015
1 0.731034 0.02
1 0.775862 0.025
1 0.82069 0.03
1 0.865517 0.035
1 0.910345 0.04
1 0.955172 0.045
1 1 0.05
1 0.431034 5.55112e-17
1 0.487931 0.00666667
1 0.544828 0.0133333
1 0.601724 0.02
1 0.658621 0.0266667
1 0.715517 0.0333333
1 0.772414 0.04
1 0.82931 0.0466667
1 0.886207 0.0533333
1 0.943103 0.06
1 1 0.0666667
1 0.327586 5.55112e-17
1 0.394828 0.00666667
1 0.462069 0.0133333
1 0.52931 0.02
1 0.596552 0.0266667
1 0.663793 0.0333333
1 0.731034 0.04
1 0.798276 0.0466667
1 0.865517 0.0533333
1 0.932759 0.06
1 0.206897 5.55112e-17
1 0.286207 0.00833333
1 0.365517 0.0166667
1 0.444828 0.025
1 0.524138 0.0333333
1 0.603448 0.0416667
1 0.682759 0.05
1 0.762069 0.0583333
1 0.841379 0.0666667
1 0.92069 0.075
1 1 0.0833333
1 0.103448 5.55112e-17
1 0.193103 0.01
1 0.282759 0.02
1 0.372414 0.03
1 0.462069 0.04
1 0.551724 0.05
1 0.641379 0.06
1 0.731034 0.07
1 0.82069 0.08
1 0.910345 0.09
1 1 0.1
1 5.55112e-17 5.55112e-17
1 0.1 0.01
1 0.2 0.02
1 0.3 0.03
1 0.4 0.04
1 0.5 0.05
1 0.6 0.06
1 0.7 0.07
1 0.8 0.08
1 0.9 0.09
3 0 3 2
3 2 3 14
3 2 14 13
3 13 14 25
3 13 25 24
3 24 25 35
3 24 35 34
3 34 35 46
3 34 46 45
3 45 46 57
3 45 57 56
3 56 57 67
3 56 67 66
3 66 67 78
3 66 78 77
3 77 78 89
3 77 89 88
3 0 4 3
3 3 4 15
3 3 15 14
3 14 15 26
3 14 26 25
3 25 26 36
3 25 36 35
3 35 36 47
3 35 47 46
3 46 47 58
3 46 58 57
3 57 58 68
3 57 68 67
3 67 68 79
3 67 79 78
3 78 79 90
3 78 90 89
3 0 5 4
3 4 5 16
3 4 16 15
3 15 16 27
3 15 27 26
3 26 27 37
3 26 37 36
3 36 37 48
3 36 48 47
3 47 48 59
3 47 59 58
3 58 59 69
3 58 69 68
3 68 69 80
3 68 80 79
3 79 80 91
3 79 91 90
3 0 6 5
3 5 6 17
3 5 17 16
3 16 17 28
3 16 28 27
3 27 28 38
3 27 38 37
3 37 38 49
3 37 49 48
3 48 49 60
3 48 60 59
3 59 60 70
3 59 70 69
3 69 70 81
3 69 81 80
3 80 81 92
3 80 92 91
3 0 7 6
3 6 7 18
3 6 18 17
3 17 18 29
3 17 29 28
3 28 29 39
3 28 39 38
3 38 39 50
3 38 50 49
3 49 50 61
3 49 61 60
3 60 61 71
3 60 71 70
3 70 71 82
3 70 82 81
3 81 82 93
3 81 93 92
3 0 8 7
3 7 8 19
3 7 19 18
3 18 19 30
3 18 30 29
3 29 30 40
3 29 40 39
3 39 40 51
3 39 51 50
3 50 51 62
3 50 62 61
3 61 62 72
3 61 72 71
3 71 72 83
3 71 83 82
3 82 83 94
3 82 94 93
3 0 9 8
3 8 9 20
3 8 20 19
3 19 20 31
3 19 31 30
3 30 31 41
3 30 41 40
3 40 41 52
3 40 52 51
3 51 52 63
3 51 63 62
3 62 63 73
3 62 73 72
3 72 73 84
3 72 84 83
3 83 84 95
3 83 95 94
3 0 10 9
3 9 10 21
3 9 21 20
3 20 21 32
3 20 32 31
3 31 32 42
3 31 42 41
3 41 42 53
3 41 53 52
3 52 53 64
3 52 64 63
3 63 64 74
3 63 74 73
3 73 74 85
3 73 85 84
3 84 85 96
3 84 96 95
3 0 11 10
3 10 11 22
3 10 22 21
3 21 22 33
3 21 33 32
3 32 33 43
3 32 43 42
3 42 43 54
3 42 54 53
3 53 54 65
3 53 65 64
3 64 65 75
3 64 75 74
3 74 75 86
3 74 86 85
3 85 86 97
3 85 97 96
3 0 1 12
3 0 12 11
3 11 12 23
3 11 23 22
3 22 23 33
3 33 23 44
3 33 44 43
3 43 44 55
3 43 55 54
3 54 55 65
3 65 55 76
3 65 76 75
3 75 76 87
3 75 87 86
3 86 87 97
