ply
format ascii 1.0
comment Created by Open3D
element vertex 110
property double x
property double y
property double z
element face 180
property list uchar uint vertex_indices
end_header
0 1 1
0.01 0.91 0.91
0.02 0.82 0.82
0.03 0.73 0.73
0.04 0.64 0.64
0.05 0.55 0.55
0.06 0.46 0.46
0.07 0.37 0.37
0.08 0.28 0.28
0.09 0.19 0.19
0.1 0.1 0.1
0 0.87931 1
0.01 0.810033 0.91
0.02 0.740756 0.82
0.03 0.671479 0.73
0.04 0.602202 0.64
0.05 0.532924 0.55
0.06 0.463647 0.46
0.07 0.39437 0.37
0.08 0.325093 0.28
0.09 0.255816 0.19
0.1 0.186538 0.1
0 0.775862 1
0.01 0.727314 0.91
0.02 0.678767 0.82
0.03 0.630219 0.73
0.04 0.581671 0.64
0.05 0.533123 0.55
0.06 0.484576 0.46
0.07 0.436028 0.37
0.08 0.38748 0.28
0.09 0.338932 0.19
0.1 0.290385 0.1
0 0.655172 1
0.01 0.629078 0.91
0.02 0.602984 0.82
0.03 0.57689 0.73
0.04 0.550796 0.64
0.05 0.524702 0.55
0.06 0.498607 0.46
0.07 0.472513 0.37
0.08 0.446419 0.28
0.09 0.420325 0.19
0.1 0.394231 0.1
0 0.551724 1
0.01 0.546359 0.91
0.02 0.540995 0.82
0.03 0.53563 0.73
0.04 0.530265 0.64
0.05 0.524901 0.55
0.06 0.519536 0.46
0.07 0.514171 0.37
0.08 0.508806 0.28
0.09 0.503442 0.19
0.1 0.498077 0.1
0 0.431034 1
0.01 0.446393 0.91
0.02 0.461751 0.82
0.03 0.477109 0.73
0.04 0.492467 0.64
0.05 0.507825 0.55
0.06 0.523183 0.46
0.07 0.538541 0.37
0.08 0.553899 0.28
0.09 0.569257 0.19
0.1 0.584615 0.1
0 0.327586 1
0.01 0.363674 0.91
0.02 0.399761 0.82
0.03 0.435849 0.73
0.04 0.471936 0.64
0.05 0.508024 0.55
0.06 0.544111 0.46
0.07 0.580199 0.37
0.08 0.616286 0.28
0.09 0.652374 0.19
0.1 0.688462 0.1
0 0.206897 1
0.01 0.265438 0.91
0.02 0.323979 0.82
0.03 0.38252 0.73
0.04 0.441061 0.64
0.05 0.499602 0.55
0.06 0.558143 0.46
0.07 0.616684 0.37
0.08 0.675225 0.28
0.09 0.733767 0.19
0.1 0.792308 0.1
0 0.103448 1
0.01 0.182719 0.91
0.02 0.261989 0.82
0.03 0.34126 0.73
0.04 0.420531 0.64
0.05 0.499801 0.55
0.06 0.579072 0.46
0.07 0.658342 0.37
0.08 0.737613 0.28
0.09 0.816883 0.19
0.1 0.896154 0.1
0 5.55112e-17 1
0.01 0.1 0.91
0.02 0.2 0.82
0.03 0.3 0.73
0.04 0.4 0.64
0.05 0.5 0.55
0.06 0.6 0.46
0.07 0.7 0.37
0.08 0.8 0.28
0.09 0.9 0.19
0.1 1 0.1
3 0 1 12
3 0 12 11
3 11 12 23
3 11 23 22
3 22 23 34
3 22 34 33
3 33 34 45
3 33 45 44
3 44 45 56
3 44 56 55
3 55 56 67
3 55 67 66
3 66 67 78
3 66 78 77
3 77 78 89
3 77 89 88
3 88 89 100
3 88 100 99
3 1 2 13
3 1 13 12
3 12 13 24
3 12 24 23
3 23 24 35
3 23 35 34
3 34 35 46
3 34 46 45
3 45 46 57
3 45 57 56
3 56 57 68
3 56 68 67
3 67 68 79
3 67 79 78
3 78 79 90
3 78 90 89
3 89 90 101
3 89 101 100
3 2 3 14
3 2 14 13
3 13 14 25
3 13 25 24
3 24 25 36
3 24 36 35
3 35 36 47
3 35 47 46
3 46 47 58
3 46 58 57
3 57 58 69
3 57 69 68
3 68 69 80
3 68 80 79
3 79 80 91
3 79 91 90
3 90 91 102
3 90 102 101
3 3 4 15
3 3 15 14
3 14 15 26
3 14 26 25
3 25 26 37
3 25 37 36
3 36 37 48
3 36 48 47
3 47 48 59
3 47 59 58
3 58 59 70
3 58 70 69
3 69 70 81
3 69 81 80
3 80 81 92
3 80 92 91
3 91 92 103
3 91 103 102
3 4 5 16
3 4 16 15
3 15 16 27
3 15 27 26
3 26 27 38
3 26 38 37
3 37 38 49
3 37 49 48
3 48 49 60
3 48 60 59
3 59 60 71
3 59 71 70
3 70 71 82
3 70 82 81
3 81 82 93
3 81 93 92
3 92 93 104
3 92 104 103
3 5 6 17
3 5 17 16
3 16 17 28
3 16 28 27
3 27 28 39
3 27 39 38
3 38 39 50
3 38 50 49
3 49 50 61
3 49 61 60
3 60 61 72
3 60 72 71
3 71 72 83
3 71 83 82
3 82 83 94
3 82 94 93
3 93 94 105
3 93 105 104
3 6 7 18
3 6 18 17
3 17 18 29
3 17 29 28
3 28 29 40
3 28 40 39
3 39 40 51
3 39 51 50
3 50 51 62
3 50 62 61
3 61 62 73
3 61 73 72
3 72 73 84
3 72 84 83
3 83 84 95
3 83 95 94
3 94 95 106
3 94 106 105
3 7 8 19
3 7 19 18
3 18 19 30
3 18 30 29
3 29 30 41
3 29 41 40
3 40 41 52
3 40 52 51
3 51 52 63
3 51 63 62
3 62 63 74
3 62 74 73
3 73 74 85
3 73 85 84
3 84 85 96
3 84 96 95
3 95 96 107
3 95 107 106
3 8 9 20
3 8 20 19
3 19 20 31
3 19 31 30
3 30 31 42
3 30 42 41
3 41 42 53
3 41 53 52
3 52 53 64
3 52 64 63
3 63 64 75
3 63 75 74
3 74 75 86
3 74 86 85
3 85 86 97
3 85 97 96
3 96 97 108
3 96 108 107
3 9 10 21
3 9 21 20
3 20 21 32
3 20 32 31
3 31 32 43
3 31 43 42
3 42 43 54
3 42 54 53
3 53 54 65
3 53 65 64
3 64 65 76
3 64 76 75
3 75 76 87
3 75 87 86
3 86 87 98
3 86 98 97
3 97 98 109
3 97 109 108
