ply
format ascii 1.0
comment Created by Open3D
element vertex 930
property double x
property double y
property double z
element face 1740
property list uchar uint vertex_indices
end_header
1 5.55112e-17 5.55112e-17
0.97 0.00333333 0.0333333
0.94 0.00666667 0.0666667
0.91 0.01 0.1
0.88 0.0133333 0.133333
0.85 0.0166667 0.166667
0.82 0.02 0.2
0.79 0.0233333 0.233333
0.76 0.0266667 0.266667
0.73 0.03 0.3
0.7 0.0333333 0.333333
0.67 0.0366667 0.366667
0.64 0.04 0.4
0.61 0.0433333 0.433333
0.58 0.0466667 0.466667
0.55 0.05 0.5
0.52 0.0533333 0.533333
0.49 0.0566667 0.566667
0.46 0.06 0.6
0.43 0.0633333 0.633333
0.4 0.0666667 0.666667
0.37 0.07 0.7
0.34 0.0733333 0.733333
0.31 0.0766667 0.766667
0.28 0.08 0.8
0.25 0.0833333 0.833333
0.22 0.0866667 0.866667
0.19 0.09 0.9
0.16 0.0933333 0.933333
0.13 0.0966667 0.966667
0.1 0.1 1
1 5.55112e-17 0.0344828
0.97 0.00333333 0.0660897
0.94 0.00666667 0.0976967
0.91 0.01 0.129304
0.88 0.0133333 0.160911
0.85 0.0166667 0.192518
0.82 0.02 0.224125
0.79 0.0233333 0.255732
0.76 0.0266667 0.287339
0.73 0.03 0.318946
0.7 0.0333333 0.350553
0.67 0.0366667 0.38216
0.64 0.04 0.413767
0.61 0.0433333 0.445374
0.58 0.0466667 0.476981
0.55 0.05 0.508588
0.52 0.0533333 0.540195
0.49 0.0566667 0.571802
0.46 0.06 0.603408
0.43 0.0633333 0.635015
0.4 0.0666667 0.666622
0.37 0.07 0.698229
0.34 0.0733333 0.729836
0.31 0.0766667 0.761443
0.28 0.08 0.79305
0.25 0.0833333 0.824657
0.22 0.0866667 0.856264
0.19 0.09 0.887871
0.16 0.0933333 0.919478
0.13 0.0966667 0.951085
0.1 0.1 0.982692
1 5.55112e-17 0.0689655
0.97 0.00333333 0.0982692
0.94 0.00666667 0.127573
0.91 0.01 0.156877
0.88 0.0133333 0.18618
0.85 0.0166667 0.215484
0.82 0.02 0.244788
0.79 0.0233333 0.274092
0.76 0.0266667 0.303395
0.73 0.03 0.332699
0.7 0.0333333 0.362003
0.67 0.0366667 0.391306
0.64 0.04 0.42061
0.61 0.0433333 0.449914
0.58 0.0466667 0.479218
0.55 0.05 0.508521
0.52 0.0533333 0.537825
0.49 0.0566667 0.567129
0.46 0.06 0.596432
0.43 0.0633333 0.625736
0.4 0.0666667 0.65504
0.37 0.07 0.684344
0.34 0.0733333 0.713647
0.31 0.0766667 0.742951
0.28 0.08 0.772255
0.25 0.0833333 0.801558
0.22 0.0866667 0.830862
0.19 0.09 0.860166
0.16 0.0933333 0.889469
0.13 0.0966667 0.918773
0.1 0.1 0.948077
1 5.55112e-17 0.103448
0.97 0.00333333 0.130449
0.94 0.00666667 0.157449
0.91 0.01 0.18445
0.88 0.0133333 0.21145
0.85 0.0166667 0.23845
0.82 0.02 0.265451
0.79 0.0233333 0.292451
0.76 0.0266667 0.319452
0.73 0.03 0.346452
0.7 0.0333333 0.373453
0.67 0.0366667 0.400453
0.64 0.04 0.427454
0.61 0.0433333 0.454454
0.58 0.0466667 0.481454
0.55 0.05 0.508455
0.52 0.0533333 0.535455
0.49 0.0566667 0.562456
0.46 0.06 0.589456
0.43 0.0633333 0.616457
0.4 0.0666667 0.643457
0.37 0.07 0.670458
0.34 0.0733333 0.697458
0.31 0.0766667 0.724458
0.28 0.08 0.751459
0.25 0.0833333 0.778459
0.22 0.0866667 0.80546
0.19 0.09 0.83246
0.16 0.0933333 0.859461
0.13 0.0966667 0.886461
0.1 0.1 0.913462
1 5.55112e-17 0.137931
0.97 0.00333333 0.162628
0.94 0.00666667 0.187325
0.91 0.01 0.212023
0.88 0.0133333 0.23672
0.85 0.0166667 0.261417
0.82 0.02 0.286114
0.79 0.0233333 0.310811
0.76 0.0266667 0.335508
0.73 0.03 0.360206
0.7 0.0333333 0.384903
0.67 0.0366667 0.4096
0.64 0.04 0.434297
0.61 0.0433333 0.458994
0.58 0.0466667 0.483691
0.55 0.05 0.508389
0.52 0.0533333 0.533086
0.49 0.0566667 0.557783
0.46 0.06 0.58248
0.43 0.0633333 0.607177
0.4 0.0666667 0.631874
0.37 0.07 0.656572
0.34 0.0733333 0.681269
0.31 0.0766667 0.705966
0.28 0.08 0.730663
0.25 0.0833333 0.75536
0.22 0.0866667 0.780057
0.19 0.09 0.804755
0.16 0.0933333 0.829452
0.13 0.0966667 0.854149
0.1 0.1 0.878846
1 5.55112e-17 0.172414
0.97 0.00333333 0.195385
0.94 0.00666667 0.218355
0.91 0.01 0.241326
0.88 0.0133333 0.264297
0.85 0.0166667 0.287268
0.82 0.02 0.310239
0.79 0.0233333 0.33321
0.76 0.0266667 0.35618
0.73 0.03 0.379151
0.7 0.0333333 0.402122
0.67 0.0366667 0.425093
0.64 0.04 0.448064
0.61 0.0433333 0.471034
0.58 0.0466667 0.494005
0.55 0.05 0.516976
0.52 0.0533333 0.539947
0.49 0.0566667 0.562918
0.46 0.06 0.585889
0.43 0.0633333 0.608859
0.4 0.0666667 0.63183
0.37 0.07 0.654801
0.34 0.0733333 0.677772
0.31 0.0766667 0.700743
0.28 0.08 0.723714
0.25 0.0833333 0.746684
0.22 0.0866667 0.769655
0.19 0.09 0.792626
0.16 0.0933333 0.815597
0.13 0.0966667 0.838568
0.1 0.1 0.861538
1 5.55112e-17 0.206897
0.97 0.00333333 0.227564
0.94 0.00666667 0.248232
0.91 0.01 0.268899
0.88 0.0133333 0.289567
0.85 0.0166667 0.310234
0.82 0.02 0.330902
0.79 0.0233333 0.351569
0.76 0.0266667 0.372237
0.73 0.03 0.392905
0.7 0.0333333 0.413572
0.67 0.0366667 0.43424
0.64 0.04 0.454907
0.61 0.0433333 0.475575
0.58 0.0466667 0.496242
0.55 0.05 0.51691
0.52 0.0533333 0.537577
0.49 0.0566667 0.558245
0.46 0.06 0.578912
0.43 0.0633333 0.59958
0.4 0.0666667 0.620248
0.37 0.07 0.640915
0.34 0.0733333 0.661583
0.31 0.0766667 0.68225
0.28 0.08 0.702918
0.25 0.0833333 0.723585
0.22 0.0866667 0.744253
0.19 0.09 0.76492
0.16 0.0933333 0.785588
0.13 0.0966667 0.806256
0.1 0.1 0.826923
1 5.55112e-17 0.241379
0.97 0.00333333 0.259744
0.94 0.00666667 0.278108
0.91 0.01 0.296472
0.88 0.0133333 0.314836
0.85 0.0166667 0.333201
0.82 0.02 0.351565
0.79 0.0233333 0.369929
0.76 0.0266667 0.388294
0.73 0.03 0.406658
0.7 0.0333333 0.425022
0.67 0.0366667 0.443386
0.64 0.04 0.461751
0.61 0.0433333 0.480115
0.58 0.0466667 0.498479
0.55 0.05 0.516844
0.52 0.0533333 0.535208
0.49 0.0566667 0.553572
0.46 0.06 0.571936
0.43 0.0633333 0.590301
0.4 0.0666667 0.608665
0.37 0.07 0.627029
0.34 0.0733333 0.645393
0.31 0.0766667 0.663758
0.28 0.08 0.682122
0.25 0.0833333 0.700486
0.22 0.0866667 0.718851
0.19 0.09 0.737215
0.16 0.0933333 0.755579
0.13 0.0966667 0.773943
0.1 0.1 0.792308
1 5.55112e-17 0.275862
0.97 0.00333333 0.291923
0.94 0.00666667 0.307984
0.91 0.01 0.324045
0.88 0.0133333 0.340106
0.85 0.0166667 0.356167
0.82 0.02 0.372228
0.79 0.0233333 0.388289
0.76 0.0266667 0.40435
0.73 0.03 0.420411
0.7 0.0333333 0.436472
0.67 0.0366667 0.452533
0.64 0.04 0.468594
0.61 0.0433333 0.484655
0.58 0.0466667 0.500716
0.55 0.05 0.516777
0.52 0.0533333 0.532838
0.49 0.0566667 0.548899
0.46 0.06 0.56496
0.43 0.0633333 0.581021
0.4 0.0666667 0.597082
0.37 0.07 0.613143
0.34 0.0733333 0.629204
0.31 0.0766667 0.645265
0.28 0.08 0.661326
0.25 0.0833333 0.677387
0.22 0.0866667 0.693448
0.19 0.09 0.709509
0.16 0.0933333 0.72557
0.13 0.0966667 0.741631
0.1 0.1 0.757692
1 5.55112e-17 0.310345
0.97 0.00333333 0.324103
0.94 0.00666667 0.33786
0.91 0.01 0.351618
0.88 0.0133333 0.365376
0.85 0.0166667 0.379134
0.82 0.02 0.392891
0.79 0.0233333 0.406649
0.76 0.0266667 0.420407
0.73 0.03 0.434164
0.7 0.0333333 0.447922
0.67 0.0366667 0.46168
0.64 0.04 0.475438
0.61 0.0433333 0.489195
0.58 0.0466667 0.502953
0.55 0.05 0.516711
0.52 0.0533333 0.530469
0.49 0.0566667 0.544226
0.46 0.06 0.557984
0.43 0.0633333 0.571742
0.4 0.0666667 0.5855
0.37 0.07 0.599257
0.34 0.0733333 0.613015
0.31 0.0766667 0.626773
0.28 0.08 0.640531
0.25 0.0833333 0.654288
0.22 0.0866667 0.668046
0.19 0.09 0.681804
0.16 0.0933333 0.695561
0.13 0.0966667 0.709319
0.1 0.1 0.723077
1 5.55112e-17 0.344828
0.97 0.00333333 0.356859
0.94 0.00666667 0.36889
0.91 0.01 0.380922
0.88 0.0133333 0.392953
0.85 0.0166667 0.404985
0.82 0.02 0.417016
0.79 0.0233333 0.429047
0.76 0.0266667 0.441079
0.73 0.03 0.45311
0.7 0.0333333 0.465141
0.67 0.0366667 0.477173
0.64 0.04 0.489204
0.61 0.0433333 0.501236
0.58 0.0466667 0.513267
0.55 0.05 0.525298
0.52 0.0533333 0.53733
0.49 0.0566667 0.549361
0.46 0.06 0.561393
0.43 0.0633333 0.573424
0.4 0.0666667 0.585455
0.37 0.07 0.597487
0.34 0.0733333 0.609518
0.31 0.0766667 0.62155
0.28 0.08 0.633581
0.25 0.0833333 0.645612
0.22 0.0866667 0.657644
0.19 0.09 0.669675
0.16 0.0933333 0.681706
0.13 0.0966667 0.693738
0.1 0.1 0.705769
1 5.55112e-17 0.37931
0.97 0.00333333 0.389038
0.94 0.00666667 0.398767
0.91 0.01 0.408495
0.88 0.0133333 0.418223
0.85 0.0166667 0.427951
0.82 0.02 0.437679
0.79 0.0233333 0.447407
0.76 0.0266667 0.457135
0.73 0.03 0.466863
0.7 0.0333333 0.476592
0.67 0.0366667 0.48632
0.64 0.04 0.496048
0.61 0.0433333 0.505776
0.58 0.0466667 0.515504
0.55 0.05 0.525232
0.52 0.0533333 0.53496
0.49 0.0566667 0.544688
0.46 0.06 0.554416
0.43 0.0633333 0.564145
0.4 0.0666667 0.573873
0.37 0.07 0.583601
0.34 0.0733333 0.593329
0.31 0.0766667 0.603057
0.28 0.08 0.612785
0.25 0.0833333 0.622513
0.22 0.0866667 0.632241
0.19 0.09 0.641969
0.16 0.0933333 0.651698
0.13 0.0966667 0.661426
0.1 0.1 0.671154
1 5.55112e-17 0.413793
0.97 0.00333333 0.421218
0.94 0.00666667 0.428643
0.91 0.01 0.436068
0.88 0.0133333 0.443492
0.85 0.0166667 0.450917
0.82 0.02 0.458342
0.79 0.0233333 0.465767
0.76 0.0266667 0.473192
0.73 0.03 0.480617
0.7 0.0333333 0.488042
0.67 0.0366667 0.495466
0.64 0.04 0.502891
0.61 0.0433333 0.510316
0.58 0.0466667 0.517741
0.55 0.05 0.525166
0.52 0.0533333 0.532591
0.49 0.0566667 0.540015
0.46 0.06 0.54744
0.43 0.0633333 0.554865
0.4 0.0666667 0.56229
0.37 0.07 0.569715
0.34 0.0733333 0.57714
0.31 0.0766667 0.584565
0.28 0.08 0.591989
0.25 0.0833333 0.599414
0.22 0.0866667 0.606839
0.19 0.09 0.614264
0.16 0.0933333 0.621689
0.13 0.0966667 0.629114
0.1 0.1 0.636538
1 5.55112e-17 0.448276
0.97 0.00333333 0.453397
0.94 0.00666667 0.458519
0.91 0.01 0.463641
0.88 0.0133333 0.468762
0.85 0.0166667 0.473884
0.82 0.02 0.479005
0.79 0.0233333 0.484127
0.76 0.0266667 0.489248
0.73 0.03 0.49437
0.7 0.0333333 0.499492
0.67 0.0366667 0.504613
0.64 0.04 0.509735
0.61 0.0433333 0.514856
0.58 0.0466667 0.519978
0.55 0.05 0.525099
0.52 0.0533333 0.530221
0.49 0.0566667 0.535343
0.46 0.06 0.540464
0.43 0.0633333 0.545586
0.4 0.0666667 0.550707
0.37 0.07 0.555829
0.34 0.0733333 0.56095
0.31 0.0766667 0.566072
0.28 0.08 0.571194
0.25 0.0833333 0.576315
0.22 0.0866667 0.581437
0.19 0.09 0.586558
0.16 0.0933333 0.59168
0.13 0.0966667 0.596802
0.1 0.1 0.601923
1 5.55112e-17 0.482759
0.97 0.00333333 0.485577
0.94 0.00666667 0.488395
0.91 0.01 0.491214
0.88 0.0133333 0.494032
0.85 0.0166667 0.49685
0.82 0.02 0.499668
0.79 0.0233333 0.502487
0.76 0.0266667 0.505305
0.73 0.03 0.508123
0.7 0.0333333 0.510942
0.67 0.0366667 0.51376
0.64 0.04 0.516578
0.61 0.0433333 0.519397
0.58 0.0466667 0.522215
0.55 0.05 0.525033
0.52 0.0533333 0.527851
0.49 0.0566667 0.53067
0.46 0.06 0.533488
0.43 0.0633333 0.536306
0.4 0.0666667 0.539125
0.37 0.07 0.541943
0.34 0.0733333 0.544761
0.31 0.0766667 0.54758
0.28 0.08 0.550398
0.25 0.0833333 0.553216
0.22 0.0866667 0.556034
0.19 0.09 0.558853
0.16 0.0933333 0.561671
0.13 0.0966667 0.564489
0.1 0.1 0.567308
1 5.55112e-17 0.517241
0.97 0.00333333 0.518333
0.94 0.00666667 0.519425
0.91 0.01 0.520517
0.88 0.0133333 0.521609
0.85 0.0166667 0.522701
0.82 0.02 0.523793
0.79 0.0233333 0.524885
0.76 0.0266667 0.525977
0.73 0.03 0.527069
0.7 0.0333333 0.528161
0.67 0.0366667 0.529253
0.64 0.04 0.530345
0.61 0.0433333 0.531437
0.58 0.0466667 0.532529
0.55 0.05 0.533621
0.52 0.0533333 0.534713
0.49 0.0566667 0.535805
0.46 0.06 0.536897
0.43 0.0633333 0.537989
0.4 0.0666667 0.53908
0.37 0.07 0.540172
0.34 0.0733333 0.541264
0.31 0.0766667 0.542356
0.28 0.08 0.543448
0.25 0.0833333 0.54454
0.22 0.0866667 0.545632
0.19 0.09 0.546724
0.16 0.0933333 0.547816
0.13 0.0966667 0.548908
0.1 0.1 0.55
1 5.55112e-17 0.551724
0.97 0.00333333 0.550513
0.94 0.00666667 0.549302
0.91 0.01 0.54809
0.88 0.0133333 0.546879
0.85 0.0166667 0.545668
0.82 0.02 0.544456
0.79 0.0233333 0.543245
0.76 0.0266667 0.542034
0.73 0.03 0.540822
0.7 0.0333333 0.539611
0.67 0.0366667 0.5384
0.64 0.04 0.537188
0.61 0.0433333 0.535977
0.58 0.0466667 0.534766
0.55 0.05 0.533554
0.52 0.0533333 0.532343
0.49 0.0566667 0.531132
0.46 0.06 0.52992
0.43 0.0633333 0.528709
0.4 0.0666667 0.527498
0.37 0.07 0.526286
0.34 0.0733333 0.525075
0.31 0.0766667 0.523864
0.28 0.08 0.522653
0.25 0.0833333 0.521441
0.22 0.0866667 0.52023
0.19 0.09 0.519019
0.16 0.0933333 0.517807
0.13 0.0966667 0.516596
0.1 0.1 0.515385
1 5.55112e-17 0.586207
0.97 0.00333333 0.582692
0.94 0.00666667 0.579178
0.91 0.01 0.575663
0.88 0.0133333 0.572149
0.85 0.0166667 0.568634
0.82 0.02 0.565119
0.79 0.0233333 0.561605
0.76 0.0266667 0.55809
0.73 0.03 0.554576
0.7 0.0333333 0.551061
0.67 0.0366667 0.547546
0.64 0.04 0.544032
0.61 0.0433333 0.540517
0.58 0.0466667 0.537003
0.55 0.05 0.533488
0.52 0.0533333 0.529973
0.49 0.0566667 0.526459
0.46 0.06 0.522944
0.43 0.0633333 0.51943
0.4 0.0666667 0.515915
0.37 0.07 0.512401
0.34 0.0733333 0.508886
0.31 0.0766667 0.505371
0.28 0.08 0.501857
0.25 0.0833333 0.498342
0.22 0.0866667 0.494828
0.19 0.09 0.491313
0.16 0.0933333 0.487798
0.13 0.0966667 0.484284
0.1 0.1 0.480769
1 5.55112e-17 0.62069
0.97 0.00333333 0.614872
0.94 0.00666667 0.609054
0.91 0.01 0.603236
0.88 0.0133333 0.597418
0.85 0.0166667 0.5916
0.82 0.02 0.585782
0.79 0.0233333 0.579965
0.76 0.0266667 0.574147
0.73 0.03 0.568329
0.7 0.0333333 0.562511
0.67 0.0366667 0.556693
0.64 0.04 0.550875
0.61 0.0433333 0.545057
0.58 0.0466667 0.53924
0.55 0.05 0.533422
0.52 0.0533333 0.527604
0.49 0.0566667 0.521786
0.46 0.06 0.515968
0.43 0.0633333 0.51015
0.4 0.0666667 0.504332
0.37 0.07 0.498515
0.34 0.0733333 0.492697
0.31 0.0766667 0.486879
0.28 0.08 0.481061
0.25 0.0833333 0.475243
0.22 0.0866667 0.469425
0.19 0.09 0.463607
0.16 0.0933333 0.45779
0.13 0.0966667 0.451972
0.1 0.1 0.446154
1 5.55112e-17 0.655172
0.97 0.00333333 0.647051
0.94 0.00666667 0.63893
0.91 0.01 0.630809
0.88 0.0133333 0.622688
0.85 0.0166667 0.614567
0.82 0.02 0.606446
0.79 0.0233333 0.598324
0.76 0.0266667 0.590203
0.73 0.03 0.582082
0.7 0.0333333 0.573961
0.67 0.0366667 0.56584
0.64 0.04 0.557719
0.61 0.0433333 0.549598
0.58 0.0466667 0.541477
0.55 0.05 0.533355
0.52 0.0533333 0.525234
0.49 0.0566667 0.517113
0.46 0.06 0.508992
0.43 0.0633333 0.500871
0.4 0.0666667 0.49275
0.37 0.07 0.484629
0.34 0.0733333 0.476508
0.31 0.0766667 0.468386
0.28 0.08 0.460265
0.25 0.0833333 0.452144
0.22 0.0866667 0.444023
0.19 0.09 0.435902
0.16 0.0933333 0.427781
0.13 0.0966667 0.41966
0.1 0.1 0.411538
1 5.55112e-17 0.689655
0.97 0.00333333 0.679808
0.94 0.00666667 0.66996
0.91 0.01 0.660113
0.88 0.0133333 0.650265
0.85 0.0166667 0.640418
0.82 0.02 0.63057
0.79 0.0233333 0.620723
0.76 0.0266667 0.610875
0.73 0.03 0.601028
0.7 0.0333333 0.59118
0.67 0.0366667 0.581333
0.64 0.04 0.571485
0.61 0.0433333 0.561638
0.58 0.0466667 0.55179
0.55 0.05 0.541943
0.52 0.0533333 0.532095
0.49 0.0566667 0.522248
0.46 0.06 0.512401
0.43 0.0633333 0.502553
0.4 0.0666667 0.492706
0.37 0.07 0.482858
0.34 0.0733333 0.473011
0.31 0.0766667 0.463163
0.28 0.08 0.453316
0.25 0.0833333 0.443468
0.22 0.0866667 0.433621
0.19 0.09 0.423773
0.16 0.0933333 0.413926
0.13 0.0966667 0.404078
0.1 0.1 0.394231
1 5.55112e-17 0.724138
0.97 0.00333333 0.711987
0.94 0.00666667 0.699836
0.91 0.01 0.687686
0.88 0.0133333 0.675535
0.85 0.0166667 0.663384
0.82 0.02 0.651233
0.79 0.0233333 0.639083
0.76 0.0266667 0.626932
0.73 0.03 0.614781
0.7 0.0333333 0.60263
0.67 0.0366667 0.59048
0.64 0.04 0.578329
0.61 0.0433333 0.566178
0.58 0.0466667 0.554027
0.55 0.05 0.541877
0.52 0.0533333 0.529726
0.49 0.0566667 0.517575
0.46 0.06 0.505424
0.43 0.0633333 0.493274
0.4 0.0666667 0.481123
0.37 0.07 0.468972
0.34 0.0733333 0.456821
0.31 0.0766667 0.444671
0.28 0.08 0.43252
0.25 0.0833333 0.420369
0.22 0.0866667 0.408218
0.19 0.09 0.396068
0.16 0.0933333 0.383917
0.13 0.0966667 0.371766
0.1 0.1 0.359615
1 5.55112e-17 0.758621
0.97 0.00333333 0.744167
0.94 0.00666667 0.729713
0.91 0.01 0.715259
0.88 0.0133333 0.700805
0.85 0.0166667 0.686351
0.82 0.02 0.671897
0.79 0.0233333 0.657443
0.76 0.0266667 0.642989
0.73 0.03 0.628534
0.7 0.0333333 0.61408
0.67 0.0366667 0.599626
0.64 0.04 0.585172
0.61 0.0433333 0.570718
0.58 0.0466667 0.556264
0.55 0.05 0.54181
0.52 0.0533333 0.527356
0.49 0.0566667 0.512902
0.46 0.06 0.498448
0.43 0.0633333 0.483994
0.4 0.0666667 0.46954
0.37 0.07 0.455086
0.34 0.0733333 0.440632
0.31 0.0766667 0.426178
0.28 0.08 0.411724
0.25 0.0833333 0.39727
0.22 0.0866667 0.382816
0.19 0.09 0.368362
0.16 0.0933333 0.353908
0.13 0.0966667 0.339454
0.1 0.1 0.325
1 5.55112e-17 0.793103
0.97 0.00333333 0.776346
0.94 0.00666667 0.759589
0.91 0.01 0.742832
0.88 0.0133333 0.726074
0.85 0.0166667 0.709317
0.82 0.02 0.69256
0.79 0.0233333 0.675802
0.76 0.0266667 0.659045
0.73 0.03 0.642288
0.7 0.0333333 0.625531
0.67 0.0366667 0.608773
0.64 0.04 0.592016
0.61 0.0433333 0.575259
0.58 0.0466667 0.558501
0.55 0.05 0.541744
0.52 0.0533333 0.524987
0.49 0.0566667 0.508229
0.46 0.06 0.491472
0.43 0.0633333 0.474715
0.4 0.0666667 0.457958
0.37 0.07 0.4412
0.34 0.0733333 0.424443
0.31 0.0766667 0.407686
0.28 0.08 0.390928
0.25 0.0833333 0.374171
0.22 0.0866667 0.357414
0.19 0.09 0.340656
0.16 0.0933333 0.323899
0.13 0.0966667 0.307142
0.1 0.1 0.290385
1 5.55112e-17 0.827586
0.97 0.00333333 0.808526
0.94 0.00666667 0.789465
0.91 0.01 0.770405
0.88 0.0133333 0.751344
0.85 0.0166667 0.732283
0.82 0.02 0.713223
0.79 0.0233333 0.694162
0.76 0.0266667 0.675102
0.73 0.03 0.656041
0.7 0.0333333 0.636981
0.67 0.0366667 0.61792
0.64 0.04 0.598859
0.61 0.0433333 0.579799
0.58 0.0466667 0.560738
0.55 0.05 0.541678
0.52 0.0533333 0.522617
0.49 0.0566667 0.503557
0.46 0.06 0.484496
0.43 0.0633333 0.465435
0.4 0.0666667 0.446375
0.37 0.07 0.427314
0.34 0.0733333 0.408254
0.31 0.0766667 0.389193
0.28 0.08 0.370133
0.25 0.0833333 0.351072
0.22 0.0866667 0.332011
0.19 0.09 0.312951
0.16 0.0933333 0.29389
0.13 0.0966667 0.27483
0.1 0.1 0.255769
1 5.55112e-17 0.862069
0.97 0.00333333 0.841282
0.94 0.00666667 0.820495
0.91 0.01 0.799708
0.88 0.0133333 0.778921
0.85 0.0166667 0.758134
0.82 0.02 0.737347
0.79 0.0233333 0.716561
0.76 0.0266667 0.695774
0.73 0.03 0.674987
0.7 0.0333333 0.6542
0.67 0.0366667 0.633413
0.64 0.04 0.612626
0.61 0.0433333 0.591839
0.58 0.0466667 0.571052
0.55 0.05 0.550265
0.52 0.0533333 0.529478
0.49 0.0566667 0.508691
0.46 0.06 0.487905
0.43 0.0633333 0.467118
0.4 0.0666667 0.446331
0.37 0.07 0.425544
0.34 0.0733333 0.404757
0.31 0.0766667 0.38397
0.28 0.08 0.363183
0.25 0.0833333 0.342396
0.22 0.0866667 0.321609
0.19 0.09 0.300822
0.16 0.0933333 0.280035
0.13 0.0966667 0.259248
0.1 0.1 0.238462
1 5.55112e-17 0.896552
0.97 0.00333333 0.873462
0.94 0.00666667 0.850371
0.91 0.01 0.827281
0.88 0.0133333 0.804191
0.85 0.0166667 0.781101
0.82 0.02 0.758011
0.79 0.0233333 0.73492
0.76 0.0266667 0.71183
0.73 0.03 0.68874
0.7 0.0333333 0.66565
0.67 0.0366667 0.64256
0.64 0.04 0.619469
0.61 0.0433333 0.596379
0.58 0.0466667 0.573289
0.55 0.05 0.550199
0.52 0.0533333 0.527109
0.49 0.0566667 0.504019
0.46 0.06 0.480928
0.43 0.0633333 0.457838
0.4 0.0666667 0.434748
0.37 0.07 0.411658
0.34 0.0733333 0.388568
0.31 0.0766667 0.365477
0.28 0.08 0.342387
0.25 0.0833333 0.319297
0.22 0.0866667 0.296207
0.19 0.09 0.273117
0.16 0.0933333 0.250027
0.13 0.0966667 0.226936
0.1 0.1 0.203846
1 5.55112e-17 0.931034
0.97 0.00333333 0.905641
0.94 0.00666667 0.880248
0.91 0.01 0.854854
0.88 0.0133333 0.829461
0.85 0.0166667 0.804067
0.82 0.02 0.778674
0.79 0.0233333 0.75328
0.76 0.0266667 0.727887
0.73 0.03 0.702493
0.7 0.0333333 0.6771
0.67 0.0366667 0.651706
0.64 0.04 0.626313
0.61 0.0433333 0.60092
0.58 0.0466667 0.575526
0.55 0.05 0.550133
0.52 0.0533333 0.524739
0.49 0.0566667 0.499346
0.46 0.06 0.473952
0.43 0.0633333 0.448559
0.4 0.0666667 0.423165
0.37 0.07 0.397772
0.34 0.0733333 0.372378
0.31 0.0766667 0.346985
0.28 0.08 0.321592
0.25 0.0833333 0.296198
0.22 0.0866667 0.270805
0.19 0.09 0.245411
0.16 0.0933333 0.220018
0.13 0.0966667 0.194624
0.1 0.1 0.169231
1 5.55112e-17 0.965517
0.97 0.00333333 0.937821
0.94 0.00666667 0.910124
0.91 0.01 0.882427
0.88 0.0133333 0.85473
0.85 0.0166667 0.827034
0.82 0.02 0.799337
0.79 0.0233333 0.77164
0.76 0.0266667 0.743943
0.73 0.03 0.716247
0.7 0.0333333 0.68855
0.67 0.0366667 0.660853
0.64 0.04 0.633156
0.61 0.0433333 0.60546
0.58 0.0466667 0.577763
0.55 0.05 0.550066
0.52 0.0533333 0.52237
0.49 0.0566667 0.494673
0.46 0.06 0.466976
0.43 0.0633333 0.439279
0.4 0.0666667 0.411583
0.37 0.07 0.383886
0.34 0.0733333 0.356189
0.31 0.0766667 0.328492
0.28 0.08 0.300796
0.25 0.0833333 0.273099
0.22 0.0866667 0.245402
0.19 0.09 0.217706
0.16 0.0933333 0.190009
0.13 0.0966667 0.162312
0.1 0.1 0.134615
1 5.55112e-17 1
0.97 0.00333333 0.97
0.94 0.00666667 0.94
0.91 0.01 0.91
0.88 0.0133333 0.88
0.85 0.0166667 0.85
0.82 0.02 0.82
0.79 0.0233333 0.79
0.76 0.0266667 0.76
0.73 0.03 0.73
0.7 0.0333333 0.7
0.67 0.0366667 0.67
0.64 0.04 0.64
0.61 0.0433333 0.61
0.58 0.0466667 0.58
0.55 0.05 0.55
0.52 0.0533333 0.52
0.49 0.0566667 0.49
0.46 0.06 0.46
0.43 0.0633333 0.43
0.4 0.0666667 0.4
0.37 0.07 0.37
0.34 0.0733333 0.34
0.31 0.0766667 0.31
0.28 0.08 0.28
0.25 0.0833333 0.25
0.22 0.0866667 0.22
0.19 0.09 0.19
0.16 0.0933333 0.16
0.13 0.0966667 0.13
0.1 0.1 0.1
3 0 1 32
3 0 32 31
3 31 32 63
3 31 63 62
3 62 63 94
3 62 94 93
3 93 94 125
3 93 125 124
3 124 125 156
3 124 156 155
3 155 156 187
3 155 187 186
3 186 187 218
3 186 218 217
3 217 218 249
3 217 249 248
3 248 249 280
3 248 280 279
3 279 280 311
3 279 311 310
3 310 311 342
3 310 342 341
3 341 342 373
3 341 373 372
3 372 373 404
3 372 404 403
3 403 404 435
3 403 435 434
3 434 435 466
3 434 466 465
3 465 466 497
3 465 497 496
3 496 497 528
3 496 528 527
3 527 528 559
3 527 559 558
3 558 559 590
3 558 590 589
3 589 590 621
3 589 621 620
3 620 621 652
3 620 652 651
3 651 652 683
3 651 683 682
3 682 683 714
3 682 714 713
3 713 714 745
3 713 745 744
3 744 745 776
3 744 776 775
3 775 776 807
3 775 807 806
3 806 807 838
3 806 838 837
3 837 838 869
3 837 869 868
3 868 869 900
3 868 900 899
3 1 2 33
3 1 33 32
3 32 33 64
3 32 64 63
3 63 64 95
3 63 95 94
3 94 95 126
3 94 126 125
3 125 126 157
3 125 157 156
3 156 157 188
3 156 188 187
3 187 188 219
3 187 219 218
3 218 219 250
3 218 250 249
3 249 250 281
3 249 281 280
3 280 281 312
3 280 312 311
3 311 312 343
3 311 343 342
3 342 343 374
3 342 374 373
3 373 374 405
3 373 405 404
3 404 405 436
3 404 436 435
3 435 436 467
3 435 467 466
3 466 467 498
3 466 498 497
3 497 498 529
3 497 529 528
3 528 529 560
3 528 560 559
3 559 560 591
3 559 591 590
3 590 591 622
3 590 622 621
3 621 622 653
3 621 653 652
3 652 653 684
3 652 684 683
3 683 684 715
3 683 715 714
3 714 715 746
3 714 746 745
3 745 746 777
3 745 777 776
3 776 777 808
3 776 808 807
3 807 808 839
3 807 839 838
3 838 839 870
3 838 870 869
3 869 870 901
3 869 901 900
3 2 3 34
3 2 34 33
3 33 34 65
3 33 65 64
3 64 65 96
3 64 96 95
3 95 96 127
3 95 127 126
3 126 127 158
3 126 158 157
3 157 158 189
3 157 189 188
3 188 189 220
3 188 220 219
3 219 220 251
3 219 251 250
3 250 251 282
3 250 282 281
3 281 282 313
3 281 313 312
3 312 313 344
3 312 344 343
3 343 344 375
3 343 375 374
3 374 375 406
3 374 406 405
3 405 406 437
3 405 437 436
3 436 437 468
3 436 468 467
3 467 468 499
3 467 499 498
3 498 499 530
3 498 530 529
3 529 530 561
3 529 561 560
3 560 561 592
3 560 592 591
3 591 592 623
3 591 623 622
3 622 623 654
3 622 654 653
3 653 654 685
3 653 685 684
3 684 685 716
3 684 716 715
3 715 716 747
3 715 747 746
3 746 747 778
3 746 778 777
3 777 778 809
3 777 809 808
3 808 809 840
3 808 840 839
3 839 840 871
3 839 871 870
3 870 871 902
3 870 902 901
3 3 4 35
3 3 35 34
3 34 35 66
3 34 66 65
3 65 66 97
3 65 97 96
3 96 97 128
3 96 128 127
3 127 128 159
3 127 159 158
3 158 159 190
3 158 190 189
3 189 190 221
3 189 221 220
3 220 221 252
3 220 252 251
3 251 252 283
3 251 283 282
3 282 283 314
3 282 314 313
3 313 314 345
3 313 345 344
3 344 345 376
3 344 376 375
3 375 376 407
3 375 407 406
3 406 407 438
3 406 438 437
3 437 438 469
3 437 469 468
3 468 469 500
3 468 500 499
3 499 500 531
3 499 531 530
3 530 531 562
3 530 562 561
3 561 562 593
3 561 593 592
3 592 593 624
3 592 624 623
3 623 624 655
3 623 655 654
3 654 655 686
3 654 686 685
3 685 686 717
3 685 717 716
3 716 717 748
3 716 748 747
3 747 748 779
3 747 779 778
3 778 779 810
3 778 810 809
3 809 810 841
3 809 841 840
3 840 841 872
3 840 872 871
3 871 872 903
3 871 903 902
3 4 5 36
3 4 36 35
3 35 36 67
3 35 67 66
3 66 67 98
3 66 98 97
3 97 98 129
3 97 129 128
3 128 129 160
3 128 160 159
3 159 160 191
3 159 191 190
3 190 191 222
3 190 222 221
3 221 222 253
3 221 253 252
3 252 253 284
3 252 284 283
3 283 284 315
3 283 315 314
3 314 315 346
3 314 346 345
3 345 346 377
3 345 377 376
3 376 377 408
3 376 408 407
3 407 408 439
3 407 439 438
3 438 439 470
3 438 470 469
3 469 470 501
3 469 501 500
3 500 501 532
3 500 532 531
3 531 532 563
3 531 563 562
3 562 563 594
3 562 594 593
3 593 594 625
3 593 625 624
3 624 625 656
3 624 656 655
3 655 656 687
3 655 687 686
3 686 687 718
3 686 718 717
3 717 718 749
3 717 749 748
3 748 749 780
3 748 780 779
3 779 780 811
3 779 811 810
3 810 811 842
3 810 842 841
3 841 842 873
3 841 873 872
3 872 873 904
3 872 904 903
3 5 6 37
3 5 37 36
3 36 37 68
3 36 68 67
3 67 68 99
3 67 99 98
3 98 99 130
3 98 130 129
3 129 130 161
3 129 161 160
3 160 161 192
3 160 192 191
3 191 192 223
3 191 223 222
3 222 223 254
3 222 254 253
3 253 254 285
3 253 285 284
3 284 285 316
3 284 316 315
3 315 316 347
3 315 347 346
3 346 347 378
3 346 378 377
3 377 378 409
3 377 409 408
3 408 409 440
3 408 440 439
3 439 440 471
3 439 471 470
3 470 471 502
3 470 502 501
3 501 502 533
3 501 533 532
3 532 533 564
3 532 564 563
3 563 564 595
3 563 595 594
3 594 595 626
3 594 626 625
3 625 626 657
3 625 657 656
3 656 657 688
3 656 688 687
3 687 688 719
3 687 719 718
3 718 719 750
3 718 750 749
3 749 750 781
3 749 781 780
3 780 781 812
3 780 812 811
3 811 812 843
3 811 843 842
3 842 843 874
3 842 874 873
3 873 874 905
3 873 905 904
3 6 7 38
3 6 38 37
3 37 38 69
3 37 69 68
3 68 69 100
3 68 100 99
3 99 100 131
3 99 131 130
3 130 131 162
3 130 162 161
3 161 162 193
3 161 193 192
3 192 193 224
3 192 224 223
3 223 224 255
3 223 255 254
3 254 255 286
3 254 286 285
3 285 286 317
3 285 317 316
3 316 317 348
3 316 348 347
3 347 348 379
3 347 379 378
3 378 379 410
3 378 410 409
3 409 410 441
3 409 441 440
3 440 441 472
3 440 472 471
3 471 472 503
3 471 503 502
3 502 503 534
3 502 534 533
3 533 534 565
3 533 565 564
3 564 565 596
3 564 596 595
3 595 596 627
3 595 627 626
3 626 627 658
3 626 658 657
3 657 658 689
3 657 689 688
3 688 689 720
3 688 720 719
3 719 720 751
3 719 751 750
3 750 751 782
3 750 782 781
3 781 782 813
3 781 813 812
3 812 813 844
3 812 844 843
3 843 844 875
3 843 875 874
3 874 875 906
3 874 906 905
3 7 8 39
3 7 39 38
3 38 39 70
3 38 70 69
3 69 70 101
3 69 101 100
3 100 101 132
3 100 132 131
3 131 132 163
3 131 163 162
3 162 163 194
3 162 194 193
3 193 194 225
3 193 225 224
3 224 225 256
3 224 256 255
3 255 256 287
3 255 287 286
3 286 287 318
3 286 318 317
3 317 318 349
3 317 349 348
3 348 349 380
3 348 380 379
3 379 380 411
3 379 411 410
3 410 411 442
3 410 442 441
3 441 442 473
3 441 473 472
3 472 473 504
3 472 504 503
3 503 504 535
3 503 535 534
3 534 535 566
3 534 566 565
3 565 566 597
3 565 597 596
3 596 597 628
3 596 628 627
3 627 628 659
3 627 659 658
3 658 659 690
3 658 690 689
3 689 690 721
3 689 721 720
3 720 721 752
3 720 752 751
3 751 752 783
3 751 783 782
3 782 783 814
3 782 814 813
3 813 814 845
3 813 845 844
3 844 845 876
3 844 876 875
3 875 876 907
3 875 907 906
3 8 9 40
3 8 40 39
3 39 40 71
3 39 71 70
3 70 71 102
3 70 102 101
3 101 102 133
3 101 133 132
3 132 133 164
3 132 164 163
3 163 164 195
3 163 195 194
3 194 195 226
3 194 226 225
3 225 226 257
3 225 257 256
3 256 257 288
3 256 288 287
3 287 288 319
3 287 319 318
3 318 319 350
3 318 350 349
3 349 350 381
3 349 381 380
3 380 381 412
3 380 412 411
3 411 412 443
3 411 443 442
3 442 443 474
3 442 474 473
3 473 474 505
3 473 505 504
3 504 505 536
3 504 536 535
3 535 536 567
3 535 567 566
3 566 567 598
3 566 598 597
3 597 598 629
3 597 629 628
3 628 629 660
3 628 660 659
3 659 660 691
3 659 691 690
3 690 691 722
3 690 722 721
3 721 722 753
3 721 753 752
3 752 753 784
3 752 784 783
3 783 784 815
3 783 815 814
3 814 815 846
3 814 846 845
3 845 846 877
3 845 877 876
3 876 877 908
3 876 908 907
3 9 10 41
3 9 41 40
3 40 41 72
3 40 72 71
3 71 72 103
3 71 103 102
3 102 103 134
3 102 134 133
3 133 134 165
3 133 165 164
3 164 165 196
3 164 196 195
3 195 196 227
3 195 227 226
3 226 227 258
3 226 258 257
3 257 258 289
3 257 289 288
3 288 289 320
3 288 320 319
3 319 320 351
3 319 351 350
3 350 351 382
3 350 382 381
3 381 382 413
3 381 413 412
3 412 413 444
3 412 444 443
3 443 444 475
3 443 475 474
3 474 475 506
3 474 506 505
3 505 506 537
3 505 537 536
3 536 537 568
3 536 568 567
3 567 568 599
3 567 599 598
3 598 599 630
3 598 630 629
3 629 630 661
3 629 661 660
3 660 661 692
3 660 692 691
3 691 692 723
3 691 723 722
3 722 723 754
3 722 754 753
3 753 754 785
3 753 785 784
3 784 785 816
3 784 816 815
3 815 816 847
3 815 847 846
3 846 847 878
3 846 878 877
3 877 878 909
3 877 909 908
3 10 11 42
3 10 42 41
3 41 42 73
3 41 73 72
3 72 73 104
3 72 104 103
3 103 104 135
3 103 135 134
3 134 135 166
3 134 166 165
3 165 166 197
3 165 197 196
3 196 197 228
3 196 228 227
3 227 228 259
3 227 259 258
3 258 259 290
3 258 290 289
3 289 290 321
3 289 321 320
3 320 321 352
3 320 352 351
3 351 352 383
3 351 383 382
3 382 383 414
3 382 414 413
3 413 414 445
3 413 445 444
3 444 445 476
3 444 476 475
3 475 476 507
3 475 507 506
3 506 507 538
3 506 538 537
3 537 538 569
3 537 569 568
3 568 569 600
3 568 600 599
3 599 600 631
3 599 631 630
3 630 631 662
3 630 662 661
3 661 662 693
3 661 693 692
3 692 693 724
3 692 724 723
3 723 724 755
3 723 755 754
3 754 755 786
3 754 786 785
3 785 786 817
3 785 817 816
3 816 817 848
3 816 848 847
3 847 848 879
3 847 879 878
3 878 879 910
3 878 910 909
3 11 12 43
3 11 43 42
3 42 43 74
3 42 74 73
3 73 74 105
3 73 105 104
3 104 105 136
3 104 136 135
3 135 136 167
3 135 167 166
3 166 167 198
3 166 198 197
3 197 198 229
3 197 229 228
3 228 229 260
3 228 260 259
3 259 260 291
3 259 291 290
3 290 291 322
3 290 322 321
3 321 322 353
3 321 353 352
3 352 353 384
3 352 384 383
3 383 384 415
3 383 415 414
3 414 415 446
3 414 446 445
3 445 446 477
3 445 477 476
3 476 477 508
3 476 508 507
3 507 508 539
3 507 539 538
3 538 539 570
3 538 570 569
3 569 570 601
3 569 601 600
3 600 601 632
3 600 632 631
3 631 632 663
3 631 663 662
3 662 663 694
3 662 694 693
3 693 694 725
3 693 725 724
3 724 725 756
3 724 756 755
3 755 756 787
3 755 787 786
3 786 787 818
3 786 818 817
3 817 818 849
3 817 849 848
3 848 849 880
3 848 880 879
3 879 880 911
3 879 911 910
3 12 13 44
3 12 44 43
3 43 44 75
3 43 75 74
3 74 75 106
3 74 106 105
3 105 106 137
3 105 137 136
3 136 137 168
3 136 168 167
3 167 168 199
3 167 199 198
3 198 199 230
3 198 230 229
3 229 230 261
3 229 261 260
3 260 261 292
3 260 292 291
3 291 292 323
3 291 323 322
3 322 323 354
3 322 354 353
3 353 354 385
3 353 385 384
3 384 385 416
3 384 416 415
3 415 416 447
3 415 447 446
3 446 447 478
3 446 478 477
3 477 478 509
3 477 509 508
3 508 509 540
3 508 540 539
3 539 540 571
3 539 571 570
3 570 571 602
3 570 602 601
3 601 602 633
3 601 633 632
3 632 633 664
3 632 664 663
3 663 664 695
3 663 695 694
3 694 695 726
3 694 726 725
3 725 726 757
3 725 757 756
3 756 757 788
3 756 788 787
3 787 788 819
3 787 819 818
3 818 819 850
3 818 850 849
3 849 850 881
3 849 881 880
3 880 881 912
3 880 912 911
3 13 14 45
3 13 45 44
3 44 45 76
3 44 76 75
3 75 76 107
3 75 107 106
3 106 107 138
3 106 138 137
3 137 138 169
3 137 169 168
3 168 169 200
3 168 200 199
3 199 200 231
3 199 231 230
3 230 231 262
3 230 262 261
3 261 262 293
3 261 293 292
3 292 293 324
3 292 324 323
3 323 324 355
3 323 355 354
3 354 355 386
3 354 386 385
3 385 386 417
3 385 417 416
3 416 417 448
3 416 448 447
3 447 448 479
3 447 479 478
3 478 479 510
3 478 510 509
3 509 510 541
3 509 541 540
3 540 541 572
3 540 572 571
3 571 572 603
3 571 603 602
3 602 603 634
3 602 634 633
3 633 634 665
3 633 665 664
3 664 665 696
3 664 696 695
3 695 696 727
3 695 727 726
3 726 727 758
3 726 758 757
3 757 758 789
3 757 789 788
3 788 789 820
3 788 820 819
3 819 820 851
3 819 851 850
3 850 851 882
3 850 882 881
3 881 882 913
3 881 913 912
3 14 15 46
3 14 46 45
3 45 46 77
3 45 77 76
3 76 77 108
3 76 108 107
3 107 108 139
3 107 139 138
3 138 139 170
3 138 170 169
3 169 170 201
3 169 201 200
3 200 201 232
3 200 232 231
3 231 232 263
3 231 263 262
3 262 263 294
3 262 294 293
3 293 294 325
3 293 325 324
3 324 325 356
3 324 356 355
3 355 356 387
3 355 387 386
3 386 387 418
3 386 418 417
3 417 418 449
3 417 449 448
3 448 449 480
3 448 480 479
3 479 480 511
3 479 511 510
3 510 511 542
3 510 542 541
3 541 542 573
3 541 573 572
3 572 573 604
3 572 604 603
3 603 604 635
3 603 635 634
3 634 635 666
3 634 666 665
3 665 666 697
3 665 697 696
3 696 697 728
3 696 728 727
3 727 728 759
3 727 759 758
3 758 759 790
3 758 790 789
3 789 790 821
3 789 821 820
3 820 821 852
3 820 852 851
3 851 852 883
3 851 883 882
3 882 883 914
3 882 914 913
3 15 16 47
3 15 47 46
3 46 47 78
3 46 78 77
3 77 78 109
3 77 109 108
3 108 109 140
3 108 140 139
3 139 140 171
3 139 171 170
3 170 171 202
3 170 202 201
3 201 202 233
3 201 233 232
3 232 233 264
3 232 264 263
3 263 264 295
3 263 295 294
3 294 295 326
3 294 326 325
3 325 326 357
3 325 357 356
3 356 357 388
3 356 388 387
3 387 388 419
3 387 419 418
3 418 419 450
3 418 450 449
3 449 450 481
3 449 481 480
3 480 481 512
3 480 512 511
3 511 512 543
3 511 543 542
3 542 543 574
3 542 574 573
3 573 574 605
3 573 605 604
3 604 605 636
3 604 636 635
3 635 636 667
3 635 667 666
3 666 667 698
3 666 698 697
3 697 698 729
3 697 729 728
3 728 729 760
3 728 760 759
3 759 760 791
3 759 791 790
3 790 791 822
3 790 822 821
3 821 822 853
3 821 853 852
3 852 853 884
3 852 884 883
3 883 884 915
3 883 915 914
3 16 17 48
3 16 48 47
3 47 48 79
3 47 79 78
3 78 79 110
3 78 110 109
3 109 110 141
3 109 141 140
3 140 141 172
3 140 172 171
3 171 172 203
3 171 203 202
3 202 203 234
3 202 234 233
3 233 234 265
3 233 265 264
3 264 265 296
3 264 296 295
3 295 296 327
3 295 327 326
3 326 327 358
3 326 358 357
3 357 358 389
3 357 389 388
3 388 389 420
3 388 420 419
3 419 420 451
3 419 451 450
3 450 451 482
3 450 482 481
3 481 482 513
3 481 513 512
3 512 513 544
3 512 544 543
3 543 544 575
3 543 575 574
3 574 575 606
3 574 606 605
3 605 606 637
3 605 637 636
3 636 637 668
3 636 668 667
3 667 668 699
3 667 699 698
3 698 699 730
3 698 730 729
3 729 730 761
3 729 761 760
3 760 761 792
3 760 792 791
3 791 792 823
3 791 823 822
3 822 823 854
3 822 854 853
3 853 854 885
3 853 885 884
3 884 885 916
3 884 916 915
3 17 18 49
3 17 49 48
3 48 49 80
3 48 80 79
3 79 80 111
3 79 111 110
3 110 111 142
3 110 142 141
3 141 142 173
3 141 173 172
3 172 173 204
3 172 204 203
3 203 204 235
3 203 235 234
3 234 235 266
3 234 266 265
3 265 266 297
3 265 297 296
3 296 297 328
3 296 328 327
3 327 328 359
3 327 359 358
3 358 359 390
3 358 390 389
3 389 390 421
3 389 421 420
3 420 421 452
3 420 452 451
3 451 452 483
3 451 483 482
3 482 483 514
3 482 514 513
3 513 514 545
3 513 545 544
3 544 545 576
3 544 576 575
3 575 576 607
3 575 607 606
3 606 607 638
3 606 638 637
3 637 638 669
3 637 669 668
3 668 669 700
3 668 700 699
3 699 700 731
3 699 731 730
3 730 731 762
3 730 762 761
3 761 762 793
3 761 793 792
3 792 793 824
3 792 824 823
3 823 824 855
3 823 855 854
3 854 855 886
3 854 886 885
3 885 886 917
3 885 917 916
3 18 19 50
3 18 50 49
3 49 50 81
3 49 81 80
3 80 81 112
3 80 112 111
3 111 112 143
3 111 143 142
3 142 143 174
3 142 174 173
3 173 174 205
3 173 205 204
3 204 205 236
3 204 236 235
3 235 236 267
3 235 267 266
3 266 267 298
3 266 298 297
3 297 298 329
3 297 329 328
3 328 329 360
3 328 360 359
3 359 360 391
3 359 391 390
3 390 391 422
3 390 422 421
3 421 422 453
3 421 453 452
3 452 453 484
3 452 484 483
3 483 484 515
3 483 515 514
3 514 515 546
3 514 546 545
3 545 546 577
3 545 577 576
3 576 577 608
3 576 608 607
3 607 608 639
3 607 639 638
3 638 639 670
3 638 670 669
3 669 670 701
3 669 701 700
3 700 701 732
3 700 732 731
3 731 732 763
3 731 763 762
3 762 763 794
3 762 794 793
3 793 794 825
3 793 825 824
3 824 825 856
3 824 856 855
3 855 856 887
3 855 887 886
3 886 887 918
3 886 918 917
3 19 20 51
3 19 51 50
3 50 51 82
3 50 82 81
3 81 82 113
3 81 113 112
3 112 113 144
3 112 144 143
3 143 144 175
3 143 175 174
3 174 175 206
3 174 206 205
3 205 206 237
3 205 237 236
3 236 237 268
3 236 268 267
3 267 268 299
3 267 299 298
3 298 299 330
3 298 330 329
3 329 330 361
3 329 361 360
3 360 361 392
3 360 392 391
3 391 392 423
3 391 423 422
3 422 423 454
3 422 454 453
3 453 454 485
3 453 485 484
3 484 485 516
3 484 516 515
3 515 516 547
3 515 547 546
3 546 547 578
3 546 578 577
3 577 578 609
3 577 609 608
3 608 609 640
3 608 640 639
3 639 640 671
3 639 671 670
3 670 671 702
3 670 702 701
3 701 702 733
3 701 733 732
3 732 733 764
3 732 764 763
3 763 764 795
3 763 795 794
3 794 795 826
3 794 826 825
3 825 826 857
3 825 857 856
3 856 857 888
3 856 888 887
3 887 888 919
3 887 919 918
3 20 21 52
3 20 52 51
3 51 52 83
3 51 83 82
3 82 83 114
3 82 114 113
3 113 114 145
3 113 145 144
3 144 145 176
3 144 176 175
3 175 176 207
3 175 207 206
3 206 207 238
3 206 238 237
3 237 238 269
3 237 269 268
3 268 269 300
3 268 300 299
3 299 300 331
3 299 331 330
3 330 331 362
3 330 362 361
3 361 362 393
3 361 393 392
3 392 393 424
3 392 424 423
3 423 424 455
3 423 455 454
3 454 455 486
3 454 486 485
3 485 486 517
3 485 517 516
3 516 517 548
3 516 548 547
3 547 548 579
3 547 579 578
3 578 579 610
3 578 610 609
3 609 610 641
3 609 641 640
3 640 641 672
3 640 672 671
3 671 672 703
3 671 703 702
3 702 703 734
3 702 734 733
3 733 734 765
3 733 765 764
3 764 765 796
3 764 796 795
3 795 796 827
3 795 827 826
3 826 827 858
3 826 858 857
3 857 858 889
3 857 889 888
3 888 889 920
3 888 920 919
3 21 22 53
3 21 53 52
3 52 53 84
3 52 84 83
3 83 84 115
3 83 115 114
3 114 115 146
3 114 146 145
3 145 146 177
3 145 177 176
3 176 177 208
3 176 208 207
3 207 208 239
3 207 239 238
3 238 239 270
3 238 270 269
3 269 270 301
3 269 301 300
3 300 301 332
3 300 332 331
3 331 332 363
3 331 363 362
3 362 363 394
3 362 394 393
3 393 394 425
3 393 425 424
3 424 425 456
3 424 456 455
3 455 456 487
3 455 487 486
3 486 487 518
3 486 518 517
3 517 518 549
3 517 549 548
3 548 549 580
3 548 580 579
3 579 580 611
3 579 611 610
3 610 611 642
3 610 642 641
3 641 642 673
3 641 673 672
3 672 673 704
3 672 704 703
3 703 704 735
3 703 735 734
3 734 735 766
3 734 766 765
3 765 766 797
3 765 797 796
3 796 797 828
3 796 828 827
3 827 828 859
3 827 859 858
3 858 859 890
3 858 890 889
3 889 890 921
3 889 921 920
3 22 23 54
3 22 54 53
3 53 54 85
3 53 85 84
3 84 85 116
3 84 116 115
3 115 116 147
3 115 147 146
3 146 147 178
3 146 178 177
3 177 178 209
3 177 209 208
3 208 209 240
3 208 240 239
3 239 240 271
3 239 271 270
3 270 271 302
3 270 302 301
3 301 302 333
3 301 333 332
3 332 333 364
3 332 364 363
3 363 364 395
3 363 395 394
3 394 395 426
3 394 426 425
3 425 426 457
3 425 457 456
3 456 457 488
3 456 488 487
3 487 488 519
3 487 519 518
3 518 519 550
3 518 550 549
3 549 550 581
3 549 581 580
3 580 581 612
3 580 612 611
3 611 612 643
3 611 643 642
3 642 643 674
3 642 674 673
3 673 674 705
3 673 705 704
3 704 705 736
3 704 736 735
3 735 736 767
3 735 767 766
3 766 767 798
3 766 798 797
3 797 798 829
3 797 829 828
3 828 829 860
3 828 860 859
3 859 860 891
3 859 891 890
3 890 891 922
3 890 922 921
3 23 24 55
3 23 55 54
3 54 55 86
3 54 86 85
3 85 86 117
3 85 117 116
3 116 117 148
3 116 148 147
3 147 148 179
3 147 179 178
3 178 179 210
3 178 210 209
3 209 210 241
3 209 241 240
3 240 241 272
3 240 272 271
3 271 272 303
3 271 303 302
3 302 303 334
3 302 334 333
3 333 334 365
3 333 365 364
3 364 365 396
3 364 396 395
3 395 396 427
3 395 427 426
3 426 427 458
3 426 458 457
3 457 458 489
3 457 489 488
3 488 489 520
3 488 520 519
3 519 520 551
3 519 551 550
3 550 551 582
3 550 582 581
3 581 582 613
3 581 613 612
3 612 613 644
3 612 644 643
3 643 644 675
3 643 675 674
3 674 675 706
3 674 706 705
3 705 706 737
3 705 737 736
3 736 737 768
3 736 768 767
3 767 768 799
3 767 799 798
3 798 799 830
3 798 830 829
3 829 830 861
3 829 861 860
3 860 861 892
3 860 892 891
3 891 892 923
3 891 923 922
3 24 25 56
3 24 56 55
3 55 56 87
3 55 87 86
3 86 87 118
3 86 118 117
3 117 118 149
3 117 149 148
3 148 149 180
3 148 180 179
3 179 180 211
3 179 211 210
3 210 211 242
3 210 242 241
3 241 242 273
3 241 273 272
3 272 273 304
3 272 304 303
3 303 304 335
3 303 335 334
3 334 335 366
3 334 366 365
3 365 366 397
3 365 397 396
3 396 397 428
3 396 428 427
3 427 428 459
3 427 459 458
3 458 459 490
3 458 490 489
3 489 490 521
3 489 521 520
3 520 521 552
3 520 552 551
3 551 552 583
3 551 583 582
3 582 583 614
3 582 614 613
3 613 614 645
3 613 645 644
3 644 645 676
3 644 676 675
3 675 676 707
3 675 707 706
3 706 707 738
3 706 738 737
3 737 738 769
3 737 769 768
3 768 769 800
3 768 800 799
3 799 800 831
3 799 831 830
3 830 831 862
3 830 862 861
3 861 862 893
3 861 893 892
3 892 893 924
3 892 924 923
3 25 26 57
3 25 57 56
3 56 57 88
3 56 88 87
3 87 88 119
3 87 119 118
3 118 119 150
3 118 150 149
3 149 150 181
3 149 181 180
3 180 181 212
3 180 212 211
3 211 212 243
3 211 243 242
3 242 243 274
3 242 274 273
3 273 274 305
3 273 305 304
3 304 305 336
3 304 336 335
3 335 336 367
3 335 367 366
3 366 367 398
3 366 398 397
3 397 398 429
3 397 429 428
3 428 429 460
3 428 460 459
3 459 460 491
3 459 491 490
3 490 491 522
3 490 522 521
3 521 522 553
3 521 553 552
3 552 553 584
3 552 584 583
3 583 584 615
3 583 615 614
3 614 615 646
3 614 646 645
3 645 646 677
3 645 677 676
3 676 677 708
3 676 708 707
3 707 708 739
3 707 739 738
3 738 739 770
3 738 770 769
3 769 770 801
3 769 801 800
3 800 801 832
3 800 832 831
3 831 832 863
3 831 863 862
3 862 863 894
3 862 894 893
3 893 894 925
3 893 925 924
3 26 27 58
3 26 58 57
3 57 58 89
3 57 89 88
3 88 89 120
3 88 120 119
3 119 120 151
3 119 151 150
3 150 151 182
3 150 182 181
3 181 182 213
3 181 213 212
3 212 213 244
3 212 244 243
3 243 244 275
3 243 275 274
3 274 275 306
3 274 306 305
3 305 306 337
3 305 337 336
3 336 337 368
3 336 368 367
3 367 368 399
3 367 399 398
3 398 399 430
3 398 430 429
3 429 430 461
3 429 461 460
3 460 461 492
3 460 492 491
3 491 492 523
3 491 523 522
3 522 523 554
3 522 554 553
3 553 554 585
3 553 585 584
3 584 585 616
3 584 616 615
3 615 616 647
3 615 647 646
3 646 647 678
3 646 678 677
3 677 678 709
3 677 709 708
3 708 709 740
3 708 740 739
3 739 740 771
3 739 771 770
3 770 771 802
3 770 802 801
3 801 802 833
3 801 833 832
3 832 833 864
3 832 864 863
3 863 864 895
3 863 895 894
3 894 895 926
3 894 926 925
3 27 28 59
3 27 59 58
3 58 59 90
3 58 90 89
3 89 90 121
3 89 121 120
3 120 121 152
3 120 152 151
3 151 152 183
3 151 183 182
3 182 183 214
3 182 214 213
3 213 214 245
3 213 245 244
3 244 245 276
3 244 276 275
3 275 276 307
3 275 307 306
3 306 307 338
3 306 338 337
3 337 338 369
3 337 369 368
3 368 369 400
3 368 400 399
3 399 400 431
3 399 431 430
3 430 431 462
3 430 462 461
3 461 462 493
3 461 493 492
3 492 493 524
3 492 524 523
3 523 524 555
3 523 555 554
3 554 555 586
3 554 586 585
3 585 586 617
3 585 617 616
3 616 617 648
3 616 648 647
3 647 648 679
3 647 679 678
3 678 679 710
3 678 710 709
3 709 710 741
3 709 741 740
3 740 741 772
3 740 772 771
3 771 772 803
3 771 803 802
3 802 803 834
3 802 834 833
3 833 834 865
3 833 865 864
3 864 865 896
3 864 896 895
3 895 896 927
3 895 927 926
3 28 29 60
3 28 60 59
3 59 60 91
3 59 91 90
3 90 91 122
3 90 122 121
3 121 122 153
3 121 153 152
3 152 153 184
3 152 184 183
3 183 184 215
3 183 215 214
3 214 215 246
3 214 246 245
3 245 246 277
3 245 277 276
3 276 277 308
3 276 308 307
3 307 308 339
3 307 339 338
3 338 339 370
3 338 370 369
3 369 370 401
3 369 401 400
3 400 401 432
3 400 432 431
3 431 432 463
3 431 463 462
3 462 463 494
3 462 494 493
3 493 494 525
3 493 525 524
3 524 525 556
3 524 556 555
3 555 556 587
3 555 587 586
3 586 587 618
3 586 618 617
3 617 618 649
3 617 649 648
3 648 649 680
3 648 680 679
3 679 680 711
3 679 711 710
3 710 711 742
3 710 742 741
3 741 742 773
3 741 773 772
3 772 773 804
3 772 804 803
3 803 804 835
3 803 835 834
3 834 835 866
3 834 866 865
3 865 866 897
3 865 897 896
3 896 897 928
3 896 928 927
3 29 30 61
3 29 61 60
3 60 61 92
3 60 92 91
3 91 92 123
3 91 123 122
3 122 123 154
3 122 154 153
3 153 154 185
3 153 185 184
3 184 185 216
3 184 216 215
3 215 216 247
3 215 247 246
3 246 247 278
3 246 278 277
3 277 278 309
3 277 309 308
3 308 309 340
3 308 340 339
3 339 340 371
3 339 371 370
3 370 371 402
3 370 402 401
3 401 402 433
3 401 433 432
3 432 433 464
3 432 464 463
3 463 464 495
3 463 495 494
3 494 495 526
3 494 526 525
3 525 526 557
3 525 557 556
3 556 557 588
3 556 588 587
3 587 588 619
3 587 619 618
3 618 619 650
3 618 650 649
3 649 650 681
3 649 681 680
3 680 681 712
3 680 712 711
3 711 712 743
3 711 743 742
3 742 743 774
3 742 774 773
3 773 774 805
3 773 805 804
3 804 805 836
3 804 836 835
3 835 836 867
3 835 867 866
3 866 867 898
3 866 898 897
3 897 898 929
3 897 929 928
