ply
format ascii 1.0
comment Created by Open3D
element vertex 906
property double x
property double y
property double z
element face 1717
property list uchar uint vertex_indices
end_header
1 0.1 1
0.97 0.1 1
0.94 0.1 1
0.91 0.1 1
0.88 0.1 1
0.85 0.1 1
0.82 0.1 1
0.79 0.1 1
0.76 0.1 1
0.73 0.1 1
0.7 0.1 1
0.67 0.1 1
0.64 0.1 1
0.61 0.1 1
0.58 0.1 1
0.55 0.1 1
0.52 0.1 1
0.49 0.1 1
0.46 0.1 1
0.43 0.1 1
0.4 0.1 1
0.37 0.1 1
0.34 0.1 1
0.31 0.1 1
0.28 0.1 1
0.25 0.1 1
0.22 0.1 1
0.19 0.1 1
0.16 0.1 1
0.13 0.1 1
0.1 0.1 1
1 0.0833333 1
0.97 0.0844658 1
0.94 0.0855983 1
0.91 0.0867308 1
0.88 0.0878632 1
0.85 0.0889957 1
0.82 0.0901282 1
0.79 0.0912607 1
0.76 0.0923932 1
0.73 0.0935256 1
0.7 0.0946581 1
0.67 0.0957906 1
0.64 0.0969231 1
0.61 0.0980556 1
0.58 0.099188 1
0.55 0.100321 1
0.52 0.101453 1
0.49 0.102585 1
0.46 0.103718 1
0.43 0.10485 1
0.4 0.105983 1
0.37 0.107115 1
0.34 0.108248 1
0.31 0.10938 1
0.28 0.110513 1
0.25 0.111645 1
0.22 0.112778 1
0.19 0.11391 1
0.16 0.115043 1
0.13 0.116175 1
0.1 0.117308 1
0.97 0.0856197 1
0.94 0.087906 1
0.91 0.0901923 1
0.88 0.0924786 1
0.85 0.094765 1
0.82 0.0970513 1
0.79 0.0993376 1
0.76 0.101624 1
0.73 0.10391 1
0.7 0.106197 1
0.67 0.108483 1
0.64 0.110769 1
0.61 0.113056 1
0.58 0.115342 1
0.55 0.117628 1
0.52 0.119915 1
0.49 0.122201 1
0.46 0.124487 1
0.43 0.126774 1
0.4 0.12906 1
0.37 0.131346 1
0.34 0.133632 1
0.31 0.135919 1
0.28 0.138205 1
0.25 0.140491 1
0.22 0.142778 1
0.19 0.145064 1
0.16 0.14735 1
0.13 0.149637 1
0.1 0.151923 1
0.97 0.0867735 1
0.94 0.0902137 1
0.91 0.0936538 1
0.88 0.097094 1
0.85 0.100534 1
0.82 0.103974 1
0.79 0.107415 1
0.76 0.110855 1
0.73 0.114295 1
0.7 0.117735 1
0.67 0.121175 1
0.64 0.124615 1
0.61 0.128056 1
0.58 0.131496 1
0.55 0.134936 1
0.52 0.138376 1
0.49 0.141816 1
0.46 0.145256 1
0.43 0.148697 1
0.4 0.152137 1
0.37 0.155577 1
0.34 0.159017 1
0.31 0.162457 1
0.28 0.165897 1
0.25 0.169338 1
0.22 0.172778 1
0.19 0.176218 1
0.16 0.179658 1
0.13 0.183098 1
0.1 0.186538 1
0.97 0.0879274 1
0.94 0.0925214 1
0.91 0.0971154 1
0.88 0.101709 1
0.85 0.106303 1
0.82 0.110897 1
0.79 0.115491 1
0.76 0.120085 1
0.73 0.124679 1
0.7 0.129274 1
0.67 0.133868 1
0.64 0.138462 1
0.61 0.143056 1
0.58 0.14765 1
0.55 0.152244 1
0.52 0.156838 1
0.49 0.161432 1
0.46 0.166026 1
0.43 0.17062 1
0.4 0.175214 1
0.37 0.179808 1
0.34 0.184402 1
0.31 0.188996 1
0.28 0.19359 1
0.25 0.198184 1
0.22 0.202778 1
0.19 0.207372 1
0.16 0.211966 1
0.13 0.21656 1
0.1 0.221154 1
1 0.0666667 1
0.97 0.0723932 1
0.94 0.0781197 1
0.91 0.0838462 1
0.88 0.0895726 1
0.85 0.0952991 1
0.82 0.101026 1
0.79 0.106752 1
0.76 0.112479 1
0.73 0.118205 1
0.7 0.123932 1
0.67 0.129658 1
0.64 0.135385 1
0.61 0.141111 1
0.58 0.146838 1
0.55 0.152564 1
0.52 0.158291 1
0.49 0.164017 1
0.46 0.169744 1
0.43 0.17547 1
0.4 0.181197 1
0.37 0.186923 1
0.34 0.19265 1
0.31 0.198376 1
0.28 0.204103 1
0.25 0.209829 1
0.22 0.215556 1
0.19 0.221282 1
0.16 0.227009 1
0.13 0.232735 1
0.1 0.238462 1
0.97 0.073547 1
0.94 0.0804274 1
0.91 0.0873077 1
0.88 0.094188 1
0.85 0.101068 1
0.82 0.107949 1
0.79 0.114829 1
0.76 0.121709 1
0.73 0.12859 1
0.7 0.13547 1
0.67 0.14235 1
0.64 0.149231 1
0.61 0.156111 1
0.58 0.162991 1
0.55 0.169872 1
0.52 0.176752 1
0.49 0.183632 1
0.46 0.190513 1
0.43 0.197393 1
0.4 0.204274 1
0.37 0.211154 1
0.34 0.218034 1
0.31 0.224915 1
0.28 0.231795 1
0.25 0.238675 1
0.22 0.245556 1
0.19 0.252436 1
0.16 0.259316 1
0.13 0.266197 1
0.1 0.273077 1
0.97 0.0747009 1
0.94 0.082735 1
0.91 0.0907692 1
0.88 0.0988034 1
0.85 0.106838 1
0.82 0.114872 1
0.79 0.122906 1
0.76 0.13094 1
0.73 0.138974 1
0.7 0.147009 1
0.67 0.155043 1
0.64 0.163077 1
0.61 0.171111 1
0.58 0.179145 1
0.55 0.187179 1
0.52 0.195214 1
0.49 0.203248 1
0.46 0.211282 1
0.43 0.219316 1
0.4 0.22735 1
0.37 0.235385 1
0.34 0.243419 1
0.31 0.251453 1
0.28 0.259487 1
0.25 0.267521 1
0.22 0.275556 1
0.19 0.28359 1
0.16 0.291624 1
0.13 0.299658 1
0.1 0.307692 1
0.97 0.0758547 1
0.94 0.0850427 1
0.91 0.0942308 1
0.88 0.103419 1
0.85 0.112607 1
0.82 0.121795 1
0.79 0.130983 1
0.76 0.140171 1
0.73 0.149359 1
0.7 0.158547 1
0.67 0.167735 1
0.64 0.176923 1
0.61 0.186111 1
0.58 0.195299 1
0.55 0.204487 1
0.52 0.213675 1
0.49 0.222863 1
0.46 0.232051 1
0.43 0.241239 1
0.4 0.250427 1
0.37 0.259615 1
0.34 0.268803 1
0.31 0.277991 1
0.28 0.287179 1
0.25 0.296368 1
0.22 0.305556 1
0.19 0.314744 1
0.16 0.323932 1
0.13 0.33312 1
0.1 0.342308 1
0.97 0.0770085 1
0.94 0.0873504 1
0.91 0.0976923 1
0.88 0.108034 1
0.85 0.118376 1
0.82 0.128718 1
0.79 0.13906 1
0.76 0.149402 1
0.73 0.159744 1
0.7 0.170085 1
0.67 0.180427 1
0.64 0.190769 1
0.61 0.201111 1
0.58 0.211453 1
0.55 0.221795 1
0.52 0.232137 1
0.49 0.242479 1
0.46 0.252821 1
0.43 0.263162 1
0.4 0.273504 1
0.37 0.283846 1
0.34 0.294188 1
0.31 0.30453 1
0.28 0.314872 1
0.25 0.325214 1
0.22 0.335556 1
0.19 0.345897 1
0.16 0.356239 1
0.13 0.366581 1
0.1 0.376923 1
1 0.05 1
0.97 0.0614744 1
0.94 0.0729487 1
0.91 0.0844231 1
0.88 0.0958974 1
0.85 0.107372 1
0.82 0.118846 1
0.79 0.130321 1
0.76 0.141795 1
0.73 0.153269 1
0.7 0.164744 1
0.67 0.176218 1
0.64 0.187692 1
0.61 0.199167 1
0.58 0.210641 1
0.55 0.222115 1
0.52 0.23359 1
0.49 0.245064 1
0.46 0.256538 1
0.43 0.268013 1
0.4 0.279487 1
0.37 0.290962 1
0.34 0.302436 1
0.31 0.31391 1
0.28 0.325385 1
0.25 0.336859 1
0.22 0.348333 1
0.19 0.359808 1
0.16 0.371282 1
0.13 0.382756 1
0.1 0.394231 1
0.97 0.0626282 1
0.94 0.0752564 1
0.91 0.0878846 1
0.88 0.100513 1
0.85 0.113141 1
0.82 0.125769 1
0.79 0.138397 1
0.76 0.151026 1
0.73 0.163654 1
0.7 0.176282 1
0.67 0.18891 1
0.64 0.201538 1
0.61 0.214167 1
0.58 0.226795 1
0.55 0.239423 1
0.52 0.252051 1
0.49 0.264679 1
0.46 0.277308 1
0.43 0.289936 1
0.4 0.302564 1
0.37 0.315192 1
0.34 0.327821 1
0.31 0.340449 1
0.28 0.353077 1
0.25 0.365705 1
0.22 0.378333 1
0.19 0.390962 1
0.16 0.40359 1
0.13 0.416218 1
0.1 0.428846 1
0.97 0.0637821 1
0.94 0.0775641 1
0.91 0.0913462 1
0.88 0.105128 1
0.85 0.11891 1
0.82 0.132692 1
0.79 0.146474 1
0.76 0.160256 1
0.73 0.174038 1
0.7 0.187821 1
0.67 0.201603 1
0.64 0.215385 1
0.61 0.229167 1
0.58 0.242949 1
0.55 0.256731 1
0.52 0.270513 1
0.49 0.284295 1
0.46 0.298077 1
0.43 0.311859 1
0.4 0.325641 1
0.37 0.339423 1
0.34 0.353205 1
0.31 0.366987 1
0.28 0.380769 1
0.25 0.394551 1
0.22 0.408333 1
0.19 0.422115 1
0.16 0.435897 1
0.13 0.449679 1
0.1 0.463462 1
0.97 0.0649359 1
0.94 0.0798718 1
0.91 0.0948077 1
0.88 0.109744 1
0.85 0.124679 1
0.82 0.139615 1
0.79 0.154551 1
0.76 0.169487 1
0.73 0.184423 1
0.7 0.199359 1
0.67 0.214295 1
0.64 0.229231 1
0.61 0.244167 1
0.58 0.259103 1
0.55 0.274038 1
0.52 0.288974 1
0.49 0.30391 1
0.46 0.318846 1
0.43 0.333782 1
0.4 0.348718 1
0.37 0.363654 1
0.34 0.37859 1
0.31 0.393526 1
0.28 0.408462 1
0.25 0.423397 1
0.22 0.438333 1
0.19 0.453269 1
0.16 0.468205 1
0.13 0.483141 1
0.1 0.498077 1
0.97 0.0660897 1
0.94 0.0821795 1
0.91 0.0982692 1
0.88 0.114359 1
0.85 0.130449 1
0.82 0.146538 1
0.79 0.162628 1
0.76 0.178718 1
0.73 0.194808 1
0.7 0.210897 1
0.67 0.226987 1
0.64 0.243077 1
0.61 0.259167 1
0.58 0.275256 1
0.55 0.291346 1
0.52 0.307436 1
0.49 0.323526 1
0.46 0.339615 1
0.43 0.355705 1
0.4 0.371795 1
0.37 0.387885 1
0.34 0.403974 1
0.31 0.420064 1
0.28 0.436154 1
0.25 0.452244 1
0.22 0.468333 1
0.19 0.484423 1
0.16 0.500513 1
0.13 0.516603 1
0.1 0.532692 1
1 0.0333333 1
0.97 0.0505556 1
0.94 0.0677778 1
0.91 0.085 1
0.88 0.102222 1
0.85 0.119444 1
0.82 0.136667 1
0.79 0.153889 1
0.76 0.171111 1
0.73 0.188333 1
0.7 0.205556 1
0.67 0.222778 1
0.64 0.24 1
0.61 0.257222 1
0.58 0.274444 1
0.55 0.291667 1
0.52 0.308889 1
0.49 0.326111 1
0.46 0.343333 1
0.43 0.360556 1
0.4 0.377778 1
0.37 0.395 1
0.34 0.412222 1
0.31 0.429444 1
0.28 0.446667 1
0.25 0.463889 1
0.22 0.481111 1
0.19 0.498333 1
0.16 0.515556 1
0.13 0.532778 1
0.1 0.55 1
0.97 0.0517094 1
0.94 0.0700855 1
0.91 0.0884615 1
0.88 0.106838 1
0.85 0.125214 1
0.82 0.14359 1
0.79 0.161966 1
0.76 0.180342 1
0.73 0.198718 1
0.7 0.217094 1
0.67 0.23547 1
0.64 0.253846 1
0.61 0.272222 1
0.58 0.290598 1
0.55 0.308974 1
0.52 0.32735 1
0.49 0.345726 1
0.46 0.364103 1
0.43 0.382479 1
0.4 0.400855 1
0.37 0.419231 1
0.34 0.437607 1
0.31 0.455983 1
0.28 0.474359 1
0.25 0.492735 1
0.22 0.511111 1
0.19 0.529487 1
0.16 0.547863 1
0.13 0.566239 1
0.1 0.584615 1
0.97 0.0528632 1
0.94 0.0723932 1
0.91 0.0919231 1
0.88 0.111453 1
0.85 0.130983 1
0.82 0.150513 1
0.79 0.170043 1
0.76 0.189573 1
0.73 0.209103 1
0.7 0.228632 1
0.67 0.248162 1
0.64 0.267692 1
0.61 0.287222 1
0.58 0.306752 1
0.55 0.326282 1
0.52 0.345812 1
0.49 0.365342 1
0.46 0.384872 1
0.43 0.404402 1
0.4 0.423932 1
0.37 0.443462 1
0.34 0.462991 1
0.31 0.482521 1
0.28 0.502051 1
0.25 0.521581 1
0.22 0.541111 1
0.19 0.560641 1
0.16 0.580171 1
0.13 0.599701 1
0.1 0.619231 1
0.97 0.0540171 1
0.94 0.0747009 1
0.91 0.0953846 1
0.88 0.116068 1
0.85 0.136752 1
0.82 0.157436 1
0.79 0.17812 1
0.76 0.198803 1
0.73 0.219487 1
0.7 0.240171 1
0.67 0.260855 1
0.64 0.281538 1
0.61 0.302222 1
0.58 0.322906 1
0.55 0.34359 1
0.52 0.364274 1
0.49 0.384957 1
0.46 0.405641 1
0.43 0.426325 1
0.4 0.447009 1
0.37 0.467692 1
0.34 0.488376 1
0.31 0.50906 1
0.28 0.529744 1
0.25 0.550427 1
0.22 0.571111 1
0.19 0.591795 1
0.16 0.612479 1
0.13 0.633162 1
0.1 0.653846 1
0.97 0.0551709 1
0.94 0.0770085 1
0.91 0.0988462 1
0.88 0.120684 1
0.85 0.142521 1
0.82 0.164359 1
0.79 0.186197 1
0.76 0.208034 1
0.73 0.229872 1
0.7 0.251709 1
0.67 0.273547 1
0.64 0.295385 1
0.61 0.317222 1
0.58 0.33906 1
0.55 0.360897 1
0.52 0.382735 1
0.49 0.404573 1
0.46 0.42641 1
0.43 0.448248 1
0.4 0.470085 1
0.37 0.491923 1
0.34 0.513761 1
0.31 0.535598 1
0.28 0.557436 1
0.25 0.579274 1
0.22 0.601111 1
0.19 0.622949 1
0.16 0.644786 1
0.13 0.666624 1
0.1 0.688462 1
1 0.0166667 1
0.97 0.0396368 1
0.94 0.0626068 1
0.91 0.0855769 1
0.88 0.108547 1
0.85 0.131517 1
0.82 0.154487 1
0.79 0.177457 1
0.76 0.200427 1
0.73 0.223397 1
0.7 0.246368 1
0.67 0.269338 1
0.64 0.292308 1
0.61 0.315278 1
0.58 0.338248 1
0.55 0.361218 1
0.52 0.384188 1
0.49 0.407158 1
0.46 0.430128 1
0.43 0.453098 1
0.4 0.476068 1
0.37 0.499038 1
0.34 0.522009 1
0.31 0.544979 1
0.28 0.567949 1
0.25 0.590919 1
0.22 0.613889 1
0.19 0.636859 1
0.16 0.659829 1
0.13 0.682799 1
0.1 0.705769 1
0.97 0.0407906 1
0.94 0.0649145 1
0.91 0.0890385 1
0.88 0.113162 1
0.85 0.137286 1
0.82 0.16141 1
0.79 0.185534 1
0.76 0.209658 1
0.73 0.233782 1
0.7 0.257906 1
0.67 0.28203 1
0.64 0.306154 1
0.61 0.330278 1
0.58 0.354402 1
0.55 0.378526 1
0.52 0.40265 1
0.49 0.426774 1
0.46 0.450897 1
0.43 0.475021 1
0.4 0.499145 1
0.37 0.523269 1
0.34 0.547393 1
0.31 0.571517 1
0.28 0.595641 1
0.25 0.619765 1
0.22 0.643889 1
0.19 0.668013 1
0.16 0.692137 1
0.13 0.716261 1
0.1 0.740385 1
0.97 0.0419444 1
0.94 0.0672222 1
0.91 0.0925 1
0.88 0.117778 1
0.85 0.143056 1
0.82 0.168333 1
0.79 0.193611 1
0.76 0.218889 1
0.73 0.244167 1
0.7 0.269444 1
0.67 0.294722 1
0.64 0.32 1
0.61 0.345278 1
0.58 0.370556 1
0.55 0.395833 1
0.52 0.421111 1
0.49 0.446389 1
0.46 0.471667 1
0.43 0.496944 1
0.4 0.522222 1
0.37 0.5475 1
0.34 0.572778 1
0.31 0.598056 1
0.28 0.623333 1
0.25 0.648611 1
0.22 0.673889 1
0.19 0.699167 1
0.16 0.724444 1
0.13 0.749722 1
0.1 0.775 1
0.97 0.0430983 1
0.94 0.0695299 1
0.91 0.0959615 1
0.88 0.122393 1
0.85 0.148825 1
0.82 0.175256 1
0.79 0.201688 1
0.76 0.22812 1
0.73 0.254551 1
0.7 0.280983 1
0.67 0.307415 1
0.64 0.333846 1
0.61 0.360278 1
0.58 0.386709 1
0.55 0.413141 1
0.52 0.439573 1
0.49 0.466004 1
0.46 0.492436 1
0.43 0.518868 1
0.4 0.545299 1
0.37 0.571731 1
0.34 0.598162 1
0.31 0.624594 1
0.28 0.651026 1
0.25 0.677457 1
0.22 0.703889 1
0.19 0.730321 1
0.16 0.756752 1
0.13 0.783184 1
0.1 0.809615 1
0.97 0.0442521 1
0.94 0.0718376 1
0.91 0.0994231 1
0.88 0.127009 1
0.85 0.154594 1
0.82 0.182179 1
0.79 0.209765 1
0.76 0.23735 1
0.73 0.264936 1
0.7 0.292521 1
0.67 0.320107 1
0.64 0.347692 1
0.61 0.375278 1
0.58 0.402863 1
0.55 0.430449 1
0.52 0.458034 1
0.49 0.48562 1
0.46 0.513205 1
0.43 0.540791 1
0.4 0.568376 1
0.37 0.595962 1
0.34 0.623547 1
0.31 0.651132 1
0.28 0.678718 1
0.25 0.706303 1
0.22 0.733889 1
0.19 0.761474 1
0.16 0.78906 1
0.13 0.816645 1
0.1 0.844231 1
1 5.55112e-17 1
0.97 0.0287179 1
0.94 0.0574359 1
0.91 0.0861538 1
0.88 0.114872 1
0.85 0.14359 1
0.82 0.172308 1
0.79 0.201026 1
0.76 0.229744 1
0.73 0.258462 1
0.7 0.287179 1
0.67 0.315897 1
0.64 0.344615 1
0.61 0.373333 1
0.58 0.402051 1
0.55 0.430769 1
0.52 0.459487 1
0.49 0.488205 1
0.46 0.516923 1
0.43 0.545641 1
0.4 0.574359 1
0.37 0.603077 1
0.34 0.631795 1
0.31 0.660513 1
0.28 0.689231 1
0.25 0.717949 1
0.22 0.746667 1
0.19 0.775385 1
0.16 0.804103 1
0.13 0.832821 1
0.1 0.861538 1
0.97 0.0298718 1
0.94 0.0597436 1
0.91 0.0896154 1
0.88 0.119487 1
0.85 0.149359 1
0.82 0.179231 1
0.79 0.209103 1
0.76 0.238974 1
0.73 0.268846 1
0.7 0.298718 1
0.67 0.32859 1
0.64 0.358462 1
0.61 0.388333 1
0.58 0.418205 1
0.55 0.448077 1
0.52 0.477949 1
0.49 0.507821 1
0.46 0.537692 1
0.43 0.567564 1
0.4 0.597436 1
0.37 0.627308 1
0.34 0.657179 1
0.31 0.687051 1
0.28 0.716923 1
0.25 0.746795 1
0.22 0.776667 1
0.19 0.806538 1
0.16 0.83641 1
0.13 0.866282 1
0.1 0.896154 1
0.97 0.0310256 1
0.94 0.0620513 1
0.91 0.0930769 1
0.88 0.124103 1
0.85 0.155128 1
0.82 0.186154 1
0.79 0.217179 1
0.76 0.248205 1
0.73 0.279231 1
0.7 0.310256 1
0.67 0.341282 1
0.64 0.372308 1
0.61 0.403333 1
0.58 0.434359 1
0.55 0.465385 1
0.52 0.49641 1
0.49 0.527436 1
0.46 0.558462 1
0.43 0.589487 1
0.4 0.620513 1
0.37 0.651538 1
0.34 0.682564 1
0.31 0.71359 1
0.28 0.744615 1
0.25 0.775641 1
0.22 0.806667 1
0.19 0.837692 1
0.16 0.868718 1
0.13 0.899744 1
0.1 0.930769 1
0.97 0.0321795 1
0.94 0.064359 1
0.91 0.0965385 1
0.88 0.128718 1
0.85 0.160897 1
0.82 0.193077 1
0.79 0.225256 1
0.76 0.257436 1
0.73 0.289615 1
0.7 0.321795 1
0.67 0.353974 1
0.64 0.386154 1
0.61 0.418333 1
0.58 0.450513 1
0.55 0.482692 1
0.52 0.514872 1
0.49 0.547051 1
0.46 0.579231 1
0.43 0.61141 1
0.4 0.64359 1
0.37 0.675769 1
0.34 0.707949 1
0.31 0.740128 1
0.28 0.772308 1
0.25 0.804487 1
0.22 0.836667 1
0.19 0.868846 1
0.16 0.901026 1
0.13 0.933205 1
0.1 0.965385 1
0.97 0.0333333 1
0.94 0.0666667 1
0.88 0.133333 1
0.85 0.166667 1
0.82 0.2 1
0.79 0.233333 1
0.76 0.266667 1
0.73 0.3 1
0.7 0.333333 1
0.67 0.366667 1
0.64 0.4 1
0.61 0.433333 1
0.58 0.466667 1
0.55 0.5 1
0.52 0.533333 1
0.49 0.566667 1
0.46 0.6 1
0.43 0.633333 1
0.4 0.666667 1
0.37 0.7 1
0.34 0.733333 1
0.31 0.766667 1
0.28 0.8 1
0.25 0.833333 1
0.22 0.866667 1
0.19 0.9 1
0.16 0.933333 1
0.13 0.966667 1
0.1 1 1
3 0 1 32
3 0 32 31
3 31 32 62
3 31 62 92
3 31 92 122
3 31 122 153
3 31 153 152
3 152 153 183
3 152 183 213
3 152 213 243
3 152 243 273
3 152 273 304
3 152 304 303
3 303 304 334
3 303 334 364
3 303 364 394
3 303 394 424
3 303 424 455
3 303 455 454
3 454 455 485
3 454 485 515
3 454 515 545
3 454 545 575
3 454 575 606
3 454 606 605
3 605 606 636
3 605 636 666
3 605 666 696
3 605 696 726
3 605 726 757
3 605 757 756
3 756 757 787
3 756 787 817
3 756 817 847
3 756 847 877
3 1 2 33
3 1 33 32
3 32 33 63
3 32 63 62
3 62 63 93
3 62 93 92
3 92 93 123
3 92 123 122
3 122 123 154
3 122 154 153
3 153 154 184
3 153 184 183
3 183 184 214
3 183 214 213
3 213 214 244
3 213 244 243
3 243 244 274
3 243 274 273
3 273 274 305
3 273 305 304
3 304 305 335
3 304 335 334
3 334 335 365
3 334 365 364
3 364 365 395
3 364 395 394
3 394 395 425
3 394 425 424
3 424 425 456
3 424 456 455
3 455 456 486
3 455 486 485
3 485 486 516
3 485 516 515
3 515 516 546
3 515 546 545
3 545 546 576
3 545 576 575
3 575 576 607
3 575 607 606
3 606 607 637
3 606 637 636
3 636 637 667
3 636 667 666
3 666 667 697
3 666 697 696
3 696 697 727
3 696 727 726
3 726 727 758
3 726 758 757
3 757 758 788
3 757 788 787
3 787 788 818
3 787 818 817
3 817 818 848
3 817 848 847
3 847 848 878
3 847 878 877
3 2 3 34
3 2 34 33
3 33 34 64
3 33 64 63
3 63 64 94
3 63 94 93
3 93 94 124
3 93 124 123
3 123 124 155
3 123 155 154
3 154 155 185
3 154 185 184
3 184 185 215
3 184 215 214
3 214 215 245
3 214 245 244
3 244 245 275
3 244 275 274
3 274 275 306
3 274 306 305
3 305 306 336
3 305 336 335
3 335 336 366
3 335 366 365
3 365 366 396
3 365 396 395
3 395 396 426
3 395 426 425
3 425 426 457
3 425 457 456
3 456 457 487
3 456 487 486
3 486 487 517
3 486 517 516
3 516 517 547
3 516 547 546
3 546 547 577
3 546 577 576
3 576 577 608
3 576 608 607
3 607 608 638
3 607 638 637
3 637 638 668
3 637 668 667
3 667 668 698
3 667 698 697
3 697 698 728
3 697 728 727
3 727 728 759
3 727 759 758
3 758 759 789
3 758 789 788
3 788 789 819
3 788 819 818
3 818 819 849
3 818 849 848
3 848 849 3
3 848 3 878
3 3 4 35
3 3 35 34
3 34 35 65
3 34 65 64
3 64 65 95
3 64 95 94
3 94 95 125
3 94 125 124
3 124 125 156
3 124 156 155
3 155 156 186
3 155 186 185
3 185 186 216
3 185 216 215
3 215 216 246
3 215 246 245
3 245 246 276
3 245 276 275
3 275 276 307
3 275 307 306
3 306 307 337
3 306 337 336
3 336 337 367
3 336 367 366
3 366 367 397
3 366 397 396
3 396 397 427
3 396 427 426
3 426 427 458
3 426 458 457
3 457 458 488
3 457 488 487
3 487 488 518
3 487 518 517
3 517 518 548
3 517 548 547
3 547 548 578
3 547 578 577
3 577 578 609
3 577 609 608
3 608 609 639
3 608 639 638
3 638 639 669
3 638 669 668
3 668 669 699
3 668 699 698
3 698 699 729
3 698 729 728
3 728 729 760
3 728 760 759
3 759 760 790
3 759 790 789
3 789 790 820
3 789 820 819
3 819 820 850
3 819 850 849
3 849 850 879
3 849 879 3
3 4 5 36
3 4 36 35
3 35 36 66
3 35 66 65
3 65 66 96
3 65 96 95
3 95 96 126
3 95 126 125
3 125 126 157
3 125 157 156
3 156 157 187
3 156 187 186
3 186 187 217
3 186 217 216
3 216 217 247
3 216 247 246
3 246 247 277
3 246 277 276
3 276 277 308
3 276 308 307
3 307 308 338
3 307 338 337
3 337 338 368
3 337 368 367
3 367 368 398
3 367 398 397
3 397 398 428
3 397 428 427
3 427 428 459
3 427 459 458
3 458 459 489
3 458 489 488
3 488 489 519
3 488 519 518
3 518 519 549
3 518 549 548
3 548 549 579
3 548 579 578
3 578 579 610
3 578 610 609
3 609 610 640
3 609 640 639
3 639 640 670
3 639 670 669
3 669 670 700
3 669 700 699
3 699 700 730
3 699 730 729
3 729 730 761
3 729 761 760
3 760 761 791
3 760 791 790
3 790 791 821
3 790 821 820
3 820 821 851
3 820 851 850
3 850 851 880
3 850 880 879
3 5 6 37
3 5 37 36
3 36 37 67
3 36 67 66
3 66 67 97
3 66 97 96
3 96 97 127
3 96 127 126
3 126 127 158
3 126 158 157
3 157 158 188
3 157 188 187
3 187 188 218
3 187 218 217
3 217 218 248
3 217 248 247
3 247 248 278
3 247 278 277
3 277 278 309
3 277 309 308
3 308 309 339
3 308 339 338
3 338 339 369
3 338 369 368
3 368 369 399
3 368 399 398
3 398 399 429
3 398 429 428
3 428 429 460
3 428 460 459
3 459 460 490
3 459 490 489
3 489 490 520
3 489 520 519
3 519 520 550
3 519 550 549
3 549 550 580
3 549 580 579
3 579 580 611
3 579 611 610
3 610 611 641
3 610 641 640
3 640 641 671
3 640 671 670
3 670 671 701
3 670 701 700
3 700 701 731
3 700 731 730
3 730 731 762
3 730 762 761
3 761 762 792
3 761 792 791
3 791 792 822
3 791 822 821
3 821 822 852
3 821 852 851
3 851 852 881
3 851 881 880
3 6 7 38
3 6 38 37
3 37 38 68
3 37 68 67
3 67 68 98
3 67 98 97
3 97 98 128
3 97 128 127
3 127 128 159
3 127 159 158
3 158 159 189
3 158 189 188
3 188 189 219
3 188 219 218
3 218 219 249
3 218 249 248
3 248 249 279
3 248 279 278
3 278 279 310
3 278 310 309
3 309 310 340
3 309 340 339
3 339 340 370
3 339 370 369
3 369 370 400
3 369 400 399
3 399 400 430
3 399 430 429
3 429 430 461
3 429 461 460
3 460 461 491
3 460 491 490
3 490 491 521
3 490 521 520
3 520 521 551
3 520 551 550
3 550 551 581
3 550 581 580
3 580 581 612
3 580 612 611
3 611 612 642
3 611 642 641
3 641 642 672
3 641 672 671
3 671 672 702
3 671 702 701
3 701 702 732
3 701 732 731
3 731 732 763
3 731 763 762
3 762 763 793
3 762 793 792
3 792 793 823
3 792 823 822
3 822 823 853
3 822 853 852
3 852 853 882
3 852 882 881
3 7 8 39
3 7 39 38
3 38 39 69
3 38 69 68
3 68 69 99
3 68 99 98
3 98 99 129
3 98 129 128
3 128 129 160
3 128 160 159
3 159 160 190
3 159 190 189
3 189 190 220
3 189 220 219
3 219 220 250
3 219 250 249
3 249 250 280
3 249 280 279
3 279 280 311
3 279 311 310
3 310 311 341
3 310 341 340
3 340 341 371
3 340 371 370
3 370 371 401
3 370 401 400
3 400 401 431
3 400 431 430
3 430 431 462
3 430 462 461
3 461 462 492
3 461 492 491
3 491 492 522
3 491 522 521
3 521 522 552
3 521 552 551
3 551 552 582
3 551 582 581
3 581 582 613
3 581 613 612
3 612 613 643
3 612 643 642
3 642 643 673
3 642 673 672
3 672 673 703
3 672 703 702
3 702 703 733
3 702 733 732
3 732 733 764
3 732 764 763
3 763 764 794
3 763 794 793
3 793 794 824
3 793 824 823
3 823 824 854
3 823 854 853
3 853 854 883
3 853 883 882
3 8 9 40
3 8 40 39
3 39 40 70
3 39 70 69
3 69 70 100
3 69 100 99
3 99 100 130
3 99 130 129
3 129 130 161
3 129 161 160
3 160 161 191
3 160 191 190
3 190 191 221
3 190 221 220
3 220 221 251
3 220 251 250
3 250 251 281
3 250 281 280
3 280 281 312
3 280 312 311
3 311 312 342
3 311 342 341
3 341 342 372
3 341 372 371
3 371 372 402
3 371 402 401
3 401 402 432
3 401 432 431
3 431 432 463
3 431 463 462
3 462 463 493
3 462 493 492
3 492 493 523
3 492 523 522
3 522 523 553
3 522 553 552
3 552 553 583
3 552 583 582
3 582 583 614
3 582 614 613
3 613 614 644
3 613 644 643
3 643 644 674
3 643 674 673
3 673 674 704
3 673 704 703
3 703 704 734
3 703 734 733
3 733 734 765
3 733 765 764
3 764 765 795
3 764 795 794
3 794 795 825
3 794 825 824
3 824 825 855
3 824 855 854
3 854 855 884
3 854 884 883
3 9 10 41
3 9 41 40
3 40 41 71
3 40 71 70
3 70 71 101
3 70 101 100
3 100 101 131
3 100 131 130
3 130 131 162
3 130 162 161
3 161 162 192
3 161 192 191
3 191 192 222
3 191 222 221
3 221 222 252
3 221 252 251
3 251 252 282
3 251 282 281
3 281 282 313
3 281 313 312
3 312 313 343
3 312 343 342
3 342 343 373
3 342 373 372
3 372 373 403
3 372 403 402
3 402 403 433
3 402 433 432
3 432 433 464
3 432 464 463
3 463 464 494
3 463 494 493
3 493 494 524
3 493 524 523
3 523 524 554
3 523 554 553
3 553 554 584
3 553 584 583
3 583 584 615
3 583 615 614
3 614 615 645
3 614 645 644
3 644 645 675
3 644 675 674
3 674 675 705
3 674 705 704
3 704 705 735
3 704 735 734
3 734 735 766
3 734 766 765
3 765 766 796
3 765 796 795
3 795 796 826
3 795 826 825
3 825 826 856
3 825 856 855
3 855 856 885
3 855 885 884
3 10 11 42
3 10 42 41
3 41 42 72
3 41 72 71
3 71 72 102
3 71 102 101
3 101 102 132
3 101 132 131
3 131 132 163
3 131 163 162
3 162 163 193
3 162 193 192
3 192 193 223
3 192 223 222
3 222 223 253
3 222 253 252
3 252 253 283
3 252 283 282
3 282 283 314
3 282 314 313
3 313 314 344
3 313 344 343
3 343 344 374
3 343 374 373
3 373 374 404
3 373 404 403
3 403 404 434
3 403 434 433
3 433 434 465
3 433 465 464
3 464 465 495
3 464 495 494
3 494 495 525
3 494 525 524
3 524 525 555
3 524 555 554
3 554 555 585
3 554 585 584
3 584 585 616
3 584 616 615
3 615 616 646
3 615 646 645
3 645 646 676
3 645 676 675
3 675 676 706
3 675 706 705
3 705 706 736
3 705 736 735
3 735 736 767
3 735 767 766
3 766 767 797
3 766 797 796
3 796 797 827
3 796 827 826
3 826 827 857
3 826 857 856
3 856 857 886
3 856 886 885
3 11 12 43
3 11 43 42
3 42 43 73
3 42 73 72
3 72 73 103
3 72 103 102
3 102 103 133
3 102 133 132
3 132 133 164
3 132 164 163
3 163 164 194
3 163 194 193
3 193 194 224
3 193 224 223
3 223 224 254
3 223 254 253
3 253 254 284
3 253 284 283
3 283 284 315
3 283 315 314
3 314 315 345
3 314 345 344
3 344 345 375
3 344 375 374
3 374 375 405
3 374 405 404
3 404 405 435
3 404 435 434
3 434 435 466
3 434 466 465
3 465 466 496
3 465 496 495
3 495 496 526
3 495 526 525
3 525 526 556
3 525 556 555
3 555 556 586
3 555 586 585
3 585 586 617
3 585 617 616
3 616 617 647
3 616 647 646
3 646 647 677
3 646 677 676
3 676 677 707
3 676 707 706
3 706 707 737
3 706 737 736
3 736 737 768
3 736 768 767
3 767 768 798
3 767 798 797
3 797 798 828
3 797 828 827
3 827 828 858
3 827 858 857
3 857 858 887
3 857 887 886
3 12 13 44
3 12 44 43
3 43 44 74
3 43 74 73
3 73 74 104
3 73 104 103
3 103 104 134
3 103 134 133
3 133 134 165
3 133 165 164
3 164 165 195
3 164 195 194
3 194 195 225
3 194 225 224
3 224 225 255
3 224 255 254
3 254 255 285
3 254 285 284
3 284 285 316
3 284 316 315
3 315 316 346
3 315 346 345
3 345 346 376
3 345 376 375
3 375 376 406
3 375 406 405
3 405 406 436
3 405 436 435
3 435 436 467
3 435 467 466
3 466 467 497
3 466 497 496
3 496 497 527
3 496 527 526
3 526 527 557
3 526 557 556
3 556 557 587
3 556 587 586
3 586 587 618
3 586 618 617
3 617 618 648
3 617 648 647
3 647 648 678
3 647 678 677
3 677 678 708
3 677 708 707
3 707 708 738
3 707 738 737
3 737 738 769
3 737 769 768
3 768 769 799
3 768 799 798
3 798 799 829
3 798 829 828
3 828 829 859
3 828 859 858
3 858 859 888
3 858 888 887
3 13 14 45
3 13 45 44
3 44 45 75
3 44 75 74
3 74 75 105
3 74 105 104
3 104 105 135
3 104 135 134
3 134 135 166
3 134 166 165
3 165 166 196
3 165 196 195
3 195 196 226
3 195 226 225
3 225 226 256
3 225 256 255
3 255 256 286
3 255 286 285
3 285 286 317
3 285 317 316
3 316 317 347
3 316 347 346
3 346 347 377
3 346 377 376
3 376 377 407
3 376 407 406
3 406 407 437
3 406 437 436
3 436 437 468
3 436 468 467
3 467 468 498
3 467 498 497
3 497 498 528
3 497 528 527
3 527 528 558
3 527 558 557
3 557 558 588
3 557 588 587
3 587 588 619
3 587 619 618
3 618 619 649
3 618 649 648
3 648 649 679
3 648 679 678
3 678 679 709
3 678 709 708
3 708 709 739
3 708 739 738
3 738 739 770
3 738 770 769
3 769 770 800
3 769 800 799
3 799 800 830
3 799 830 829
3 829 830 860
3 829 860 859
3 859 860 889
3 859 889 888
3 14 15 46
3 14 46 45
3 45 46 76
3 45 76 75
3 75 76 106
3 75 106 105
3 105 106 136
3 105 136 135
3 135 136 167
3 135 167 166
3 166 167 197
3 166 197 196
3 196 197 227
3 196 227 226
3 226 227 257
3 226 257 256
3 256 257 287
3 256 287 286
3 286 287 318
3 286 318 317
3 317 318 348
3 317 348 347
3 347 348 378
3 347 378 377
3 377 378 408
3 377 408 407
3 407 408 438
3 407 438 437
3 437 438 469
3 437 469 468
3 468 469 499
3 468 499 498
3 498 499 529
3 498 529 528
3 528 529 559
3 528 559 558
3 558 559 589
3 558 589 588
3 588 589 620
3 588 620 619
3 619 620 650
3 619 650 649
3 649 650 680
3 649 680 679
3 679 680 710
3 679 710 709
3 709 710 740
3 709 740 739
3 739 740 771
3 739 771 770
3 770 771 801
3 770 801 800
3 800 801 831
3 800 831 830
3 830 831 861
3 830 861 860
3 860 861 890
3 860 890 889
3 15 16 47
3 15 47 46
3 46 47 77
3 46 77 76
3 76 77 107
3 76 107 106
3 106 107 137
3 106 137 136
3 136 137 168
3 136 168 167
3 167 168 198
3 167 198 197
3 197 198 228
3 197 228 227
3 227 228 258
3 227 258 257
3 257 258 288
3 257 288 287
3 287 288 319
3 287 319 318
3 318 319 349
3 318 349 348
3 348 349 379
3 348 379 378
3 378 379 409
3 378 409 408
3 408 409 439
3 408 439 438
3 438 439 470
3 438 470 469
3 469 470 500
3 469 500 499
3 499 500 530
3 499 530 529
3 529 530 560
3 529 560 559
3 559 560 590
3 559 590 589
3 589 590 621
3 589 621 620
3 620 621 651
3 620 651 650
3 650 651 681
3 650 681 680
3 680 681 711
3 680 711 710
3 710 711 741
3 710 741 740
3 740 741 772
3 740 772 771
3 771 772 802
3 771 802 801
3 801 802 832
3 801 832 831
3 831 832 862
3 831 862 861
3 861 862 891
3 861 891 890
3 16 17 48
3 16 48 47
3 47 48 78
3 47 78 77
3 77 78 108
3 77 108 107
3 107 108 138
3 107 138 137
3 137 138 169
3 137 169 168
3 168 169 199
3 168 199 198
3 198 199 229
3 198 229 228
3 228 229 259
3 228 259 258
3 258 259 289
3 258 289 288
3 288 289 320
3 288 320 319
3 319 320 350
3 319 350 349
3 349 350 380
3 349 380 379
3 379 380 410
3 379 410 409
3 409 410 440
3 409 440 439
3 439 440 471
3 439 471 470
3 470 471 501
3 470 501 500
3 500 501 531
3 500 531 530
3 530 531 561
3 530 561 560
3 560 561 591
3 560 591 590
3 590 591 622
3 590 622 621
3 621 622 652
3 621 652 651
3 651 652 682
3 651 682 681
3 681 682 712
3 681 712 711
3 711 712 742
3 711 742 741
3 741 742 773
3 741 773 772
3 772 773 803
3 772 803 802
3 802 803 833
3 802 833 832
3 832 833 863
3 832 863 862
3 862 863 892
3 862 892 891
3 17 18 49
3 17 49 48
3 48 49 79
3 48 79 78
3 78 79 109
3 78 109 108
3 108 109 139
3 108 139 138
3 138 139 170
3 138 170 169
3 169 170 200
3 169 200 199
3 199 200 230
3 199 230 229
3 229 230 260
3 229 260 259
3 259 260 290
3 259 290 289
3 289 290 321
3 289 321 320
3 320 321 351
3 320 351 350
3 350 351 381
3 350 381 380
3 380 381 411
3 380 411 410
3 410 411 441
3 410 441 440
3 440 441 472
3 440 472 471
3 471 472 502
3 471 502 501
3 501 502 532
3 501 532 531
3 531 532 562
3 531 562 561
3 561 562 592
3 561 592 591
3 591 592 623
3 591 623 622
3 622 623 653
3 622 653 652
3 652 653 683
3 652 683 682
3 682 683 713
3 682 713 712
3 712 713 743
3 712 743 742
3 742 743 774
3 742 774 773
3 773 774 804
3 773 804 803
3 803 804 834
3 803 834 833
3 833 834 864
3 833 864 863
3 863 864 893
3 863 893 892
3 18 19 50
3 18 50 49
3 49 50 80
3 49 80 79
3 79 80 110
3 79 110 109
3 109 110 140
3 109 140 139
3 139 140 171
3 139 171 170
3 170 171 201
3 170 201 200
3 200 201 231
3 200 231 230
3 230 231 261
3 230 261 260
3 260 261 291
3 260 291 290
3 290 291 322
3 290 322 321
3 321 322 352
3 321 352 351
3 351 352 382
3 351 382 381
3 381 382 412
3 381 412 411
3 411 412 442
3 411 442 441
3 441 442 473
3 441 473 472
3 472 473 503
3 472 503 502
3 502 503 533
3 502 533 532
3 532 533 563
3 532 563 562
3 562 563 593
3 562 593 592
3 592 593 624
3 592 624 623
3 623 624 654
3 623 654 653
3 653 654 684
3 653 684 683
3 683 684 714
3 683 714 713
3 713 714 744
3 713 744 743
3 743 744 775
3 743 775 774
3 774 775 805
3 774 805 804
3 804 805 835
3 804 835 834
3 834 835 865
3 834 865 864
3 864 865 894
3 864 894 893
3 19 20 51
3 19 51 50
3 50 51 81
3 50 81 80
3 80 81 111
3 80 111 110
3 110 111 141
3 110 141 140
3 140 141 172
3 140 172 171
3 171 172 202
3 171 202 201
3 201 202 232
3 201 232 231
3 231 232 262
3 231 262 261
3 261 262 292
3 261 292 291
3 291 292 323
3 291 323 322
3 322 323 353
3 322 353 352
3 352 353 383
3 352 383 382
3 382 383 413
3 382 413 412
3 412 413 443
3 412 443 442
3 442 443 474
3 442 474 473
3 473 474 504
3 473 504 503
3 503 504 534
3 503 534 533
3 533 534 564
3 533 564 563
3 563 564 594
3 563 594 593
3 593 594 625
3 593 625 624
3 624 625 655
3 624 655 654
3 654 655 685
3 654 685 684
3 684 685 715
3 684 715 714
3 714 715 745
3 714 745 744
3 744 745 776
3 744 776 775
3 775 776 806
3 775 806 805
3 805 806 836
3 805 836 835
3 835 836 866
3 835 866 865
3 865 866 895
3 865 895 894
3 20 21 52
3 20 52 51
3 51 52 82
3 51 82 81
3 81 82 112
3 81 112 111
3 111 112 142
3 111 142 141
3 141 142 173
3 141 173 172
3 172 173 203
3 172 203 202
3 202 203 233
3 202 233 232
3 232 233 263
3 232 263 262
3 262 263 293
3 262 293 292
3 292 293 324
3 292 324 323
3 323 324 354
3 323 354 353
3 353 354 384
3 353 384 383
3 383 384 414
3 383 414 413
3 413 414 444
3 413 444 443
3 443 444 475
3 443 475 474
3 474 475 505
3 474 505 504
3 504 505 535
3 504 535 534
3 534 535 565
3 534 565 564
3 564 565 595
3 564 595 594
3 594 595 626
3 594 626 625
3 625 626 656
3 625 656 655
3 655 656 686
3 655 686 685
3 685 686 716
3 685 716 715
3 715 716 746
3 715 746 745
3 745 746 777
3 745 777 776
3 776 777 807
3 776 807 806
3 806 807 837
3 806 837 836
3 836 837 867
3 836 867 866
3 866 867 896
3 866 896 895
3 21 22 53
3 21 53 52
3 52 53 83
3 52 83 82
3 82 83 113
3 82 113 112
3 112 113 143
3 112 143 142
3 142 143 174
3 142 174 173
3 173 174 204
3 173 204 203
3 203 204 234
3 203 234 233
3 233 234 264
3 233 264 263
3 263 264 294
3 263 294 293
3 293 294 325
3 293 325 324
3 324 325 355
3 324 355 354
3 354 355 385
3 354 385 384
3 384 385 415
3 384 415 414
3 414 415 445
3 414 445 444
3 444 445 476
3 444 476 475
3 475 476 506
3 475 506 505
3 505 506 536
3 505 536 535
3 535 536 566
3 535 566 565
3 565 566 596
3 565 596 595
3 595 596 627
3 595 627 626
3 626 627 657
3 626 657 656
3 656 657 687
3 656 687 686
3 686 687 717
3 686 717 716
3 716 717 747
3 716 747 746
3 746 747 778
3 746 778 777
3 777 778 808
3 777 808 807
3 807 808 838
3 807 838 837
3 837 838 868
3 837 868 867
3 867 868 897
3 867 897 896
3 22 23 54
3 22 54 53
3 53 54 84
3 53 84 83
3 83 84 114
3 83 114 113
3 113 114 144
3 113 144 143
3 143 144 175
3 143 175 174
3 174 175 205
3 174 205 204
3 204 205 235
3 204 235 234
3 234 235 265
3 234 265 264
3 264 265 295
3 264 295 294
3 294 295 326
3 294 326 325
3 325 326 356
3 325 356 355
3 355 356 386
3 355 386 385
3 385 386 416
3 385 416 415
3 415 416 446
3 415 446 445
3 445 446 477
3 445 477 476
3 476 477 507
3 476 507 506
3 506 507 537
3 506 537 536
3 536 537 567
3 536 567 566
3 566 567 597
3 566 597 596
3 596 597 628
3 596 628 627
3 627 628 658
3 627 658 657
3 657 658 688
3 657 688 687
3 687 688 718
3 687 718 717
3 717 718 748
3 717 748 747
3 747 748 779
3 747 779 778
3 778 779 809
3 778 809 808
3 808 809 839
3 808 839 838
3 838 839 869
3 838 869 868
3 868 869 898
3 868 898 897
3 23 24 55
3 23 55 54
3 54 55 85
3 54 85 84
3 84 85 115
3 84 115 114
3 114 115 145
3 114 145 144
3 144 145 176
3 144 176 175
3 175 176 206
3 175 206 205
3 205 206 236
3 205 236 235
3 235 236 266
3 235 266 265
3 265 266 296
3 265 296 295
3 295 296 327
3 295 327 326
3 326 327 357
3 326 357 356
3 356 357 387
3 356 387 386
3 386 387 417
3 386 417 416
3 416 417 447
3 416 447 446
3 446 447 478
3 446 478 477
3 477 478 508
3 477 508 507
3 507 508 538
3 507 538 537
3 537 538 568
3 537 568 567
3 567 568 598
3 567 598 597
3 597 598 629
3 597 629 628
3 628 629 659
3 628 659 658
3 658 659 689
3 658 689 688
3 688 689 719
3 688 719 718
3 718 719 749
3 718 749 748
3 748 749 780
3 748 780 779
3 779 780 810
3 779 810 809
3 809 810 840
3 809 840 839
3 839 840 870
3 839 870 869
3 869 870 899
3 869 899 898
3 24 25 56
3 24 56 55
3 55 56 86
3 55 86 85
3 85 86 116
3 85 116 115
3 115 116 146
3 115 146 145
3 145 146 177
3 145 177 176
3 176 177 207
3 176 207 206
3 206 207 237
3 206 237 236
3 236 237 267
3 236 267 266
3 266 267 297
3 266 297 296
3 296 297 328
3 296 328 327
3 327 328 358
3 327 358 357
3 357 358 388
3 357 388 387
3 387 388 418
3 387 418 417
3 417 418 448
3 417 448 447
3 447 448 479
3 447 479 478
3 478 479 509
3 478 509 508
3 508 509 539
3 508 539 538
3 538 539 569
3 538 569 568
3 568 569 599
3 568 599 598
3 598 599 630
3 598 630 629
3 629 630 660
3 629 660 659
3 659 660 690
3 659 690 689
3 689 690 720
3 689 720 719
3 719 720 750
3 719 750 749
3 749 750 781
3 749 781 780
3 780 781 811
3 780 811 810
3 810 811 841
3 810 841 840
3 840 841 871
3 840 871 870
3 870 871 900
3 870 900 899
3 25 26 57
3 25 57 56
3 56 57 87
3 56 87 86
3 86 87 117
3 86 117 116
3 116 117 147
3 116 147 146
3 146 147 178
3 146 178 177
3 177 178 208
3 177 208 207
3 207 208 238
3 207 238 237
3 237 238 268
3 237 268 267
3 267 268 298
3 267 298 297
3 297 298 329
3 297 329 328
3 328 329 359
3 328 359 358
3 358 359 389
3 358 389 388
3 388 389 419
3 388 419 418
3 418 419 449
3 418 449 448
3 448 449 480
3 448 480 479
3 479 480 510
3 479 510 509
3 509 510 540
3 509 540 539
3 539 540 570
3 539 570 569
3 569 570 600
3 569 600 599
3 599 600 631
3 599 631 630
3 630 631 661
3 630 661 660
3 660 661 691
3 660 691 690
3 690 691 721
3 690 721 720
3 720 721 751
3 720 751 750
3 750 751 782
3 750 782 781
3 781 782 812
3 781 812 811
3 811 812 842
3 811 842 841
3 841 842 872
3 841 872 871
3 871 872 901
3 871 901 900
3 26 27 58
3 26 58 57
3 57 58 88
3 57 88 87
3 87 88 118
3 87 118 117
3 117 118 148
3 117 148 147
3 147 148 179
3 147 179 178
3 178 179 209
3 178 209 208
3 208 209 239
3 208 239 238
3 238 239 269
3 238 269 268
3 268 269 299
3 268 299 298
3 298 299 330
3 298 330 329
3 329 330 360
3 329 360 359
3 359 360 390
3 359 390 389
3 389 390 420
3 389 420 419
3 419 420 450
3 419 450 449
3 449 450 481
3 449 481 480
3 480 481 511
3 480 511 510
3 510 511 541
3 510 541 540
3 540 541 571
3 540 571 570
3 570 571 601
3 570 601 600
3 600 601 632
3 600 632 631
3 631 632 662
3 631 662 661
3 661 662 692
3 661 692 691
3 691 692 722
3 691 722 721
3 721 722 752
3 721 752 751
3 751 752 783
3 751 783 782
3 782 783 813
3 782 813 812
3 812 813 843
3 812 843 842
3 842 843 873
3 842 873 872
3 872 873 902
3 872 902 901
3 27 28 59
3 27 59 58
3 58 59 89
3 58 89 88
3 88 89 119
3 88 119 118
3 118 119 149
3 118 149 148
3 148 149 180
3 148 180 179
3 179 180 210
3 179 210 209
3 209 210 240
3 209 240 239
3 239 240 270
3 239 270 269
3 269 270 300
3 269 300 299
3 299 300 331
3 299 331 330
3 330 331 361
3 330 361 360
3 360 361 391
3 360 391 390
3 390 391 421
3 390 421 420
3 420 421 451
3 420 451 450
3 450 451 482
3 450 482 481
3 481 482 512
3 481 512 511
3 511 512 542
3 511 542 541
3 541 542 572
3 541 572 571
3 571 572 602
3 571 602 601
3 601 602 633
3 601 633 632
3 632 633 663
3 632 663 662
3 662 663 693
3 662 693 692
3 692 693 723
3 692 723 722
3 722 723 753
3 722 753 752
3 752 753 784
3 752 784 783
3 783 784 814
3 783 814 813
3 813 814 844
3 813 844 843
3 843 844 874
3 843 874 873
3 873 874 903
3 873 903 902
3 28 29 60
3 28 60 59
3 59 60 90
3 59 90 89
3 89 90 120
3 89 120 119
3 119 120 150
3 119 150 149
3 149 150 181
3 149 181 180
3 180 181 211
3 180 211 210
3 210 211 241
3 210 241 240
3 240 241 271
3 240 271 270
3 270 271 301
3 270 301 300
3 300 301 332
3 300 332 331
3 331 332 362
3 331 362 361
3 361 362 392
3 361 392 391
3 391 392 422
3 391 422 421
3 421 422 452
3 421 452 451
3 451 452 483
3 451 483 482
3 482 483 513
3 482 513 512
3 512 513 543
3 512 543 542
3 542 543 573
3 542 573 572
3 572 573 603
3 572 603 602
3 602 603 634
3 602 634 633
3 633 634 664
3 633 664 663
3 663 664 694
3 663 694 693
3 693 694 724
3 693 724 723
3 723 724 754
3 723 754 753
3 753 754 785
3 753 785 784
3 784 785 815
3 784 815 814
3 814 815 845
3 814 845 844
3 844 845 875
3 844 875 874
3 874 875 904
3 874 904 903
3 29 30 61
3 29 61 60
3 60 61 91
3 60 91 90
3 90 91 121
3 90 121 120
3 120 121 151
3 120 151 150
3 150 151 182
3 150 182 181
3 181 182 212
3 181 212 211
3 211 212 242
3 211 242 241
3 241 242 272
3 241 272 271
3 271 272 302
3 271 302 301
3 301 302 333
3 301 333 332
3 332 333 363
3 332 363 362
3 362 363 393
3 362 393 392
3 392 393 423
3 392 423 422
3 422 423 453
3 422 453 452
3 452 453 484
3 452 484 483
3 483 484 514
3 483 514 513
3 513 514 544
3 513 544 543
3 543 544 574
3 543 574 573
3 573 574 604
3 573 604 603
3 603 604 635
3 603 635 634
3 634 635 665
3 634 665 664
3 664 665 695
3 664 695 694
3 694 695 725
3 694 725 724
3 724 725 755
3 724 755 754
3 754 755 786
3 754 786 785
3 785 786 816
3 785 816 815
3 815 816 846
3 815 846 845
3 845 846 876
3 845 876 875
3 875 876 905
3 875 905 904
