ply
format ascii 1.0
comment Created by Open3D
element vertex 100
property double x
property double y
property double z
element face 170
property list uchar uint vertex_indices
end_header
0 5.55112e-17 5.55112e-17
0.12069 5.55112e-17 5.55112e-17
0.108621 0.0103448 5.55112e-17
0.0965517 0.0206897 5.55112e-17
0.0844828 0.0310345 5.55112e-17
0.0724138 0.0413793 5.55112e-17
0.0603448 0.0517241 5.55112e-17
0.0482759 0.062069 5.55112e-17
0.0362069 0.0724138 5.55112e-17
0.0241379 0.0827586 5.55112e-17
0.012069 0.0931034 5.55112e-17
0 0.103448 5.55112e-17
0.224138 5.55112e-17 5.55112e-17
0.201724 0.0206897 5.55112e-17
0.17931 0.0413793 5.55112e-17
0.156897 0.062069 5.55112e-17
0.134483 0.0827586 5.55112e-17
0.112069 0.103448 5.55112e-17
0.0896552 0.124138 5.55112e-17
0.0672414 0.144828 5.55112e-17
0.0448276 0.165517 5.55112e-17
0.0224138 0.186207 5.55112e-17
0 0.206897 5.55112e-17
0.344828 5.55112e-17 5.55112e-17
0.310345 0.0327586 5.55112e-17
0.275862 0.0655172 5.55112e-17
0.241379 0.0982759 5.55112e-17
0.206897 0.131034 5.55112e-17
0.172414 0.163793 5.55112e-17
0.137931 0.196552 5.55112e-17
0.103448 0.22931 5.55112e-17
0.0689655 0.262069 5.55112e-17
0.0344828 0.294828 5.55112e-17
0 0.327586 5.55112e-17
0.448276 5.55112e-17 5.55112e-17
0.403448 0.0431034 5.55112e-17
0.358621 0.0862069 5.55112e-17
0.313793 0.12931 5.55112e-17
0.268966 0.172414 5.55112e-17
0.224138 0.215517 5.55112e-17
0.17931 0.258621 5.55112e-17
0.134483 0.301724 5.55112e-17
0.0896552 0.344828 5.55112e-17
0.0448276 0.387931 5.55112e-17
0 0.431034 5.55112e-17
0.568966 5.55112e-17 5.55112e-17
0.512069 0.0551724 5.55112e-17
0.455172 0.110345 5.55112e-17
0.398276 0.165517 5.55112e-17
0.341379 0.22069 5.55112e-17
0.284483 0.275862 5.55112e-17
0.227586 0.331034 5.55112e-17
0.17069 0.386207 5.55112e-17
0.113793 0.441379 5.55112e-17
0.0568966 0.496552 5.55112e-17
0 0.551724 5.55112e-17
0.672414 5.55112e-17 5.55112e-17
0.605172 0.0655172 5.55112e-17
0.537931 0.131034 5.55112e-17
0.47069 0.196552 5.55112e-17
0.403448 0.262069 5.55112e-17
0.336207 0.327586 5.55112e-17
0.268966 0.393103 5.55112e-17
0.201724 0.458621 5.55112e-17
0.134483 0.524138 5.55112e-17
0.0672414 0.589655 5.55112e-17
0 0.655172 5.55112e-17
0.793103 5.55112e-17 5.55112e-17
0.713793 0.0775862 5.55112e-17
0.634483 0.155172 5.55112e-17
0.555172 0.232759 5.55112e-17
0.475862 0.310345 5.55112e-17
0.396552 0.387931 5.55112e-17
0.317241 0.465517 5.55112e-17
0.237931 0.543103 5.55112e-17
0.158621 0.62069 5.55112e-17
0.0793103 0.698276 5.55112e-17
0 0.775862 5.55112e-17
0.896552 5.55112e-17 5.55112e-17
0.806897 0.087931 5.55112e-17
0.717241 0.175862 5.55112e-17
0.627586 0.263793 5.55112e-17
0.537931 0.351724 5.55112e-17
0.448276 0.439655 5.55112e-17
0.358621 0.527586 5.55112e-17
0.268966 0.615517 5.55112e-17
0.17931 0.703448 5.55112e-17
0.0896552 0.791379 5.55112e-17
0 0.87931 5.55112e-17
1 5.55112e-17 5.55112e-17
0.9 0.1 5.55112e-17
0.8 0.2 5.55112e-17
0.7 0.3 5.55112e-17
0.6 0.4 5.55112e-17
0.5 0.5 5.55112e-17
0.4 0.6 5.55112e-17
0.3 0.7 5.55112e-17
0.2 0.8 5.55112e-17
0.1 0.9 5.55112e-17
0 1 5.55112e-17
3 0 2 1
3 1 2 13
3 1 13 12
3 12 13 24
3 12 24 23
3 23 24 35
3 23 35 34
3 34 35 46
3 34 46 45
3 45 46 57
3 45 57 56
3 56 57 68
3 56 68 67
3 67 68 79
3 67 79 78
3 78 79 90
3 78 90 89
3 0 3 2
3 2 3 14
3 2 14 13
3 13 14 25
3 13 25 24
3 24 25 36
3 24 36 35
3 35 36 47
3 35 47 46
3 46 47 58
3 46 58 57
3 57 58 69
3 57 69 68
3 68 69 80
3 68 80 79
3 79 80 91
3 79 91 90
3 0 4 3
3 3 4 15
3 3 15 14
3 14 15 26
3 14 26 25
3 25 26 37
3 25 37 36
3 36 37 48
3 36 48 47
3 47 48 59
3 47 59 58
3 58 59 70
3 58 70 69
3 69 70 81
3 69 81 80
3 80 81 92
3 80 92 91
3 0 5 4
3 4 5 16
3 4 16 15
3 15 16 27
3 15 27 26
3 26 27 38
3 26 38 37
3 37 38 49
3 37 49 48
3 48 49 60
3 48 60 59
3 59 60 71
3 59 71 70
3 70 71 82
3 70 82 81
3 81 82 93
3 81 93 92
3 0 6 5
3 5 6 17
3 5 17 16
3 16 17 28
3 16 28 27
3 27 28 39
3 27 39 38
3 38 39 50
3 38 50 49
3 49 50 61
3 49 61 60
3 60 61 72
3 60 72 71
3 71 72 83
3 71 83 82
3 82 83 94
3 82 94 93
3 0 7 6
3 6 7 18
3 6 18 17
3 17 18 29
3 17 29 28
3 28 29 40
3 28 40 39
3 39 40 51
3 39 51 50
3 50 51 62
3 50 62 61
3 61 62 73
3 61 73 72
3 72 73 84
3 72 84 83
3 83 84 95
3 83 95 94
3 0 8 7
3 7 8 19
3 7 19 18
3 18 19 30
3 18 30 29
3 29 30 41
3 29 41 40
3 40 41 52
3 40 52 51
3 51 52 63
3 51 63 62
3 62 63 74
3 62 74 73
3 73 74 85
3 73 85 84
3 84 85 96
3 84 96 95
3 0 9 8
3 8 9 20
3 8 20 19
3 19 20 31
3 19 31 30
3 30 31 42
3 30 42 41
3 41 42 53
3 41 53 52
3 52 53 64
3 52 64 63
3 63 64 75
3 63 75 74
3 74 75 86
3 74 86 85
3 85 86 97
3 85 97 96
3 0 10 9
3 9 10 21
3 9 21 20
3 20 21 32
3 20 32 31
3 31 32 43
3 31 43 42
3 42 43 54
3 42 54 53
3 53 54 65
3 53 65 64
3 64 65 76
3 64 76 75
3 75 76 87
3 75 87 86
3 86 87 98
3 86 98 97
3 0 11 10
3 10 11 22
3 10 22 21
3 21 22 33
3 21 33 32
3 32 33 44
3 32 44 43
3 43 44 55
3 43 55 54
3 54 55 66
3 54 66 65
3 65 66 77
3 65 77 76
3 76 77 88
3 76 88 87
3 87 88 99
3 87 99 98
