ply
format ascii 1.0
comment Created by Open3D
element vertex 907
property double x
property double y
property double z
element face 1717
property list uchar uint vertex_indices
end_header
1 1 0.1
1 0.966667 0.13
1 0.933333 0.16
1 0.9 0.19
1 0.866667 0.22
1 0.833333 0.25
1 0.8 0.28
1 0.766667 0.31
1 0.733333 0.34
1 0.7 0.37
1 0.666667 0.4
1 0.633333 0.43
1 0.6 0.46
1 0.566667 0.49
1 0.533333 0.52
1 0.5 0.55
1 0.466667 0.58
1 0.433333 0.61
1 0.4 0.64
1 0.366667 0.67
1 0.333333 0.7
1 0.3 0.73
1 0.266667 0.76
1 0.233333 0.79
1 0.2 0.82
1 0.166667 0.85
1 0.133333 0.88
1 0.1 0.91
1 0.0666667 0.94
1 0.0333333 0.97
1 5.55112e-17 1
1 0.965385 0.1
1 0.933205 0.13
1 0.901026 0.16
1 0.868846 0.19
1 0.836667 0.22
1 0.804487 0.25
1 0.772308 0.28
1 0.740128 0.31
1 0.707949 0.34
1 0.675769 0.37
1 0.64359 0.4
1 0.61141 0.43
1 0.579231 0.46
1 0.547051 0.49
1 0.514872 0.52
1 0.482692 0.55
1 0.450513 0.58
1 0.418333 0.61
1 0.386154 0.64
1 0.353974 0.67
1 0.321795 0.7
1 0.289615 0.73
1 0.257436 0.76
1 0.225256 0.79
1 0.193077 0.82
1 0.160897 0.85
1 0.128718 0.88
1 0.0965385 0.91
1 0.064359 0.94
1 0.0321795 0.97
1 0.930769 0.1
1 0.899744 0.13
1 0.868718 0.16
1 0.837692 0.19
1 0.806667 0.22
1 0.775641 0.25
1 0.744615 0.28
1 0.71359 0.31
1 0.682564 0.34
1 0.651538 0.37
1 0.620513 0.4
1 0.589487 0.43
1 0.558462 0.46
1 0.527436 0.49
1 0.49641 0.52
1 0.465385 0.55
1 0.434359 0.58
1 0.403333 0.61
1 0.372308 0.64
1 0.341282 0.67
1 0.310256 0.7
1 0.279231 0.73
1 0.248205 0.76
1 0.217179 0.79
1 0.186154 0.82
1 0.155128 0.85
1 0.124103 0.88
1 0.0930769 0.91
1 0.0620513 0.94
1 0.0310256 0.97
1 0.896154 0.1
1 0.866282 0.13
1 0.83641 0.16
1 0.806538 0.19
1 0.776667 0.22
1 0.746795 0.25
1 0.716923 0.28
1 0.687051 0.31
1 0.657179 0.34
1 0.627308 0.37
1 0.597436 0.4
1 0.567564 0.43
1 0.537692 0.46
1 0.507821 0.49
1 0.477949 0.52
1 0.448077 0.55
1 0.418205 0.58
1 0.388333 0.61
1 0.358462 0.64
1 0.32859 0.67
1 0.298718 0.7
1 0.268846 0.73
1 0.238974 0.76
1 0.209103 0.79
1 0.179231 0.82
1 0.149359 0.85
1 0.119487 0.88
1 0.0896154 0.91
1 0.0597436 0.94
1 0.0298718 0.97
1 0.861538 0.1
1 0.832821 0.13
1 0.804103 0.16
1 0.775385 0.19
1 0.746667 0.22
1 0.717949 0.25
1 0.689231 0.28
1 0.660513 0.31
1 0.631795 0.34
1 0.603077 0.37
1 0.574359 0.4
1 0.545641 0.43
1 0.516923 0.46
1 0.488205 0.49
1 0.459487 0.52
1 0.430769 0.55
1 0.402051 0.58
1 0.373333 0.61
1 0.344615 0.64
1 0.315897 0.67
1 0.287179 0.7
1 0.258462 0.73
1 0.229744 0.76
1 0.201026 0.79
1 0.172308 0.82
1 0.14359 0.85
1 0.114872 0.88
1 0.0861538 0.91
1 0.0574359 0.94
1 0.0287179 0.97
1 0.844231 0.1
1 0.816645 0.13
1 0.78906 0.16
1 0.761474 0.19
1 0.733889 0.22
1 0.706303 0.25
1 0.678718 0.28
1 0.651132 0.31
1 0.623547 0.34
1 0.595962 0.37
1 0.568376 0.4
1 0.540791 0.43
1 0.513205 0.46
1 0.48562 0.49
1 0.458034 0.52
1 0.430449 0.55
1 0.402863 0.58
1 0.375278 0.61
1 0.347692 0.64
1 0.320107 0.67
1 0.292521 0.7
1 0.264936 0.73
1 0.23735 0.76
1 0.209765 0.79
1 0.182179 0.82
1 0.154594 0.85
1 0.127009 0.88
1 0.0994231 0.91
1 0.0718376 0.94
1 0.0442521 0.97
1 0.0166667 1
1 0.809615 0.1
1 0.783184 0.13
1 0.756752 0.16
1 0.730321 0.19
1 0.703889 0.22
1 0.677457 0.25
1 0.651026 0.28
1 0.624594 0.31
1 0.598162 0.34
1 0.571731 0.37
1 0.545299 0.4
1 0.518868 0.43
1 0.492436 0.46
1 0.466004 0.49
1 0.439573 0.52
1 0.413141 0.55
1 0.386709 0.58
1 0.360278 0.61
1 0.333846 0.64
1 0.307415 0.67
1 0.280983 0.7
1 0.254551 0.73
1 0.22812 0.76
1 0.201688 0.79
1 0.175256 0.82
1 0.148825 0.85
1 0.122393 0.88
1 0.0959615 0.91
1 0.0695299 0.94
1 0.0430983 0.97
1 0.775 0.1
1 0.749722 0.13
1 0.724444 0.16
1 0.699167 0.19
1 0.673889 0.22
1 0.648611 0.25
1 0.623333 0.28
1 0.598056 0.31
1 0.572778 0.34
1 0.5475 0.37
1 0.522222 0.4
1 0.496944 0.43
1 0.471667 0.46
1 0.446389 0.49
1 0.421111 0.52
1 0.395833 0.55
1 0.370556 0.58
1 0.345278 0.61
1 0.32 0.64
1 0.294722 0.67
1 0.269444 0.7
1 0.244167 0.73
1 0.218889 0.76
1 0.193611 0.79
1 0.168333 0.82
1 0.143056 0.85
1 0.117778 0.88
1 0.0925 0.91
1 0.0672222 0.94
1 0.0419444 0.97
1 0.740385 0.1
1 0.716261 0.13
1 0.692137 0.16
1 0.668013 0.19
1 0.643889 0.22
1 0.619765 0.25
1 0.595641 0.28
1 0.571517 0.31
1 0.547393 0.34
1 0.523269 0.37
1 0.499145 0.4
1 0.475021 0.43
1 0.450897 0.46
1 0.426774 0.49
1 0.40265 0.52
1 0.378526 0.55
1 0.354402 0.58
1 0.330278 0.61
1 0.306154 0.64
1 0.28203 0.67
1 0.257906 0.7
1 0.233782 0.73
1 0.209658 0.76
1 0.185534 0.79
1 0.16141 0.82
1 0.137286 0.85
1 0.113162 0.88
1 0.0890385 0.91
1 0.0649145 0.94
1 0.0407906 0.97
1 0.705769 0.1
1 0.682799 0.13
1 0.659829 0.16
1 0.636859 0.19
1 0.613889 0.22
1 0.590919 0.25
1 0.567949 0.28
1 0.544979 0.31
1 0.522009 0.34
1 0.499038 0.37
1 0.476068 0.4
1 0.453098 0.43
1 0.430128 0.46
1 0.407158 0.49
1 0.384188 0.52
1 0.361218 0.55
1 0.338248 0.58
1 0.315278 0.61
1 0.292308 0.64
1 0.269338 0.67
1 0.246368 0.7
1 0.223397 0.73
1 0.200427 0.76
1 0.177457 0.79
1 0.154487 0.82
1 0.131517 0.85
1 0.108547 0.88
1 0.0855769 0.91
1 0.0626068 0.94
1 0.0396368 0.97
1 0.688462 0.1
1 0.666624 0.13
1 0.644786 0.16
1 0.622949 0.19
1 0.601111 0.22
1 0.579274 0.25
1 0.557436 0.28
1 0.535598 0.31
1 0.513761 0.34
1 0.491923 0.37
1 0.470085 0.4
1 0.448248 0.43
1 0.42641 0.46
1 0.404573 0.49
1 0.382735 0.52
1 0.360897 0.55
1 0.33906 0.58
1 0.317222 0.61
1 0.295385 0.64
1 0.273547 0.67
1 0.251709 0.7
1 0.229872 0.73
1 0.208034 0.76
1 0.186197 0.79
1 0.164359 0.82
1 0.142521 0.85
1 0.120684 0.88
1 0.0988462 0.91
1 0.0770085 0.94
1 0.0551709 0.97
1 0.0333333 1
1 0.653846 0.1
1 0.633162 0.13
1 0.612479 0.16
1 0.591795 0.19
1 0.571111 0.22
1 0.550427 0.25
1 0.529744 0.28
1 0.50906 0.31
1 0.488376 0.34
1 0.467692 0.37
1 0.447009 0.4
1 0.426325 0.43
1 0.405641 0.46
1 0.384957 0.49
1 0.364274 0.52
1 0.34359 0.55
1 0.322906 0.58
1 0.302222 0.61
1 0.281538 0.64
1 0.260855 0.67
1 0.240171 0.7
1 0.219487 0.73
1 0.198803 0.76
1 0.17812 0.79
1 0.157436 0.82
1 0.136752 0.85
1 0.116068 0.88
1 0.0953846 0.91
1 0.0747009 0.94
1 0.0540171 0.97
1 0.619231 0.1
1 0.599701 0.13
1 0.580171 0.16
1 0.560641 0.19
1 0.541111 0.22
1 0.521581 0.25
1 0.502051 0.28
1 0.482521 0.31
1 0.462991 0.34
1 0.443462 0.37
1 0.423932 0.4
1 0.404402 0.43
1 0.384872 0.46
1 0.365342 0.49
1 0.345812 0.52
1 0.326282 0.55
1 0.306752 0.58
1 0.287222 0.61
1 0.267692 0.64
1 0.248162 0.67
1 0.228632 0.7
1 0.209103 0.73
1 0.189573 0.76
1 0.170043 0.79
1 0.150513 0.82
1 0.130983 0.85
1 0.111453 0.88
1 0.0919231 0.91
1 0.0723932 0.94
1 0.0528632 0.97
1 0.584615 0.1
1 0.566239 0.13
1 0.547863 0.16
1 0.529487 0.19
1 0.511111 0.22
1 0.492735 0.25
1 0.474359 0.28
1 0.455983 0.31
1 0.437607 0.34
1 0.419231 0.37
1 0.400855 0.4
1 0.382479 0.43
1 0.364103 0.46
1 0.345726 0.49
1 0.32735 0.52
1 0.308974 0.55
1 0.290598 0.58
1 0.272222 0.61
1 0.253846 0.64
1 0.23547 0.67
1 0.217094 0.7
1 0.198718 0.73
1 0.180342 0.76
1 0.161966 0.79
1 0.14359 0.82
1 0.125214 0.85
1 0.106838 0.88
1 0.0884615 0.91
1 0.0700855 0.94
1 0.0517094 0.97
1 0.55 0.1
1 0.532778 0.13
1 0.515556 0.16
1 0.498333 0.19
1 0.481111 0.22
1 0.463889 0.25
1 0.446667 0.28
1 0.429444 0.31
1 0.412222 0.34
1 0.395 0.37
1 0.377778 0.4
1 0.360556 0.43
1 0.343333 0.46
1 0.326111 0.49
1 0.308889 0.52
1 0.291667 0.55
1 0.274444 0.58
1 0.257222 0.61
1 0.24 0.64
1 0.222778 0.67
1 0.205556 0.7
1 0.188333 0.73
1 0.171111 0.76
1 0.153889 0.79
1 0.136667 0.82
1 0.119444 0.85
1 0.102222 0.88
1 0.085 0.91
1 0.0677778 0.94
1 0.0505556 0.97
1 0.532692 0.1
1 0.516603 0.13
1 0.500513 0.16
1 0.484423 0.19
1 0.468333 0.22
1 0.452244 0.25
1 0.436154 0.28
1 0.420064 0.31
1 0.403974 0.34
1 0.387885 0.37
1 0.371795 0.4
1 0.355705 0.43
1 0.339615 0.46
1 0.323526 0.49
1 0.307436 0.52
1 0.291346 0.55
1 0.275256 0.58
1 0.259167 0.61
1 0.243077 0.64
1 0.226987 0.67
1 0.210897 0.7
1 0.194808 0.73
1 0.178718 0.76
1 0.162628 0.79
1 0.146538 0.82
1 0.130449 0.85
1 0.114359 0.88
1 0.0982692 0.91
1 0.0821795 0.94
1 0.0660897 0.97
1 0.05 1
1 0.498077 0.1
1 0.483141 0.13
1 0.468205 0.16
1 0.453269 0.19
1 0.438333 0.22
1 0.423397 0.25
1 0.408462 0.28
1 0.393526 0.31
1 0.37859 0.34
1 0.363654 0.37
1 0.348718 0.4
1 0.333782 0.43
1 0.318846 0.46
1 0.30391 0.49
1 0.288974 0.52
1 0.274038 0.55
1 0.259103 0.58
1 0.244167 0.61
1 0.229231 0.64
1 0.214295 0.67
1 0.199359 0.7
1 0.184423 0.73
1 0.169487 0.76
1 0.154551 0.79
1 0.139615 0.82
1 0.124679 0.85
1 0.109744 0.88
1 0.0948077 0.91
1 0.0798718 0.94
1 0.0649359 0.97
1 0.463462 0.1
1 0.449679 0.13
1 0.435897 0.16
1 0.422115 0.19
1 0.408333 0.22
1 0.394551 0.25
1 0.380769 0.28
1 0.366987 0.31
1 0.353205 0.34
1 0.339423 0.37
1 0.325641 0.4
1 0.311859 0.43
1 0.298077 0.46
1 0.284295 0.49
1 0.270513 0.52
1 0.256731 0.55
1 0.242949 0.58
1 0.229167 0.61
1 0.215385 0.64
1 0.201603 0.67
1 0.187821 0.7
1 0.174038 0.73
1 0.160256 0.76
1 0.146474 0.79
1 0.132692 0.82
1 0.11891 0.85
1 0.105128 0.88
1 0.0913462 0.91
1 0.0775641 0.94
1 0.0637821 0.97
1 0.428846 0.1
1 0.416218 0.13
1 0.40359 0.16
1 0.390962 0.19
1 0.378333 0.22
1 0.365705 0.25
1 0.353077 0.28
1 0.340449 0.31
1 0.327821 0.34
1 0.315192 0.37
1 0.302564 0.4
1 0.289936 0.43
1 0.277308 0.46
1 0.264679 0.49
1 0.252051 0.52
1 0.239423 0.55
1 0.226795 0.58
1 0.214167 0.61
1 0.201538 0.64
1 0.18891 0.67
1 0.176282 0.7
1 0.163654 0.73
1 0.151026 0.76
1 0.138397 0.79
1 0.125769 0.82
1 0.113141 0.85
1 0.100513 0.88
1 0.0878846 0.91
1 0.0752564 0.94
1 0.0626282 0.97
1 0.394231 0.1
1 0.382756 0.13
1 0.371282 0.16
1 0.359808 0.19
1 0.348333 0.22
1 0.336859 0.25
1 0.325385 0.28
1 0.31391 0.31
1 0.302436 0.34
1 0.290962 0.37
1 0.279487 0.4
1 0.268013 0.43
1 0.256538 0.46
1 0.245064 0.49
1 0.23359 0.52
1 0.222115 0.55
1 0.210641 0.58
1 0.199167 0.61
1 0.187692 0.64
1 0.176218 0.67
1 0.164744 0.7
1 0.153269 0.73
1 0.141795 0.76
1 0.130321 0.79
1 0.118846 0.82
1 0.107372 0.85
1 0.0958974 0.88
1 0.0844231 0.91
1 0.0729487 0.94
1 0.0614744 0.97
1 0.376923 0.1
1 0.366581 0.13
1 0.356239 0.16
1 0.345897 0.19
1 0.335556 0.22
1 0.325214 0.25
1 0.314872 0.28
1 0.30453 0.31
1 0.294188 0.34
1 0.283846 0.37
1 0.273504 0.4
1 0.263162 0.43
1 0.252821 0.46
1 0.242479 0.49
1 0.232137 0.52
1 0.221795 0.55
1 0.211453 0.58
1 0.201111 0.61
1 0.190769 0.64
1 0.180427 0.67
1 0.170085 0.7
1 0.159744 0.73
1 0.149402 0.76
1 0.13906 0.79
1 0.128718 0.82
1 0.118376 0.85
1 0.108034 0.88
1 0.0976923 0.91
1 0.0873504 0.94
1 0.0770085 0.97
1 0.0666667 1
1 0.342308 0.1
1 0.33312 0.13
1 0.323932 0.16
1 0.314744 0.19
1 0.305556 0.22
1 0.296368 0.25
1 0.287179 0.28
1 0.277991 0.31
1 0.268803 0.34
1 0.259615 0.37
1 0.250427 0.4
1 0.241239 0.43
1 0.232051 0.46
1 0.222863 0.49
1 0.213675 0.52
1 0.204487 0.55
1 0.195299 0.58
1 0.186111 0.61
1 0.176923 0.64
1 0.167735 0.67
1 0.158547 0.7
1 0.149359 0.73
1 0.140171 0.76
1 0.130983 0.79
1 0.121795 0.82
1 0.112607 0.85
1 0.103419 0.88
1 0.0942308 0.91
1 0.0850427 0.94
1 0.0758547 0.97
1 0.307692 0.1
1 0.299658 0.13
1 0.291624 0.16
1 0.28359 0.19
1 0.275556 0.22
1 0.267521 0.25
1 0.259487 0.28
1 0.251453 0.31
1 0.243419 0.34
1 0.235385 0.37
1 0.22735 0.4
1 0.219316 0.43
1 0.211282 0.46
1 0.203248 0.49
1 0.195214 0.52
1 0.187179 0.55
1 0.179145 0.58
1 0.171111 0.61
1 0.163077 0.64
1 0.155043 0.67
1 0.147009 0.7
1 0.138974 0.73
1 0.13094 0.76
1 0.122906 0.79
1 0.114872 0.82
1 0.106838 0.85
1 0.0988034 0.88
1 0.0907692 0.91
1 0.082735 0.94
1 0.0747009 0.97
1 0.273077 0.1
1 0.266197 0.13
1 0.259316 0.16
1 0.252436 0.19
1 0.245556 0.22
1 0.238675 0.25
1 0.231795 0.28
1 0.224915 0.31
1 0.218034 0.34
1 0.211154 0.37
1 0.204274 0.4
1 0.197393 0.43
1 0.190513 0.46
1 0.183632 0.49
1 0.176752 0.52
1 0.169872 0.55
1 0.162991 0.58
1 0.156111 0.61
1 0.149231 0.64
1 0.14235 0.67
1 0.13547 0.7
1 0.12859 0.73
1 0.121709 0.76
1 0.114829 0.79
1 0.107949 0.82
1 0.101068 0.85
1 0.094188 0.88
1 0.0873077 0.91
1 0.0804274 0.94
1 0.073547 0.97
1 0.238462 0.1
1 0.232735 0.13
1 0.227009 0.16
1 0.221282 0.19
1 0.215556 0.22
1 0.209829 0.25
1 0.204103 0.28
1 0.198376 0.31
1 0.19265 0.34
1 0.186923 0.37
1 0.181197 0.4
1 0.17547 0.43
1 0.169744 0.46
1 0.164017 0.49
1 0.158291 0.52
1 0.152564 0.55
1 0.146838 0.58
1 0.141111 0.61
1 0.135385 0.64
1 0.129658 0.67
1 0.123932 0.7
1 0.118205 0.73
1 0.112479 0.76
1 0.106752 0.79
1 0.101026 0.82
1 0.0952991 0.85
1 0.0895726 0.88
1 0.0838462 0.91
1 0.0781197 0.94
1 0.0723932 0.97
1 0.221154 0.1
1 0.21656 0.13
1 0.211966 0.16
1 0.207372 0.19
1 0.202778 0.22
1 0.198184 0.25
1 0.19359 0.28
1 0.188996 0.31
1 0.184402 0.34
1 0.179808 0.37
1 0.175214 0.4
1 0.17062 0.43
1 0.166026 0.46
1 0.161432 0.49
1 0.156838 0.52
1 0.152244 0.55
1 0.14765 0.58
1 0.143056 0.61
1 0.138462 0.64
1 0.133868 0.67
1 0.129274 0.7
1 0.124679 0.73
1 0.120085 0.76
1 0.115491 0.79
1 0.110897 0.82
1 0.106303 0.85
1 0.101709 0.88
1 0.0971154 0.91
1 0.0925214 0.94
1 0.0879274 0.97
1 0.0833333 1
1 0.186538 0.1
1 0.183098 0.13
1 0.179658 0.16
1 0.176218 0.19
1 0.172778 0.22
1 0.169338 0.25
1 0.165897 0.28
1 0.162457 0.31
1 0.159017 0.34
1 0.155577 0.37
1 0.152137 0.4
1 0.148697 0.43
1 0.145256 0.46
1 0.141816 0.49
1 0.138376 0.52
1 0.134936 0.55
1 0.131496 0.58
1 0.128056 0.61
1 0.124615 0.64
1 0.121175 0.67
1 0.117735 0.7
1 0.114295 0.73
1 0.110855 0.76
1 0.107415 0.79
1 0.103974 0.82
1 0.100534 0.85
1 0.097094 0.88
1 0.0936538 0.91
1 0.0902137 0.94
1 0.0867735 0.97
1 0.151923 0.1
1 0.149637 0.13
1 0.14735 0.16
1 0.145064 0.19
1 0.142778 0.22
1 0.140491 0.25
1 0.138205 0.28
1 0.135919 0.31
1 0.133632 0.34
1 0.131346 0.37
1 0.12906 0.4
1 0.126774 0.43
1 0.124487 0.46
1 0.122201 0.49
1 0.119915 0.52
1 0.117628 0.55
1 0.115342 0.58
1 0.113056 0.61
1 0.110769 0.64
1 0.108483 0.67
1 0.106197 0.7
1 0.10391 0.73
1 0.101624 0.76
1 0.0993376 0.79
1 0.0970513 0.82
1 0.094765 0.85
1 0.0924786 0.88
1 0.0901923 0.91
1 0.087906 0.94
1 0.0856197 0.97
1 0.117308 0.1
1 0.116175 0.13
1 0.115043 0.16
1 0.11391 0.19
1 0.112778 0.22
1 0.111645 0.25
1 0.110513 0.28
1 0.10938 0.31
1 0.108248 0.34
1 0.107115 0.37
1 0.105983 0.4
1 0.10485 0.43
1 0.103718 0.46
1 0.102585 0.49
1 0.101453 0.52
1 0.100321 0.55
1 0.099188 0.58
1 0.0980556 0.61
1 0.0969231 0.64
1 0.0957906 0.67
1 0.0946581 0.7
1 0.0935256 0.73
1 0.0923932 0.76
1 0.0912607 0.79
1 0.0901282 0.82
1 0.0889957 0.85
1 0.0878632 0.88
1 0.0867308 0.91
1 0.0855983 0.94
1 0.0844658 0.97
1 0.1 0.1
1 0.1 0.13
1 0.1 0.16
1 0.1 0.19
1 0.1 0.22
1 0.1 0.25
1 0.1 0.28
1 0.1 0.31
1 0.1 0.34
1 0.1 0.37
1 0.1 0.4
1 0.1 0.43
1 0.1 0.46
1 0.1 0.49
1 0.1 0.52
1 0.1 0.55
1 0.1 0.58
1 0.1 0.61
1 0.1 0.64
1 0.1 0.67
1 0.1 0.7
1 0.1 0.73
1 0.1 0.76
1 0.1 0.79
1 0.1 0.82
1 0.1 0.85
1 0.1 0.88
1 0.1 0.91
1 0.1 0.94
1 0.1 0.97
1 0.1 1
3 0 1 32
3 0 32 31
3 31 32 62
3 31 62 61
3 61 62 92
3 61 92 91
3 91 92 122
3 91 122 121
3 121 122 152
3 121 152 151
3 151 152 183
3 151 183 182
3 182 183 213
3 182 213 212
3 212 213 243
3 212 243 242
3 242 243 273
3 242 273 272
3 272 273 303
3 272 303 302
3 302 303 334
3 302 334 333
3 333 334 364
3 333 364 363
3 363 364 394
3 363 394 393
3 393 394 424
3 393 424 423
3 423 424 454
3 423 454 453
3 453 454 485
3 453 485 484
3 484 485 515
3 484 515 514
3 514 515 545
3 514 545 544
3 544 545 575
3 544 575 574
3 574 575 605
3 574 605 604
3 604 605 636
3 604 636 635
3 635 636 666
3 635 666 665
3 665 666 696
3 665 696 695
3 695 696 726
3 695 726 725
3 725 726 756
3 725 756 755
3 755 756 787
3 755 787 786
3 786 787 817
3 786 817 816
3 816 817 847
3 816 847 846
3 846 847 877
3 846 877 876
3 1 2 33
3 1 33 32
3 32 33 63
3 32 63 62
3 62 63 93
3 62 93 92
3 92 93 123
3 92 123 122
3 122 123 153
3 122 153 152
3 152 153 184
3 152 184 183
3 183 184 214
3 183 214 213
3 213 214 244
3 213 244 243
3 243 244 274
3 243 274 273
3 273 274 304
3 273 304 303
3 303 304 335
3 303 335 334
3 334 335 365
3 334 365 364
3 364 365 395
3 364 395 394
3 394 395 425
3 394 425 424
3 424 425 455
3 424 455 454
3 454 455 486
3 454 486 485
3 485 486 516
3 485 516 515
3 515 516 546
3 515 546 545
3 545 546 576
3 545 576 575
3 575 576 606
3 575 606 605
3 605 606 637
3 605 637 636
3 636 637 667
3 636 667 666
3 666 667 697
3 666 697 696
3 696 697 727
3 696 727 726
3 726 727 757
3 726 757 756
3 756 757 788
3 756 788 787
3 787 788 818
3 787 818 817
3 817 818 848
3 817 848 847
3 847 848 878
3 847 878 877
3 2 3 34
3 2 34 33
3 33 34 64
3 33 64 63
3 63 64 94
3 63 94 93
3 93 94 124
3 93 124 123
3 123 124 154
3 123 154 153
3 153 154 185
3 153 185 184
3 184 185 215
3 184 215 214
3 214 215 245
3 214 245 244
3 244 245 275
3 244 275 274
3 274 275 305
3 274 305 304
3 304 305 336
3 304 336 335
3 335 336 366
3 335 366 365
3 365 366 396
3 365 396 395
3 395 396 426
3 395 426 425
3 425 426 456
3 425 456 455
3 455 456 487
3 455 487 486
3 486 487 517
3 486 517 516
3 516 517 547
3 516 547 546
3 546 547 577
3 546 577 576
3 576 577 607
3 576 607 606
3 606 607 638
3 606 638 637
3 637 638 668
3 637 668 667
3 667 668 698
3 667 698 697
3 697 698 728
3 697 728 727
3 727 728 758
3 727 758 757
3 757 758 789
3 757 789 788
3 788 789 819
3 788 819 818
3 818 819 849
3 818 849 848
3 848 849 879
3 848 879 878
3 3 4 35
3 3 35 34
3 34 35 65
3 34 65 64
3 64 65 95
3 64 95 94
3 94 95 125
3 94 125 124
3 124 125 155
3 124 155 154
3 154 155 186
3 154 186 185
3 185 186 216
3 185 216 215
3 215 216 246
3 215 246 245
3 245 246 276
3 245 276 275
3 275 276 306
3 275 306 305
3 305 306 337
3 305 337 336
3 336 337 367
3 336 367 366
3 366 367 397
3 366 397 396
3 396 397 427
3 396 427 426
3 426 427 457
3 426 457 456
3 456 457 488
3 456 488 487
3 487 488 518
3 487 518 517
3 517 518 548
3 517 548 547
3 547 548 578
3 547 578 577
3 577 578 608
3 577 608 607
3 607 608 639
3 607 639 638
3 638 639 669
3 638 669 668
3 668 669 699
3 668 699 698
3 698 699 729
3 698 729 728
3 728 729 759
3 728 759 758
3 758 759 790
3 758 790 789
3 789 790 820
3 789 820 819
3 819 820 850
3 819 850 849
3 849 850 880
3 849 880 879
3 4 5 36
3 4 36 35
3 35 36 66
3 35 66 65
3 65 66 96
3 65 96 95
3 95 96 126
3 95 126 125
3 125 126 156
3 125 156 155
3 155 156 187
3 155 187 186
3 186 187 217
3 186 217 216
3 216 217 247
3 216 247 246
3 246 247 277
3 246 277 276
3 276 277 307
3 276 307 306
3 306 307 338
3 306 338 337
3 337 338 368
3 337 368 367
3 367 368 398
3 367 398 397
3 397 398 428
3 397 428 427
3 427 428 458
3 427 458 457
3 457 458 489
3 457 489 488
3 488 489 519
3 488 519 518
3 518 519 549
3 518 549 548
3 548 549 579
3 548 579 578
3 578 579 609
3 578 609 608
3 608 609 640
3 608 640 639
3 639 640 670
3 639 670 669
3 669 670 700
3 669 700 699
3 699 700 730
3 699 730 729
3 729 730 760
3 729 760 759
3 759 760 791
3 759 791 790
3 790 791 821
3 790 821 820
3 820 821 851
3 820 851 850
3 850 851 881
3 850 881 880
3 5 6 37
3 5 37 36
3 36 37 67
3 36 67 66
3 66 67 97
3 66 97 96
3 96 97 127
3 96 127 126
3 126 127 157
3 126 157 156
3 156 157 188
3 156 188 187
3 187 188 218
3 187 218 217
3 217 218 248
3 217 248 247
3 247 248 278
3 247 278 277
3 277 278 308
3 277 308 307
3 307 308 339
3 307 339 338
3 338 339 369
3 338 369 368
3 368 369 399
3 368 399 398
3 398 399 429
3 398 429 428
3 428 429 459
3 428 459 458
3 458 459 490
3 458 490 489
3 489 490 520
3 489 520 519
3 519 520 550
3 519 550 549
3 549 550 580
3 549 580 579
3 579 580 610
3 579 610 609
3 609 610 641
3 609 641 640
3 640 641 671
3 640 671 670
3 670 671 701
3 670 701 700
3 700 701 731
3 700 731 730
3 730 731 761
3 730 761 760
3 760 761 792
3 760 792 791
3 791 792 822
3 791 822 821
3 821 822 852
3 821 852 851
3 851 852 882
3 851 882 881
3 6 7 38
3 6 38 37
3 37 38 68
3 37 68 67
3 67 68 98
3 67 98 97
3 97 98 128
3 97 128 127
3 127 128 158
3 127 158 157
3 157 158 189
3 157 189 188
3 188 189 219
3 188 219 218
3 218 219 249
3 218 249 248
3 248 249 279
3 248 279 278
3 278 279 309
3 278 309 308
3 308 309 340
3 308 340 339
3 339 340 370
3 339 370 369
3 369 370 400
3 369 400 399
3 399 400 430
3 399 430 429
3 429 430 460
3 429 460 459
3 459 460 491
3 459 491 490
3 490 491 521
3 490 521 520
3 520 521 551
3 520 551 550
3 550 551 581
3 550 581 580
3 580 581 611
3 580 611 610
3 610 611 642
3 610 642 641
3 641 642 672
3 641 672 671
3 671 672 702
3 671 702 701
3 701 702 732
3 701 732 731
3 731 732 762
3 731 762 761
3 761 762 793
3 761 793 792
3 792 793 823
3 792 823 822
3 822 823 853
3 822 853 852
3 852 853 883
3 852 883 882
3 7 8 39
3 7 39 38
3 38 39 69
3 38 69 68
3 68 69 99
3 68 99 98
3 98 99 129
3 98 129 128
3 128 129 159
3 128 159 158
3 158 159 190
3 158 190 189
3 189 190 220
3 189 220 219
3 219 220 250
3 219 250 249
3 249 250 280
3 249 280 279
3 279 280 310
3 279 310 309
3 309 310 341
3 309 341 340
3 340 341 371
3 340 371 370
3 370 371 401
3 370 401 400
3 400 401 431
3 400 431 430
3 430 431 461
3 430 461 460
3 460 461 492
3 460 492 491
3 491 492 522
3 491 522 521
3 521 522 552
3 521 552 551
3 551 552 582
3 551 582 581
3 581 582 612
3 581 612 611
3 611 612 643
3 611 643 642
3 642 643 673
3 642 673 672
3 672 673 703
3 672 703 702
3 702 703 733
3 702 733 732
3 732 733 763
3 732 763 762
3 762 763 794
3 762 794 793
3 793 794 824
3 793 824 823
3 823 824 854
3 823 854 853
3 853 854 884
3 853 884 883
3 8 9 40
3 8 40 39
3 39 40 70
3 39 70 69
3 69 70 100
3 69 100 99
3 99 100 130
3 99 130 129
3 129 130 160
3 129 160 159
3 159 160 191
3 159 191 190
3 190 191 221
3 190 221 220
3 220 221 251
3 220 251 250
3 250 251 281
3 250 281 280
3 280 281 311
3 280 311 310
3 310 311 342
3 310 342 341
3 341 342 372
3 341 372 371
3 371 372 402
3 371 402 401
3 401 402 432
3 401 432 431
3 431 432 462
3 431 462 461
3 461 462 493
3 461 493 492
3 492 493 523
3 492 523 522
3 522 523 553
3 522 553 552
3 552 553 583
3 552 583 582
3 582 583 613
3 582 613 612
3 612 613 644
3 612 644 643
3 643 644 674
3 643 674 673
3 673 674 704
3 673 704 703
3 703 704 734
3 703 734 733
3 733 734 764
3 733 764 763
3 763 764 795
3 763 795 794
3 794 795 825
3 794 825 824
3 824 825 855
3 824 855 854
3 854 855 885
3 854 885 884
3 9 10 41
3 9 41 40
3 40 41 71
3 40 71 70
3 70 71 101
3 70 101 100
3 100 101 131
3 100 131 130
3 130 131 161
3 130 161 160
3 160 161 192
3 160 192 191
3 191 192 222
3 191 222 221
3 221 222 252
3 221 252 251
3 251 252 282
3 251 282 281
3 281 282 312
3 281 312 311
3 311 312 343
3 311 343 342
3 342 343 373
3 342 373 372
3 372 373 403
3 372 403 402
3 402 403 433
3 402 433 432
3 432 433 463
3 432 463 462
3 462 463 494
3 462 494 493
3 493 494 524
3 493 524 523
3 523 524 554
3 523 554 553
3 553 554 584
3 553 584 583
3 583 584 614
3 583 614 613
3 613 614 645
3 613 645 644
3 644 645 675
3 644 675 674
3 674 675 705
3 674 705 704
3 704 705 735
3 704 735 734
3 734 735 765
3 734 765 764
3 764 765 796
3 764 796 795
3 795 796 826
3 795 826 825
3 825 826 856
3 825 856 855
3 855 856 886
3 855 886 885
3 10 11 42
3 10 42 41
3 41 42 72
3 41 72 71
3 71 72 102
3 71 102 101
3 101 102 132
3 101 132 131
3 131 132 162
3 131 162 161
3 161 162 193
3 161 193 192
3 192 193 223
3 192 223 222
3 222 223 253
3 222 253 252
3 252 253 283
3 252 283 282
3 282 283 313
3 282 313 312
3 312 313 344
3 312 344 343
3 343 344 374
3 343 374 373
3 373 374 404
3 373 404 403
3 403 404 434
3 403 434 433
3 433 434 464
3 433 464 463
3 463 464 495
3 463 495 494
3 494 495 525
3 494 525 524
3 524 525 555
3 524 555 554
3 554 555 585
3 554 585 584
3 584 585 615
3 584 615 614
3 614 615 646
3 614 646 645
3 645 646 676
3 645 676 675
3 675 676 706
3 675 706 705
3 705 706 736
3 705 736 735
3 735 736 766
3 735 766 765
3 765 766 797
3 765 797 796
3 796 797 827
3 796 827 826
3 826 827 857
3 826 857 856
3 856 857 887
3 856 887 886
3 11 12 43
3 11 43 42
3 42 43 73
3 42 73 72
3 72 73 103
3 72 103 102
3 102 103 133
3 102 133 132
3 132 133 163
3 132 163 162
3 162 163 194
3 162 194 193
3 193 194 224
3 193 224 223
3 223 224 254
3 223 254 253
3 253 254 284
3 253 284 283
3 283 284 314
3 283 314 313
3 313 314 345
3 313 345 344
3 344 345 375
3 344 375 374
3 374 375 405
3 374 405 404
3 404 405 435
3 404 435 434
3 434 435 465
3 434 465 464
3 464 465 496
3 464 496 495
3 495 496 526
3 495 526 525
3 525 526 556
3 525 556 555
3 555 556 586
3 555 586 585
3 585 586 616
3 585 616 615
3 615 616 647
3 615 647 646
3 646 647 677
3 646 677 676
3 676 677 707
3 676 707 706
3 706 707 737
3 706 737 736
3 736 737 767
3 736 767 766
3 766 767 798
3 766 798 797
3 797 798 828
3 797 828 827
3 827 828 858
3 827 858 857
3 857 858 888
3 857 888 887
3 12 13 44
3 12 44 43
3 43 44 74
3 43 74 73
3 73 74 104
3 73 104 103
3 103 104 134
3 103 134 133
3 133 134 164
3 133 164 163
3 163 164 195
3 163 195 194
3 194 195 225
3 194 225 224
3 224 225 255
3 224 255 254
3 254 255 285
3 254 285 284
3 284 285 315
3 284 315 314
3 314 315 346
3 314 346 345
3 345 346 376
3 345 376 375
3 375 376 406
3 375 406 405
3 405 406 436
3 405 436 435
3 435 436 466
3 435 466 465
3 465 466 497
3 465 497 496
3 496 497 527
3 496 527 526
3 526 527 557
3 526 557 556
3 556 557 587
3 556 587 586
3 586 587 617
3 586 617 616
3 616 617 648
3 616 648 647
3 647 648 678
3 647 678 677
3 677 678 708
3 677 708 707
3 707 708 738
3 707 738 737
3 737 738 768
3 737 768 767
3 767 768 799
3 767 799 798
3 798 799 829
3 798 829 828
3 828 829 859
3 828 859 858
3 858 859 889
3 858 889 888
3 13 14 45
3 13 45 44
3 44 45 75
3 44 75 74
3 74 75 105
3 74 105 104
3 104 105 135
3 104 135 134
3 134 135 165
3 134 165 164
3 164 165 196
3 164 196 195
3 195 196 226
3 195 226 225
3 225 226 256
3 225 256 255
3 255 256 286
3 255 286 285
3 285 286 316
3 285 316 315
3 315 316 347
3 315 347 346
3 346 347 377
3 346 377 376
3 376 377 407
3 376 407 406
3 406 407 437
3 406 437 436
3 436 437 467
3 436 467 466
3 466 467 498
3 466 498 497
3 497 498 528
3 497 528 527
3 527 528 558
3 527 558 557
3 557 558 588
3 557 588 587
3 587 588 618
3 587 618 617
3 617 618 649
3 617 649 648
3 648 649 679
3 648 679 678
3 678 679 709
3 678 709 708
3 708 709 739
3 708 739 738
3 738 739 769
3 738 769 768
3 768 769 800
3 768 800 799
3 799 800 830
3 799 830 829
3 829 830 860
3 829 860 859
3 859 860 890
3 859 890 889
3 14 15 46
3 14 46 45
3 45 46 76
3 45 76 75
3 75 76 106
3 75 106 105
3 105 106 136
3 105 136 135
3 135 136 166
3 135 166 165
3 165 166 197
3 165 197 196
3 196 197 227
3 196 227 226
3 226 227 257
3 226 257 256
3 256 257 287
3 256 287 286
3 286 287 317
3 286 317 316
3 316 317 348
3 316 348 347
3 347 348 378
3 347 378 377
3 377 378 408
3 377 408 407
3 407 408 438
3 407 438 437
3 437 438 468
3 437 468 467
3 467 468 499
3 467 499 498
3 498 499 529
3 498 529 528
3 528 529 559
3 528 559 558
3 558 559 589
3 558 589 588
3 588 589 619
3 588 619 618
3 618 619 650
3 618 650 649
3 649 650 680
3 649 680 679
3 679 680 710
3 679 710 709
3 709 710 740
3 709 740 739
3 739 740 770
3 739 770 769
3 769 770 801
3 769 801 800
3 800 801 831
3 800 831 830
3 830 831 861
3 830 861 860
3 860 861 891
3 860 891 890
3 15 16 47
3 15 47 46
3 46 47 77
3 46 77 76
3 76 77 107
3 76 107 106
3 106 107 137
3 106 137 136
3 136 137 167
3 136 167 166
3 166 167 198
3 166 198 197
3 197 198 228
3 197 228 227
3 227 228 258
3 227 258 257
3 257 258 288
3 257 288 287
3 287 288 318
3 287 318 317
3 317 318 349
3 317 349 348
3 348 349 379
3 348 379 378
3 378 379 409
3 378 409 408
3 408 409 439
3 408 439 438
3 438 439 469
3 438 469 468
3 468 469 500
3 468 500 499
3 499 500 530
3 499 530 529
3 529 530 560
3 529 560 559
3 559 560 590
3 559 590 589
3 589 590 620
3 589 620 619
3 619 620 651
3 619 651 650
3 650 651 681
3 650 681 680
3 680 681 711
3 680 711 710
3 710 711 741
3 710 741 740
3 740 741 771
3 740 771 770
3 770 771 802
3 770 802 801
3 801 802 832
3 801 832 831
3 831 832 862
3 831 862 861
3 861 862 892
3 861 892 891
3 16 17 48
3 16 48 47
3 47 48 78
3 47 78 77
3 77 78 108
3 77 108 107
3 107 108 138
3 107 138 137
3 137 138 168
3 137 168 167
3 167 168 199
3 167 199 198
3 198 199 229
3 198 229 228
3 228 229 259
3 228 259 258
3 258 259 289
3 258 289 288
3 288 289 319
3 288 319 318
3 318 319 350
3 318 350 349
3 349 350 380
3 349 380 379
3 379 380 410
3 379 410 409
3 409 410 440
3 409 440 439
3 439 440 470
3 439 470 469
3 469 470 501
3 469 501 500
3 500 501 531
3 500 531 530
3 530 531 561
3 530 561 560
3 560 561 591
3 560 591 590
3 590 591 621
3 590 621 620
3 620 621 652
3 620 652 651
3 651 652 682
3 651 682 681
3 681 682 712
3 681 712 711
3 711 712 742
3 711 742 741
3 741 742 772
3 741 772 771
3 771 772 803
3 771 803 802
3 802 803 833
3 802 833 832
3 832 833 863
3 832 863 862
3 862 863 893
3 862 893 892
3 17 18 49
3 17 49 48
3 48 49 79
3 48 79 78
3 78 79 109
3 78 109 108
3 108 109 139
3 108 139 138
3 138 139 169
3 138 169 168
3 168 169 200
3 168 200 199
3 199 200 230
3 199 230 229
3 229 230 260
3 229 260 259
3 259 260 290
3 259 290 289
3 289 290 320
3 289 320 319
3 319 320 351
3 319 351 350
3 350 351 381
3 350 381 380
3 380 381 411
3 380 411 410
3 410 411 441
3 410 441 440
3 440 441 471
3 440 471 470
3 470 471 502
3 470 502 501
3 501 502 532
3 501 532 531
3 531 532 562
3 531 562 561
3 561 562 592
3 561 592 591
3 591 592 622
3 591 622 621
3 621 622 653
3 621 653 652
3 652 653 683
3 652 683 682
3 682 683 713
3 682 713 712
3 712 713 743
3 712 743 742
3 742 743 773
3 742 773 772
3 772 773 804
3 772 804 803
3 803 804 834
3 803 834 833
3 833 834 864
3 833 864 863
3 863 864 894
3 863 894 893
3 18 19 50
3 18 50 49
3 49 50 80
3 49 80 79
3 79 80 110
3 79 110 109
3 109 110 140
3 109 140 139
3 139 140 170
3 139 170 169
3 169 170 201
3 169 201 200
3 200 201 231
3 200 231 230
3 230 231 261
3 230 261 260
3 260 261 291
3 260 291 290
3 290 291 321
3 290 321 320
3 320 321 352
3 320 352 351
3 351 352 382
3 351 382 381
3 381 382 412
3 381 412 411
3 411 412 442
3 411 442 441
3 441 442 472
3 441 472 471
3 471 472 503
3 471 503 502
3 502 503 533
3 502 533 532
3 532 533 563
3 532 563 562
3 562 563 593
3 562 593 592
3 592 593 623
3 592 623 622
3 622 623 654
3 622 654 653
3 653 654 684
3 653 684 683
3 683 684 714
3 683 714 713
3 713 714 744
3 713 744 743
3 743 744 774
3 743 774 773
3 773 774 805
3 773 805 804
3 804 805 835
3 804 835 834
3 834 835 865
3 834 865 864
3 864 865 895
3 864 895 894
3 19 20 51
3 19 51 50
3 50 51 81
3 50 81 80
3 80 81 111
3 80 111 110
3 110 111 141
3 110 141 140
3 140 141 171
3 140 171 170
3 170 171 202
3 170 202 201
3 201 202 232
3 201 232 231
3 231 232 262
3 231 262 261
3 261 262 292
3 261 292 291
3 291 292 322
3 291 322 321
3 321 322 353
3 321 353 352
3 352 353 383
3 352 383 382
3 382 383 413
3 382 413 412
3 412 413 443
3 412 443 442
3 442 443 473
3 442 473 472
3 472 473 504
3 472 504 503
3 503 504 534
3 503 534 533
3 533 534 564
3 533 564 563
3 563 564 594
3 563 594 593
3 593 594 624
3 593 624 623
3 623 624 655
3 623 655 654
3 654 655 685
3 654 685 684
3 684 685 715
3 684 715 714
3 714 715 745
3 714 745 744
3 744 745 775
3 744 775 774
3 774 775 806
3 774 806 805
3 805 806 836
3 805 836 835
3 835 836 866
3 835 866 865
3 865 866 896
3 865 896 895
3 20 21 52
3 20 52 51
3 51 52 82
3 51 82 81
3 81 82 112
3 81 112 111
3 111 112 142
3 111 142 141
3 141 142 172
3 141 172 171
3 171 172 203
3 171 203 202
3 202 203 233
3 202 233 232
3 232 233 263
3 232 263 262
3 262 263 293
3 262 293 292
3 292 293 323
3 292 323 322
3 322 323 354
3 322 354 353
3 353 354 384
3 353 384 383
3 383 384 414
3 383 414 413
3 413 414 444
3 413 444 443
3 443 444 474
3 443 474 473
3 473 474 505
3 473 505 504
3 504 505 535
3 504 535 534
3 534 535 565
3 534 565 564
3 564 565 595
3 564 595 594
3 594 595 625
3 594 625 624
3 624 625 656
3 624 656 655
3 655 656 686
3 655 686 685
3 685 686 716
3 685 716 715
3 715 716 746
3 715 746 745
3 745 746 776
3 745 776 775
3 775 776 807
3 775 807 806
3 806 807 837
3 806 837 836
3 836 837 867
3 836 867 866
3 866 867 897
3 866 897 896
3 21 22 53
3 21 53 52
3 52 53 83
3 52 83 82
3 82 83 113
3 82 113 112
3 112 113 143
3 112 143 142
3 142 143 173
3 142 173 172
3 172 173 204
3 172 204 203
3 203 204 234
3 203 234 233
3 233 234 264
3 233 264 263
3 263 264 294
3 263 294 293
3 293 294 324
3 293 324 323
3 323 324 355
3 323 355 354
3 354 355 385
3 354 385 384
3 384 385 415
3 384 415 414
3 414 415 445
3 414 445 444
3 444 445 475
3 444 475 474
3 474 475 506
3 474 506 505
3 505 506 536
3 505 536 535
3 535 536 566
3 535 566 565
3 565 566 596
3 565 596 595
3 595 596 626
3 595 626 625
3 625 626 657
3 625 657 656
3 656 657 687
3 656 687 686
3 686 687 717
3 686 717 716
3 716 717 747
3 716 747 746
3 746 747 777
3 746 777 776
3 776 777 808
3 776 808 807
3 807 808 838
3 807 838 837
3 837 838 868
3 837 868 867
3 867 868 898
3 867 898 897
3 22 23 54
3 22 54 53
3 53 54 84
3 53 84 83
3 83 84 114
3 83 114 113
3 113 114 144
3 113 144 143
3 143 144 174
3 143 174 173
3 173 174 205
3 173 205 204
3 204 205 235
3 204 235 234
3 234 235 265
3 234 265 264
3 264 265 295
3 264 295 294
3 294 295 325
3 294 325 324
3 324 325 356
3 324 356 355
3 355 356 386
3 355 386 385
3 385 386 416
3 385 416 415
3 415 416 446
3 415 446 445
3 445 446 476
3 445 476 475
3 475 476 507
3 475 507 506
3 506 507 537
3 506 537 536
3 536 537 567
3 536 567 566
3 566 567 597
3 566 597 596
3 596 597 627
3 596 627 626
3 626 627 658
3 626 658 657
3 657 658 688
3 657 688 687
3 687 688 718
3 687 718 717
3 717 718 748
3 717 748 747
3 747 748 778
3 747 778 777
3 777 778 809
3 777 809 808
3 808 809 839
3 808 839 838
3 838 839 869
3 838 869 868
3 868 869 899
3 868 899 898
3 23 24 55
3 23 55 54
3 54 55 85
3 54 85 84
3 84 85 115
3 84 115 114
3 114 115 145
3 114 145 144
3 144 145 175
3 144 175 174
3 174 175 206
3 174 206 205
3 205 206 236
3 205 236 235
3 235 236 266
3 235 266 265
3 265 266 296
3 265 296 295
3 295 296 326
3 295 326 325
3 325 326 357
3 325 357 356
3 356 357 387
3 356 387 386
3 386 387 417
3 386 417 416
3 416 417 447
3 416 447 446
3 446 447 477
3 446 477 476
3 476 477 508
3 476 508 507
3 507 508 538
3 507 538 537
3 537 538 568
3 537 568 567
3 567 568 598
3 567 598 597
3 597 598 628
3 597 628 627
3 627 628 659
3 627 659 658
3 658 659 689
3 658 689 688
3 688 689 719
3 688 719 718
3 718 719 749
3 718 749 748
3 748 749 779
3 748 779 778
3 778 779 810
3 778 810 809
3 809 810 840
3 809 840 839
3 839 840 870
3 839 870 869
3 869 870 900
3 869 900 899
3 24 25 56
3 24 56 55
3 55 56 86
3 55 86 85
3 85 86 116
3 85 116 115
3 115 116 146
3 115 146 145
3 145 146 176
3 145 176 175
3 175 176 207
3 175 207 206
3 206 207 237
3 206 237 236
3 236 237 267
3 236 267 266
3 266 267 297
3 266 297 296
3 296 297 327
3 296 327 326
3 326 327 358
3 326 358 357
3 357 358 388
3 357 388 387
3 387 388 418
3 387 418 417
3 417 418 448
3 417 448 447
3 447 448 478
3 447 478 477
3 477 478 509
3 477 509 508
3 508 509 539
3 508 539 538
3 538 539 569
3 538 569 568
3 568 569 599
3 568 599 598
3 598 599 629
3 598 629 628
3 628 629 660
3 628 660 659
3 659 660 690
3 659 690 689
3 689 690 720
3 689 720 719
3 719 720 750
3 719 750 749
3 749 750 780
3 749 780 779
3 779 780 811
3 779 811 810
3 810 811 841
3 810 841 840
3 840 841 871
3 840 871 870
3 870 871 901
3 870 901 900
3 25 26 57
3 25 57 56
3 56 57 87
3 56 87 86
3 86 87 117
3 86 117 116
3 116 117 147
3 116 147 146
3 146 147 177
3 146 177 176
3 176 177 208
3 176 208 207
3 207 208 238
3 207 238 237
3 237 238 268
3 237 268 267
3 267 268 298
3 267 298 297
3 297 298 328
3 297 328 327
3 327 328 359
3 327 359 358
3 358 359 389
3 358 389 388
3 388 389 419
3 388 419 418
3 418 419 449
3 418 449 448
3 448 449 479
3 448 479 478
3 478 479 510
3 478 510 509
3 509 510 540
3 509 540 539
3 539 540 570
3 539 570 569
3 569 570 600
3 569 600 599
3 599 600 630
3 599 630 629
3 629 630 661
3 629 661 660
3 660 661 691
3 660 691 690
3 690 691 721
3 690 721 720
3 720 721 751
3 720 751 750
3 750 751 781
3 750 781 780
3 780 781 812
3 780 812 811
3 811 812 842
3 811 842 841
3 841 842 872
3 841 872 871
3 871 872 902
3 871 902 901
3 26 27 58
3 26 58 57
3 57 58 88
3 57 88 87
3 87 88 118
3 87 118 117
3 117 118 148
3 117 148 147
3 147 148 178
3 147 178 177
3 177 178 209
3 177 209 208
3 208 209 239
3 208 239 238
3 238 239 269
3 238 269 268
3 268 269 299
3 268 299 298
3 298 299 329
3 298 329 328
3 328 329 360
3 328 360 359
3 359 360 390
3 359 390 389
3 389 390 420
3 389 420 419
3 419 420 450
3 419 450 449
3 449 450 480
3 449 480 479
3 479 480 511
3 479 511 510
3 510 511 541
3 510 541 540
3 540 541 571
3 540 571 570
3 570 571 601
3 570 601 600
3 600 601 631
3 600 631 630
3 630 631 662
3 630 662 661
3 661 662 692
3 661 692 691
3 691 692 722
3 691 722 721
3 721 722 752
3 721 752 751
3 751 752 782
3 751 782 781
3 781 782 813
3 781 813 812
3 812 813 843
3 812 843 842
3 842 843 873
3 842 873 872
3 872 873 903
3 872 903 902
3 27 28 59
3 27 59 58
3 58 59 89
3 58 89 88
3 88 89 119
3 88 119 118
3 118 119 149
3 118 149 148
3 148 149 179
3 148 179 178
3 178 179 210
3 178 210 209
3 209 210 240
3 209 240 239
3 239 240 270
3 239 270 269
3 269 270 300
3 269 300 299
3 299 300 330
3 299 330 329
3 329 330 361
3 329 361 360
3 360 361 391
3 360 391 390
3 390 391 421
3 390 421 420
3 420 421 451
3 420 451 450
3 450 451 481
3 450 481 480
3 480 481 512
3 480 512 511
3 511 512 542
3 511 542 541
3 541 542 572
3 541 572 571
3 571 572 602
3 571 602 601
3 601 602 632
3 601 632 631
3 631 632 663
3 631 663 662
3 662 663 693
3 662 693 692
3 692 693 723
3 692 723 722
3 722 723 753
3 722 753 752
3 752 753 783
3 752 783 782
3 782 783 814
3 782 814 813
3 813 814 844
3 813 844 843
3 843 844 874
3 843 874 873
3 873 874 904
3 873 904 903
3 28 29 60
3 28 60 59
3 59 60 90
3 59 90 89
3 89 90 120
3 89 120 119
3 119 120 150
3 119 150 149
3 149 150 180
3 149 180 179
3 179 180 211
3 179 211 210
3 210 211 241
3 210 241 240
3 240 241 271
3 240 271 270
3 270 271 301
3 270 301 300
3 300 301 331
3 300 331 330
3 330 331 362
3 330 362 361
3 361 362 392
3 361 392 391
3 391 392 422
3 391 422 421
3 421 422 452
3 421 452 451
3 451 452 482
3 451 482 481
3 481 482 513
3 481 513 512
3 512 513 543
3 512 543 542
3 542 543 573
3 542 573 572
3 572 573 603
3 572 603 602
3 602 603 633
3 602 633 632
3 632 633 664
3 632 664 663
3 663 664 694
3 663 694 693
3 693 694 724
3 693 724 723
3 723 724 754
3 723 754 753
3 753 754 784
3 753 784 783
3 783 784 815
3 783 815 814
3 814 815 845
3 814 845 844
3 844 845 875
3 844 875 874
3 874 875 905
3 874 905 904
3 29 30 60
3 60 30 90
3 90 30 120
3 120 30 150
3 150 30 181
3 150 181 180
3 180 181 211
3 211 181 241
3 241 181 271
3 271 181 301
3 301 181 332
3 301 332 331
3 331 332 362
3 362 332 392
3 392 332 422
3 422 332 452
3 452 332 483
3 452 483 482
3 482 483 513
3 513 483 543
3 543 483 573
3 573 483 603
3 603 483 634
3 603 634 633
3 633 634 664
3 664 634 694
3 694 634 724
3 724 634 754
3 754 634 785
3 754 785 784
3 784 785 815
3 815 785 845
3 845 785 875
3 875 785 906
3 875 906 905
