ply
format ascii 1.0
comment Created by Open3D
element vertex 110
property double x
property double y
property double z
element face 180
property list uchar uint vertex_indices
end_header
0 1 5.55112e-17
0.1 1 0.01
0.2 1 0.02
0.3 1 0.03
0.4 1 0.04
0.5 1 0.05
0.6 1 0.06
0.7 1 0.07
0.8 1 0.08
0.9 1 0.09
1 1 0.1
0 0.87931 5.55112e-17
0.0913462 0.891379 0.01
0.182692 0.903448 0.02
0.274038 0.915517 0.03
0.365385 0.927586 0.04
0.456731 0.939655 0.05
0.548077 0.951724 0.06
0.639423 0.963793 0.07
0.730769 0.975862 0.08
0.822115 0.987931 0.09
0.913462 1 0.1
0 0.775862 5.55112e-17
0.0809615 0.798276 0.01
0.161923 0.82069 0.02
0.242885 0.843103 0.03
0.323846 0.865517 0.04
0.404808 0.887931 0.05
0.485769 0.910345 0.06
0.566731 0.932759 0.07
0.647692 0.955172 0.08
0.728654 0.977586 0.09
0.809615 1 0.1
0 0.655172 5.55112e-17
0.0705769 0.689655 0.01
0.141154 0.724138 0.02
0.211731 0.758621 0.03
0.282308 0.793103 0.04
0.352885 0.827586 0.05
0.423462 0.862069 0.06
0.494038 0.896552 0.07
0.564615 0.931034 0.08
0.635192 0.965517 0.09
0.705769 1 0.1
0 0.551724 5.55112e-17
0.0601923 0.596552 0.01
0.120385 0.641379 0.02
0.180577 0.686207 0.03
0.240769 0.731034 0.04
0.300962 0.775862 0.05
0.361154 0.82069 0.06
0.421346 0.865517 0.07
0.481538 0.910345 0.08
0.541731 0.955172 0.09
0.601923 1 0.1
0 0.431034 5.55112e-17
0.0515385 0.487931 0.01
0.103077 0.544828 0.02
0.154615 0.601724 0.03
0.206154 0.658621 0.04
0.257692 0.715517 0.05
0.309231 0.772414 0.06
0.360769 0.82931 0.07
0.412308 0.886207 0.08
0.463846 0.943103 0.09
0.515385 1 0.1
0 0.327586 5.55112e-17
0.0411538 0.394828 0.01
0.0823077 0.462069 0.02
0.123462 0.52931 0.03
0.164615 0.596552 0.04
0.205769 0.663793 0.05
0.246923 0.731034 0.06
0.288077 0.798276 0.07
0.329231 0.865517 0.08
0.370385 0.932759 0.09
0.411538 1 0.1
0 0.206897 5.55112e-17
0.0307692 0.286207 0.01
0.0615385 0.365517 0.02
0.0923077 0.444828 0.03
0.123077 0.524138 0.04
0.153846 0.603448 0.05
0.184615 0.682759 0.06
0.215385 0.762069 0.07
0.246154 0.841379 0.08
0.276923 0.92069 0.09
0.307692 1 0.1
0 0.103448 5.55112e-17
0.0203846 0.193103 0.01
0.0407692 0.282759 0.02
0.0611538 0.372414 0.03
0.0815385 0.462069 0.04
0.101923 0.551724 0.05
0.122308 0.641379 0.06
0.142692 0.731034 0.07
0.163077 0.82069 0.08
0.183462 0.910345 0.09
0.203846 1 0.1
0 5.55112e-17 5.55112e-17
0.01 0.1 0.01
0.02 0.2 0.02
0.03 0.3 0.03
0.04 0.4 0.04
0.05 0.5 0.05
0.06 0.6 0.06
0.07 0.7 0.07
0.08 0.8 0.08
0.09 0.9 0.09
0.1 1 0.1
3 0 1 12
3 0 12 11
3 11 12 23
3 11 23 22
3 22 23 34
3 22 34 33
3 33 34 45
3 33 45 44
3 44 45 56
3 44 56 55
3 55 56 67
3 55 67 66
3 66 67 78
3 66 78 77
3 77 78 89
3 77 89 88
3 88 89 100
3 88 100 99
3 1 2 13
3 1 13 12
3 12 13 24
3 12 24 23
3 23 24 35
3 23 35 34
3 34 35 46
3 34 46 45
3 45 46 57
3 45 57 56
3 56 57 68
3 56 68 67
3 67 68 79
3 67 79 78
3 78 79 90
3 78 90 89
3 89 90 101
3 89 101 100
3 2 3 14
3 2 14 13
3 13 14 25
3 13 25 24
3 24 25 36
3 24 36 35
3 35 36 47
3 35 47 46
3 46 47 58
3 46 58 57
3 57 58 69
3 57 69 68
3 68 69 80
3 68 80 79
3 79 80 91
3 79 91 90
3 90 91 102
3 90 102 101
3 3 4 15
3 3 15 14
3 14 15 26
3 14 26 25
3 25 26 37
3 25 37 36
3 36 37 48
3 36 48 47
3 47 48 59
3 47 59 58
3 58 59 70
3 58 70 69
3 69 70 81
3 69 81 80
3 80 81 92
3 80 92 91
3 91 92 103
3 91 103 102
3 4 5 16
3 4 16 15
3 15 16 27
3 15 27 26
3 26 27 38
3 26 38 37
3 37 38 49
3 37 49 48
3 48 49 60
3 48 60 59
3 59 60 71
3 59 71 70
3 70 71 82
3 70 82 81
3 81 82 93
3 81 93 92
3 92 93 104
3 92 104 103
3 5 6 17
3 5 17 16
3 16 17 28
3 16 28 27
3 27 28 39
3 27 39 38
3 38 39 50
3 38 50 49
3 49 50 61
3 49 61 60
3 60 61 72
3 60 72 71
3 71 72 83
3 71 83 82
3 82 83 94
3 82 94 93
3 93 94 105
3 93 105 104
3 6 7 18
3 6 18 17
3 17 18 29
3 17 29 28
3 28 29 40
3 28 40 39
3 39 40 51
3 39 51 50
3 50 51 62
3 50 62 61
3 61 62 73
3 61 73 72
3 72 73 84
3 72 84 83
3 83 84 95
3 83 95 94
3 94 95 106
3 94 106 105
3 7 8 19
3 7 19 18
3 18 19 30
3 18 30 29
3 29 30 41
3 29 41 40
3 40 41 52
3 40 52 51
3 51 52 63
3 51 63 62
3 62 63 74
3 62 74 73
3 73 74 85
3 73 85 84
3 84 85 96
3 84 96 95
3 95 96 107
3 95 107 106
3 8 9 20
3 8 20 19
3 19 20 31
3 19 31 30
3 30 31 42
3 30 42 41
3 41 42 53
3 41 53 52
3 52 53 64
3 52 64 63
3 63 64 75
3 63 75 74
3 74 75 86
3 74 86 85
3 85 86 97
3 85 97 96
3 96 97 108
3 96 108 107
3 9 10 21
3 9 21 20
3 20 21 32
3 20 32 31
3 31 32 43
3 31 43 42
3 42 43 54
3 42 54 53
3 53 54 65
3 53 65 64
3 64 65 76
3 64 76 75
3 75 76 87
3 75 87 86
3 86 87 98
3 86 98 97
3 97 98 109
3 97 109 108
