ply
format ascii 1.0
comment Created by Open3D
element vertex 107
property double x
property double y
property double z
element face 177
property list uchar uint vertex_indices
end_header
1 0.1 1
0.91 0.19 1
0.82 0.28 1
0.73 0.37 1
0.64 0.46 1
0.55 0.55 1
0.46 0.64 1
0.37 0.73 1
0.28 0.82 1
0.19 0.91 1
0.1 1 1
1 0.0833333 1
0.91 0.164615 1
0.82 0.245897 1
0.73 0.327179 1
0.64 0.408462 1
0.55 0.489744 1
0.46 0.571026 1
0.37 0.652308 1
0.28 0.73359 1
0.19 0.814872 1
0.1 0.896154 1
1 0.0666667 1
0.91 0.139231 1
0.82 0.211795 1
0.73 0.284359 1
0.64 0.356923 1
0.55 0.429487 1
0.46 0.502051 1
0.37 0.574615 1
0.28 0.647179 1
0.19 0.719744 1
0.1 0.792308 1
0.91 0.128846 1
0.82 0.191026 1
0.73 0.253205 1
0.64 0.315385 1
0.55 0.377564 1
0.46 0.439744 1
0.37 0.501923 1
0.28 0.564103 1
0.19 0.626282 1
0.1 0.688462 1
1 0.05 1
0.91 0.103462 1
0.82 0.156923 1
0.73 0.210385 1
0.64 0.263846 1
0.55 0.317308 1
0.46 0.370769 1
0.37 0.424231 1
0.28 0.477692 1
0.19 0.531154 1
0.1 0.584615 1
1 0.0333333 1
0.91 0.0798077 1
0.82 0.126282 1
0.73 0.172756 1
0.64 0.219231 1
0.55 0.265705 1
0.46 0.312179 1
0.37 0.358654 1
0.28 0.405128 1
0.19 0.451603 1
0.1 0.498077 1
0.91 0.0694231 1
0.82 0.105513 1
0.73 0.141603 1
0.64 0.177692 1
0.55 0.213782 1
0.46 0.249872 1
0.37 0.285962 1
0.28 0.322051 1
0.19 0.358141 1
0.1 0.394231 1
1 0.0166667 1
0.91 0.0440385 1
0.82 0.0714103 1
0.73 0.0987821 1
0.64 0.126154 1
0.55 0.153526 1
0.46 0.180897 1
0.37 0.208269 1
0.28 0.235641 1
0.19 0.263013 1
0.1 0.290385 1
1 5.55112e-17 1
0.91 0.0186538 1
0.82 0.0373077 1
0.73 0.0559615 1
0.64 0.0746154 1
0.55 0.0932692 1
0.46 0.111923 1
0.37 0.130577 1
0.28 0.149231 1
0.19 0.167885 1
0.1 0.186538 1
0.91 0.01 1
0.82 0.02 1
0.73 0.03 1
0.64 0.04 1
0.55 0.05 1
0.46 0.06 1
0.37 0.07 1
0.28 0.08 1
0.19 0.09 1
0.1 0.1 1
3 0 1 12
3 0 12 11
3 11 12 23
3 11 23 22
3 22 23 33
3 22 33 44
3 22 44 43
3 43 44 55
3 43 55 54
3 54 55 65
3 54 65 76
3 54 76 75
3 75 76 87
3 75 87 86
3 86 87 97
3 1 2 13
3 1 13 12
3 12 13 24
3 12 24 23
3 23 24 34
3 23 34 33
3 33 34 45
3 33 45 44
3 44 45 56
3 44 56 55
3 55 56 66
3 55 66 65
3 65 66 77
3 65 77 76
3 76 77 88
3 76 88 87
3 87 88 98
3 87 98 97
3 2 3 14
3 2 14 13
3 13 14 25
3 13 25 24
3 24 25 35
3 24 35 34
3 34 35 46
3 34 46 45
3 45 46 57
3 45 57 56
3 56 57 67
3 56 67 66
3 66 67 78
3 66 78 77
3 77 78 89
3 77 89 88
3 88 89 99
3 88 99 98
3 3 4 15
3 3 15 14
3 14 15 26
3 14 26 25
3 25 26 36
3 25 36 35
3 35 36 47
3 35 47 46
3 46 47 58
3 46 58 57
3 57 58 68
3 57 68 67
3 67 68 79
3 67 79 78
3 78 79 90
3 78 90 89
3 89 90 100
3 89 100 99
3 4 5 16
3 4 16 15
3 15 16 27
3 15 27 26
3 26 27 37
3 26 37 36
3 36 37 48
3 36 48 47
3 47 48 59
3 47 59 58
3 58 59 69
3 58 69 68
3 68 69 80
3 68 80 79
3 79 80 91
3 79 91 90
3 90 91 101
3 90 101 100
3 5 6 17
3 5 17 16
3 16 17 28
3 16 28 27
3 27 28 38
3 27 38 37
3 37 38 49
3 37 49 48
3 48 49 60
3 48 60 59
3 59 60 70
3 59 70 69
3 69 70 81
3 69 81 80
3 80 81 92
3 80 92 91
3 91 92 102
3 91 102 101
3 6 7 18
3 6 18 17
3 17 18 29
3 17 29 28
3 28 29 39
3 28 39 38
3 38 39 50
3 38 50 49
3 49 50 61
3 49 61 60
3 60 61 71
3 60 71 70
3 70 71 82
3 70 82 81
3 81 82 93
3 81 93 92
3 92 93 103
3 92 103 102
3 7 8 19
3 7 19 18
3 18 19 30
3 18 30 29
3 29 30 40
3 29 40 39
3 39 40 51
3 39 51 50
3 50 51 62
3 50 62 61
3 61 62 72
3 61 72 71
3 71 72 83
3 71 83 82
3 82 83 94
3 82 94 93
3 93 94 104
3 93 104 103
3 8 9 20
3 8 20 19
3 19 20 31
3 19 31 30
3 30 31 41
3 30 41 40
3 40 41 52
3 40 52 51
3 51 52 63
3 51 63 62
3 62 63 73
3 62 73 72
3 72 73 84
3 72 84 83
3 83 84 95
3 83 95 94
3 94 95 105
3 94 105 104
3 9 10 21
3 9 21 20
3 20 21 32
3 20 32 31
3 31 32 42
3 31 42 41
3 41 42 53
3 41 53 52
3 52 53 64
3 52 64 63
3 63 64 74
3 63 74 73
3 73 74 85
3 73 85 84
3 84 85 96
3 84 96 95
3 95 96 106
3 95 106 105
