ply
format ascii 1.0
comment Created by Open3D
element vertex 107
property double x
property double y
property double z
element face 177
property list uchar uint vertex_indices
end_header
1 0.1 0.1
1 0.19 0.1
1 0.28 0.1
1 0.37 0.1
1 0.46 0.1
1 0.55 0.1
1 0.64 0.1
1 0.73 0.1
1 0.82 0.1
1 0.91 0.1
1 1 0.1
1 0.1 0.203846
1 0.19 0.193462
1 0.28 0.183077
1 0.37 0.172692
1 0.46 0.162308
1 0.55 0.151923
1 0.64 0.141538
1 0.73 0.131154
1 0.82 0.120769
1 0.91 0.110385
1 0.1 0.307692
1 0.19 0.285256
1 0.28 0.262821
1 0.37 0.240385
1 0.46 0.217949
1 0.55 0.195513
1 0.64 0.173077
1 0.73 0.150641
1 0.82 0.128205
1 0.91 0.105769
1 1 0.0833333
1 0.1 0.411538
1 0.19 0.377051
1 0.28 0.342564
1 0.37 0.308077
1 0.46 0.27359
1 0.55 0.239103
1 0.64 0.204615
1 0.73 0.170128
1 0.82 0.135641
1 0.91 0.101154
1 1 0.0666667
1 0.1 0.515385
1 0.19 0.470513
1 0.28 0.425641
1 0.37 0.380769
1 0.46 0.335897
1 0.55 0.291026
1 0.64 0.246154
1 0.73 0.201282
1 0.82 0.15641
1 0.91 0.111538
1 0.1 0.601923
1 0.19 0.546731
1 0.28 0.491538
1 0.37 0.436346
1 0.46 0.381154
1 0.55 0.325962
1 0.64 0.270769
1 0.73 0.215577
1 0.82 0.160385
1 0.91 0.105192
1 1 0.05
1 0.1 0.705769
1 0.19 0.638526
1 0.28 0.571282
1 0.37 0.504038
1 0.46 0.436795
1 0.55 0.369551
1 0.64 0.302308
1 0.73 0.235064
1 0.82 0.167821
1 0.91 0.100577
1 1 0.0333333
1 0.1 0.809615
1 0.19 0.731987
1 0.28 0.654359
1 0.37 0.576731
1 0.46 0.499103
1 0.55 0.421474
1 0.64 0.343846
1 0.73 0.266218
1 0.82 0.18859
1 0.91 0.110962
1 0.1 0.913462
1 0.19 0.823782
1 0.28 0.734103
1 0.37 0.644423
1 0.46 0.554744
1 0.55 0.465064
1 0.64 0.375385
1 0.73 0.285705
1 0.82 0.196026
1 0.91 0.106346
1 1 0.0166667
1 0.1 1
1 0.19 0.9
1 0.28 0.8
1 0.37 0.7
1 0.46 0.6
1 0.55 0.5
1 0.64 0.4
1 0.73 0.3
1 0.82 0.2
1 0.91 0.1
1 1 5.55112e-17
3 0 1 12
3 0 12 11
3 11 12 22
3 11 22 21
3 21 22 33
3 21 33 32
3 32 33 44
3 32 44 43
3 43 44 54
3 43 54 53
3 53 54 65
3 53 65 64
3 64 65 76
3 64 76 75
3 75 76 86
3 75 86 85
3 85 86 97
3 85 97 96
3 1 2 13
3 1 13 12
3 12 13 23
3 12 23 22
3 22 23 34
3 22 34 33
3 33 34 45
3 33 45 44
3 44 45 55
3 44 55 54
3 54 55 66
3 54 66 65
3 65 66 77
3 65 77 76
3 76 77 87
3 76 87 86
3 86 87 98
3 86 98 97
3 2 3 14
3 2 14 13
3 13 14 24
3 13 24 23
3 23 24 35
3 23 35 34
3 34 35 46
3 34 46 45
3 45 46 56
3 45 56 55
3 55 56 67
3 55 67 66
3 66 67 78
3 66 78 77
3 77 78 88
3 77 88 87
3 87 88 99
3 87 99 98
3 3 4 15
3 3 15 14
3 14 15 25
3 14 25 24
3 24 25 36
3 24 36 35
3 35 36 47
3 35 47 46
3 46 47 57
3 46 57 56
3 56 57 68
3 56 68 67
3 67 68 79
3 67 79 78
3 78 79 89
3 78 89 88
3 88 89 100
3 88 100 99
3 4 5 16
3 4 16 15
3 15 16 26
3 15 26 25
3 25 26 37
3 25 37 36
3 36 37 48
3 36 48 47
3 47 48 58
3 47 58 57
3 57 58 69
3 57 69 68
3 68 69 80
3 68 80 79
3 79 80 90
3 79 90 89
3 89 90 101
3 89 101 100
3 5 6 17
3 5 17 16
3 16 17 27
3 16 27 26
3 26 27 38
3 26 38 37
3 37 38 49
3 37 49 48
3 48 49 59
3 48 59 58
3 58 59 70
3 58 70 69
3 69 70 81
3 69 81 80
3 80 81 91
3 80 91 90
3 90 91 102
3 90 102 101
3 6 7 18
3 6 18 17
3 17 18 28
3 17 28 27
3 27 28 39
3 27 39 38
3 38 39 50
3 38 50 49
3 49 50 60
3 49 60 59
3 59 60 71
3 59 71 70
3 70 71 82
3 70 82 81
3 81 82 92
3 81 92 91
3 91 92 103
3 91 103 102
3 7 8 19
3 7 19 18
3 18 19 29
3 18 29 28
3 28 29 40
3 28 40 39
3 39 40 51
3 39 51 50
3 50 51 61
3 50 61 60
3 60 61 72
3 60 72 71
3 71 72 83
3 71 83 82
3 82 83 93
3 82 93 92
3 92 93 104
3 92 104 103
3 8 9 20
3 8 20 19
3 19 20 30
3 19 30 29
3 29 30 41
3 29 41 40
3 40 41 52
3 40 52 51
3 51 52 62
3 51 62 61
3 61 62 73
3 61 73 72
3 72 73 84
3 72 84 83
3 83 84 94
3 83 94 93
3 93 94 105
3 93 105 104
3 9 10 20
3 20 10 31
3 20 31 30
3 30 31 42
3 30 42 41
3 41 42 52
3 52 42 63
3 52 63 62
3 62 63 74
3 62 74 73
3 73 74 84
3 84 74 95
3 84 95 94
3 94 95 106
3 94 106 105
