ply
format ascii 1.0
comment Created by Open3D
element vertex 97
property double x
property double y
property double z
element face 167
property list uchar uint vertex_indices
end_header
1 0.1 1
1 0.0833333 1
0.991346 0.085 1
0.982692 0.0866667 1
0.974038 0.0883333 1
0.965385 0.09 1
0.956731 0.0916667 1
0.948077 0.0933333 1
0.939423 0.095 1
0.930769 0.0966667 1
0.922115 0.0983333 1
0.913462 0.1 1
1 0.0666667 1
0.980962 0.07 1
0.961923 0.0733333 1
0.942885 0.0766667 1
0.923846 0.08 1
0.904808 0.0833333 1
0.885769 0.0866667 1
0.866731 0.09 1
0.847692 0.0933333 1
0.828654 0.0966667 1
0.809615 0.1 1
0.970577 0.07 1
0.941154 0.0733333 1
0.911731 0.0766667 1
0.882308 0.08 1
0.852885 0.0833333 1
0.823462 0.0866667 1
0.794038 0.09 1
0.764615 0.0933333 1
0.735192 0.0966667 1
0.705769 0.1 1
1 0.05 1
0.960192 0.055 1
0.920385 0.06 1
0.880577 0.065 1
0.840769 0.07 1
0.800962 0.075 1
0.761154 0.08 1
0.721346 0.085 1
0.681538 0.09 1
0.641731 0.095 1
0.601923 0.1 1
1 0.0333333 1
0.951538 0.04 1
0.903077 0.0466667 1
0.854615 0.0533333 1
0.806154 0.06 1
0.757692 0.0666667 1
0.709231 0.0733333 1
0.660769 0.08 1
0.612308 0.0866667 1
0.563846 0.0933333 1
0.515385 0.1 1
0.941154 0.04 1
0.882308 0.0466667 1
0.823462 0.0533333 1
0.764615 0.06 1
0.705769 0.0666667 1
0.646923 0.0733333 1
0.588077 0.08 1
0.529231 0.0866667 1
0.470385 0.0933333 1
0.411538 0.1 1
1 0.0166667 1
0.930769 0.025 1
0.861538 0.0333333 1
0.792308 0.0416667 1
0.723077 0.05 1
0.653846 0.0583333 1
0.584615 0.0666667 1
0.515385 0.075 1
0.446154 0.0833333 1
0.376923 0.0916667 1
0.307692 0.1 1
1 5.55112e-17 1
0.920385 0.01 1
0.840769 0.02 1
0.761154 0.03 1
0.681538 0.04 1
0.601923 0.05 1
0.522308 0.06 1
0.442692 0.07 1
0.363077 0.08 1
0.283462 0.09 1
0.203846 0.1 1
0.91 0.01 1
0.82 0.02 1
0.73 0.03 1
0.64 0.04 1
0.55 0.05 1
0.46 0.06 1
0.37 0.07 1
0.28 0.08 1
0.19 0.09 1
0.1 0.1 1
3 0 2 1
3 1 2 13
3 1 13 12
3 12 13 23
3 12 23 34
3 12 34 33
3 33 34 45
3 33 45 44
3 44 45 55
3 44 55 66
3 44 66 65
3 65 66 77
3 65 77 76
3 76 77 87
3 0 3 2
3 2 3 14
3 2 14 13
3 13 14 24
3 13 24 23
3 23 24 35
3 23 35 34
3 34 35 46
3 34 46 45
3 45 46 56
3 45 56 55
3 55 56 67
3 55 67 66
3 66 67 78
3 66 78 77
3 77 78 88
3 77 88 87
3 0 4 3
3 3 4 15
3 3 15 14
3 14 15 25
3 14 25 24
3 24 25 36
3 24 36 35
3 35 36 47
3 35 47 46
3 46 47 57
3 46 57 56
3 56 57 68
3 56 68 67
3 67 68 79
3 67 79 78
3 78 79 89
3 78 89 88
3 0 5 4
3 4 5 16
3 4 16 15
3 15 16 26
3 15 26 25
3 25 26 37
3 25 37 36
3 36 37 48
3 36 48 47
3 47 48 58
3 47 58 57
3 57 58 69
3 57 69 68
3 68 69 80
3 68 80 79
3 79 80 90
3 79 90 89
3 0 6 5
3 5 6 17
3 5 17 16
3 16 17 27
3 16 27 26
3 26 27 38
3 26 38 37
3 37 38 49
3 37 49 48
3 48 49 59
3 48 59 58
3 58 59 70
3 58 70 69
3 69 70 81
3 69 81 80
3 80 81 91
3 80 91 90
3 0 7 6
3 6 7 18
3 6 18 17
3 17 18 28
3 17 28 27
3 27 28 39
3 27 39 38
3 38 39 50
3 38 50 49
3 49 50 60
3 49 60 59
3 59 60 71
3 59 71 70
3 70 71 82
3 70 82 81
3 81 82 92
3 81 92 91
3 0 8 7
3 7 8 19
3 7 19 18
3 18 19 29
3 18 29 28
3 28 29 40
3 28 40 39
3 39 40 51
3 39 51 50
3 50 51 61
3 50 61 60
3 60 61 72
3 60 72 71
3 71 72 83
3 71 83 82
3 82 83 93
3 82 93 92
3 0 9 8
3 8 9 20
3 8 20 19
3 19 20 30
3 19 30 29
3 29 30 41
3 29 41 40
3 40 41 52
3 40 52 51
3 51 52 62
3 51 62 61
3 61 62 73
3 61 73 72
3 72 73 84
3 72 84 83
3 83 84 94
3 83 94 93
3 0 10 9
3 9 10 21
3 9 21 20
3 20 21 31
3 20 31 30
3 30 31 42
3 30 42 41
3 41 42 53
3 41 53 52
3 52 53 63
3 52 63 62
3 62 63 74
3 62 74 73
3 73 74 85
3 73 85 84
3 84 85 95
3 84 95 94
3 0 11 10
3 10 11 22
3 10 22 21
3 21 22 32
3 21 32 31
3 31 32 43
3 31 43 42
3 42 43 54
3 42 54 53
3 53 54 64
3 53 64 63
3 63 64 75
3 63 75 74
3 74 75 86
3 74 86 85
3 85 86 96
3 85 96 95
