ply
format ascii 1.0
comment Created by Open3D
element vertex 107
property double x
property double y
property double z
element face 177
property list uchar uint vertex_indices
end_header
0 1 1
0.01 1 0.91
0.02 1 0.82
0.03 1 0.73
0.04 1 0.64
0.05 1 0.55
0.06 1 0.46
0.07 1 0.37
0.08 1 0.28
0.09 1 0.19
0.1 1 0.1
0.0166667 1 1
0.025 0.989615 0.91
0.0333333 0.979231 0.82
0.0416667 0.968846 0.73
0.05 0.958462 0.64
0.0583333 0.948077 0.55
0.0666667 0.937692 0.46
0.075 0.927308 0.37
0.0833333 0.916923 0.28
0.0916667 0.906538 0.19
0.1 0.896154 0.1
0.0333333 1 1
0.04 0.979231 0.91
0.0466667 0.958462 0.82
0.0533333 0.937692 0.73
0.06 0.916923 0.64
0.0666667 0.896154 0.55
0.0733333 0.875385 0.46
0.08 0.854615 0.37
0.0866667 0.833846 0.28
0.0933333 0.813077 0.19
0.1 0.792308 0.1
0.04 0.968846 0.91
0.0466667 0.937692 0.82
0.0533333 0.906538 0.73
0.06 0.875385 0.64
0.0666667 0.844231 0.55
0.0733333 0.813077 0.46
0.08 0.781923 0.37
0.0866667 0.750769 0.28
0.0933333 0.719615 0.19
0.1 0.688462 0.1
0.05 1 1
0.055 0.958462 0.91
0.06 0.916923 0.82
0.065 0.875385 0.73
0.07 0.833846 0.64
0.075 0.792308 0.55
0.08 0.750769 0.46
0.085 0.709231 0.37
0.09 0.667692 0.28
0.095 0.626154 0.19
0.1 0.584615 0.1
0.0666667 1 1
0.07 0.949808 0.91
0.0733333 0.899615 0.82
0.0766667 0.849423 0.73
0.08 0.799231 0.64
0.0833333 0.749038 0.55
0.0866667 0.698846 0.46
0.09 0.648654 0.37
0.0933333 0.598462 0.28
0.0966667 0.548269 0.19
0.1 0.498077 0.1
0.07 0.939423 0.91
0.0733333 0.878846 0.82
0.0766667 0.818269 0.73
0.08 0.757692 0.64
0.0833333 0.697115 0.55
0.0866667 0.636538 0.46
0.09 0.575962 0.37
0.0933333 0.515385 0.28
0.0966667 0.454808 0.19
0.1 0.394231 0.1
0.0833333 1 1
0.085 0.929038 0.91
0.0866667 0.858077 0.82
0.0883333 0.787115 0.73
0.09 0.716154 0.64
0.0916667 0.645192 0.55
0.0933333 0.574231 0.46
0.095 0.503269 0.37
0.0966667 0.432308 0.28
0.0983333 0.361346 0.19
0.1 0.290385 0.1
0.1 1 1
0.1 0.918654 0.91
0.1 0.837308 0.82
0.1 0.755962 0.73
0.1 0.674615 0.64
0.1 0.593269 0.55
0.1 0.511923 0.46
0.1 0.430577 0.37
0.1 0.349231 0.28
0.1 0.267885 0.19
0.1 0.186538 0.1
0.1 0.91 0.91
0.1 0.82 0.82
0.1 0.73 0.73
0.1 0.64 0.64
0.1 0.55 0.55
0.1 0.46 0.46
0.1 0.37 0.37
0.1 0.28 0.28
0.1 0.19 0.19
0.1 0.1 0.1
3 0 1 12
3 0 12 11
3 11 12 23
3 11 23 22
3 22 23 33
3 22 33 44
3 22 44 43
3 43 44 55
3 43 55 54
3 54 55 65
3 54 65 76
3 54 76 75
3 75 76 87
3 75 87 86
3 86 87 97
3 1 2 13
3 1 13 12
3 12 13 24
3 12 24 23
3 23 24 34
3 23 34 33
3 33 34 45
3 33 45 44
3 44 45 56
3 44 56 55
3 55 56 66
3 55 66 65
3 65 66 77
3 65 77 76
3 76 77 88
3 76 88 87
3 87 88 98
3 87 98 97
3 2 3 14
3 2 14 13
3 13 14 25
3 13 25 24
3 24 25 35
3 24 35 34
3 34 35 46
3 34 46 45
3 45 46 57
3 45 57 56
3 56 57 67
3 56 67 66
3 66 67 78
3 66 78 77
3 77 78 89
3 77 89 88
3 88 89 99
3 88 99 98
3 3 4 15
3 3 15 14
3 14 15 26
3 14 26 25
3 25 26 36
3 25 36 35
3 35 36 47
3 35 47 46
3 46 47 58
3 46 58 57
3 57 58 68
3 57 68 67
3 67 68 79
3 67 79 78
3 78 79 90
3 78 90 89
3 89 90 100
3 89 100 99
3 4 5 16
3 4 16 15
3 15 16 27
3 15 27 26
3 26 27 37
3 26 37 36
3 36 37 48
3 36 48 47
3 47 48 59
3 47 59 58
3 58 59 69
3 58 69 68
3 68 69 80
3 68 80 79
3 79 80 91
3 79 91 90
3 90 91 101
3 90 101 100
3 5 6 17
3 5 17 16
3 16 17 28
3 16 28 27
3 27 28 38
3 27 38 37
3 37 38 49
3 37 49 48
3 48 49 60
3 48 60 59
3 59 60 70
3 59 70 69
3 69 70 81
3 69 81 80
3 80 81 92
3 80 92 91
3 91 92 102
3 91 102 101
3 6 7 18
3 6 18 17
3 17 18 29
3 17 29 28
3 28 29 39
3 28 39 38
3 38 39 50
3 38 50 49
3 49 50 61
3 49 61 60
3 60 61 71
3 60 71 70
3 70 71 82
3 70 82 81
3 81 82 93
3 81 93 92
3 92 93 103
3 92 103 102
3 7 8 19
3 7 19 18
3 18 19 30
3 18 30 29
3 29 30 40
3 29 40 39
3 39 40 51
3 39 51 50
3 50 51 62
3 50 62 61
3 61 62 72
3 61 72 71
3 71 72 83
3 71 83 82
3 82 83 94
3 82 94 93
3 93 94 104
3 93 104 103
3 8 9 20
3 8 20 19
3 19 20 31
3 19 31 30
3 30 31 41
3 30 41 40
3 40 41 52
3 40 52 51
3 51 52 63
3 51 63 62
3 62 63 73
3 62 73 72
3 72 73 84
3 72 84 83
3 83 84 95
3 83 95 94
3 94 95 105
3 94 105 104
3 9 10 21
3 9 21 20
3 20 21 32
3 20 32 31
3 31 32 42
3 31 42 41
3 41 42 53
3 41 53 52
3 52 53 64
3 52 64 63
3 63 64 74
3 63 74 73
3 73 74 85
3 73 85 84
3 84 85 96
3 84 96 95
3 95 96 106
3 95 106 105
