ply
format ascii 1.0
comment Created by Open3D
element vertex 106
property double x
property double y
property double z
element face 172
property list uchar uint vertex_indices
end_header
1 0.1 0.1
0.91 0.1 0.19
0.82 0.1 0.28
0.73 0.1 0.37
0.64 0.1 0.46
0.55 0.1 0.55
0.46 0.1 0.64
0.37 0.1 0.73
0.28 0.1 0.82
0.19 0.1 0.91
0.1 0.1 1
1 0.1 0.203846
0.91 0.1 0.274808
0.82 0.1 0.345769
0.73 0.1 0.416731
0.64 0.1 0.487692
0.55 0.1 0.558654
0.46 0.1 0.629615
0.37 0.1 0.700577
0.28 0.1 0.771538
0.19 0.1 0.8425
0.1 0.1 0.913462
1 0.1 0.307692
0.91 0.1 0.357885
0.82 0.1 0.408077
0.73 0.1 0.458269
0.64 0.1 0.508462
0.55 0.1 0.558654
0.46 0.1 0.608846
0.37 0.1 0.659038
0.28 0.1 0.709231
0.19 0.1 0.759423
0.1 0.1 0.809615
1 0.1 0.411538
0.91 0.1 0.440962
0.82 0.1 0.470385
0.73 0.1 0.499808
0.64 0.1 0.529231
0.55 0.1 0.558654
0.46 0.1 0.588077
0.37 0.1 0.6175
0.28 0.1 0.646923
0.19 0.1 0.676346
0.1 0.1 0.705769
1 0.1 0.515385
0.91 0.1 0.524038
0.82 0.1 0.532692
0.73 0.1 0.541346
0.64 0.1 0.55
0.46 0.1 0.567308
0.37 0.1 0.575962
0.28 0.1 0.584615
0.19 0.1 0.593269
0.1 0.1 0.601923
1 0.1 0.601923
0.91 0.1 0.593269
0.82 0.1 0.584615
0.73 0.1 0.575962
0.64 0.1 0.567308
0.46 0.1 0.55
0.37 0.1 0.541346
0.28 0.1 0.532692
0.19 0.1 0.524038
0.1 0.1 0.515385
1 0.1 0.705769
0.91 0.1 0.676346
0.82 0.1 0.646923
0.73 0.1 0.6175
0.64 0.1 0.588077
0.46 0.1 0.529231
0.37 0.1 0.499808
0.28 0.1 0.470385
0.19 0.1 0.440962
0.1 0.1 0.411538
1 0.1 0.809615
0.91 0.1 0.759423
0.82 0.1 0.709231
0.73 0.1 0.659038
0.64 0.1 0.608846
0.46 0.1 0.508462
0.37 0.1 0.458269
0.28 0.1 0.408077
0.19 0.1 0.357885
0.1 0.1 0.307692
1 0.1 0.913462
0.91 0.1 0.8425
0.82 0.1 0.771538
0.73 0.1 0.700577
0.64 0.1 0.629615
0.55 0.1 0.558654
0.46 0.1 0.487692
0.37 0.1 0.416731
0.28 0.1 0.345769
0.19 0.1 0.274808
0.1 0.1 0.203846
1 0.1 1
0.91 0.1 0.91
0.82 0.1 0.82
0.73 0.1 0.73
0.64 0.1 0.64
0.55 0.1 0.55
0.46 0.1 0.46
0.37 0.1 0.37
0.28 0.1 0.28
0.19 0.1 0.19
0.1 0.1 0.1
3 0 1 12
3 0 12 11
3 11 12 23
3 11 23 22
3 22 23 34
3 22 34 33
3 33 34 45
3 33 45 44
3 44 45 55
3 44 55 54
3 54 55 65
3 54 65 64
3 64 65 75
3 64 75 74
3 74 75 85
3 74 85 84
3 84 85 96
3 84 96 95
3 1 2 13
3 1 13 12
3 12 13 24
3 12 24 23
3 23 24 35
3 23 35 34
3 34 35 46
3 34 46 45
3 45 46 56
3 45 56 55
3 55 56 66
3 55 66 65
3 65 66 76
3 65 76 75
3 75 76 86
3 75 86 85
3 85 86 97
3 85 97 96
3 2 3 14
3 2 14 13
3 13 14 25
3 13 25 24
3 24 25 36
3 24 36 35
3 35 36 47
3 35 47 46
3 46 47 57
3 46 57 56
3 56 57 67
3 56 67 66
3 66 67 77
3 66 77 76
3 76 77 87
3 76 87 86
3 86 87 98
3 86 98 97
3 3 4 15
3 3 15 14
3 14 15 26
3 14 26 25
3 25 26 37
3 25 37 36
3 36 37 48
3 36 48 47
3 47 48 58
3 47 58 57
3 57 58 68
3 57 68 67
3 67 68 78
3 67 78 77
3 77 78 88
3 77 88 87
3 87 88 99
3 87 99 98
3 4 5 16
3 4 16 15
3 15 16 27
3 15 27 26
3 26 27 38
3 26 38 37
3 37 38 48
3 48 38 58
3 58 38 68
3 68 38 78
3 78 38 89
3 78 89 88
3 88 89 100
3 88 100 99
3 5 6 17
3 5 17 16
3 16 17 28
3 16 28 27
3 27 28 39
3 27 39 38
3 38 39 49
3 38 49 59
3 38 59 69
3 38 69 79
3 38 79 90
3 38 90 89
3 89 90 101
3 89 101 100
3 6 7 18
3 6 18 17
3 17 18 29
3 17 29 28
3 28 29 40
3 28 40 39
3 39 40 50
3 39 50 49
3 49 50 60
3 49 60 59
3 59 60 70
3 59 70 69
3 69 70 80
3 69 80 79
3 79 80 91
3 79 91 90
3 90 91 102
3 90 102 101
3 7 8 19
3 7 19 18
3 18 19 30
3 18 30 29
3 29 30 41
3 29 41 40
3 40 41 51
3 40 51 50
3 50 51 61
3 50 61 60
3 60 61 71
3 60 71 70
3 70 71 81
3 70 81 80
3 80 81 92
3 80 92 91
3 91 92 103
3 91 103 102
3 8 9 20
3 8 20 19
3 19 20 31
3 19 31 30
3 30 31 42
3 30 42 41
3 41 42 52
3 41 52 51
3 51 52 62
3 51 62 61
3 61 62 72
3 61 72 71
3 71 72 82
3 71 82 81
3 81 82 93
3 81 93 92
3 92 93 104
3 92 104 103
3 9 10 21
3 9 21 20
3 20 21 32
3 20 32 31
3 31 32 43
3 31 43 42
3 42 43 53
3 42 53 52
3 52 53 63
3 52 63 62
3 62 63 73
3 62 73 72
3 72 73 83
3 72 83 82
3 82 83 94
3 82 94 93
3 93 94 105
3 93 105 104
