ply
format ascii 1.0
comment Created by Open3D
element vertex 108
property double x
property double y
property double z
element face 178
property list uchar uint vertex_indices
end_header
1 1 0.1
0.91 0.91 0.19
0.82 0.82 0.28
0.73 0.73 0.37
0.64 0.64 0.46
0.55 0.55 0.55
0.46 0.46 0.64
0.37 0.37 0.73
0.28 0.28 0.82
0.19 0.19 0.91
0.1 0.1 1
1 0.896154 0.1
0.91 0.825192 0.19
0.82 0.754231 0.28
0.73 0.683269 0.37
0.64 0.612308 0.46
0.55 0.541346 0.55
0.46 0.470385 0.64
0.37 0.399423 0.73
0.28 0.328462 0.82
0.19 0.2575 0.91
0.1 0.186538 1
1 0.792308 0.1
0.91 0.742115 0.19
0.82 0.691923 0.28
0.73 0.641731 0.37
0.64 0.591538 0.46
0.55 0.541346 0.55
0.46 0.491154 0.64
0.37 0.440962 0.73
0.28 0.390769 0.82
0.19 0.340577 0.91
0.1 0.290385 1
1 0.688462 0.1
0.91 0.659038 0.19
0.82 0.629615 0.28
0.73 0.600192 0.37
0.64 0.570769 0.46
0.55 0.541346 0.55
0.46 0.511923 0.64
0.37 0.4825 0.73
0.28 0.453077 0.82
0.19 0.423654 0.91
0.1 0.394231 1
1 0.584615 0.1
0.91 0.575962 0.19
0.82 0.567308 0.28
0.73 0.558654 0.37
0.64 0.55 0.46
0.55 0.541346 0.55
0.46 0.532692 0.64
0.37 0.524038 0.73
0.28 0.515385 0.82
0.19 0.506731 0.91
0.1 0.498077 1
1 0.498077 0.1
0.91 0.506731 0.19
0.82 0.515385 0.28
0.73 0.524038 0.37
0.64 0.532692 0.46
0.46 0.55 0.64
0.37 0.558654 0.73
0.28 0.567308 0.82
0.19 0.575962 0.91
0.1 0.584615 1
1 0.394231 0.1
0.91 0.423654 0.19
0.82 0.453077 0.28
0.73 0.4825 0.37
0.64 0.511923 0.46
0.46 0.570769 0.64
0.37 0.600192 0.73
0.28 0.629615 0.82
0.19 0.659038 0.91
0.1 0.688462 1
1 0.290385 0.1
0.91 0.340577 0.19
0.82 0.390769 0.28
0.73 0.440962 0.37
0.64 0.491154 0.46
0.55 0.541346 0.55
0.46 0.591538 0.64
0.37 0.641731 0.73
0.28 0.691923 0.82
0.19 0.742115 0.91
0.1 0.792308 1
1 0.186538 0.1
0.91 0.2575 0.19
0.82 0.328462 0.28
0.73 0.399423 0.37
0.64 0.470385 0.46
0.55 0.541346 0.55
0.46 0.612308 0.64
0.37 0.683269 0.73
0.28 0.754231 0.82
0.19 0.825192 0.91
0.1 0.896154 1
1 0.1 0.1
0.91 0.19 0.19
0.82 0.28 0.28
0.73 0.37 0.37
0.64 0.46 0.46
0.55 0.55 0.55
0.46 0.64 0.64
0.37 0.73 0.73
0.28 0.82 0.82
0.19 0.91 0.91
0.1 1 1
3 0 1 12
3 0 12 11
3 11 12 23
3 11 23 22
3 22 23 34
3 22 34 33
3 33 34 45
3 33 45 44
3 44 45 56
3 44 56 55
3 55 56 66
3 55 66 65
3 65 66 76
3 65 76 75
3 75 76 87
3 75 87 86
3 86 87 98
3 86 98 97
3 1 2 13
3 1 13 12
3 12 13 24
3 12 24 23
3 23 24 35
3 23 35 34
3 34 35 46
3 34 46 45
3 45 46 57
3 45 57 56
3 56 57 67
3 56 67 66
3 66 67 77
3 66 77 76
3 76 77 88
3 76 88 87
3 87 88 99
3 87 99 98
3 2 3 14
3 2 14 13
3 13 14 25
3 13 25 24
3 24 25 36
3 24 36 35
3 35 36 47
3 35 47 46
3 46 47 58
3 46 58 57
3 57 58 68
3 57 68 67
3 67 68 78
3 67 78 77
3 77 78 89
3 77 89 88
3 88 89 100
3 88 100 99
3 3 4 15
3 3 15 14
3 14 15 26
3 14 26 25
3 25 26 37
3 25 37 36
3 36 37 48
3 36 48 47
3 47 48 59
3 47 59 58
3 58 59 69
3 58 69 68
3 68 69 79
3 68 79 78
3 78 79 90
3 78 90 89
3 89 90 101
3 89 101 100
3 4 5 16
3 4 16 15
3 15 16 27
3 15 27 26
3 26 27 38
3 26 38 37
3 37 38 49
3 37 49 48
3 48 49 59
3 59 49 38
3 59 38 69
3 69 38 80
3 69 80 79
3 79 80 91
3 79 91 90
3 90 91 102
3 90 102 101
3 5 6 17
3 5 17 16
3 16 17 28
3 16 28 27
3 27 28 39
3 27 39 38
3 38 39 50
3 38 50 49
3 49 50 60
3 49 60 70
3 49 70 38
3 38 70 81
3 38 81 80
3 80 81 92
3 80 92 91
3 91 92 103
3 91 103 102
3 6 7 18
3 6 18 17
3 17 18 29
3 17 29 28
3 28 29 40
3 28 40 39
3 39 40 51
3 39 51 50
3 50 51 61
3 50 61 60
3 60 61 71
3 60 71 70
3 70 71 82
3 70 82 81
3 81 82 93
3 81 93 92
3 92 93 104
3 92 104 103
3 7 8 19
3 7 19 18
3 18 19 30
3 18 30 29
3 29 30 41
3 29 41 40
3 40 41 52
3 40 52 51
3 51 52 62
3 51 62 61
3 61 62 72
3 61 72 71
3 71 72 83
3 71 83 82
3 82 83 94
3 82 94 93
3 93 94 105
3 93 105 104
3 8 9 20
3 8 20 19
3 19 20 31
3 19 31 30
3 30 31 42
3 30 42 41
3 41 42 53
3 41 53 52
3 52 53 63
3 52 63 62
3 62 63 73
3 62 73 72
3 72 73 84
3 72 84 83
3 83 84 95
3 83 95 94
3 94 95 106
3 94 106 105
3 9 10 21
3 9 21 20
3 20 21 32
3 20 32 31
3 31 32 43
3 31 43 42
3 42 43 54
3 42 54 53
3 53 54 64
3 53 64 63
3 63 64 74
3 63 74 73
3 73 74 85
3 73 85 84
3 84 85 96
3 84 96 95
3 95 96 107
3 95 107 106
