ply
format ascii 1.0
comment Created by Open3D
element vertex 907
property double x
property double y
property double z
element face 1717
property list uchar uint vertex_indices
end_header
1 0.1 0.1
1 0.13 0.1
1 0.16 0.1
1 0.19 0.1
1 0.22 0.1
1 0.25 0.1
1 0.28 0.1
1 0.31 0.1
1 0.34 0.1
1 0.37 0.1
1 0.4 0.1
1 0.43 0.1
1 0.46 0.1
1 0.49 0.1
1 0.52 0.1
1 0.55 0.1
1 0.58 0.1
1 0.61 0.1
1 0.64 0.1
1 0.67 0.1
1 0.7 0.1
1 0.73 0.1
1 0.76 0.1
1 0.79 0.1
1 0.82 0.1
1 0.85 0.1
1 0.88 0.1
1 0.91 0.1
1 0.94 0.1
1 0.97 0.1
1 1 0.1
1 0.1 0.134615
1 0.13 0.133462
1 0.16 0.132308
1 0.19 0.131154
1 0.22 0.13
1 0.25 0.128846
1 0.28 0.127692
1 0.31 0.126538
1 0.34 0.125385
1 0.37 0.124231
1 0.4 0.123077
1 0.43 0.121923
1 0.46 0.120769
1 0.49 0.119615
1 0.52 0.118462
1 0.55 0.117308
1 0.58 0.116154
1 0.61 0.115
1 0.64 0.113846
1 0.67 0.112692
1 0.7 0.111538
1 0.73 0.110385
1 0.76 0.109231
1 0.79 0.108077
1 0.82 0.106923
1 0.85 0.105769
1 0.88 0.104615
1 0.91 0.103462
1 0.94 0.102308
1 0.97 0.101154
1 0.1 0.169231
1 0.13 0.166923
1 0.16 0.164615
1 0.19 0.162308
1 0.22 0.16
1 0.25 0.157692
1 0.28 0.155385
1 0.31 0.153077
1 0.34 0.150769
1 0.37 0.148462
1 0.4 0.146154
1 0.43 0.143846
1 0.46 0.141538
1 0.49 0.139231
1 0.52 0.136923
1 0.55 0.134615
1 0.58 0.132308
1 0.61 0.13
1 0.64 0.127692
1 0.67 0.125385
1 0.7 0.123077
1 0.73 0.120769
1 0.76 0.118462
1 0.79 0.116154
1 0.82 0.113846
1 0.85 0.111538
1 0.88 0.109231
1 0.91 0.106923
1 0.94 0.104615
1 0.97 0.102308
1 0.1 0.203846
1 0.13 0.200385
1 0.16 0.196923
1 0.19 0.193462
1 0.22 0.19
1 0.25 0.186538
1 0.28 0.183077
1 0.31 0.179615
1 0.34 0.176154
1 0.37 0.172692
1 0.4 0.169231
1 0.43 0.165769
1 0.46 0.162308
1 0.49 0.158846
1 0.52 0.155385
1 0.55 0.151923
1 0.58 0.148462
1 0.61 0.145
1 0.64 0.141538
1 0.67 0.138077
1 0.7 0.134615
1 0.73 0.131154
1 0.76 0.127692
1 0.79 0.124231
1 0.82 0.120769
1 0.85 0.117308
1 0.88 0.113846
1 0.91 0.110385
1 0.94 0.106923
1 0.97 0.103462
1 0.1 0.238462
1 0.13 0.233846
1 0.16 0.229231
1 0.19 0.224615
1 0.22 0.22
1 0.25 0.215385
1 0.28 0.210769
1 0.31 0.206154
1 0.34 0.201538
1 0.37 0.196923
1 0.4 0.192308
1 0.43 0.187692
1 0.46 0.183077
1 0.49 0.178462
1 0.52 0.173846
1 0.55 0.169231
1 0.58 0.164615
1 0.61 0.16
1 0.64 0.155385
1 0.67 0.150769
1 0.7 0.146154
1 0.73 0.141538
1 0.76 0.136923
1 0.79 0.132308
1 0.82 0.127692
1 0.85 0.123077
1 0.88 0.118462
1 0.91 0.113846
1 0.94 0.109231
1 0.97 0.104615
1 0.1 0.255769
1 0.13 0.250021
1 0.16 0.244274
1 0.19 0.238526
1 0.22 0.232778
1 0.25 0.22703
1 0.28 0.221282
1 0.31 0.215534
1 0.34 0.209786
1 0.37 0.204038
1 0.4 0.198291
1 0.43 0.192543
1 0.46 0.186795
1 0.49 0.181047
1 0.52 0.175299
1 0.55 0.169551
1 0.58 0.163803
1 0.61 0.158056
1 0.64 0.152308
1 0.67 0.14656
1 0.7 0.140812
1 0.73 0.135064
1 0.76 0.129316
1 0.79 0.123568
1 0.82 0.117821
1 0.85 0.112073
1 0.88 0.106325
1 0.91 0.100577
1 0.94 0.0948291
1 0.97 0.0890812
1 1 0.0833333
1 0.1 0.290385
1 0.13 0.283483
1 0.16 0.276581
1 0.19 0.269679
1 0.22 0.262778
1 0.25 0.255876
1 0.28 0.248974
1 0.31 0.242073
1 0.34 0.235171
1 0.37 0.228269
1 0.4 0.221368
1 0.43 0.214466
1 0.46 0.207564
1 0.49 0.200662
1 0.52 0.193761
1 0.55 0.186859
1 0.58 0.179957
1 0.61 0.173056
1 0.64 0.166154
1 0.67 0.159252
1 0.7 0.15235
1 0.73 0.145449
1 0.76 0.138547
1 0.79 0.131645
1 0.82 0.124744
1 0.85 0.117842
1 0.88 0.11094
1 0.91 0.104038
1 0.94 0.0971368
1 0.97 0.090235
1 0.1 0.325
1 0.13 0.316944
1 0.16 0.308889
1 0.19 0.300833
1 0.22 0.292778
1 0.25 0.284722
1 0.28 0.276667
1 0.31 0.268611
1 0.34 0.260556
1 0.37 0.2525
1 0.4 0.244444
1 0.43 0.236389
1 0.46 0.228333
1 0.49 0.220278
1 0.52 0.212222
1 0.55 0.204167
1 0.58 0.196111
1 0.61 0.188056
1 0.64 0.18
1 0.67 0.171944
1 0.7 0.163889
1 0.73 0.155833
1 0.76 0.147778
1 0.79 0.139722
1 0.82 0.131667
1 0.85 0.123611
1 0.88 0.115556
1 0.91 0.1075
1 0.94 0.0994444
1 0.97 0.0913889
1 0.1 0.359615
1 0.13 0.350406
1 0.16 0.341197
1 0.19 0.331987
1 0.22 0.322778
1 0.25 0.313568
1 0.28 0.304359
1 0.31 0.29515
1 0.34 0.28594
1 0.37 0.276731
1 0.4 0.267521
1 0.43 0.258312
1 0.46 0.249103
1 0.49 0.239893
1 0.52 0.230684
1 0.55 0.221474
1 0.58 0.212265
1 0.61 0.203056
1 0.64 0.193846
1 0.67 0.184637
1 0.7 0.175427
1 0.73 0.166218
1 0.76 0.157009
1 0.79 0.147799
1 0.82 0.13859
1 0.85 0.12938
1 0.88 0.120171
1 0.91 0.110962
1 0.94 0.101752
1 0.97 0.0925427
1 0.1 0.394231
1 0.13 0.383868
1 0.16 0.373504
1 0.19 0.363141
1 0.22 0.352778
1 0.25 0.342415
1 0.28 0.332051
1 0.31 0.321688
1 0.34 0.311325
1 0.37 0.300962
1 0.4 0.290598
1 0.43 0.280235
1 0.46 0.269872
1 0.49 0.259509
1 0.52 0.249145
1 0.55 0.238782
1 0.58 0.228419
1 0.61 0.218056
1 0.64 0.207692
1 0.67 0.197329
1 0.7 0.186966
1 0.73 0.176603
1 0.76 0.166239
1 0.79 0.155876
1 0.82 0.145513
1 0.85 0.13515
1 0.88 0.124786
1 0.91 0.114423
1 0.94 0.10406
1 0.97 0.0936966
1 0.1 0.411538
1 0.13 0.400043
1 0.16 0.388547
1 0.19 0.377051
1 0.22 0.365556
1 0.25 0.35406
1 0.28 0.342564
1 0.31 0.331068
1 0.34 0.319573
1 0.37 0.308077
1 0.4 0.296581
1 0.43 0.285085
1 0.46 0.27359
1 0.49 0.262094
1 0.52 0.250598
1 0.55 0.239103
1 0.58 0.227607
1 0.61 0.216111
1 0.64 0.204615
1 0.67 0.19312
1 0.7 0.181624
1 0.73 0.170128
1 0.76 0.158632
1 0.79 0.147137
1 0.82 0.135641
1 0.85 0.124145
1 0.88 0.11265
1 0.91 0.101154
1 0.94 0.0896581
1 0.97 0.0781624
1 1 0.0666667
1 0.1 0.446154
1 0.13 0.433504
1 0.16 0.420855
1 0.19 0.408205
1 0.22 0.395556
1 0.25 0.382906
1 0.28 0.370256
1 0.31 0.357607
1 0.34 0.344957
1 0.37 0.332308
1 0.4 0.319658
1 0.43 0.307009
1 0.46 0.294359
1 0.49 0.281709
1 0.52 0.26906
1 0.55 0.25641
1 0.58 0.243761
1 0.61 0.231111
1 0.64 0.218462
1 0.67 0.205812
1 0.7 0.193162
1 0.73 0.180513
1 0.76 0.167863
1 0.79 0.155214
1 0.82 0.142564
1 0.85 0.129915
1 0.88 0.117265
1 0.91 0.104615
1 0.94 0.0919658
1 0.97 0.0793162
1 0.1 0.480769
1 0.13 0.466966
1 0.16 0.453162
1 0.19 0.439359
1 0.22 0.425556
1 0.25 0.411752
1 0.28 0.397949
1 0.31 0.384145
1 0.34 0.370342
1 0.37 0.356538
1 0.4 0.342735
1 0.43 0.328932
1 0.46 0.315128
1 0.49 0.301325
1 0.52 0.287521
1 0.55 0.273718
1 0.58 0.259915
1 0.61 0.246111
1 0.64 0.232308
1 0.67 0.218504
1 0.7 0.204701
1 0.73 0.190897
1 0.76 0.177094
1 0.79 0.163291
1 0.82 0.149487
1 0.85 0.135684
1 0.88 0.12188
1 0.91 0.108077
1 0.94 0.0942735
1 0.97 0.0804701
1 0.1 0.515385
1 0.13 0.500427
1 0.16 0.48547
1 0.19 0.470513
1 0.22 0.455556
1 0.25 0.440598
1 0.28 0.425641
1 0.31 0.410684
1 0.34 0.395726
1 0.37 0.380769
1 0.4 0.365812
1 0.43 0.350855
1 0.46 0.335897
1 0.49 0.32094
1 0.52 0.305983
1 0.55 0.291026
1 0.58 0.276068
1 0.61 0.261111
1 0.64 0.246154
1 0.67 0.231197
1 0.7 0.216239
1 0.73 0.201282
1 0.76 0.186325
1 0.79 0.171368
1 0.82 0.15641
1 0.85 0.141453
1 0.88 0.126496
1 0.91 0.111538
1 0.94 0.0965812
1 0.97 0.0816239
1 0.1 0.55
1 0.13 0.533889
1 0.16 0.517778
1 0.19 0.501667
1 0.22 0.485556
1 0.25 0.469444
1 0.28 0.453333
1 0.31 0.437222
1 0.34 0.421111
1 0.37 0.405
1 0.4 0.388889
1 0.43 0.372778
1 0.46 0.356667
1 0.49 0.340556
1 0.52 0.324444
1 0.55 0.308333
1 0.58 0.292222
1 0.61 0.276111
1 0.64 0.26
1 0.67 0.243889
1 0.7 0.227778
1 0.73 0.211667
1 0.76 0.195556
1 0.79 0.179444
1 0.82 0.163333
1 0.85 0.147222
1 0.88 0.131111
1 0.91 0.115
1 0.94 0.0988889
1 0.97 0.0827778
1 0.1 0.567308
1 0.13 0.550064
1 0.16 0.532821
1 0.19 0.515577
1 0.22 0.498333
1 0.25 0.48109
1 0.28 0.463846
1 0.31 0.446603
1 0.34 0.429359
1 0.37 0.412115
1 0.4 0.394872
1 0.43 0.377628
1 0.46 0.360385
1 0.49 0.343141
1 0.52 0.325897
1 0.55 0.308654
1 0.58 0.29141
1 0.61 0.274167
1 0.64 0.256923
1 0.67 0.239679
1 0.7 0.222436
1 0.73 0.205192
1 0.76 0.187949
1 0.79 0.170705
1 0.82 0.153462
1 0.85 0.136218
1 0.88 0.118974
1 0.91 0.101731
1 0.94 0.0844872
1 0.97 0.0672436
1 1 0.05
1 0.1 0.601923
1 0.13 0.583526
1 0.16 0.565128
1 0.19 0.546731
1 0.22 0.528333
1 0.25 0.509936
1 0.28 0.491538
1 0.31 0.473141
1 0.34 0.454744
1 0.37 0.436346
1 0.4 0.417949
1 0.43 0.399551
1 0.46 0.381154
1 0.49 0.362756
1 0.52 0.344359
1 0.55 0.325962
1 0.58 0.307564
1 0.61 0.289167
1 0.64 0.270769
1 0.67 0.252372
1 0.7 0.233974
1 0.73 0.215577
1 0.76 0.197179
1 0.79 0.178782
1 0.82 0.160385
1 0.85 0.141987
1 0.88 0.12359
1 0.91 0.105192
1 0.94 0.0867949
1 0.97 0.0683974
1 0.1 0.636538
1 0.13 0.616987
1 0.16 0.597436
1 0.19 0.577885
1 0.22 0.558333
1 0.25 0.538782
1 0.28 0.519231
1 0.31 0.499679
1 0.34 0.480128
1 0.37 0.460577
1 0.4 0.441026
1 0.43 0.421474
1 0.46 0.401923
1 0.49 0.382372
1 0.52 0.362821
1 0.55 0.343269
1 0.58 0.323718
1 0.61 0.304167
1 0.64 0.284615
1 0.67 0.265064
1 0.7 0.245513
1 0.73 0.225962
1 0.76 0.20641
1 0.79 0.186859
1 0.82 0.167308
1 0.85 0.147756
1 0.88 0.128205
1 0.91 0.108654
1 0.94 0.0891026
1 0.97 0.0695513
1 0.1 0.671154
1 0.13 0.650449
1 0.16 0.629744
1 0.19 0.609038
1 0.22 0.588333
1 0.25 0.567628
1 0.28 0.546923
1 0.31 0.526218
1 0.34 0.505513
1 0.37 0.484808
1 0.4 0.464103
1 0.43 0.443397
1 0.46 0.422692
1 0.49 0.401987
1 0.52 0.381282
1 0.55 0.360577
1 0.58 0.339872
1 0.61 0.319167
1 0.64 0.298462
1 0.67 0.277756
1 0.7 0.257051
1 0.73 0.236346
1 0.76 0.215641
1 0.79 0.194936
1 0.82 0.174231
1 0.85 0.153526
1 0.88 0.132821
1 0.91 0.112115
1 0.94 0.0914103
1 0.97 0.0707051
1 0.1 0.705769
1 0.13 0.68391
1 0.16 0.662051
1 0.19 0.640192
1 0.22 0.618333
1 0.25 0.596474
1 0.28 0.574615
1 0.31 0.552756
1 0.34 0.530897
1 0.37 0.509038
1 0.4 0.487179
1 0.43 0.465321
1 0.46 0.443462
1 0.49 0.421603
1 0.52 0.399744
1 0.55 0.377885
1 0.58 0.356026
1 0.61 0.334167
1 0.64 0.312308
1 0.67 0.290449
1 0.7 0.26859
1 0.73 0.246731
1 0.76 0.224872
1 0.79 0.203013
1 0.82 0.181154
1 0.85 0.159295
1 0.88 0.137436
1 0.91 0.115577
1 0.94 0.0937179
1 0.97 0.071859
1 0.1 0.723077
1 0.13 0.700085
1 0.16 0.677094
1 0.19 0.654103
1 0.22 0.631111
1 0.25 0.60812
1 0.28 0.585128
1 0.31 0.562137
1 0.34 0.539145
1 0.37 0.516154
1 0.4 0.493162
1 0.43 0.470171
1 0.46 0.447179
1 0.49 0.424188
1 0.52 0.401197
1 0.55 0.378205
1 0.58 0.355214
1 0.61 0.332222
1 0.64 0.309231
1 0.67 0.286239
1 0.7 0.263248
1 0.73 0.240256
1 0.76 0.217265
1 0.79 0.194274
1 0.82 0.171282
1 0.85 0.148291
1 0.88 0.125299
1 0.91 0.102308
1 0.94 0.0793162
1 0.97 0.0563248
1 1 0.0333333
1 0.1 0.757692
1 0.13 0.733547
1 0.16 0.709402
1 0.19 0.685256
1 0.22 0.661111
1 0.25 0.636966
1 0.28 0.612821
1 0.31 0.588675
1 0.34 0.56453
1 0.37 0.540385
1 0.4 0.516239
1 0.43 0.492094
1 0.46 0.467949
1 0.49 0.443803
1 0.52 0.419658
1 0.55 0.395513
1 0.58 0.371368
1 0.61 0.347222
1 0.64 0.323077
1 0.67 0.298932
1 0.7 0.274786
1 0.73 0.250641
1 0.76 0.226496
1 0.79 0.20235
1 0.82 0.178205
1 0.85 0.15406
1 0.88 0.129915
1 0.91 0.105769
1 0.94 0.0816239
1 0.97 0.0574786
1 0.1 0.792308
1 0.13 0.767009
1 0.16 0.741709
1 0.19 0.71641
1 0.22 0.691111
1 0.25 0.665812
1 0.28 0.640513
1 0.31 0.615214
1 0.34 0.589915
1 0.37 0.564615
1 0.4 0.539316
1 0.43 0.514017
1 0.46 0.488718
1 0.49 0.463419
1 0.52 0.43812
1 0.55 0.412821
1 0.58 0.387521
1 0.61 0.362222
1 0.64 0.336923
1 0.67 0.311624
1 0.7 0.286325
1 0.73 0.261026
1 0.76 0.235726
1 0.79 0.210427
1 0.82 0.185128
1 0.85 0.159829
1 0.88 0.13453
1 0.91 0.109231
1 0.94 0.0839316
1 0.97 0.0586325
1 0.1 0.826923
1 0.13 0.80047
1 0.16 0.774017
1 0.19 0.747564
1 0.22 0.721111
1 0.25 0.694658
1 0.28 0.668205
1 0.31 0.641752
1 0.34 0.615299
1 0.37 0.588846
1 0.4 0.562393
1 0.43 0.53594
1 0.46 0.509487
1 0.49 0.483034
1 0.52 0.456581
1 0.55 0.430128
1 0.58 0.403675
1 0.61 0.377222
1 0.64 0.350769
1 0.67 0.324316
1 0.7 0.297863
1 0.73 0.27141
1 0.76 0.244957
1 0.79 0.218504
1 0.82 0.192051
1 0.85 0.165598
1 0.88 0.139145
1 0.91 0.112692
1 0.94 0.0862393
1 0.97 0.0597863
1 0.1 0.861538
1 0.13 0.833932
1 0.16 0.806325
1 0.19 0.778718
1 0.22 0.751111
1 0.25 0.723504
1 0.28 0.695897
1 0.31 0.668291
1 0.34 0.640684
1 0.37 0.613077
1 0.4 0.58547
1 0.43 0.557863
1 0.46 0.530256
1 0.49 0.50265
1 0.52 0.475043
1 0.55 0.447436
1 0.58 0.419829
1 0.61 0.392222
1 0.64 0.364615
1 0.67 0.337009
1 0.7 0.309402
1 0.73 0.281795
1 0.76 0.254188
1 0.79 0.226581
1 0.82 0.198974
1 0.85 0.171368
1 0.88 0.143761
1 0.91 0.116154
1 0.94 0.088547
1 0.97 0.0609402
1 0.1 0.878846
1 0.13 0.850107
1 0.16 0.821368
1 0.19 0.792628
1 0.22 0.763889
1 0.25 0.73515
1 0.28 0.70641
1 0.31 0.677671
1 0.34 0.648932
1 0.37 0.620192
1 0.4 0.591453
1 0.43 0.562714
1 0.46 0.533974
1 0.49 0.505235
1 0.52 0.476496
1 0.55 0.447756
1 0.58 0.419017
1 0.61 0.390278
1 0.64 0.361538
1 0.67 0.332799
1 0.7 0.30406
1 0.73 0.275321
1 0.76 0.246581
1 0.79 0.217842
1 0.82 0.189103
1 0.85 0.160363
1 0.88 0.131624
1 0.91 0.102885
1 0.94 0.0741453
1 0.97 0.045406
1 1 0.0166667
1 0.1 0.913462
1 0.13 0.883568
1 0.16 0.853675
1 0.19 0.823782
1 0.22 0.793889
1 0.25 0.763996
1 0.28 0.734103
1 0.31 0.704209
1 0.34 0.674316
1 0.37 0.644423
1 0.4 0.61453
1 0.43 0.584637
1 0.46 0.554744
1 0.49 0.52485
1 0.52 0.494957
1 0.55 0.465064
1 0.58 0.435171
1 0.61 0.405278
1 0.64 0.375385
1 0.67 0.345491
1 0.7 0.315598
1 0.73 0.285705
1 0.76 0.255812
1 0.79 0.225919
1 0.82 0.196026
1 0.85 0.166132
1 0.88 0.136239
1 0.91 0.106346
1 0.94 0.076453
1 0.97 0.0465598
1 0.1 0.948077
1 0.13 0.91703
1 0.16 0.885983
1 0.19 0.854936
1 0.22 0.823889
1 0.25 0.792842
1 0.28 0.761795
1 0.31 0.730748
1 0.34 0.699701
1 0.37 0.668654
1 0.4 0.637607
1 0.43 0.60656
1 0.46 0.575513
1 0.49 0.544466
1 0.52 0.513419
1 0.55 0.482372
1 0.58 0.451325
1 0.61 0.420278
1 0.64 0.389231
1 0.67 0.358184
1 0.7 0.327137
1 0.73 0.29609
1 0.76 0.265043
1 0.79 0.233996
1 0.82 0.202949
1 0.85 0.171902
1 0.88 0.140855
1 0.91 0.109808
1 0.94 0.0787607
1 0.97 0.0477137
1 0.1 0.982692
1 0.13 0.950491
1 0.16 0.918291
1 0.19 0.88609
1 0.22 0.853889
1 0.25 0.821688
1 0.28 0.789487
1 0.31 0.757286
1 0.34 0.725085
1 0.37 0.692885
1 0.4 0.660684
1 0.43 0.628483
1 0.46 0.596282
1 0.49 0.564081
1 0.52 0.53188
1 0.55 0.499679
1 0.58 0.467479
1 0.61 0.435278
1 0.64 0.403077
1 0.67 0.370876
1 0.7 0.338675
1 0.73 0.306474
1 0.76 0.274274
1 0.79 0.242073
1 0.82 0.209872
1 0.85 0.177671
1 0.88 0.14547
1 0.91 0.113269
1 0.94 0.0810684
1 0.97 0.0488675
1 0.1 1
1 0.13 0.966667
1 0.16 0.933333
1 0.19 0.9
1 0.22 0.866667
1 0.25 0.833333
1 0.28 0.8
1 0.31 0.766667
1 0.34 0.733333
1 0.37 0.7
1 0.4 0.666667
1 0.43 0.633333
1 0.46 0.6
1 0.49 0.566667
1 0.52 0.533333
1 0.55 0.5
1 0.58 0.466667
1 0.61 0.433333
1 0.64 0.4
1 0.67 0.366667
1 0.7 0.333333
1 0.73 0.3
1 0.76 0.266667
1 0.79 0.233333
1 0.82 0.2
1 0.85 0.166667
1 0.88 0.133333
1 0.91 0.1
1 0.94 0.0666667
1 0.97 0.0333333
1 1 5.55112e-17
3 0 1 32
3 0 32 31
3 31 32 62
3 31 62 61
3 61 62 92
3 61 92 91
3 91 92 122
3 91 122 121
3 121 122 152
3 121 152 151
3 151 152 183
3 151 183 182
3 182 183 213
3 182 213 212
3 212 213 243
3 212 243 242
3 242 243 273
3 242 273 272
3 272 273 303
3 272 303 302
3 302 303 334
3 302 334 333
3 333 334 364
3 333 364 363
3 363 364 394
3 363 394 393
3 393 394 424
3 393 424 423
3 423 424 454
3 423 454 453
3 453 454 485
3 453 485 484
3 484 485 515
3 484 515 514
3 514 515 545
3 514 545 544
3 544 545 575
3 544 575 574
3 574 575 605
3 574 605 604
3 604 605 636
3 604 636 635
3 635 636 666
3 635 666 665
3 665 666 696
3 665 696 695
3 695 696 726
3 695 726 725
3 725 726 756
3 725 756 755
3 755 756 787
3 755 787 786
3 786 787 817
3 786 817 816
3 816 817 847
3 816 847 846
3 846 847 877
3 846 877 876
3 1 2 33
3 1 33 32
3 32 33 63
3 32 63 62
3 62 63 93
3 62 93 92
3 92 93 123
3 92 123 122
3 122 123 153
3 122 153 152
3 152 153 184
3 152 184 183
3 183 184 214
3 183 214 213
3 213 214 244
3 213 244 243
3 243 244 274
3 243 274 273
3 273 274 304
3 273 304 303
3 303 304 335
3 303 335 334
3 334 335 365
3 334 365 364
3 364 365 395
3 364 395 394
3 394 395 425
3 394 425 424
3 424 425 455
3 424 455 454
3 454 455 486
3 454 486 485
3 485 486 516
3 485 516 515
3 515 516 546
3 515 546 545
3 545 546 576
3 545 576 575
3 575 576 606
3 575 606 605
3 605 606 637
3 605 637 636
3 636 637 667
3 636 667 666
3 666 667 697
3 666 697 696
3 696 697 727
3 696 727 726
3 726 727 757
3 726 757 756
3 756 757 788
3 756 788 787
3 787 788 818
3 787 818 817
3 817 818 848
3 817 848 847
3 847 848 878
3 847 878 877
3 2 3 34
3 2 34 33
3 33 34 64
3 33 64 63
3 63 64 94
3 63 94 93
3 93 94 124
3 93 124 123
3 123 124 154
3 123 154 153
3 153 154 185
3 153 185 184
3 184 185 215
3 184 215 214
3 214 215 245
3 214 245 244
3 244 245 275
3 244 275 274
3 274 275 305
3 274 305 304
3 304 305 336
3 304 336 335
3 335 336 366
3 335 366 365
3 365 366 396
3 365 396 395
3 395 396 426
3 395 426 425
3 425 426 456
3 425 456 455
3 455 456 487
3 455 487 486
3 486 487 517
3 486 517 516
3 516 517 547
3 516 547 546
3 546 547 577
3 546 577 576
3 576 577 607
3 576 607 606
3 606 607 638
3 606 638 637
3 637 638 668
3 637 668 667
3 667 668 698
3 667 698 697
3 697 698 728
3 697 728 727
3 727 728 758
3 727 758 757
3 757 758 789
3 757 789 788
3 788 789 819
3 788 819 818
3 818 819 849
3 818 849 848
3 848 849 879
3 848 879 878
3 3 4 35
3 3 35 34
3 34 35 65
3 34 65 64
3 64 65 95
3 64 95 94
3 94 95 125
3 94 125 124
3 124 125 155
3 124 155 154
3 154 155 186
3 154 186 185
3 185 186 216
3 185 216 215
3 215 216 246
3 215 246 245
3 245 246 276
3 245 276 275
3 275 276 306
3 275 306 305
3 305 306 337
3 305 337 336
3 336 337 367
3 336 367 366
3 366 367 397
3 366 397 396
3 396 397 427
3 396 427 426
3 426 427 457
3 426 457 456
3 456 457 488
3 456 488 487
3 487 488 518
3 487 518 517
3 517 518 548
3 517 548 547
3 547 548 578
3 547 578 577
3 577 578 608
3 577 608 607
3 607 608 639
3 607 639 638
3 638 639 669
3 638 669 668
3 668 669 699
3 668 699 698
3 698 699 729
3 698 729 728
3 728 729 759
3 728 759 758
3 758 759 790
3 758 790 789
3 789 790 820
3 789 820 819
3 819 820 850
3 819 850 849
3 849 850 880
3 849 880 879
3 4 5 36
3 4 36 35
3 35 36 66
3 35 66 65
3 65 66 96
3 65 96 95
3 95 96 126
3 95 126 125
3 125 126 156
3 125 156 155
3 155 156 187
3 155 187 186
3 186 187 217
3 186 217 216
3 216 217 247
3 216 247 246
3 246 247 277
3 246 277 276
3 276 277 307
3 276 307 306
3 306 307 338
3 306 338 337
3 337 338 368
3 337 368 367
3 367 368 398
3 367 398 397
3 397 398 428
3 397 428 427
3 427 428 458
3 427 458 457
3 457 458 489
3 457 489 488
3 488 489 519
3 488 519 518
3 518 519 549
3 518 549 548
3 548 549 579
3 548 579 578
3 578 579 609
3 578 609 608
3 608 609 640
3 608 640 639
3 639 640 670
3 639 670 669
3 669 670 700
3 669 700 699
3 699 700 730
3 699 730 729
3 729 730 760
3 729 760 759
3 759 760 791
3 759 791 790
3 790 791 821
3 790 821 820
3 820 821 851
3 820 851 850
3 850 851 881
3 850 881 880
3 5 6 37
3 5 37 36
3 36 37 67
3 36 67 66
3 66 67 97
3 66 97 96
3 96 97 127
3 96 127 126
3 126 127 157
3 126 157 156
3 156 157 188
3 156 188 187
3 187 188 218
3 187 218 217
3 217 218 248
3 217 248 247
3 247 248 278
3 247 278 277
3 277 278 308
3 277 308 307
3 307 308 339
3 307 339 338
3 338 339 369
3 338 369 368
3 368 369 399
3 368 399 398
3 398 399 429
3 398 429 428
3 428 429 459
3 428 459 458
3 458 459 490
3 458 490 489
3 489 490 520
3 489 520 519
3 519 520 550
3 519 550 549
3 549 550 580
3 549 580 579
3 579 580 610
3 579 610 609
3 609 610 641
3 609 641 640
3 640 641 671
3 640 671 670
3 670 671 701
3 670 701 700
3 700 701 731
3 700 731 730
3 730 731 761
3 730 761 760
3 760 761 792
3 760 792 791
3 791 792 822
3 791 822 821
3 821 822 852
3 821 852 851
3 851 852 882
3 851 882 881
3 6 7 38
3 6 38 37
3 37 38 68
3 37 68 67
3 67 68 98
3 67 98 97
3 97 98 128
3 97 128 127
3 127 128 158
3 127 158 157
3 157 158 189
3 157 189 188
3 188 189 219
3 188 219 218
3 218 219 249
3 218 249 248
3 248 249 279
3 248 279 278
3 278 279 309
3 278 309 308
3 308 309 340
3 308 340 339
3 339 340 370
3 339 370 369
3 369 370 400
3 369 400 399
3 399 400 430
3 399 430 429
3 429 430 460
3 429 460 459
3 459 460 491
3 459 491 490
3 490 491 521
3 490 521 520
3 520 521 551
3 520 551 550
3 550 551 581
3 550 581 580
3 580 581 611
3 580 611 610
3 610 611 642
3 610 642 641
3 641 642 672
3 641 672 671
3 671 672 702
3 671 702 701
3 701 702 732
3 701 732 731
3 731 732 762
3 731 762 761
3 761 762 793
3 761 793 792
3 792 793 823
3 792 823 822
3 822 823 853
3 822 853 852
3 852 853 883
3 852 883 882
3 7 8 39
3 7 39 38
3 38 39 69
3 38 69 68
3 68 69 99
3 68 99 98
3 98 99 129
3 98 129 128
3 128 129 159
3 128 159 158
3 158 159 190
3 158 190 189
3 189 190 220
3 189 220 219
3 219 220 250
3 219 250 249
3 249 250 280
3 249 280 279
3 279 280 310
3 279 310 309
3 309 310 341
3 309 341 340
3 340 341 371
3 340 371 370
3 370 371 401
3 370 401 400
3 400 401 431
3 400 431 430
3 430 431 461
3 430 461 460
3 460 461 492
3 460 492 491
3 491 492 522
3 491 522 521
3 521 522 552
3 521 552 551
3 551 552 582
3 551 582 581
3 581 582 612
3 581 612 611
3 611 612 643
3 611 643 642
3 642 643 673
3 642 673 672
3 672 673 703
3 672 703 702
3 702 703 733
3 702 733 732
3 732 733 763
3 732 763 762
3 762 763 794
3 762 794 793
3 793 794 824
3 793 824 823
3 823 824 854
3 823 854 853
3 853 854 884
3 853 884 883
3 8 9 40
3 8 40 39
3 39 40 70
3 39 70 69
3 69 70 100
3 69 100 99
3 99 100 130
3 99 130 129
3 129 130 160
3 129 160 159
3 159 160 191
3 159 191 190
3 190 191 221
3 190 221 220
3 220 221 251
3 220 251 250
3 250 251 281
3 250 281 280
3 280 281 311
3 280 311 310
3 310 311 342
3 310 342 341
3 341 342 372
3 341 372 371
3 371 372 402
3 371 402 401
3 401 402 432
3 401 432 431
3 431 432 462
3 431 462 461
3 461 462 493
3 461 493 492
3 492 493 523
3 492 523 522
3 522 523 553
3 522 553 552
3 552 553 583
3 552 583 582
3 582 583 613
3 582 613 612
3 612 613 644
3 612 644 643
3 643 644 674
3 643 674 673
3 673 674 704
3 673 704 703
3 703 704 734
3 703 734 733
3 733 734 764
3 733 764 763
3 763 764 795
3 763 795 794
3 794 795 825
3 794 825 824
3 824 825 855
3 824 855 854
3 854 855 885
3 854 885 884
3 9 10 41
3 9 41 40
3 40 41 71
3 40 71 70
3 70 71 101
3 70 101 100
3 100 101 131
3 100 131 130
3 130 131 161
3 130 161 160
3 160 161 192
3 160 192 191
3 191 192 222
3 191 222 221
3 221 222 252
3 221 252 251
3 251 252 282
3 251 282 281
3 281 282 312
3 281 312 311
3 311 312 343
3 311 343 342
3 342 343 373
3 342 373 372
3 372 373 403
3 372 403 402
3 402 403 433
3 402 433 432
3 432 433 463
3 432 463 462
3 462 463 494
3 462 494 493
3 493 494 524
3 493 524 523
3 523 524 554
3 523 554 553
3 553 554 584
3 553 584 583
3 583 584 614
3 583 614 613
3 613 614 645
3 613 645 644
3 644 645 675
3 644 675 674
3 674 675 705
3 674 705 704
3 704 705 735
3 704 735 734
3 734 735 765
3 734 765 764
3 764 765 796
3 764 796 795
3 795 796 826
3 795 826 825
3 825 826 856
3 825 856 855
3 855 856 886
3 855 886 885
3 10 11 42
3 10 42 41
3 41 42 72
3 41 72 71
3 71 72 102
3 71 102 101
3 101 102 132
3 101 132 131
3 131 132 162
3 131 162 161
3 161 162 193
3 161 193 192
3 192 193 223
3 192 223 222
3 222 223 253
3 222 253 252
3 252 253 283
3 252 283 282
3 282 283 313
3 282 313 312
3 312 313 344
3 312 344 343
3 343 344 374
3 343 374 373
3 373 374 404
3 373 404 403
3 403 404 434
3 403 434 433
3 433 434 464
3 433 464 463
3 463 464 495
3 463 495 494
3 494 495 525
3 494 525 524
3 524 525 555
3 524 555 554
3 554 555 585
3 554 585 584
3 584 585 615
3 584 615 614
3 614 615 646
3 614 646 645
3 645 646 676
3 645 676 675
3 675 676 706
3 675 706 705
3 705 706 736
3 705 736 735
3 735 736 766
3 735 766 765
3 765 766 797
3 765 797 796
3 796 797 827
3 796 827 826
3 826 827 857
3 826 857 856
3 856 857 887
3 856 887 886
3 11 12 43
3 11 43 42
3 42 43 73
3 42 73 72
3 72 73 103
3 72 103 102
3 102 103 133
3 102 133 132
3 132 133 163
3 132 163 162
3 162 163 194
3 162 194 193
3 193 194 224
3 193 224 223
3 223 224 254
3 223 254 253
3 253 254 284
3 253 284 283
3 283 284 314
3 283 314 313
3 313 314 345
3 313 345 344
3 344 345 375
3 344 375 374
3 374 375 405
3 374 405 404
3 404 405 435
3 404 435 434
3 434 435 465
3 434 465 464
3 464 465 496
3 464 496 495
3 495 496 526
3 495 526 525
3 525 526 556
3 525 556 555
3 555 556 586
3 555 586 585
3 585 586 616
3 585 616 615
3 615 616 647
3 615 647 646
3 646 647 677
3 646 677 676
3 676 677 707
3 676 707 706
3 706 707 737
3 706 737 736
3 736 737 767
3 736 767 766
3 766 767 798
3 766 798 797
3 797 798 828
3 797 828 827
3 827 828 858
3 827 858 857
3 857 858 888
3 857 888 887
3 12 13 44
3 12 44 43
3 43 44 74
3 43 74 73
3 73 74 104
3 73 104 103
3 103 104 134
3 103 134 133
3 133 134 164
3 133 164 163
3 163 164 195
3 163 195 194
3 194 195 225
3 194 225 224
3 224 225 255
3 224 255 254
3 254 255 285
3 254 285 284
3 284 285 315
3 284 315 314
3 314 315 346
3 314 346 345
3 345 346 376
3 345 376 375
3 375 376 406
3 375 406 405
3 405 406 436
3 405 436 435
3 435 436 466
3 435 466 465
3 465 466 497
3 465 497 496
3 496 497 527
3 496 527 526
3 526 527 557
3 526 557 556
3 556 557 587
3 556 587 586
3 586 587 617
3 586 617 616
3 616 617 648
3 616 648 647
3 647 648 678
3 647 678 677
3 677 678 708
3 677 708 707
3 707 708 738
3 707 738 737
3 737 738 768
3 737 768 767
3 767 768 799
3 767 799 798
3 798 799 829
3 798 829 828
3 828 829 859
3 828 859 858
3 858 859 889
3 858 889 888
3 13 14 45
3 13 45 44
3 44 45 75
3 44 75 74
3 74 75 105
3 74 105 104
3 104 105 135
3 104 135 134
3 134 135 165
3 134 165 164
3 164 165 196
3 164 196 195
3 195 196 226
3 195 226 225
3 225 226 256
3 225 256 255
3 255 256 286
3 255 286 285
3 285 286 316
3 285 316 315
3 315 316 347
3 315 347 346
3 346 347 377
3 346 377 376
3 376 377 407
3 376 407 406
3 406 407 437
3 406 437 436
3 436 437 467
3 436 467 466
3 466 467 498
3 466 498 497
3 497 498 528
3 497 528 527
3 527 528 558
3 527 558 557
3 557 558 588
3 557 588 587
3 587 588 618
3 587 618 617
3 617 618 649
3 617 649 648
3 648 649 679
3 648 679 678
3 678 679 709
3 678 709 708
3 708 709 739
3 708 739 738
3 738 739 769
3 738 769 768
3 768 769 800
3 768 800 799
3 799 800 830
3 799 830 829
3 829 830 860
3 829 860 859
3 859 860 890
3 859 890 889
3 14 15 46
3 14 46 45
3 45 46 76
3 45 76 75
3 75 76 106
3 75 106 105
3 105 106 136
3 105 136 135
3 135 136 166
3 135 166 165
3 165 166 197
3 165 197 196
3 196 197 227
3 196 227 226
3 226 227 257
3 226 257 256
3 256 257 287
3 256 287 286
3 286 287 317
3 286 317 316
3 316 317 348
3 316 348 347
3 347 348 378
3 347 378 377
3 377 378 408
3 377 408 407
3 407 408 438
3 407 438 437
3 437 438 468
3 437 468 467
3 467 468 499
3 467 499 498
3 498 499 529
3 498 529 528
3 528 529 559
3 528 559 558
3 558 559 589
3 558 589 588
3 588 589 619
3 588 619 618
3 618 619 650
3 618 650 649
3 649 650 680
3 649 680 679
3 679 680 710
3 679 710 709
3 709 710 740
3 709 740 739
3 739 740 770
3 739 770 769
3 769 770 801
3 769 801 800
3 800 801 831
3 800 831 830
3 830 831 861
3 830 861 860
3 860 861 891
3 860 891 890
3 15 16 47
3 15 47 46
3 46 47 77
3 46 77 76
3 76 77 107
3 76 107 106
3 106 107 137
3 106 137 136
3 136 137 167
3 136 167 166
3 166 167 198
3 166 198 197
3 197 198 228
3 197 228 227
3 227 228 258
3 227 258 257
3 257 258 288
3 257 288 287
3 287 288 318
3 287 318 317
3 317 318 349
3 317 349 348
3 348 349 379
3 348 379 378
3 378 379 409
3 378 409 408
3 408 409 439
3 408 439 438
3 438 439 469
3 438 469 468
3 468 469 500
3 468 500 499
3 499 500 530
3 499 530 529
3 529 530 560
3 529 560 559
3 559 560 590
3 559 590 589
3 589 590 620
3 589 620 619
3 619 620 651
3 619 651 650
3 650 651 681
3 650 681 680
3 680 681 711
3 680 711 710
3 710 711 741
3 710 741 740
3 740 741 771
3 740 771 770
3 770 771 802
3 770 802 801
3 801 802 832
3 801 832 831
3 831 832 862
3 831 862 861
3 861 862 892
3 861 892 891
3 16 17 48
3 16 48 47
3 47 48 78
3 47 78 77
3 77 78 108
3 77 108 107
3 107 108 138
3 107 138 137
3 137 138 168
3 137 168 167
3 167 168 199
3 167 199 198
3 198 199 229
3 198 229 228
3 228 229 259
3 228 259 258
3 258 259 289
3 258 289 288
3 288 289 319
3 288 319 318
3 318 319 350
3 318 350 349
3 349 350 380
3 349 380 379
3 379 380 410
3 379 410 409
3 409 410 440
3 409 440 439
3 439 440 470
3 439 470 469
3 469 470 501
3 469 501 500
3 500 501 531
3 500 531 530
3 530 531 561
3 530 561 560
3 560 561 591
3 560 591 590
3 590 591 621
3 590 621 620
3 620 621 652
3 620 652 651
3 651 652 682
3 651 682 681
3 681 682 712
3 681 712 711
3 711 712 742
3 711 742 741
3 741 742 772
3 741 772 771
3 771 772 803
3 771 803 802
3 802 803 833
3 802 833 832
3 832 833 863
3 832 863 862
3 862 863 893
3 862 893 892
3 17 18 49
3 17 49 48
3 48 49 79
3 48 79 78
3 78 79 109
3 78 109 108
3 108 109 139
3 108 139 138
3 138 139 169
3 138 169 168
3 168 169 200
3 168 200 199
3 199 200 230
3 199 230 229
3 229 230 260
3 229 260 259
3 259 260 290
3 259 290 289
3 289 290 320
3 289 320 319
3 319 320 351
3 319 351 350
3 350 351 381
3 350 381 380
3 380 381 411
3 380 411 410
3 410 411 441
3 410 441 440
3 440 441 471
3 440 471 470
3 470 471 502
3 470 502 501
3 501 502 532
3 501 532 531
3 531 532 562
3 531 562 561
3 561 562 592
3 561 592 591
3 591 592 622
3 591 622 621
3 621 622 653
3 621 653 652
3 652 653 683
3 652 683 682
3 682 683 713
3 682 713 712
3 712 713 743
3 712 743 742
3 742 743 773
3 742 773 772
3 772 773 804
3 772 804 803
3 803 804 834
3 803 834 833
3 833 834 864
3 833 864 863
3 863 864 894
3 863 894 893
3 18 19 50
3 18 50 49
3 49 50 80
3 49 80 79
3 79 80 110
3 79 110 109
3 109 110 140
3 109 140 139
3 139 140 170
3 139 170 169
3 169 170 201
3 169 201 200
3 200 201 231
3 200 231 230
3 230 231 261
3 230 261 260
3 260 261 291
3 260 291 290
3 290 291 321
3 290 321 320
3 320 321 352
3 320 352 351
3 351 352 382
3 351 382 381
3 381 382 412
3 381 412 411
3 411 412 442
3 411 442 441
3 441 442 472
3 441 472 471
3 471 472 503
3 471 503 502
3 502 503 533
3 502 533 532
3 532 533 563
3 532 563 562
3 562 563 593
3 562 593 592
3 592 593 623
3 592 623 622
3 622 623 654
3 622 654 653
3 653 654 684
3 653 684 683
3 683 684 714
3 683 714 713
3 713 714 744
3 713 744 743
3 743 744 774
3 743 774 773
3 773 774 805
3 773 805 804
3 804 805 835
3 804 835 834
3 834 835 865
3 834 865 864
3 864 865 895
3 864 895 894
3 19 20 51
3 19 51 50
3 50 51 81
3 50 81 80
3 80 81 111
3 80 111 110
3 110 111 141
3 110 141 140
3 140 141 171
3 140 171 170
3 170 171 202
3 170 202 201
3 201 202 232
3 201 232 231
3 231 232 262
3 231 262 261
3 261 262 292
3 261 292 291
3 291 292 322
3 291 322 321
3 321 322 353
3 321 353 352
3 352 353 383
3 352 383 382
3 382 383 413
3 382 413 412
3 412 413 443
3 412 443 442
3 442 443 473
3 442 473 472
3 472 473 504
3 472 504 503
3 503 504 534
3 503 534 533
3 533 534 564
3 533 564 563
3 563 564 594
3 563 594 593
3 593 594 624
3 593 624 623
3 623 624 655
3 623 655 654
3 654 655 685
3 654 685 684
3 684 685 715
3 684 715 714
3 714 715 745
3 714 745 744
3 744 745 775
3 744 775 774
3 774 775 806
3 774 806 805
3 805 806 836
3 805 836 835
3 835 836 866
3 835 866 865
3 865 866 896
3 865 896 895
3 20 21 52
3 20 52 51
3 51 52 82
3 51 82 81
3 81 82 112
3 81 112 111
3 111 112 142
3 111 142 141
3 141 142 172
3 141 172 171
3 171 172 203
3 171 203 202
3 202 203 233
3 202 233 232
3 232 233 263
3 232 263 262
3 262 263 293
3 262 293 292
3 292 293 323
3 292 323 322
3 322 323 354
3 322 354 353
3 353 354 384
3 353 384 383
3 383 384 414
3 383 414 413
3 413 414 444
3 413 444 443
3 443 444 474
3 443 474 473
3 473 474 505
3 473 505 504
3 504 505 535
3 504 535 534
3 534 535 565
3 534 565 564
3 564 565 595
3 564 595 594
3 594 595 625
3 594 625 624
3 624 625 656
3 624 656 655
3 655 656 686
3 655 686 685
3 685 686 716
3 685 716 715
3 715 716 746
3 715 746 745
3 745 746 776
3 745 776 775
3 775 776 807
3 775 807 806
3 806 807 837
3 806 837 836
3 836 837 867
3 836 867 866
3 866 867 897
3 866 897 896
3 21 22 53
3 21 53 52
3 52 53 83
3 52 83 82
3 82 83 113
3 82 113 112
3 112 113 143
3 112 143 142
3 142 143 173
3 142 173 172
3 172 173 204
3 172 204 203
3 203 204 234
3 203 234 233
3 233 234 264
3 233 264 263
3 263 264 294
3 263 294 293
3 293 294 324
3 293 324 323
3 323 324 355
3 323 355 354
3 354 355 385
3 354 385 384
3 384 385 415
3 384 415 414
3 414 415 445
3 414 445 444
3 444 445 475
3 444 475 474
3 474 475 506
3 474 506 505
3 505 506 536
3 505 536 535
3 535 536 566
3 535 566 565
3 565 566 596
3 565 596 595
3 595 596 626
3 595 626 625
3 625 626 657
3 625 657 656
3 656 657 687
3 656 687 686
3 686 687 717
3 686 717 716
3 716 717 747
3 716 747 746
3 746 747 777
3 746 777 776
3 776 777 808
3 776 808 807
3 807 808 838
3 807 838 837
3 837 838 868
3 837 868 867
3 867 868 898
3 867 898 897
3 22 23 54
3 22 54 53
3 53 54 84
3 53 84 83
3 83 84 114
3 83 114 113
3 113 114 144
3 113 144 143
3 143 144 174
3 143 174 173
3 173 174 205
3 173 205 204
3 204 205 235
3 204 235 234
3 234 235 265
3 234 265 264
3 264 265 295
3 264 295 294
3 294 295 325
3 294 325 324
3 324 325 356
3 324 356 355
3 355 356 386
3 355 386 385
3 385 386 416
3 385 416 415
3 415 416 446
3 415 446 445
3 445 446 476
3 445 476 475
3 475 476 507
3 475 507 506
3 506 507 537
3 506 537 536
3 536 537 567
3 536 567 566
3 566 567 597
3 566 597 596
3 596 597 627
3 596 627 626
3 626 627 658
3 626 658 657
3 657 658 688
3 657 688 687
3 687 688 718
3 687 718 717
3 717 718 748
3 717 748 747
3 747 748 778
3 747 778 777
3 777 778 809
3 777 809 808
3 808 809 839
3 808 839 838
3 838 839 869
3 838 869 868
3 868 869 899
3 868 899 898
3 23 24 55
3 23 55 54
3 54 55 85
3 54 85 84
3 84 85 115
3 84 115 114
3 114 115 145
3 114 145 144
3 144 145 175
3 144 175 174
3 174 175 206
3 174 206 205
3 205 206 236
3 205 236 235
3 235 236 266
3 235 266 265
3 265 266 296
3 265 296 295
3 295 296 326
3 295 326 325
3 325 326 357
3 325 357 356
3 356 357 387
3 356 387 386
3 386 387 417
3 386 417 416
3 416 417 447
3 416 447 446
3 446 447 477
3 446 477 476
3 476 477 508
3 476 508 507
3 507 508 538
3 507 538 537
3 537 538 568
3 537 568 567
3 567 568 598
3 567 598 597
3 597 598 628
3 597 628 627
3 627 628 659
3 627 659 658
3 658 659 689
3 658 689 688
3 688 689 719
3 688 719 718
3 718 719 749
3 718 749 748
3 748 749 779
3 748 779 778
3 778 779 810
3 778 810 809
3 809 810 840
3 809 840 839
3 839 840 870
3 839 870 869
3 869 870 900
3 869 900 899
3 24 25 56
3 24 56 55
3 55 56 86
3 55 86 85
3 85 86 116
3 85 116 115
3 115 116 146
3 115 146 145
3 145 146 176
3 145 176 175
3 175 176 207
3 175 207 206
3 206 207 237
3 206 237 236
3 236 237 267
3 236 267 266
3 266 267 297
3 266 297 296
3 296 297 327
3 296 327 326
3 326 327 358
3 326 358 357
3 357 358 388
3 357 388 387
3 387 388 418
3 387 418 417
3 417 418 448
3 417 448 447
3 447 448 478
3 447 478 477
3 477 478 509
3 477 509 508
3 508 509 539
3 508 539 538
3 538 539 569
3 538 569 568
3 568 569 599
3 568 599 598
3 598 599 629
3 598 629 628
3 628 629 660
3 628 660 659
3 659 660 690
3 659 690 689
3 689 690 720
3 689 720 719
3 719 720 750
3 719 750 749
3 749 750 780
3 749 780 779
3 779 780 811
3 779 811 810
3 810 811 841
3 810 841 840
3 840 841 871
3 840 871 870
3 870 871 901
3 870 901 900
3 25 26 57
3 25 57 56
3 56 57 87
3 56 87 86
3 86 87 117
3 86 117 116
3 116 117 147
3 116 147 146
3 146 147 177
3 146 177 176
3 176 177 208
3 176 208 207
3 207 208 238
3 207 238 237
3 237 238 268
3 237 268 267
3 267 268 298
3 267 298 297
3 297 298 328
3 297 328 327
3 327 328 359
3 327 359 358
3 358 359 389
3 358 389 388
3 388 389 419
3 388 419 418
3 418 419 449
3 418 449 448
3 448 449 479
3 448 479 478
3 478 479 510
3 478 510 509
3 509 510 540
3 509 540 539
3 539 540 570
3 539 570 569
3 569 570 600
3 569 600 599
3 599 600 630
3 599 630 629
3 629 630 661
3 629 661 660
3 660 661 691
3 660 691 690
3 690 691 721
3 690 721 720
3 720 721 751
3 720 751 750
3 750 751 781
3 750 781 780
3 780 781 812
3 780 812 811
3 811 812 842
3 811 842 841
3 841 842 872
3 841 872 871
3 871 872 902
3 871 902 901
3 26 27 58
3 26 58 57
3 57 58 88
3 57 88 87
3 87 88 118
3 87 118 117
3 117 118 148
3 117 148 147
3 147 148 178
3 147 178 177
3 177 178 209
3 177 209 208
3 208 209 239
3 208 239 238
3 238 239 269
3 238 269 268
3 268 269 299
3 268 299 298
3 298 299 329
3 298 329 328
3 328 329 360
3 328 360 359
3 359 360 390
3 359 390 389
3 389 390 420
3 389 420 419
3 419 420 450
3 419 450 449
3 449 450 480
3 449 480 479
3 479 480 511
3 479 511 510
3 510 511 541
3 510 541 540
3 540 541 571
3 540 571 570
3 570 571 601
3 570 601 600
3 600 601 631
3 600 631 630
3 630 631 662
3 630 662 661
3 661 662 692
3 661 692 691
3 691 692 722
3 691 722 721
3 721 722 752
3 721 752 751
3 751 752 782
3 751 782 781
3 781 782 813
3 781 813 812
3 812 813 843
3 812 843 842
3 842 843 873
3 842 873 872
3 872 873 903
3 872 903 902
3 27 28 59
3 27 59 58
3 58 59 89
3 58 89 88
3 88 89 119
3 88 119 118
3 118 119 149
3 118 149 148
3 148 149 179
3 148 179 178
3 178 179 210
3 178 210 209
3 209 210 240
3 209 240 239
3 239 240 270
3 239 270 269
3 269 270 300
3 269 300 299
3 299 300 330
3 299 330 329
3 329 330 361
3 329 361 360
3 360 361 391
3 360 391 390
3 390 391 421
3 390 421 420
3 420 421 451
3 420 451 450
3 450 451 481
3 450 481 480
3 480 481 512
3 480 512 511
3 511 512 542
3 511 542 541
3 541 542 572
3 541 572 571
3 571 572 602
3 571 602 601
3 601 602 632
3 601 632 631
3 631 632 663
3 631 663 662
3 662 663 693
3 662 693 692
3 692 693 723
3 692 723 722
3 722 723 753
3 722 753 752
3 752 753 783
3 752 783 782
3 782 783 814
3 782 814 813
3 813 814 844
3 813 844 843
3 843 844 874
3 843 874 873
3 873 874 904
3 873 904 903
3 28 29 60
3 28 60 59
3 59 60 90
3 59 90 89
3 89 90 120
3 89 120 119
3 119 120 150
3 119 150 149
3 149 150 180
3 149 180 179
3 179 180 211
3 179 211 210
3 210 211 241
3 210 241 240
3 240 241 271
3 240 271 270
3 270 271 301
3 270 301 300
3 300 301 331
3 300 331 330
3 330 331 362
3 330 362 361
3 361 362 392
3 361 392 391
3 391 392 422
3 391 422 421
3 421 422 452
3 421 452 451
3 451 452 482
3 451 482 481
3 481 482 513
3 481 513 512
3 512 513 543
3 512 543 542
3 542 543 573
3 542 573 572
3 572 573 603
3 572 603 602
3 602 603 633
3 602 633 632
3 632 633 664
3 632 664 663
3 663 664 694
3 663 694 693
3 693 694 724
3 693 724 723
3 723 724 754
3 723 754 753
3 753 754 784
3 753 784 783
3 783 784 815
3 783 815 814
3 814 815 845
3 814 845 844
3 844 845 875
3 844 875 874
3 874 875 905
3 874 905 904
3 29 30 60
3 60 30 90
3 90 30 120
3 120 30 150
3 150 30 181
3 150 181 180
3 180 181 211
3 211 181 241
3 241 181 271
3 271 181 301
3 301 181 332
3 301 332 331
3 331 332 362
3 362 332 392
3 392 332 422
3 422 332 452
3 452 332 483
3 452 483 482
3 482 483 513
3 513 483 543
3 543 483 573
3 573 483 603
3 603 483 634
3 603 634 633
3 633 634 664
3 664 634 694
3 694 634 724
3 724 634 754
3 754 634 785
3 754 785 784
3 784 785 815
3 815 785 845
3 845 785 875
3 875 785 906
3 875 906 905
