ply
format ascii 1.0
comment Created by Open3D
element vertex 107
property double x
property double y
property double z
element face 177
property list uchar uint vertex_indices
end_header
1 0.1 1
1 0.19 0.9
1 0.28 0.8
1 0.37 0.7
1 0.46 0.6
1 0.55 0.5
1 0.64 0.4
1 0.73 0.3
1 0.82 0.2
1 0.91 0.1
1 1 5.55112e-17
1 0.0833333 1
1 0.162931 0.9
1 0.242529 0.8
1 0.322126 0.7
1 0.401724 0.6
1 0.481322 0.5
1 0.56092 0.4
1 0.640517 0.3
1 0.720115 0.2
1 0.799713 0.1
1 0.87931 5.55112e-17
1 0.0666667 1
1 0.137586 0.9
1 0.208506 0.8
1 0.279425 0.7
1 0.350345 0.6
1 0.421264 0.5
1 0.492184 0.4
1 0.563103 0.3
1 0.634023 0.2
1 0.704943 0.1
1 0.775862 5.55112e-17
1 0.125517 0.9
1 0.184368 0.8
1 0.243218 0.7
1 0.302069 0.6
1 0.36092 0.5
1 0.41977 0.4
1 0.478621 0.3
1 0.537471 0.2
1 0.596322 0.1
1 0.655172 5.55112e-17
1 0.05 1
1 0.100172 0.9
1 0.150345 0.8
1 0.200517 0.7
1 0.25069 0.6
1 0.300862 0.5
1 0.351034 0.4
1 0.401207 0.3
1 0.451379 0.2
1 0.501552 0.1
1 0.551724 5.55112e-17
1 0.0333333 1
1 0.0731034 0.9
1 0.112874 0.8
1 0.152644 0.7
1 0.192414 0.6
1 0.232184 0.5
1 0.271954 0.4
1 0.311724 0.3
1 0.351494 0.2
1 0.391264 0.1
1 0.431034 5.55112e-17
1 0.0627586 0.9
1 0.0921839 0.8
1 0.121609 0.7
1 0.151034 0.6
1 0.18046 0.5
1 0.209885 0.4
1 0.23931 0.3
1 0.268736 0.2
1 0.298161 0.1
1 0.327586 5.55112e-17
1 0.0166667 1
1 0.0356897 0.9
1 0.0547126 0.8
1 0.0737356 0.7
1 0.0927586 0.6
1 0.111782 0.5
1 0.130805 0.4
1 0.149828 0.3
1 0.168851 0.2
1 0.187874 0.1
1 0.206897 5.55112e-17
1 5.55112e-17 1
1 0.0103448 0.9
1 0.0206897 0.8
1 0.0310345 0.7
1 0.0413793 0.6
1 0.0517241 0.5
1 0.062069 0.4
1 0.0724138 0.3
1 0.0827586 0.2
1 0.0931034 0.1
1 0.103448 5.55112e-17
1 5.55112e-17 0.9
1 5.55112e-17 0.8
1 5.55112e-17 0.7
1 5.55112e-17 0.6
1 5.55112e-17 0.5
1 5.55112e-17 0.4
1 5.55112e-17 0.3
1 5.55112e-17 0.2
1 5.55112e-17 0.1
1 5.55112e-17 5.55112e-17
3 0 1 12
3 0 12 11
3 11 12 23
3 11 23 22
3 22 23 33
3 22 33 44
3 22 44 43
3 43 44 55
3 43 55 54
3 54 55 65
3 54 65 76
3 54 76 75
3 75 76 87
3 75 87 86
3 86 87 97
3 1 2 13
3 1 13 12
3 12 13 24
3 12 24 23
3 23 24 34
3 23 34 33
3 33 34 45
3 33 45 44
3 44 45 56
3 44 56 55
3 55 56 66
3 55 66 65
3 65 66 77
3 65 77 76
3 76 77 88
3 76 88 87
3 87 88 98
3 87 98 97
3 2 3 14
3 2 14 13
3 13 14 25
3 13 25 24
3 24 25 35
3 24 35 34
3 34 35 46
3 34 46 45
3 45 46 57
3 45 57 56
3 56 57 67
3 56 67 66
3 66 67 78
3 66 78 77
3 77 78 89
3 77 89 88
3 88 89 99
3 88 99 98
3 3 4 15
3 3 15 14
3 14 15 26
3 14 26 25
3 25 26 36
3 25 36 35
3 35 36 47
3 35 47 46
3 46 47 58
3 46 58 57
3 57 58 68
3 57 68 67
3 67 68 79
3 67 79 78
3 78 79 90
3 78 90 89
3 89 90 100
3 89 100 99
3 4 5 16
3 4 16 15
3 15 16 27
3 15 27 26
3 26 27 37
3 26 37 36
3 36 37 48
3 36 48 47
3 47 48 59
3 47 59 58
3 58 59 69
3 58 69 68
3 68 69 80
3 68 80 79
3 79 80 91
3 79 91 90
3 90 91 101
3 90 101 100
3 5 6 17
3 5 17 16
3 16 17 28
3 16 28 27
3 27 28 38
3 27 38 37
3 37 38 49
3 37 49 48
3 48 49 60
3 48 60 59
3 59 60 70
3 59 70 69
3 69 70 81
3 69 81 80
3 80 81 92
3 80 92 91
3 91 92 102
3 91 102 101
3 6 7 18
3 6 18 17
3 17 18 29
3 17 29 28
3 28 29 39
3 28 39 38
3 38 39 50
3 38 50 49
3 49 50 61
3 49 61 60
3 60 61 71
3 60 71 70
3 70 71 82
3 70 82 81
3 81 82 93
3 81 93 92
3 92 93 103
3 92 103 102
3 7 8 19
3 7 19 18
3 18 19 30
3 18 30 29
3 29 30 40
3 29 40 39
3 39 40 51
3 39 51 50
3 50 51 62
3 50 62 61
3 61 62 72
3 61 72 71
3 71 72 83
3 71 83 82
3 82 83 94
3 82 94 93
3 93 94 104
3 93 104 103
3 8 9 20
3 8 20 19
3 19 20 31
3 19 31 30
3 30 31 41
3 30 41 40
3 40 41 52
3 40 52 51
3 51 52 63
3 51 63 62
3 62 63 73
3 62 73 72
3 72 73 84
3 72 84 83
3 83 84 95
3 83 95 94
3 94 95 105
3 94 105 104
3 9 10 21
3 9 21 20
3 20 21 32
3 20 32 31
3 31 32 42
3 31 42 41
3 41 42 53
3 41 53 52
3 52 53 64
3 52 64 63
3 63 64 74
3 63 74 73
3 73 74 85
3 73 85 84
3 84 85 96
3 84 96 95
3 95 96 106
3 95 106 105
