ply
format ascii 1.0
comment Created by Open3D
element vertex 107
property double x
property double y
property double z
element face 177
property list uchar uint vertex_indices
end_header
1 0.1 0.1
1 0.1 0.19
1 0.1 0.28
1 0.1 0.37
1 0.1 0.46
1 0.1 0.55
1 0.1 0.64
1 0.1 0.73
1 0.1 0.82
1 0.1 0.91
1 0.1 1
1 0.1 0.203846
1 0.0983333 0.283462
1 0.0966667 0.363077
1 0.095 0.442692
1 0.0933333 0.522308
1 0.0916667 0.601923
1 0.09 0.681538
1 0.0883333 0.761154
1 0.0866667 0.840769
1 0.085 0.920385
1 0.0833333 1
1 0.1 0.307692
1 0.0966667 0.376923
1 0.0933333 0.446154
1 0.09 0.515385
1 0.0866667 0.584615
1 0.0833333 0.653846
1 0.08 0.723077
1 0.0766667 0.792308
1 0.0733333 0.861538
1 0.07 0.930769
1 0.0666667 1
1 0.1 0.411538
1 0.0966667 0.470385
1 0.0933333 0.529231
1 0.09 0.588077
1 0.0866667 0.646923
1 0.0833333 0.705769
1 0.08 0.764615
1 0.0766667 0.823462
1 0.0733333 0.882308
1 0.07 0.941154
1 0.1 0.515385
1 0.095 0.563846
1 0.09 0.612308
1 0.085 0.660769
1 0.08 0.709231
1 0.075 0.757692
1 0.07 0.806154
1 0.065 0.854615
1 0.06 0.903077
1 0.055 0.951538
1 0.05 1
1 0.1 0.601923
1 0.0933333 0.641731
1 0.0866667 0.681538
1 0.08 0.721346
1 0.0733333 0.761154
1 0.0666667 0.800962
1 0.06 0.840769
1 0.0533333 0.880577
1 0.0466667 0.920385
1 0.04 0.960192
1 0.0333333 1
1 0.1 0.705769
1 0.0933333 0.735192
1 0.0866667 0.764615
1 0.08 0.794038
1 0.0733333 0.823462
1 0.0666667 0.852885
1 0.06 0.882308
1 0.0533333 0.911731
1 0.0466667 0.941154
1 0.04 0.970577
1 0.1 0.809615
1 0.0916667 0.828654
1 0.0833333 0.847692
1 0.075 0.866731
1 0.0666667 0.885769
1 0.0583333 0.904808
1 0.05 0.923846
1 0.0416667 0.942885
1 0.0333333 0.961923
1 0.025 0.980962
1 0.0166667 1
1 0.1 0.913462
1 0.09 0.922115
1 0.08 0.930769
1 0.07 0.939423
1 0.06 0.948077
1 0.05 0.956731
1 0.04 0.965385
1 0.03 0.974038
1 0.02 0.982692
1 0.01 0.991346
1 5.55112e-17 1
1 0.1 1
1 0.09 1
1 0.08 1
1 0.07 1
1 0.06 1
1 0.05 1
1 0.04 1
1 0.03 1
1 0.02 1
1 0.01 1
3 0 1 12
3 0 12 11
3 11 12 23
3 11 23 22
3 22 23 34
3 22 34 33
3 33 34 44
3 33 44 43
3 43 44 55
3 43 55 54
3 54 55 66
3 54 66 65
3 65 66 76
3 65 76 75
3 75 76 87
3 75 87 86
3 86 87 98
3 86 98 97
3 1 2 13
3 1 13 12
3 12 13 24
3 12 24 23
3 23 24 35
3 23 35 34
3 34 35 45
3 34 45 44
3 44 45 56
3 44 56 55
3 55 56 67
3 55 67 66
3 66 67 77
3 66 77 76
3 76 77 88
3 76 88 87
3 87 88 99
3 87 99 98
3 2 3 14
3 2 14 13
3 13 14 25
3 13 25 24
3 24 25 36
3 24 36 35
3 35 36 46
3 35 46 45
3 45 46 57
3 45 57 56
3 56 57 68
3 56 68 67
3 67 68 78
3 67 78 77
3 77 78 89
3 77 89 88
3 88 89 100
3 88 100 99
3 3 4 15
3 3 15 14
3 14 15 26
3 14 26 25
3 25 26 37
3 25 37 36
3 36 37 47
3 36 47 46
3 46 47 58
3 46 58 57
3 57 58 69
3 57 69 68
3 68 69 79
3 68 79 78
3 78 79 90
3 78 90 89
3 89 90 101
3 89 101 100
3 4 5 16
3 4 16 15
3 15 16 27
3 15 27 26
3 26 27 38
3 26 38 37
3 37 38 48
3 37 48 47
3 47 48 59
3 47 59 58
3 58 59 70
3 58 70 69
3 69 70 80
3 69 80 79
3 79 80 91
3 79 91 90
3 90 91 102
3 90 102 101
3 5 6 17
3 5 17 16
3 16 17 28
3 16 28 27
3 27 28 39
3 27 39 38
3 38 39 49
3 38 49 48
3 48 49 60
3 48 60 59
3 59 60 71
3 59 71 70
3 70 71 81
3 70 81 80
3 80 81 92
3 80 92 91
3 91 92 103
3 91 103 102
3 6 7 18
3 6 18 17
3 17 18 29
3 17 29 28
3 28 29 40
3 28 40 39
3 39 40 50
3 39 50 49
3 49 50 61
3 49 61 60
3 60 61 72
3 60 72 71
3 71 72 82
3 71 82 81
3 81 82 93
3 81 93 92
3 92 93 104
3 92 104 103
3 7 8 19
3 7 19 18
3 18 19 30
3 18 30 29
3 29 30 41
3 29 41 40
3 40 41 51
3 40 51 50
3 50 51 62
3 50 62 61
3 61 62 73
3 61 73 72
3 72 73 83
3 72 83 82
3 82 83 94
3 82 94 93
3 93 94 105
3 93 105 104
3 8 9 20
3 8 20 19
3 19 20 31
3 19 31 30
3 30 31 42
3 30 42 41
3 41 42 52
3 41 52 51
3 51 52 63
3 51 63 62
3 62 63 74
3 62 74 73
3 73 74 84
3 73 84 83
3 83 84 95
3 83 95 94
3 94 95 106
3 94 106 105
3 9 10 21
3 9 21 20
3 20 21 32
3 20 32 31
3 31 32 42
3 42 32 53
3 42 53 52
3 52 53 64
3 52 64 63
3 63 64 74
3 74 64 85
3 74 85 84
3 84 85 96
3 84 96 95
3 95 96 106
