ply
format ascii 1.0
comment Created by Open3D
element vertex 930
property double x
property double y
property double z
element face 1740
property list uchar uint vertex_indices
end_header
1 1 0.1
1 0.966667 0.13
1 0.933333 0.16
1 0.9 0.19
1 0.866667 0.22
1 0.833333 0.25
1 0.8 0.28
1 0.766667 0.31
1 0.733333 0.34
1 0.7 0.37
1 0.666667 0.4
1 0.633333 0.43
1 0.6 0.46
1 0.566667 0.49
1 0.533333 0.52
1 0.5 0.55
1 0.466667 0.58
1 0.433333 0.61
1 0.4 0.64
1 0.366667 0.67
1 0.333333 0.7
1 0.3 0.73
1 0.266667 0.76
1 0.233333 0.79
1 0.2 0.82
1 0.166667 0.85
1 0.133333 0.88
1 0.1 0.91
1 0.0666667 0.94
1 0.0333333 0.97
1 5.55112e-17 1
1 0.965385 0.1
1 0.933205 0.128851
1 0.901026 0.157701
1 0.868846 0.186552
1 0.836667 0.215402
1 0.804487 0.244253
1 0.772308 0.273103
1 0.740128 0.301954
1 0.707949 0.330805
1 0.675769 0.359655
1 0.64359 0.388506
1 0.61141 0.417356
1 0.579231 0.446207
1 0.547051 0.475057
1 0.514872 0.503908
1 0.482692 0.532759
1 0.450513 0.561609
1 0.418333 0.59046
1 0.386154 0.61931
1 0.353974 0.648161
1 0.321795 0.677011
1 0.289615 0.705862
1 0.257436 0.734713
1 0.225256 0.763563
1 0.193077 0.792414
1 0.160897 0.821264
1 0.128718 0.850115
1 0.0965385 0.878966
1 0.064359 0.907816
1 0.0321795 0.936667
1 5.55112e-17 0.965517
1 0.930769 0.1
1 0.899744 0.127701
1 0.868718 0.155402
1 0.837692 0.183103
1 0.806667 0.210805
1 0.775641 0.238506
1 0.744615 0.266207
1 0.71359 0.293908
1 0.682564 0.321609
1 0.651538 0.34931
1 0.620513 0.377011
1 0.589487 0.404713
1 0.558462 0.432414
1 0.527436 0.460115
1 0.49641 0.487816
1 0.465385 0.515517
1 0.434359 0.543218
1 0.403333 0.57092
1 0.372308 0.598621
1 0.341282 0.626322
1 0.310256 0.654023
1 0.279231 0.681724
1 0.248205 0.709425
1 0.217179 0.737126
1 0.186154 0.764828
1 0.155128 0.792529
1 0.124103 0.82023
1 0.0930769 0.847931
1 0.0620513 0.875632
1 0.0310256 0.903333
1 5.55112e-17 0.931034
1 0.896154 0.1
1 0.866282 0.126552
1 0.83641 0.153103
1 0.806538 0.179655
1 0.776667 0.206207
1 0.746795 0.232759
1 0.716923 0.25931
1 0.687051 0.285862
1 0.657179 0.312414
1 0.627308 0.338966
1 0.597436 0.365517
1 0.567564 0.392069
1 0.537692 0.418621
1 0.507821 0.445172
1 0.477949 0.471724
1 0.448077 0.498276
1 0.418205 0.524828
1 0.388333 0.551379
1 0.358462 0.577931
1 0.32859 0.604483
1 0.298718 0.631034
1 0.268846 0.657586
1 0.238974 0.684138
1 0.209103 0.71069
1 0.179231 0.737241
1 0.149359 0.763793
1 0.119487 0.790345
1 0.0896154 0.816897
1 0.0597436 0.843448
1 0.0298718 0.87
1 5.55112e-17 0.896552
1 0.861538 0.1
1 0.832821 0.125402
1 0.804103 0.150805
1 0.775385 0.176207
1 0.746667 0.201609
1 0.717949 0.227011
1 0.689231 0.252414
1 0.660513 0.277816
1 0.631795 0.303218
1 0.603077 0.328621
1 0.574359 0.354023
1 0.545641 0.379425
1 0.516923 0.404828
1 0.488205 0.43023
1 0.459487 0.455632
1 0.430769 0.481034
1 0.402051 0.506437
1 0.373333 0.531839
1 0.344615 0.557241
1 0.315897 0.582644
1 0.287179 0.608046
1 0.258462 0.633448
1 0.229744 0.658851
1 0.201026 0.684253
1 0.172308 0.709655
1 0.14359 0.735057
1 0.114872 0.76046
1 0.0861538 0.785862
1 0.0574359 0.811264
1 0.0287179 0.836667
1 5.55112e-17 0.862069
1 0.844231 0.1
1 0.81609 0.124253
1 0.787949 0.148506
1 0.759808 0.172759
1 0.731667 0.197011
1 0.703526 0.221264
1 0.675385 0.245517
1 0.647244 0.26977
1 0.619103 0.294023
1 0.590962 0.318276
1 0.562821 0.342529
1 0.534679 0.366782
1 0.506538 0.391034
1 0.478397 0.415287
1 0.450256 0.43954
1 0.422115 0.463793
1 0.393974 0.488046
1 0.365833 0.512299
1 0.337692 0.536552
1 0.309551 0.560805
1 0.28141 0.585057
1 0.253269 0.60931
1 0.225128 0.633563
1 0.196987 0.657816
1 0.168846 0.682069
1 0.140705 0.706322
1 0.112564 0.730575
1 0.0844231 0.754828
1 0.0562821 0.77908
1 0.028141 0.803333
1 5.55112e-17 0.827586
1 0.809615 0.1
1 0.782628 0.123103
1 0.755641 0.146207
1 0.728654 0.16931
1 0.701667 0.192414
1 0.674679 0.215517
1 0.647692 0.238621
1 0.620705 0.261724
1 0.593718 0.284828
1 0.566731 0.307931
1 0.539744 0.331034
1 0.512756 0.354138
1 0.485769 0.377241
1 0.458782 0.400345
1 0.431795 0.423448
1 0.404808 0.446552
1 0.377821 0.469655
1 0.350833 0.492759
1 0.323846 0.515862
1 0.296859 0.538966
1 0.269872 0.562069
1 0.242885 0.585172
1 0.215897 0.608276
1 0.18891 0.631379
1 0.161923 0.654483
1 0.134936 0.677586
1 0.107949 0.70069
1 0.0809615 0.723793
1 0.0539744 0.746897
1 0.0269872 0.77
1 5.55112e-17 0.793103
1 0.775 0.1
1 0.749167 0.121954
1 0.723333 0.143908
1 0.6975 0.165862
1 0.671667 0.187816
1 0.645833 0.20977
1 0.62 0.231724
1 0.594167 0.253678
1 0.568333 0.275632
1 0.5425 0.297586
1 0.516667 0.31954
1 0.490833 0.341494
1 0.465 0.363448
1 0.439167 0.385402
1 0.413333 0.407356
1 0.3875 0.42931
1 0.361667 0.451264
1 0.335833 0.473218
1 0.31 0.495172
1 0.284167 0.517126
1 0.258333 0.53908
1 0.2325 0.561034
1 0.206667 0.582989
1 0.180833 0.604943
1 0.155 0.626897
1 0.129167 0.648851
1 0.103333 0.670805
1 0.0775 0.692759
1 0.0516667 0.714713
1 0.0258333 0.736667
1 5.55112e-17 0.758621
1 0.740385 0.1
1 0.715705 0.120805
1 0.691026 0.141609
1 0.666346 0.162414
1 0.641667 0.183218
1 0.616987 0.204023
1 0.592308 0.224828
1 0.567628 0.245632
1 0.542949 0.266437
1 0.518269 0.287241
1 0.49359 0.308046
1 0.46891 0.328851
1 0.444231 0.349655
1 0.419551 0.37046
1 0.394872 0.391264
1 0.370192 0.412069
1 0.345513 0.432874
1 0.320833 0.453678
1 0.296154 0.474483
1 0.271474 0.495287
1 0.246795 0.516092
1 0.222115 0.536897
1 0.197436 0.557701
1 0.172756 0.578506
1 0.148077 0.59931
1 0.123397 0.620115
1 0.0987179 0.64092
1 0.0740385 0.661724
1 0.049359 0.682529
1 0.0246795 0.703333
1 5.55112e-17 0.724138
1 0.705769 0.1
1 0.682244 0.119655
1 0.658718 0.13931
1 0.635192 0.158966
1 0.611667 0.178621
1 0.588141 0.198276
1 0.564615 0.217931
1 0.54109 0.237586
1 0.517564 0.257241
1 0.494038 0.276897
1 0.470513 0.296552
1 0.446987 0.316207
1 0.423462 0.335862
1 0.399936 0.355517
1 0.37641 0.375172
1 0.352885 0.394828
1 0.329359 0.414483
1 0.305833 0.434138
1 0.282308 0.453793
1 0.258782 0.473448
1 0.235256 0.493103
1 0.211731 0.512759
1 0.188205 0.532414
1 0.164679 0.552069
1 0.141154 0.571724
1 0.117628 0.591379
1 0.0941026 0.611034
1 0.0705769 0.63069
1 0.0470513 0.650345
1 0.0235256 0.67
1 5.55112e-17 0.689655
1 0.688462 0.1
1 0.665513 0.118506
1 0.642564 0.137011
1 0.619615 0.155517
1 0.596667 0.174023
1 0.573718 0.192529
1 0.550769 0.211034
1 0.527821 0.22954
1 0.504872 0.248046
1 0.481923 0.266552
1 0.458974 0.285057
1 0.436026 0.303563
1 0.413077 0.322069
1 0.390128 0.340575
1 0.367179 0.35908
1 0.344231 0.377586
1 0.321282 0.396092
1 0.298333 0.414598
1 0.275385 0.433103
1 0.252436 0.451609
1 0.229487 0.470115
1 0.206538 0.488621
1 0.18359 0.507126
1 0.160641 0.525632
1 0.137692 0.544138
1 0.114744 0.562644
1 0.0917949 0.581149
1 0.0688462 0.599655
1 0.0458974 0.618161
1 0.0229487 0.636667
1 5.55112e-17 0.655172
1 0.653846 0.1
1 0.632051 0.117356
1 0.610256 0.134713
1 0.588462 0.152069
1 0.566667 0.169425
1 0.544872 0.186782
1 0.523077 0.204138
1 0.501282 0.221494
1 0.479487 0.238851
1 0.457692 0.256207
1 0.435897 0.273563
1 0.414103 0.29092
1 0.392308 0.308276
1 0.370513 0.325632
1 0.348718 0.342989
1 0.326923 0.360345
1 0.305128 0.377701
1 0.283333 0.395057
1 0.261538 0.412414
1 0.239744 0.42977
1 0.217949 0.447126
1 0.196154 0.464483
1 0.174359 0.481839
1 0.152564 0.499195
1 0.130769 0.516552
1 0.108974 0.533908
1 0.0871795 0.551264
1 0.0653846 0.568621
1 0.0435897 0.585977
1 0.0217949 0.603333
1 5.55112e-17 0.62069
1 0.619231 0.1
1 0.59859 0.116207
1 0.577949 0.132414
1 0.557308 0.148621
1 0.536667 0.164828
1 0.516026 0.181034
1 0.495385 0.197241
1 0.474744 0.213448
1 0.454103 0.229655
1 0.433462 0.245862
1 0.412821 0.262069
1 0.392179 0.278276
1 0.371538 0.294483
1 0.350897 0.31069
1 0.330256 0.326897
1 0.309615 0.343103
1 0.288974 0.35931
1 0.268333 0.375517
1 0.247692 0.391724
1 0.227051 0.407931
1 0.20641 0.424138
1 0.185769 0.440345
1 0.165128 0.456552
1 0.144487 0.472759
1 0.123846 0.488966
1 0.103205 0.505172
1 0.0825641 0.521379
1 0.0619231 0.537586
1 0.0412821 0.553793
1 0.020641 0.57
1 5.55112e-17 0.586207
1 0.584615 0.1
1 0.565128 0.115057
1 0.545641 0.130115
1 0.526154 0.145172
1 0.506667 0.16023
1 0.487179 0.175287
1 0.467692 0.190345
1 0.448205 0.205402
1 0.428718 0.22046
1 0.409231 0.235517
1 0.389744 0.250575
1 0.370256 0.265632
1 0.350769 0.28069
1 0.331282 0.295747
1 0.311795 0.310805
1 0.292308 0.325862
1 0.272821 0.34092
1 0.253333 0.355977
1 0.233846 0.371034
1 0.214359 0.386092
1 0.194872 0.401149
1 0.175385 0.416207
1 0.155897 0.431264
1 0.13641 0.446322
1 0.116923 0.461379
1 0.0974359 0.476437
1 0.0779487 0.491494
1 0.0584615 0.506552
1 0.0389744 0.521609
1 0.0194872 0.536667
1 5.55112e-17 0.551724
1 0.55 0.1
1 0.531667 0.113908
1 0.513333 0.127816
1 0.495 0.141724
1 0.476667 0.155632
1 0.458333 0.16954
1 0.44 0.183448
1 0.421667 0.197356
1 0.403333 0.211264
1 0.385 0.225172
1 0.366667 0.23908
1 0.348333 0.252989
1 0.33 0.266897
1 0.311667 0.280805
1 0.293333 0.294713
1 0.275 0.308621
1 0.256667 0.322529
1 0.238333 0.336437
1 0.22 0.350345
1 0.201667 0.364253
1 0.183333 0.378161
1 0.165 0.392069
1 0.146667 0.405977
1 0.128333 0.419885
1 0.11 0.433793
1 0.0916667 0.447701
1 0.0733333 0.461609
1 0.055 0.475517
1 0.0366667 0.489425
1 0.0183333 0.503333
1 5.55112e-17 0.517241
1 0.532692 0.1
1 0.514936 0.112759
1 0.497179 0.125517
1 0.479423 0.138276
1 0.461667 0.151034
1 0.44391 0.163793
1 0.426154 0.176552
1 0.408397 0.18931
1 0.390641 0.202069
1 0.372885 0.214828
1 0.355128 0.227586
1 0.337372 0.240345
1 0.319615 0.253103
1 0.301859 0.265862
1 0.284103 0.278621
1 0.266346 0.291379
1 0.24859 0.304138
1 0.230833 0.316897
1 0.213077 0.329655
1 0.195321 0.342414
1 0.177564 0.355172
1 0.159808 0.367931
1 0.142051 0.38069
1 0.124295 0.393448
1 0.106538 0.406207
1 0.0887821 0.418966
1 0.0710256 0.431724
1 0.0532692 0.444483
1 0.0355128 0.457241
1 0.0177564 0.47
1 5.55112e-17 0.482759
1 0.498077 0.1
1 0.481474 0.111609
1 0.464872 0.123218
1 0.448269 0.134828
1 0.431667 0.146437
1 0.415064 0.158046
1 0.398462 0.169655
1 0.381859 0.181264
1 0.365256 0.192874
1 0.348654 0.204483
1 0.332051 0.216092
1 0.315449 0.227701
1 0.298846 0.23931
1 0.282244 0.25092
1 0.265641 0.262529
1 0.249038 0.274138
1 0.232436 0.285747
1 0.215833 0.297356
1 0.199231 0.308966
1 0.182628 0.320575
1 0.166026 0.332184
1 0.149423 0.343793
1 0.132821 0.355402
1 0.116218 0.367011
1 0.0996154 0.378621
1 0.0830128 0.39023
1 0.0664103 0.401839
1 0.0498077 0.413448
1 0.0332051 0.425057
1 0.0166026 0.436667
1 5.55112e-17 0.448276
1 0.463462 0.1
1 0.448013 0.11046
1 0.432564 0.12092
1 0.417115 0.131379
1 0.401667 0.141839
1 0.386218 0.152299
1 0.370769 0.162759
1 0.355321 0.173218
1 0.339872 0.183678
1 0.324423 0.194138
1 0.308974 0.204598
1 0.293526 0.215057
1 0.278077 0.225517
1 0.262628 0.235977
1 0.247179 0.246437
1 0.231731 0.256897
1 0.216282 0.267356
1 0.200833 0.277816
1 0.185385 0.288276
1 0.169936 0.298736
1 0.154487 0.309195
1 0.139038 0.319655
1 0.12359 0.330115
1 0.108141 0.340575
1 0.0926923 0.351034
1 0.0772436 0.361494
1 0.0617949 0.371954
1 0.0463462 0.382414
1 0.0308974 0.392874
1 0.0154487 0.403333
1 5.55112e-17 0.413793
1 0.428846 0.1
1 0.414551 0.10931
1 0.400256 0.118621
1 0.385962 0.127931
1 0.371667 0.137241
1 0.357372 0.146552
1 0.343077 0.155862
1 0.328782 0.165172
1 0.314487 0.174483
1 0.300192 0.183793
1 0.285897 0.193103
1 0.271603 0.202414
1 0.257308 0.211724
1 0.243013 0.221034
1 0.228718 0.230345
1 0.214423 0.239655
1 0.200128 0.248966
1 0.185833 0.258276
1 0.171538 0.267586
1 0.157244 0.276897
1 0.142949 0.286207
1 0.128654 0.295517
1 0.114359 0.304828
1 0.100064 0.314138
1 0.0857692 0.323448
1 0.0714744 0.332759
1 0.0571795 0.342069
1 0.0428846 0.351379
1 0.0285897 0.36069
1 0.0142949 0.37
1 5.55112e-17 0.37931
1 0.394231 0.1
1 0.38109 0.108161
1 0.367949 0.116322
1 0.354808 0.124483
1 0.341667 0.132644
1 0.328526 0.140805
1 0.315385 0.148966
1 0.302244 0.157126
1 0.289103 0.165287
1 0.275962 0.173448
1 0.262821 0.181609
1 0.249679 0.18977
1 0.236538 0.197931
1 0.223397 0.206092
1 0.210256 0.214253
1 0.197115 0.222414
1 0.183974 0.230575
1 0.170833 0.238736
1 0.157692 0.246897
1 0.144551 0.255057
1 0.13141 0.263218
1 0.118269 0.271379
1 0.105128 0.27954
1 0.0919872 0.287701
1 0.0788462 0.295862
1 0.0657051 0.304023
1 0.0525641 0.312184
1 0.0394231 0.320345
1 0.0262821 0.328506
1 0.013141 0.336667
1 5.55112e-17 0.344828
1 0.376923 0.1
1 0.364359 0.107011
1 0.351795 0.114023
1 0.339231 0.121034
1 0.326667 0.128046
1 0.314103 0.135057
1 0.301538 0.142069
1 0.288974 0.14908
1 0.27641 0.156092
1 0.263846 0.163103
1 0.251282 0.170115
1 0.238718 0.177126
1 0.226154 0.184138
1 0.21359 0.191149
1 0.201026 0.198161
1 0.188462 0.205172
1 0.175897 0.212184
1 0.163333 0.219195
1 0.150769 0.226207
1 0.138205 0.233218
1 0.125641 0.24023
1 0.113077 0.247241
1 0.100513 0.254253
1 0.0879487 0.261264
1 0.0753846 0.268276
1 0.0628205 0.275287
1 0.0502564 0.282299
1 0.0376923 0.28931
1 0.0251282 0.296322
1 0.0125641 0.303333
1 5.55112e-17 0.310345
1 0.342308 0.1
1 0.330897 0.105862
1 0.319487 0.111724
1 0.308077 0.117586
1 0.296667 0.123448
1 0.285256 0.12931
1 0.273846 0.135172
1 0.262436 0.141034
1 0.251026 0.146897
1 0.239615 0.152759
1 0.228205 0.158621
1 0.216795 0.164483
1 0.205385 0.170345
1 0.193974 0.176207
1 0.182564 0.182069
1 0.171154 0.187931
1 0.159744 0.193793
1 0.148333 0.199655
1 0.136923 0.205517
1 0.125513 0.211379
1 0.114103 0.217241
1 0.102692 0.223103
1 0.0912821 0.228966
1 0.0798718 0.234828
1 0.0684615 0.24069
1 0.0570513 0.246552
1 0.045641 0.252414
1 0.0342308 0.258276
1 0.0228205 0.264138
1 0.0114103 0.27
1 5.55112e-17 0.275862
1 0.307692 0.1
1 0.297436 0.104713
1 0.287179 0.109425
1 0.276923 0.114138
1 0.266667 0.118851
1 0.25641 0.123563
1 0.246154 0.128276
1 0.235897 0.132989
1 0.225641 0.137701
1 0.215385 0.142414
1 0.205128 0.147126
1 0.194872 0.151839
1 0.184615 0.156552
1 0.174359 0.161264
1 0.164103 0.165977
1 0.153846 0.17069
1 0.14359 0.175402
1 0.133333 0.180115
1 0.123077 0.184828
1 0.112821 0.18954
1 0.102564 0.194253
1 0.0923077 0.198966
1 0.0820513 0.203678
1 0.0717949 0.208391
1 0.0615385 0.213103
1 0.0512821 0.217816
1 0.0410256 0.222529
1 0.0307692 0.227241
1 0.0205128 0.231954
1 0.0102564 0.236667
1 5.55112e-17 0.241379
1 0.273077 0.1
1 0.263974 0.103563
1 0.254872 0.107126
1 0.245769 0.11069
1 0.236667 0.114253
1 0.227564 0.117816
1 0.218462 0.121379
1 0.209359 0.124943
1 0.200256 0.128506
1 0.191154 0.132069
1 0.182051 0.135632
1 0.172949 0.139195
1 0.163846 0.142759
1 0.154744 0.146322
1 0.145641 0.149885
1 0.136538 0.153448
1 0.127436 0.157011
1 0.118333 0.160575
1 0.109231 0.164138
1 0.100128 0.167701
1 0.0910256 0.171264
1 0.0819231 0.174828
1 0.0728205 0.178391
1 0.0637179 0.181954
1 0.0546154 0.185517
1 0.0455128 0.18908
1 0.0364103 0.192644
1 0.0273077 0.196207
1 0.0182051 0.19977
1 0.00910256 0.203333
1 5.55112e-17 0.206897
1 0.238462 0.1
1 0.230513 0.102414
1 0.222564 0.104828
1 0.214615 0.107241
1 0.206667 0.109655
1 0.198718 0.112069
1 0.190769 0.114483
1 0.182821 0.116897
1 0.174872 0.11931
1 0.166923 0.121724
1 0.158974 0.124138
1 0.151026 0.126552
1 0.143077 0.128966
1 0.135128 0.131379
1 0.127179 0.133793
1 0.119231 0.136207
1 0.111282 0.138621
1 0.103333 0.141034
1 0.0953846 0.143448
1 0.0874359 0.145862
1 0.0794872 0.148276
1 0.0715385 0.15069
1 0.0635897 0.153103
1 0.055641 0.155517
1 0.0476923 0.157931
1 0.0397436 0.160345
1 0.0317949 0.162759
1 0.0238462 0.165172
1 0.0158974 0.167586
1 0.00794872 0.17
1 5.55112e-17 0.172414
1 0.221154 0.1
1 0.213782 0.101264
1 0.20641 0.102529
1 0.199038 0.103793
1 0.191667 0.105057
1 0.184295 0.106322
1 0.176923 0.107586
1 0.169551 0.108851
1 0.162179 0.110115
1 0.154808 0.111379
1 0.147436 0.112644
1 0.140064 0.113908
1 0.132692 0.115172
1 0.125321 0.116437
1 0.117949 0.117701
1 0.110577 0.118966
1 0.103205 0.12023
1 0.0958333 0.121494
1 0.0884615 0.122759
1 0.0810897 0.124023
1 0.0737179 0.125287
1 0.0663462 0.126552
1 0.0589744 0.127816
1 0.0516026 0.12908
1 0.0442308 0.130345
1 0.036859 0.131609
1 0.0294872 0.132874
1 0.0221154 0.134138
1 0.0147436 0.135402
1 0.00737179 0.136667
1 5.55112e-17 0.137931
1 0.186538 0.1
1 0.180321 0.100115
1 0.174103 0.10023
1 0.167885 0.100345
1 0.161667 0.10046
1 0.155449 0.100575
1 0.149231 0.10069
1 0.143013 0.100805
1 0.136795 0.10092
1 0.130577 0.101034
1 0.124359 0.101149
1 0.118141 0.101264
1 0.111923 0.101379
1 0.105705 0.101494
1 0.0994872 0.101609
1 0.0932692 0.101724
1 0.0870513 0.101839
1 0.0808333 0.101954
1 0.0746154 0.102069
1 0.0683974 0.102184
1 0.0621795 0.102299
1 0.0559615 0.102414
1 0.0497436 0.102529
1 0.0435256 0.102644
1 0.0373077 0.102759
1 0.0310897 0.102874
1 0.0248718 0.102989
1 0.0186538 0.103103
1 0.0124359 0.103218
1 0.00621795 0.103333
1 5.55112e-17 0.103448
1 0.151923 0.1
1 0.146859 0.0989655
1 0.141795 0.097931
1 0.136731 0.0968966
1 0.131667 0.0958621
1 0.126603 0.0948276
1 0.121538 0.0937931
1 0.116474 0.0927586
1 0.11141 0.0917241
1 0.106346 0.0906897
1 0.101282 0.0896552
1 0.0962179 0.0886207
1 0.0911538 0.0875862
1 0.0860897 0.0865517
1 0.0810256 0.0855172
1 0.0759615 0.0844828
1 0.0708974 0.0834483
1 0.0658333 0.0824138
1 0.0607692 0.0813793
1 0.0557051 0.0803448
1 0.050641 0.0793103
1 0.0455769 0.0782759
1 0.0405128 0.0772414
1 0.0354487 0.0762069
1 0.0303846 0.0751724
1 0.0253205 0.0741379
1 0.0202564 0.0731034
1 0.0151923 0.072069
1 0.0101282 0.0710345
1 0.0050641 0.07
1 5.55112e-17 0.0689655
1 0.117308 0.1
1 0.113397 0.0978161
1 0.109487 0.0956322
1 0.105577 0.0934483
1 0.101667 0.0912644
1 0.0977564 0.0890805
1 0.0938462 0.0868966
1 0.0899359 0.0847126
1 0.0860256 0.0825287
1 0.0821154 0.0803448
1 0.0782051 0.0781609
1 0.0742949 0.075977
1 0.0703846 0.0737931
1 0.0664744 0.0716092
1 0.0625641 0.0694253
1 0.0586538 0.0672414
1 0.0547436 0.0650575
1 0.0508333 0.0628736
1 0.0469231 0.0606897
1 0.0430128 0.0585057
1 0.0391026 0.0563218
1 0.0351923 0.0541379
1 0.0312821 0.051954
1 0.0273718 0.0497701
1 0.0234615 0.0475862
1 0.0195513 0.0454023
1 0.015641 0.0432184
1 0.0117308 0.0410345
1 0.00782051 0.0388506
1 0.00391026 0.0366667
1 5.55112e-17 0.0344828
1 0.1 0.1
1 0.0966667 0.0966667
1 0.0933333 0.0933333
1 0.09 0.09
1 0.0866667 0.0866667
1 0.0833333 0.0833333
1 0.08 0.08
1 0.0766667 0.0766667
1 0.0733333 0.0733333
1 0.07 0.07
1 0.0666667 0.0666667
1 0.0633333 0.0633333
1 0.06 0.06
1 0.0566667 0.0566667
1 0.0533333 0.0533333
1 0.05 0.05
1 0.0466667 0.0466667
1 0.0433333 0.0433333
1 0.04 0.04
1 0.0366667 0.0366667
1 0.0333333 0.0333333
1 0.03 0.03
1 0.0266667 0.0266667
1 0.0233333 0.0233333
1 0.02 0.02
1 0.0166667 0.0166667
1 0.0133333 0.0133333
1 0.01 0.01
1 0.00666667 0.00666667
1 0.00333333 0.00333333
1 5.55112e-17 5.55112e-17
3 0 1 32
3 0 32 31
3 31 32 63
3 31 63 62
3 62 63 94
3 62 94 93
3 93 94 125
3 93 125 124
3 124 125 156
3 124 156 155
3 155 156 187
3 155 187 186
3 186 187 218
3 186 218 217
3 217 218 249
3 217 249 248
3 248 249 280
3 248 280 279
3 279 280 311
3 279 311 310
3 310 311 342
3 310 342 341
3 341 342 373
3 341 373 372
3 372 373 404
3 372 404 403
3 403 404 435
3 403 435 434
3 434 435 466
3 434 466 465
3 465 466 497
3 465 497 496
3 496 497 528
3 496 528 527
3 527 528 559
3 527 559 558
3 558 559 590
3 558 590 589
3 589 590 621
3 589 621 620
3 620 621 652
3 620 652 651
3 651 652 683
3 651 683 682
3 682 683 714
3 682 714 713
3 713 714 745
3 713 745 744
3 744 745 776
3 744 776 775
3 775 776 807
3 775 807 806
3 806 807 838
3 806 838 837
3 837 838 869
3 837 869 868
3 868 869 900
3 868 900 899
3 1 2 33
3 1 33 32
3 32 33 64
3 32 64 63
3 63 64 95
3 63 95 94
3 94 95 126
3 94 126 125
3 125 126 157
3 125 157 156
3 156 157 188
3 156 188 187
3 187 188 219
3 187 219 218
3 218 219 250
3 218 250 249
3 249 250 281
3 249 281 280
3 280 281 312
3 280 312 311
3 311 312 343
3 311 343 342
3 342 343 374
3 342 374 373
3 373 374 405
3 373 405 404
3 404 405 436
3 404 436 435
3 435 436 467
3 435 467 466
3 466 467 498
3 466 498 497
3 497 498 529
3 497 529 528
3 528 529 560
3 528 560 559
3 559 560 591
3 559 591 590
3 590 591 622
3 590 622 621
3 621 622 653
3 621 653 652
3 652 653 684
3 652 684 683
3 683 684 715
3 683 715 714
3 714 715 746
3 714 746 745
3 745 746 777
3 745 777 776
3 776 777 808
3 776 808 807
3 807 808 839
3 807 839 838
3 838 839 870
3 838 870 869
3 869 870 901
3 869 901 900
3 2 3 34
3 2 34 33
3 33 34 65
3 33 65 64
3 64 65 96
3 64 96 95
3 95 96 127
3 95 127 126
3 126 127 158
3 126 158 157
3 157 158 189
3 157 189 188
3 188 189 220
3 188 220 219
3 219 220 251
3 219 251 250
3 250 251 282
3 250 282 281
3 281 282 313
3 281 313 312
3 312 313 344
3 312 344 343
3 343 344 375
3 343 375 374
3 374 375 406
3 374 406 405
3 405 406 437
3 405 437 436
3 436 437 468
3 436 468 467
3 467 468 499
3 467 499 498
3 498 499 530
3 498 530 529
3 529 530 561
3 529 561 560
3 560 561 592
3 560 592 591
3 591 592 623
3 591 623 622
3 622 623 654
3 622 654 653
3 653 654 685
3 653 685 684
3 684 685 716
3 684 716 715
3 715 716 747
3 715 747 746
3 746 747 778
3 746 778 777
3 777 778 809
3 777 809 808
3 808 809 840
3 808 840 839
3 839 840 871
3 839 871 870
3 870 871 902
3 870 902 901
3 3 4 35
3 3 35 34
3 34 35 66
3 34 66 65
3 65 66 97
3 65 97 96
3 96 97 128
3 96 128 127
3 127 128 159
3 127 159 158
3 158 159 190
3 158 190 189
3 189 190 221
3 189 221 220
3 220 221 252
3 220 252 251
3 251 252 283
3 251 283 282
3 282 283 314
3 282 314 313
3 313 314 345
3 313 345 344
3 344 345 376
3 344 376 375
3 375 376 407
3 375 407 406
3 406 407 438
3 406 438 437
3 437 438 469
3 437 469 468
3 468 469 500
3 468 500 499
3 499 500 531
3 499 531 530
3 530 531 562
3 530 562 561
3 561 562 593
3 561 593 592
3 592 593 624
3 592 624 623
3 623 624 655
3 623 655 654
3 654 655 686
3 654 686 685
3 685 686 717
3 685 717 716
3 716 717 748
3 716 748 747
3 747 748 779
3 747 779 778
3 778 779 810
3 778 810 809
3 809 810 841
3 809 841 840
3 840 841 872
3 840 872 871
3 871 872 903
3 871 903 902
3 4 5 36
3 4 36 35
3 35 36 67
3 35 67 66
3 66 67 98
3 66 98 97
3 97 98 129
3 97 129 128
3 128 129 160
3 128 160 159
3 159 160 191
3 159 191 190
3 190 191 222
3 190 222 221
3 221 222 253
3 221 253 252
3 252 253 284
3 252 284 283
3 283 284 315
3 283 315 314
3 314 315 346
3 314 346 345
3 345 346 377
3 345 377 376
3 376 377 408
3 376 408 407
3 407 408 439
3 407 439 438
3 438 439 470
3 438 470 469
3 469 470 501
3 469 501 500
3 500 501 532
3 500 532 531
3 531 532 563
3 531 563 562
3 562 563 594
3 562 594 593
3 593 594 625
3 593 625 624
3 624 625 656
3 624 656 655
3 655 656 687
3 655 687 686
3 686 687 718
3 686 718 717
3 717 718 749
3 717 749 748
3 748 749 780
3 748 780 779
3 779 780 811
3 779 811 810
3 810 811 842
3 810 842 841
3 841 842 873
3 841 873 872
3 872 873 904
3 872 904 903
3 5 6 37
3 5 37 36
3 36 37 68
3 36 68 67
3 67 68 99
3 67 99 98
3 98 99 130
3 98 130 129
3 129 130 161
3 129 161 160
3 160 161 192
3 160 192 191
3 191 192 223
3 191 223 222
3 222 223 254
3 222 254 253
3 253 254 285
3 253 285 284
3 284 285 316
3 284 316 315
3 315 316 347
3 315 347 346
3 346 347 378
3 346 378 377
3 377 378 409
3 377 409 408
3 408 409 440
3 408 440 439
3 439 440 471
3 439 471 470
3 470 471 502
3 470 502 501
3 501 502 533
3 501 533 532
3 532 533 564
3 532 564 563
3 563 564 595
3 563 595 594
3 594 595 626
3 594 626 625
3 625 626 657
3 625 657 656
3 656 657 688
3 656 688 687
3 687 688 719
3 687 719 718
3 718 719 750
3 718 750 749
3 749 750 781
3 749 781 780
3 780 781 812
3 780 812 811
3 811 812 843
3 811 843 842
3 842 843 874
3 842 874 873
3 873 874 905
3 873 905 904
3 6 7 38
3 6 38 37
3 37 38 69
3 37 69 68
3 68 69 100
3 68 100 99
3 99 100 131
3 99 131 130
3 130 131 162
3 130 162 161
3 161 162 193
3 161 193 192
3 192 193 224
3 192 224 223
3 223 224 255
3 223 255 254
3 254 255 286
3 254 286 285
3 285 286 317
3 285 317 316
3 316 317 348
3 316 348 347
3 347 348 379
3 347 379 378
3 378 379 410
3 378 410 409
3 409 410 441
3 409 441 440
3 440 441 472
3 440 472 471
3 471 472 503
3 471 503 502
3 502 503 534
3 502 534 533
3 533 534 565
3 533 565 564
3 564 565 596
3 564 596 595
3 595 596 627
3 595 627 626
3 626 627 658
3 626 658 657
3 657 658 689
3 657 689 688
3 688 689 720
3 688 720 719
3 719 720 751
3 719 751 750
3 750 751 782
3 750 782 781
3 781 782 813
3 781 813 812
3 812 813 844
3 812 844 843
3 843 844 875
3 843 875 874
3 874 875 906
3 874 906 905
3 7 8 39
3 7 39 38
3 38 39 70
3 38 70 69
3 69 70 101
3 69 101 100
3 100 101 132
3 100 132 131
3 131 132 163
3 131 163 162
3 162 163 194
3 162 194 193
3 193 194 225
3 193 225 224
3 224 225 256
3 224 256 255
3 255 256 287
3 255 287 286
3 286 287 318
3 286 318 317
3 317 318 349
3 317 349 348
3 348 349 380
3 348 380 379
3 379 380 411
3 379 411 410
3 410 411 442
3 410 442 441
3 441 442 473
3 441 473 472
3 472 473 504
3 472 504 503
3 503 504 535
3 503 535 534
3 534 535 566
3 534 566 565
3 565 566 597
3 565 597 596
3 596 597 628
3 596 628 627
3 627 628 659
3 627 659 658
3 658 659 690
3 658 690 689
3 689 690 721
3 689 721 720
3 720 721 752
3 720 752 751
3 751 752 783
3 751 783 782
3 782 783 814
3 782 814 813
3 813 814 845
3 813 845 844
3 844 845 876
3 844 876 875
3 875 876 907
3 875 907 906
3 8 9 40
3 8 40 39
3 39 40 71
3 39 71 70
3 70 71 102
3 70 102 101
3 101 102 133
3 101 133 132
3 132 133 164
3 132 164 163
3 163 164 195
3 163 195 194
3 194 195 226
3 194 226 225
3 225 226 257
3 225 257 256
3 256 257 288
3 256 288 287
3 287 288 319
3 287 319 318
3 318 319 350
3 318 350 349
3 349 350 381
3 349 381 380
3 380 381 412
3 380 412 411
3 411 412 443
3 411 443 442
3 442 443 474
3 442 474 473
3 473 474 505
3 473 505 504
3 504 505 536
3 504 536 535
3 535 536 567
3 535 567 566
3 566 567 598
3 566 598 597
3 597 598 629
3 597 629 628
3 628 629 660
3 628 660 659
3 659 660 691
3 659 691 690
3 690 691 722
3 690 722 721
3 721 722 753
3 721 753 752
3 752 753 784
3 752 784 783
3 783 784 815
3 783 815 814
3 814 815 846
3 814 846 845
3 845 846 877
3 845 877 876
3 876 877 908
3 876 908 907
3 9 10 41
3 9 41 40
3 40 41 72
3 40 72 71
3 71 72 103
3 71 103 102
3 102 103 134
3 102 134 133
3 133 134 165
3 133 165 164
3 164 165 196
3 164 196 195
3 195 196 227
3 195 227 226
3 226 227 258
3 226 258 257
3 257 258 289
3 257 289 288
3 288 289 320
3 288 320 319
3 319 320 351
3 319 351 350
3 350 351 382
3 350 382 381
3 381 382 413
3 381 413 412
3 412 413 444
3 412 444 443
3 443 444 475
3 443 475 474
3 474 475 506
3 474 506 505
3 505 506 537
3 505 537 536
3 536 537 568
3 536 568 567
3 567 568 599
3 567 599 598
3 598 599 630
3 598 630 629
3 629 630 661
3 629 661 660
3 660 661 692
3 660 692 691
3 691 692 723
3 691 723 722
3 722 723 754
3 722 754 753
3 753 754 785
3 753 785 784
3 784 785 816
3 784 816 815
3 815 816 847
3 815 847 846
3 846 847 878
3 846 878 877
3 877 878 909
3 877 909 908
3 10 11 42
3 10 42 41
3 41 42 73
3 41 73 72
3 72 73 104
3 72 104 103
3 103 104 135
3 103 135 134
3 134 135 166
3 134 166 165
3 165 166 197
3 165 197 196
3 196 197 228
3 196 228 227
3 227 228 259
3 227 259 258
3 258 259 290
3 258 290 289
3 289 290 321
3 289 321 320
3 320 321 352
3 320 352 351
3 351 352 383
3 351 383 382
3 382 383 414
3 382 414 413
3 413 414 445
3 413 445 444
3 444 445 476
3 444 476 475
3 475 476 507
3 475 507 506
3 506 507 538
3 506 538 537
3 537 538 569
3 537 569 568
3 568 569 600
3 568 600 599
3 599 600 631
3 599 631 630
3 630 631 662
3 630 662 661
3 661 662 693
3 661 693 692
3 692 693 724
3 692 724 723
3 723 724 755
3 723 755 754
3 754 755 786
3 754 786 785
3 785 786 817
3 785 817 816
3 816 817 848
3 816 848 847
3 847 848 879
3 847 879 878
3 878 879 910
3 878 910 909
3 11 12 43
3 11 43 42
3 42 43 74
3 42 74 73
3 73 74 105
3 73 105 104
3 104 105 136
3 104 136 135
3 135 136 167
3 135 167 166
3 166 167 198
3 166 198 197
3 197 198 229
3 197 229 228
3 228 229 260
3 228 260 259
3 259 260 291
3 259 291 290
3 290 291 322
3 290 322 321
3 321 322 353
3 321 353 352
3 352 353 384
3 352 384 383
3 383 384 415
3 383 415 414
3 414 415 446
3 414 446 445
3 445 446 477
3 445 477 476
3 476 477 508
3 476 508 507
3 507 508 539
3 507 539 538
3 538 539 570
3 538 570 569
3 569 570 601
3 569 601 600
3 600 601 632
3 600 632 631
3 631 632 663
3 631 663 662
3 662 663 694
3 662 694 693
3 693 694 725
3 693 725 724
3 724 725 756
3 724 756 755
3 755 756 787
3 755 787 786
3 786 787 818
3 786 818 817
3 817 818 849
3 817 849 848
3 848 849 880
3 848 880 879
3 879 880 911
3 879 911 910
3 12 13 44
3 12 44 43
3 43 44 75
3 43 75 74
3 74 75 106
3 74 106 105
3 105 106 137
3 105 137 136
3 136 137 168
3 136 168 167
3 167 168 199
3 167 199 198
3 198 199 230
3 198 230 229
3 229 230 261
3 229 261 260
3 260 261 292
3 260 292 291
3 291 292 323
3 291 323 322
3 322 323 354
3 322 354 353
3 353 354 385
3 353 385 384
3 384 385 416
3 384 416 415
3 415 416 447
3 415 447 446
3 446 447 478
3 446 478 477
3 477 478 509
3 477 509 508
3 508 509 540
3 508 540 539
3 539 540 571
3 539 571 570
3 570 571 602
3 570 602 601
3 601 602 633
3 601 633 632
3 632 633 664
3 632 664 663
3 663 664 695
3 663 695 694
3 694 695 726
3 694 726 725
3 725 726 757
3 725 757 756
3 756 757 788
3 756 788 787
3 787 788 819
3 787 819 818
3 818 819 850
3 818 850 849
3 849 850 881
3 849 881 880
3 880 881 912
3 880 912 911
3 13 14 45
3 13 45 44
3 44 45 76
3 44 76 75
3 75 76 107
3 75 107 106
3 106 107 138
3 106 138 137
3 137 138 169
3 137 169 168
3 168 169 200
3 168 200 199
3 199 200 231
3 199 231 230
3 230 231 262
3 230 262 261
3 261 262 293
3 261 293 292
3 292 293 324
3 292 324 323
3 323 324 355
3 323 355 354
3 354 355 386
3 354 386 385
3 385 386 417
3 385 417 416
3 416 417 448
3 416 448 447
3 447 448 479
3 447 479 478
3 478 479 510
3 478 510 509
3 509 510 541
3 509 541 540
3 540 541 572
3 540 572 571
3 571 572 603
3 571 603 602
3 602 603 634
3 602 634 633
3 633 634 665
3 633 665 664
3 664 665 696
3 664 696 695
3 695 696 727
3 695 727 726
3 726 727 758
3 726 758 757
3 757 758 789
3 757 789 788
3 788 789 820
3 788 820 819
3 819 820 851
3 819 851 850
3 850 851 882
3 850 882 881
3 881 882 913
3 881 913 912
3 14 15 46
3 14 46 45
3 45 46 77
3 45 77 76
3 76 77 108
3 76 108 107
3 107 108 139
3 107 139 138
3 138 139 170
3 138 170 169
3 169 170 201
3 169 201 200
3 200 201 232
3 200 232 231
3 231 232 263
3 231 263 262
3 262 263 294
3 262 294 293
3 293 294 325
3 293 325 324
3 324 325 356
3 324 356 355
3 355 356 387
3 355 387 386
3 386 387 418
3 386 418 417
3 417 418 449
3 417 449 448
3 448 449 480
3 448 480 479
3 479 480 511
3 479 511 510
3 510 511 542
3 510 542 541
3 541 542 573
3 541 573 572
3 572 573 604
3 572 604 603
3 603 604 635
3 603 635 634
3 634 635 666
3 634 666 665
3 665 666 697
3 665 697 696
3 696 697 728
3 696 728 727
3 727 728 759
3 727 759 758
3 758 759 790
3 758 790 789
3 789 790 821
3 789 821 820
3 820 821 852
3 820 852 851
3 851 852 883
3 851 883 882
3 882 883 914
3 882 914 913
3 15 16 47
3 15 47 46
3 46 47 78
3 46 78 77
3 77 78 109
3 77 109 108
3 108 109 140
3 108 140 139
3 139 140 171
3 139 171 170
3 170 171 202
3 170 202 201
3 201 202 233
3 201 233 232
3 232 233 264
3 232 264 263
3 263 264 295
3 263 295 294
3 294 295 326
3 294 326 325
3 325 326 357
3 325 357 356
3 356 357 388
3 356 388 387
3 387 388 419
3 387 419 418
3 418 419 450
3 418 450 449
3 449 450 481
3 449 481 480
3 480 481 512
3 480 512 511
3 511 512 543
3 511 543 542
3 542 543 574
3 542 574 573
3 573 574 605
3 573 605 604
3 604 605 636
3 604 636 635
3 635 636 667
3 635 667 666
3 666 667 698
3 666 698 697
3 697 698 729
3 697 729 728
3 728 729 760
3 728 760 759
3 759 760 791
3 759 791 790
3 790 791 822
3 790 822 821
3 821 822 853
3 821 853 852
3 852 853 884
3 852 884 883
3 883 884 915
3 883 915 914
3 16 17 48
3 16 48 47
3 47 48 79
3 47 79 78
3 78 79 110
3 78 110 109
3 109 110 141
3 109 141 140
3 140 141 172
3 140 172 171
3 171 172 203
3 171 203 202
3 202 203 234
3 202 234 233
3 233 234 265
3 233 265 264
3 264 265 296
3 264 296 295
3 295 296 327
3 295 327 326
3 326 327 358
3 326 358 357
3 357 358 389
3 357 389 388
3 388 389 420
3 388 420 419
3 419 420 451
3 419 451 450
3 450 451 482
3 450 482 481
3 481 482 513
3 481 513 512
3 512 513 544
3 512 544 543
3 543 544 575
3 543 575 574
3 574 575 606
3 574 606 605
3 605 606 637
3 605 637 636
3 636 637 668
3 636 668 667
3 667 668 699
3 667 699 698
3 698 699 730
3 698 730 729
3 729 730 761
3 729 761 760
3 760 761 792
3 760 792 791
3 791 792 823
3 791 823 822
3 822 823 854
3 822 854 853
3 853 854 885
3 853 885 884
3 884 885 916
3 884 916 915
3 17 18 49
3 17 49 48
3 48 49 80
3 48 80 79
3 79 80 111
3 79 111 110
3 110 111 142
3 110 142 141
3 141 142 173
3 141 173 172
3 172 173 204
3 172 204 203
3 203 204 235
3 203 235 234
3 234 235 266
3 234 266 265
3 265 266 297
3 265 297 296
3 296 297 328
3 296 328 327
3 327 328 359
3 327 359 358
3 358 359 390
3 358 390 389
3 389 390 421
3 389 421 420
3 420 421 452
3 420 452 451
3 451 452 483
3 451 483 482
3 482 483 514
3 482 514 513
3 513 514 545
3 513 545 544
3 544 545 576
3 544 576 575
3 575 576 607
3 575 607 606
3 606 607 638
3 606 638 637
3 637 638 669
3 637 669 668
3 668 669 700
3 668 700 699
3 699 700 731
3 699 731 730
3 730 731 762
3 730 762 761
3 761 762 793
3 761 793 792
3 792 793 824
3 792 824 823
3 823 824 855
3 823 855 854
3 854 855 886
3 854 886 885
3 885 886 917
3 885 917 916
3 18 19 50
3 18 50 49
3 49 50 81
3 49 81 80
3 80 81 112
3 80 112 111
3 111 112 143
3 111 143 142
3 142 143 174
3 142 174 173
3 173 174 205
3 173 205 204
3 204 205 236
3 204 236 235
3 235 236 267
3 235 267 266
3 266 267 298
3 266 298 297
3 297 298 329
3 297 329 328
3 328 329 360
3 328 360 359
3 359 360 391
3 359 391 390
3 390 391 422
3 390 422 421
3 421 422 453
3 421 453 452
3 452 453 484
3 452 484 483
3 483 484 515
3 483 515 514
3 514 515 546
3 514 546 545
3 545 546 577
3 545 577 576
3 576 577 608
3 576 608 607
3 607 608 639
3 607 639 638
3 638 639 670
3 638 670 669
3 669 670 701
3 669 701 700
3 700 701 732
3 700 732 731
3 731 732 763
3 731 763 762
3 762 763 794
3 762 794 793
3 793 794 825
3 793 825 824
3 824 825 856
3 824 856 855
3 855 856 887
3 855 887 886
3 886 887 918
3 886 918 917
3 19 20 51
3 19 51 50
3 50 51 82
3 50 82 81
3 81 82 113
3 81 113 112
3 112 113 144
3 112 144 143
3 143 144 175
3 143 175 174
3 174 175 206
3 174 206 205
3 205 206 237
3 205 237 236
3 236 237 268
3 236 268 267
3 267 268 299
3 267 299 298
3 298 299 330
3 298 330 329
3 329 330 361
3 329 361 360
3 360 361 392
3 360 392 391
3 391 392 423
3 391 423 422
3 422 423 454
3 422 454 453
3 453 454 485
3 453 485 484
3 484 485 516
3 484 516 515
3 515 516 547
3 515 547 546
3 546 547 578
3 546 578 577
3 577 578 609
3 577 609 608
3 608 609 640
3 608 640 639
3 639 640 671
3 639 671 670
3 670 671 702
3 670 702 701
3 701 702 733
3 701 733 732
3 732 733 764
3 732 764 763
3 763 764 795
3 763 795 794
3 794 795 826
3 794 826 825
3 825 826 857
3 825 857 856
3 856 857 888
3 856 888 887
3 887 888 919
3 887 919 918
3 20 21 52
3 20 52 51
3 51 52 83
3 51 83 82
3 82 83 114
3 82 114 113
3 113 114 145
3 113 145 144
3 144 145 176
3 144 176 175
3 175 176 207
3 175 207 206
3 206 207 238
3 206 238 237
3 237 238 269
3 237 269 268
3 268 269 300
3 268 300 299
3 299 300 331
3 299 331 330
3 330 331 362
3 330 362 361
3 361 362 393
3 361 393 392
3 392 393 424
3 392 424 423
3 423 424 455
3 423 455 454
3 454 455 486
3 454 486 485
3 485 486 517
3 485 517 516
3 516 517 548
3 516 548 547
3 547 548 579
3 547 579 578
3 578 579 610
3 578 610 609
3 609 610 641
3 609 641 640
3 640 641 672
3 640 672 671
3 671 672 703
3 671 703 702
3 702 703 734
3 702 734 733
3 733 734 765
3 733 765 764
3 764 765 796
3 764 796 795
3 795 796 827
3 795 827 826
3 826 827 858
3 826 858 857
3 857 858 889
3 857 889 888
3 888 889 920
3 888 920 919
3 21 22 53
3 21 53 52
3 52 53 84
3 52 84 83
3 83 84 115
3 83 115 114
3 114 115 146
3 114 146 145
3 145 146 177
3 145 177 176
3 176 177 208
3 176 208 207
3 207 208 239
3 207 239 238
3 238 239 270
3 238 270 269
3 269 270 301
3 269 301 300
3 300 301 332
3 300 332 331
3 331 332 363
3 331 363 362
3 362 363 394
3 362 394 393
3 393 394 425
3 393 425 424
3 424 425 456
3 424 456 455
3 455 456 487
3 455 487 486
3 486 487 518
3 486 518 517
3 517 518 549
3 517 549 548
3 548 549 580
3 548 580 579
3 579 580 611
3 579 611 610
3 610 611 642
3 610 642 641
3 641 642 673
3 641 673 672
3 672 673 704
3 672 704 703
3 703 704 735
3 703 735 734
3 734 735 766
3 734 766 765
3 765 766 797
3 765 797 796
3 796 797 828
3 796 828 827
3 827 828 859
3 827 859 858
3 858 859 890
3 858 890 889
3 889 890 921
3 889 921 920
3 22 23 54
3 22 54 53
3 53 54 85
3 53 85 84
3 84 85 116
3 84 116 115
3 115 116 147
3 115 147 146
3 146 147 178
3 146 178 177
3 177 178 209
3 177 209 208
3 208 209 240
3 208 240 239
3 239 240 271
3 239 271 270
3 270 271 302
3 270 302 301
3 301 302 333
3 301 333 332
3 332 333 364
3 332 364 363
3 363 364 395
3 363 395 394
3 394 395 426
3 394 426 425
3 425 426 457
3 425 457 456
3 456 457 488
3 456 488 487
3 487 488 519
3 487 519 518
3 518 519 550
3 518 550 549
3 549 550 581
3 549 581 580
3 580 581 612
3 580 612 611
3 611 612 643
3 611 643 642
3 642 643 674
3 642 674 673
3 673 674 705
3 673 705 704
3 704 705 736
3 704 736 735
3 735 736 767
3 735 767 766
3 766 767 798
3 766 798 797
3 797 798 829
3 797 829 828
3 828 829 860
3 828 860 859
3 859 860 891
3 859 891 890
3 890 891 922
3 890 922 921
3 23 24 55
3 23 55 54
3 54 55 86
3 54 86 85
3 85 86 117
3 85 117 116
3 116 117 148
3 116 148 147
3 147 148 179
3 147 179 178
3 178 179 210
3 178 210 209
3 209 210 241
3 209 241 240
3 240 241 272
3 240 272 271
3 271 272 303
3 271 303 302
3 302 303 334
3 302 334 333
3 333 334 365
3 333 365 364
3 364 365 396
3 364 396 395
3 395 396 427
3 395 427 426
3 426 427 458
3 426 458 457
3 457 458 489
3 457 489 488
3 488 489 520
3 488 520 519
3 519 520 551
3 519 551 550
3 550 551 582
3 550 582 581
3 581 582 613
3 581 613 612
3 612 613 644
3 612 644 643
3 643 644 675
3 643 675 674
3 674 675 706
3 674 706 705
3 705 706 737
3 705 737 736
3 736 737 768
3 736 768 767
3 767 768 799
3 767 799 798
3 798 799 830
3 798 830 829
3 829 830 861
3 829 861 860
3 860 861 892
3 860 892 891
3 891 892 923
3 891 923 922
3 24 25 56
3 24 56 55
3 55 56 87
3 55 87 86
3 86 87 118
3 86 118 117
3 117 118 149
3 117 149 148
3 148 149 180
3 148 180 179
3 179 180 211
3 179 211 210
3 210 211 242
3 210 242 241
3 241 242 273
3 241 273 272
3 272 273 304
3 272 304 303
3 303 304 335
3 303 335 334
3 334 335 366
3 334 366 365
3 365 366 397
3 365 397 396
3 396 397 428
3 396 428 427
3 427 428 459
3 427 459 458
3 458 459 490
3 458 490 489
3 489 490 521
3 489 521 520
3 520 521 552
3 520 552 551
3 551 552 583
3 551 583 582
3 582 583 614
3 582 614 613
3 613 614 645
3 613 645 644
3 644 645 676
3 644 676 675
3 675 676 707
3 675 707 706
3 706 707 738
3 706 738 737
3 737 738 769
3 737 769 768
3 768 769 800
3 768 800 799
3 799 800 831
3 799 831 830
3 830 831 862
3 830 862 861
3 861 862 893
3 861 893 892
3 892 893 924
3 892 924 923
3 25 26 57
3 25 57 56
3 56 57 88
3 56 88 87
3 87 88 119
3 87 119 118
3 118 119 150
3 118 150 149
3 149 150 181
3 149 181 180
3 180 181 212
3 180 212 211
3 211 212 243
3 211 243 242
3 242 243 274
3 242 274 273
3 273 274 305
3 273 305 304
3 304 305 336
3 304 336 335
3 335 336 367
3 335 367 366
3 366 367 398
3 366 398 397
3 397 398 429
3 397 429 428
3 428 429 460
3 428 460 459
3 459 460 491
3 459 491 490
3 490 491 522
3 490 522 521
3 521 522 553
3 521 553 552
3 552 553 584
3 552 584 583
3 583 584 615
3 583 615 614
3 614 615 646
3 614 646 645
3 645 646 677
3 645 677 676
3 676 677 708
3 676 708 707
3 707 708 739
3 707 739 738
3 738 739 770
3 738 770 769
3 769 770 801
3 769 801 800
3 800 801 832
3 800 832 831
3 831 832 863
3 831 863 862
3 862 863 894
3 862 894 893
3 893 894 925
3 893 925 924
3 26 27 58
3 26 58 57
3 57 58 89
3 57 89 88
3 88 89 120
3 88 120 119
3 119 120 151
3 119 151 150
3 150 151 182
3 150 182 181
3 181 182 213
3 181 213 212
3 212 213 244
3 212 244 243
3 243 244 275
3 243 275 274
3 274 275 306
3 274 306 305
3 305 306 337
3 305 337 336
3 336 337 368
3 336 368 367
3 367 368 399
3 367 399 398
3 398 399 430
3 398 430 429
3 429 430 461
3 429 461 460
3 460 461 492
3 460 492 491
3 491 492 523
3 491 523 522
3 522 523 554
3 522 554 553
3 553 554 585
3 553 585 584
3 584 585 616
3 584 616 615
3 615 616 647
3 615 647 646
3 646 647 678
3 646 678 677
3 677 678 709
3 677 709 708
3 708 709 740
3 708 740 739
3 739 740 771
3 739 771 770
3 770 771 802
3 770 802 801
3 801 802 833
3 801 833 832
3 832 833 864
3 832 864 863
3 863 864 895
3 863 895 894
3 894 895 926
3 894 926 925
3 27 28 59
3 27 59 58
3 58 59 90
3 58 90 89
3 89 90 121
3 89 121 120
3 120 121 152
3 120 152 151
3 151 152 183
3 151 183 182
3 182 183 214
3 182 214 213
3 213 214 245
3 213 245 244
3 244 245 276
3 244 276 275
3 275 276 307
3 275 307 306
3 306 307 338
3 306 338 337
3 337 338 369
3 337 369 368
3 368 369 400
3 368 400 399
3 399 400 431
3 399 431 430
3 430 431 462
3 430 462 461
3 461 462 493
3 461 493 492
3 492 493 524
3 492 524 523
3 523 524 555
3 523 555 554
3 554 555 586
3 554 586 585
3 585 586 617
3 585 617 616
3 616 617 648
3 616 648 647
3 647 648 679
3 647 679 678
3 678 679 710
3 678 710 709
3 709 710 741
3 709 741 740
3 740 741 772
3 740 772 771
3 771 772 803
3 771 803 802
3 802 803 834
3 802 834 833
3 833 834 865
3 833 865 864
3 864 865 896
3 864 896 895
3 895 896 927
3 895 927 926
3 28 29 60
3 28 60 59
3 59 60 91
3 59 91 90
3 90 91 122
3 90 122 121
3 121 122 153
3 121 153 152
3 152 153 184
3 152 184 183
3 183 184 215
3 183 215 214
3 214 215 246
3 214 246 245
3 245 246 277
3 245 277 276
3 276 277 308
3 276 308 307
3 307 308 339
3 307 339 338
3 338 339 370
3 338 370 369
3 369 370 401
3 369 401 400
3 400 401 432
3 400 432 431
3 431 432 463
3 431 463 462
3 462 463 494
3 462 494 493
3 493 494 525
3 493 525 524
3 524 525 556
3 524 556 555
3 555 556 587
3 555 587 586
3 586 587 618
3 586 618 617
3 617 618 649
3 617 649 648
3 648 649 680
3 648 680 679
3 679 680 711
3 679 711 710
3 710 711 742
3 710 742 741
3 741 742 773
3 741 773 772
3 772 773 804
3 772 804 803
3 803 804 835
3 803 835 834
3 834 835 866
3 834 866 865
3 865 866 897
3 865 897 896
3 896 897 928
3 896 928 927
3 29 30 61
3 29 61 60
3 60 61 92
3 60 92 91
3 91 92 123
3 91 123 122
3 122 123 154
3 122 154 153
3 153 154 185
3 153 185 184
3 184 185 216
3 184 216 215
3 215 216 247
3 215 247 246
3 246 247 278
3 246 278 277
3 277 278 309
3 277 309 308
3 308 309 340
3 308 340 339
3 339 340 371
3 339 371 370
3 370 371 402
3 370 402 401
3 401 402 433
3 401 433 432
3 432 433 464
3 432 464 463
3 463 464 495
3 463 495 494
3 494 495 526
3 494 526 525
3 525 526 557
3 525 557 556
3 556 557 588
3 556 588 587
3 587 588 619
3 587 619 618
3 618 619 650
3 618 650 649
3 649 650 681
3 649 681 680
3 680 681 712
3 680 712 711
3 711 712 743
3 711 743 742
3 742 743 774
3 742 774 773
3 773 774 805
3 773 805 804
3 804 805 836
3 804 836 835
3 835 836 867
3 835 867 866
3 866 867 898
3 866 898 897
3 897 898 929
3 897 929 928
