ply
format ascii 1.0
comment Created by Open3D
element vertex 106
property double x
property double y
property double z
element face 177
property list uchar uint vertex_indices
end_header
1 0.1 1
0.91 0.1 1
0.82 0.1 1
0.73 0.1 1
0.64 0.1 1
0.55 0.1 1
0.46 0.1 1
0.37 0.1 1
0.28 0.1 1
0.19 0.1 1
0.1 0.1 1
1 0.0833333 1
0.91 0.0936538 1
0.82 0.103974 1
0.73 0.114295 1
0.64 0.124615 1
0.55 0.134936 1
0.46 0.145256 1
0.37 0.155577 1
0.28 0.165897 1
0.19 0.176218 1
0.1 0.186538 1
1 0.0666667 1
0.91 0.0890385 1
0.82 0.11141 1
0.73 0.133782 1
0.64 0.156154 1
0.55 0.178526 1
0.46 0.200897 1
0.37 0.223269 1
0.28 0.245641 1
0.19 0.268013 1
0.1 0.290385 1
0.91 0.0994231 1
0.82 0.132179 1
0.73 0.164936 1
0.64 0.197692 1
0.55 0.230449 1
0.46 0.263205 1
0.37 0.295962 1
0.28 0.328718 1
0.19 0.361474 1
0.1 0.394231 1
1 0.05 1
0.91 0.0948077 1
0.82 0.139615 1
0.73 0.184423 1
0.64 0.229231 1
0.55 0.274038 1
0.46 0.318846 1
0.37 0.363654 1
0.28 0.408462 1
0.19 0.453269 1
0.1 0.498077 1
1 0.0333333 1
0.91 0.0884615 1
0.82 0.14359 1
0.73 0.198718 1
0.64 0.253846 1
0.55 0.308974 1
0.46 0.364103 1
0.37 0.419231 1
0.28 0.474359 1
0.19 0.529487 1
0.1 0.584615 1
0.91 0.0988462 1
0.82 0.164359 1
0.73 0.229872 1
0.64 0.295385 1
0.55 0.360897 1
0.46 0.42641 1
0.37 0.491923 1
0.28 0.557436 1
0.19 0.622949 1
0.1 0.688462 1
1 0.0166667 1
0.91 0.0942308 1
0.82 0.171795 1
0.73 0.249359 1
0.64 0.326923 1
0.55 0.404487 1
0.46 0.482051 1
0.37 0.559615 1
0.28 0.637179 1
0.19 0.714744 1
0.1 0.792308 1
1 5.55112e-17 1
0.91 0.0896154 1
0.82 0.179231 1
0.73 0.268846 1
0.64 0.358462 1
0.55 0.448077 1
0.46 0.537692 1
0.37 0.627308 1
0.28 0.716923 1
0.19 0.806538 1
0.1 0.896154 1
0.82 0.2 1
0.73 0.3 1
0.64 0.4 1
0.55 0.5 1
0.46 0.6 1
0.37 0.7 1
0.28 0.8 1
0.19 0.9 1
0.1 1 1
3 0 1 12
3 0 12 11
3 11 12 23
3 11 23 22
3 22 23 33
3 22 33 44
3 22 44 43
3 43 44 55
3 43 55 54
3 54 55 65
3 54 65 76
3 54 76 75
3 75 76 87
3 75 87 86
3 86 87 1
3 1 2 13
3 1 13 12
3 12 13 24
3 12 24 23
3 23 24 34
3 23 34 33
3 33 34 45
3 33 45 44
3 44 45 56
3 44 56 55
3 55 56 66
3 55 66 65
3 65 66 77
3 65 77 76
3 76 77 88
3 76 88 87
3 87 88 97
3 87 97 1
3 2 3 14
3 2 14 13
3 13 14 25
3 13 25 24
3 24 25 35
3 24 35 34
3 34 35 46
3 34 46 45
3 45 46 57
3 45 57 56
3 56 57 67
3 56 67 66
3 66 67 78
3 66 78 77
3 77 78 89
3 77 89 88
3 88 89 98
3 88 98 97
3 3 4 15
3 3 15 14
3 14 15 26
3 14 26 25
3 25 26 36
3 25 36 35
3 35 36 47
3 35 47 46
3 46 47 58
3 46 58 57
3 57 58 68
3 57 68 67
3 67 68 79
3 67 79 78
3 78 79 90
3 78 90 89
3 89 90 99
3 89 99 98
3 4 5 16
3 4 16 15
3 15 16 27
3 15 27 26
3 26 27 37
3 26 37 36
3 36 37 48
3 36 48 47
3 47 48 59
3 47 59 58
3 58 59 69
3 58 69 68
3 68 69 80
3 68 80 79
3 79 80 91
3 79 91 90
3 90 91 100
3 90 100 99
3 5 6 17
3 5 17 16
3 16 17 28
3 16 28 27
3 27 28 38
3 27 38 37
3 37 38 49
3 37 49 48
3 48 49 60
3 48 60 59
3 59 60 70
3 59 70 69
3 69 70 81
3 69 81 80
3 80 81 92
3 80 92 91
3 91 92 101
3 91 101 100
3 6 7 18
3 6 18 17
3 17 18 29
3 17 29 28
3 28 29 39
3 28 39 38
3 38 39 50
3 38 50 49
3 49 50 61
3 49 61 60
3 60 61 71
3 60 71 70
3 70 71 82
3 70 82 81
3 81 82 93
3 81 93 92
3 92 93 102
3 92 102 101
3 7 8 19
3 7 19 18
3 18 19 30
3 18 30 29
3 29 30 40
3 29 40 39
3 39 40 51
3 39 51 50
3 50 51 62
3 50 62 61
3 61 62 72
3 61 72 71
3 71 72 83
3 71 83 82
3 82 83 94
3 82 94 93
3 93 94 103
3 93 103 102
3 8 9 20
3 8 20 19
3 19 20 31
3 19 31 30
3 30 31 41
3 30 41 40
3 40 41 52
3 40 52 51
3 51 52 63
3 51 63 62
3 62 63 73
3 62 73 72
3 72 73 84
3 72 84 83
3 83 84 95
3 83 95 94
3 94 95 104
3 94 104 103
3 9 10 21
3 9 21 20
3 20 21 32
3 20 32 31
3 31 32 42
3 31 42 41
3 41 42 53
3 41 53 52
3 52 53 64
3 52 64 63
3 63 64 74
3 63 74 73
3 73 74 85
3 73 85 84
3 84 85 96
3 84 96 95
3 95 96 105
3 95 105 104
