ply
format ascii 1.0
comment Created by Open3D
element vertex 907
property double x
property double y
property double z
element face 1717
property list uchar uint vertex_indices
end_header
1 1 5.55112e-17
0.97 1 0.00333333
0.94 1 0.00666667
0.91 1 0.01
0.88 1 0.0133333
0.85 1 0.0166667
0.82 1 0.02
0.79 1 0.0233333
0.76 1 0.0266667
0.73 1 0.03
0.7 1 0.0333333
0.67 1 0.0366667
0.64 1 0.04
0.61 1 0.0433333
0.58 1 0.0466667
0.55 1 0.05
0.52 1 0.0533333
0.49 1 0.0566667
0.46 1 0.06
0.43 1 0.0633333
0.4 1 0.0666667
0.37 1 0.07
0.34 1 0.0733333
0.31 1 0.0766667
0.28 1 0.08
0.25 1 0.0833333
0.22 1 0.0866667
0.19 1 0.09
0.16 1 0.0933333
0.13 1 0.0966667
0.1 1 0.1
1 1 0.0166667
0.97 1 0.0205983
0.94 1 0.0245299
0.91 1 0.0284615
0.88 1 0.0323932
0.85 1 0.0363248
0.82 1 0.0402564
0.79 1 0.044188
0.76 1 0.0481197
0.73 1 0.0520513
0.7 1 0.0559829
0.67 1 0.0599145
0.64 1 0.0638462
0.61 1 0.0677778
0.58 1 0.0717094
0.55 1 0.075641
0.52 1 0.0795726
0.49 1 0.0835043
0.46 1 0.0874359
0.43 1 0.0913675
0.4 1 0.0952991
0.37 1 0.0992308
0.34 1 0.103162
0.31 1 0.107094
0.28 1 0.111026
0.25 1 0.114957
0.22 1 0.118889
0.19 1 0.122821
0.16 1 0.126752
0.13 1 0.130684
0.1 1 0.134615
0.97 1 0.0217521
0.94 1 0.0268376
0.91 1 0.0319231
0.88 1 0.0370085
0.85 1 0.042094
0.82 1 0.0471795
0.79 1 0.052265
0.76 1 0.0573504
0.73 1 0.0624359
0.7 1 0.0675214
0.67 1 0.0726068
0.64 1 0.0776923
0.61 1 0.0827778
0.58 1 0.0878632
0.55 1 0.0929487
0.52 1 0.0980342
0.49 1 0.10312
0.46 1 0.108205
0.43 1 0.113291
0.4 1 0.118376
0.37 1 0.123462
0.34 1 0.128547
0.31 1 0.133632
0.28 1 0.138718
0.25 1 0.143803
0.22 1 0.148889
0.19 1 0.153974
0.16 1 0.15906
0.13 1 0.164145
0.1 1 0.169231
0.97 1 0.022906
0.94 1 0.0291453
0.91 1 0.0353846
0.88 1 0.0416239
0.85 1 0.0478632
0.82 1 0.0541026
0.79 1 0.0603419
0.76 1 0.0665812
0.73 1 0.0728205
0.7 1 0.0790598
0.67 1 0.0852991
0.64 1 0.0915385
0.61 1 0.0977778
0.58 1 0.104017
0.55 1 0.110256
0.52 1 0.116496
0.49 1 0.122735
0.46 1 0.128974
0.43 1 0.135214
0.4 1 0.141453
0.37 1 0.147692
0.34 1 0.153932
0.31 1 0.160171
0.28 1 0.16641
0.25 1 0.17265
0.22 1 0.178889
0.19 1 0.185128
0.16 1 0.191368
0.13 1 0.197607
0.1 1 0.203846
0.97 1 0.0240598
0.94 1 0.031453
0.91 1 0.0388462
0.88 1 0.0462393
0.85 1 0.0536325
0.82 1 0.0610256
0.79 1 0.0684188
0.76 1 0.075812
0.73 1 0.0832051
0.7 1 0.0905983
0.67 1 0.0979915
0.64 1 0.105385
0.61 1 0.112778
0.58 1 0.120171
0.55 1 0.127564
0.52 1 0.134957
0.49 1 0.14235
0.46 1 0.149744
0.43 1 0.157137
0.4 1 0.16453
0.37 1 0.171923
0.34 1 0.179316
0.31 1 0.186709
0.28 1 0.194103
0.25 1 0.201496
0.22 1 0.208889
0.19 1 0.216282
0.16 1 0.223675
0.13 1 0.231068
0.1 1 0.238462
1 1 0.0333333
0.97 1 0.0407479
0.94 1 0.0481624
0.91 1 0.0555769
0.88 1 0.0629915
0.85 1 0.070406
0.82 1 0.0778205
0.79 1 0.085235
0.76 1 0.0926496
0.73 1 0.100064
0.7 1 0.107479
0.67 1 0.114893
0.64 1 0.122308
0.61 1 0.129722
0.58 1 0.137137
0.55 1 0.144551
0.52 1 0.151966
0.49 1 0.15938
0.46 1 0.166795
0.43 1 0.174209
0.4 1 0.181624
0.37 1 0.189038
0.34 1 0.196453
0.31 1 0.203868
0.28 1 0.211282
0.25 1 0.218697
0.22 1 0.226111
0.19 1 0.233526
0.16 1 0.24094
0.13 1 0.248355
0.1 1 0.255769
0.97 1 0.0419017
0.94 1 0.0504701
0.91 1 0.0590385
0.88 1 0.0676068
0.85 1 0.0761752
0.82 1 0.0847436
0.79 1 0.093312
0.76 1 0.10188
0.73 1 0.110449
0.7 1 0.119017
0.67 1 0.127585
0.64 1 0.136154
0.61 1 0.144722
0.58 1 0.153291
0.55 1 0.161859
0.52 1 0.170427
0.49 1 0.178996
0.46 1 0.187564
0.43 1 0.196132
0.4 1 0.204701
0.37 1 0.213269
0.34 1 0.221838
0.31 1 0.230406
0.28 1 0.238974
0.25 1 0.247543
0.22 1 0.256111
0.19 1 0.264679
0.16 1 0.273248
0.13 1 0.281816
0.1 1 0.290385
0.97 1 0.0430556
0.94 1 0.0527778
0.91 1 0.0625
0.88 1 0.0722222
0.85 1 0.0819444
0.82 1 0.0916667
0.79 1 0.101389
0.76 1 0.111111
0.73 1 0.120833
0.7 1 0.130556
0.67 1 0.140278
0.64 1 0.15
0.61 1 0.159722
0.58 1 0.169444
0.55 1 0.179167
0.52 1 0.188889
0.49 1 0.198611
0.46 1 0.208333
0.43 1 0.218056
0.4 1 0.227778
0.37 1 0.2375
0.34 1 0.247222
0.31 1 0.256944
0.28 1 0.266667
0.25 1 0.276389
0.22 1 0.286111
0.19 1 0.295833
0.16 1 0.305556
0.13 1 0.315278
0.1 1 0.325
0.97 1 0.0442094
0.94 1 0.0550855
0.91 1 0.0659615
0.88 1 0.0768376
0.85 1 0.0877137
0.82 1 0.0985897
0.79 1 0.109466
0.76 1 0.120342
0.73 1 0.131218
0.7 1 0.142094
0.67 1 0.15297
0.64 1 0.163846
0.61 1 0.174722
0.58 1 0.185598
0.55 1 0.196474
0.52 1 0.20735
0.49 1 0.218226
0.46 1 0.229103
0.43 1 0.239979
0.4 1 0.250855
0.37 1 0.261731
0.34 1 0.272607
0.31 1 0.283483
0.28 1 0.294359
0.25 1 0.305235
0.22 1 0.316111
0.19 1 0.326987
0.16 1 0.337863
0.13 1 0.348739
0.1 1 0.359615
0.97 1 0.0453632
0.94 1 0.0573932
0.91 1 0.0694231
0.88 1 0.081453
0.85 1 0.0934829
0.82 1 0.105513
0.79 1 0.117543
0.76 1 0.129573
0.73 1 0.141603
0.7 1 0.153632
0.67 1 0.165662
0.64 1 0.177692
0.61 1 0.189722
0.58 1 0.201752
0.55 1 0.213782
0.52 1 0.225812
0.49 1 0.237842
0.46 1 0.249872
0.43 1 0.261902
0.4 1 0.273932
0.37 1 0.285962
0.34 1 0.297991
0.31 1 0.310021
0.28 1 0.322051
0.25 1 0.334081
0.22 1 0.346111
0.19 1 0.358141
0.16 1 0.370171
0.13 1 0.382201
0.1 1 0.394231
1 1 0.05
0.97 1 0.0620513
0.94 1 0.0741026
0.91 1 0.0861538
0.88 1 0.0982051
0.85 1 0.110256
0.82 1 0.122308
0.79 1 0.134359
0.76 1 0.14641
0.73 1 0.158462
0.7 1 0.170513
0.67 1 0.182564
0.64 1 0.194615
0.61 1 0.206667
0.58 1 0.218718
0.55 1 0.230769
0.52 1 0.242821
0.49 1 0.254872
0.46 1 0.266923
0.43 1 0.278974
0.4 1 0.291026
0.37 1 0.303077
0.34 1 0.315128
0.31 1 0.327179
0.28 1 0.339231
0.25 1 0.351282
0.22 1 0.363333
0.19 1 0.375385
0.16 1 0.387436
0.13 1 0.399487
0.1 1 0.411538
0.97 1 0.0632051
0.94 1 0.0764103
0.91 1 0.0896154
0.88 1 0.102821
0.85 1 0.116026
0.82 1 0.129231
0.79 1 0.142436
0.76 1 0.155641
0.73 1 0.168846
0.7 1 0.182051
0.67 1 0.195256
0.64 1 0.208462
0.61 1 0.221667
0.58 1 0.234872
0.55 1 0.248077
0.52 1 0.261282
0.49 1 0.274487
0.46 1 0.287692
0.43 1 0.300897
0.4 1 0.314103
0.37 1 0.327308
0.34 1 0.340513
0.31 1 0.353718
0.28 1 0.366923
0.25 1 0.380128
0.22 1 0.393333
0.19 1 0.406538
0.16 1 0.419744
0.13 1 0.432949
0.1 1 0.446154
0.97 1 0.064359
0.94 1 0.0787179
0.91 1 0.0930769
0.88 1 0.107436
0.85 1 0.121795
0.82 1 0.136154
0.79 1 0.150513
0.76 1 0.164872
0.73 1 0.179231
0.7 1 0.19359
0.67 1 0.207949
0.64 1 0.222308
0.61 1 0.236667
0.58 1 0.251026
0.55 1 0.265385
0.52 1 0.279744
0.49 1 0.294103
0.46 1 0.308462
0.43 1 0.322821
0.4 1 0.337179
0.37 1 0.351538
0.34 1 0.365897
0.31 1 0.380256
0.28 1 0.394615
0.25 1 0.408974
0.22 1 0.423333
0.19 1 0.437692
0.16 1 0.452051
0.13 1 0.46641
0.1 1 0.480769
0.97 1 0.0655128
0.94 1 0.0810256
0.91 1 0.0965385
0.88 1 0.112051
0.85 1 0.127564
0.82 1 0.143077
0.79 1 0.15859
0.76 1 0.174103
0.73 1 0.189615
0.7 1 0.205128
0.67 1 0.220641
0.64 1 0.236154
0.61 1 0.251667
0.58 1 0.267179
0.55 1 0.282692
0.52 1 0.298205
0.49 1 0.313718
0.46 1 0.329231
0.43 1 0.344744
0.4 1 0.360256
0.37 1 0.375769
0.34 1 0.391282
0.31 1 0.406795
0.28 1 0.422308
0.25 1 0.437821
0.22 1 0.453333
0.19 1 0.468846
0.16 1 0.484359
0.13 1 0.499872
0.1 1 0.515385
0.97 1 0.0666667
0.94 1 0.0833333
0.91 1 0.1
0.88 1 0.116667
0.85 1 0.133333
0.82 1 0.15
0.79 1 0.166667
0.76 1 0.183333
0.73 1 0.2
0.7 1 0.216667
0.67 1 0.233333
0.64 1 0.25
0.61 1 0.266667
0.58 1 0.283333
0.55 1 0.3
0.52 1 0.316667
0.49 1 0.333333
0.46 1 0.35
0.43 1 0.366667
0.4 1 0.383333
0.37 1 0.4
0.34 1 0.416667
0.31 1 0.433333
0.28 1 0.45
0.25 1 0.466667
0.22 1 0.483333
0.19 1 0.5
0.16 1 0.516667
0.13 1 0.533333
0.1 1 0.55
1 1 0.0666667
0.97 1 0.0833547
0.94 1 0.100043
0.91 1 0.116731
0.88 1 0.133419
0.85 1 0.150107
0.82 1 0.166795
0.79 1 0.183483
0.76 1 0.200171
0.73 1 0.216859
0.7 1 0.233547
0.67 1 0.250235
0.64 1 0.266923
0.61 1 0.283611
0.58 1 0.300299
0.55 1 0.316987
0.52 1 0.333675
0.49 1 0.350363
0.46 1 0.367051
0.43 1 0.383739
0.4 1 0.400427
0.37 1 0.417115
0.34 1 0.433803
0.31 1 0.450491
0.28 1 0.467179
0.25 1 0.483868
0.22 1 0.500556
0.19 1 0.517244
0.16 1 0.533932
0.13 1 0.55062
0.1 1 0.567308
0.97 1 0.0845085
0.94 1 0.10235
0.91 1 0.120192
0.88 1 0.138034
0.85 1 0.155876
0.82 1 0.173718
0.79 1 0.19156
0.76 1 0.209402
0.73 1 0.227244
0.7 1 0.245085
0.67 1 0.262927
0.64 1 0.280769
0.61 1 0.298611
0.58 1 0.316453
0.55 1 0.334295
0.52 1 0.352137
0.49 1 0.369979
0.46 1 0.387821
0.43 1 0.405662
0.4 1 0.423504
0.37 1 0.441346
0.34 1 0.459188
0.31 1 0.47703
0.28 1 0.494872
0.25 1 0.512714
0.22 1 0.530556
0.19 1 0.548397
0.16 1 0.566239
0.13 1 0.584081
0.1 1 0.601923
0.97 1 0.0856624
0.94 1 0.104658
0.91 1 0.123654
0.88 1 0.14265
0.85 1 0.161645
0.82 1 0.180641
0.79 1 0.199637
0.76 1 0.218632
0.73 1 0.237628
0.7 1 0.256624
0.67 1 0.27562
0.64 1 0.294615
0.61 1 0.313611
0.58 1 0.332607
0.55 1 0.351603
0.52 1 0.370598
0.49 1 0.389594
0.46 1 0.40859
0.43 1 0.427585
0.4 1 0.446581
0.37 1 0.465577
0.34 1 0.484573
0.31 1 0.503568
0.28 1 0.522564
0.25 1 0.54156
0.22 1 0.560556
0.19 1 0.579551
0.16 1 0.598547
0.13 1 0.617543
0.1 1 0.636538
0.97 1 0.0868162
0.94 1 0.106966
0.91 1 0.127115
0.88 1 0.147265
0.85 1 0.167415
0.82 1 0.187564
0.79 1 0.207714
0.76 1 0.227863
0.73 1 0.248013
0.7 1 0.268162
0.67 1 0.288312
0.64 1 0.308462
0.61 1 0.328611
0.58 1 0.348761
0.55 1 0.36891
0.52 1 0.38906
0.49 1 0.409209
0.46 1 0.429359
0.43 1 0.449509
0.4 1 0.469658
0.37 1 0.489808
0.34 1 0.509957
0.31 1 0.530107
0.28 1 0.550256
0.25 1 0.570406
0.22 1 0.590556
0.19 1 0.610705
0.16 1 0.630855
0.13 1 0.651004
0.1 1 0.671154
0.97 1 0.0879701
0.94 1 0.109274
0.91 1 0.130577
0.88 1 0.15188
0.85 1 0.173184
0.82 1 0.194487
0.79 1 0.215791
0.76 1 0.237094
0.73 1 0.258397
0.7 1 0.279701
0.67 1 0.301004
0.64 1 0.322308
0.61 1 0.343611
0.58 1 0.364915
0.55 1 0.386218
0.52 1 0.407521
0.49 1 0.428825
0.46 1 0.450128
0.43 1 0.471432
0.4 1 0.492735
0.37 1 0.514038
0.34 1 0.535342
0.31 1 0.556645
0.28 1 0.577949
0.25 1 0.599252
0.22 1 0.620556
0.19 1 0.641859
0.16 1 0.663162
0.13 1 0.684466
0.1 1 0.705769
1 1 0.0833333
0.97 1 0.104658
0.94 1 0.125983
0.91 1 0.147308
0.88 1 0.168632
0.85 1 0.189957
0.82 1 0.211282
0.79 1 0.232607
0.76 1 0.253932
0.73 1 0.275256
0.7 1 0.296581
0.67 1 0.317906
0.64 1 0.339231
0.61 1 0.360556
0.58 1 0.38188
0.55 1 0.403205
0.52 1 0.42453
0.49 1 0.445855
0.46 1 0.467179
0.43 1 0.488504
0.4 1 0.509829
0.37 1 0.531154
0.34 1 0.552479
0.31 1 0.573803
0.28 1 0.595128
0.25 1 0.616453
0.22 1 0.637778
0.19 1 0.659103
0.16 1 0.680427
0.13 1 0.701752
0.1 1 0.723077
0.97 1 0.105812
0.94 1 0.128291
0.91 1 0.150769
0.88 1 0.173248
0.85 1 0.195726
0.82 1 0.218205
0.79 1 0.240684
0.76 1 0.263162
0.73 1 0.285641
0.7 1 0.30812
0.67 1 0.330598
0.64 1 0.353077
0.61 1 0.375556
0.58 1 0.398034
0.55 1 0.420513
0.52 1 0.442991
0.49 1 0.46547
0.46 1 0.487949
0.43 1 0.510427
0.4 1 0.532906
0.37 1 0.555385
0.34 1 0.577863
0.31 1 0.600342
0.28 1 0.622821
0.25 1 0.645299
0.22 1 0.667778
0.19 1 0.690256
0.16 1 0.712735
0.13 1 0.735214
0.1 1 0.757692
0.97 1 0.106966
0.94 1 0.130598
0.91 1 0.154231
0.88 1 0.177863
0.85 1 0.201496
0.82 1 0.225128
0.79 1 0.248761
0.76 1 0.272393
0.73 1 0.296026
0.7 1 0.319658
0.67 1 0.343291
0.64 1 0.366923
0.61 1 0.390556
0.58 1 0.414188
0.55 1 0.437821
0.52 1 0.461453
0.49 1 0.485085
0.46 1 0.508718
0.43 1 0.53235
0.4 1 0.555983
0.37 1 0.579615
0.34 1 0.603248
0.31 1 0.62688
0.28 1 0.650513
0.25 1 0.674145
0.22 1 0.697778
0.19 1 0.72141
0.16 1 0.745043
0.13 1 0.768675
0.1 1 0.792308
0.97 1 0.10812
0.94 1 0.132906
0.91 1 0.157692
0.88 1 0.182479
0.85 1 0.207265
0.82 1 0.232051
0.79 1 0.256838
0.76 1 0.281624
0.73 1 0.30641
0.7 1 0.331197
0.67 1 0.355983
0.64 1 0.380769
0.61 1 0.405556
0.58 1 0.430342
0.55 1 0.455128
0.52 1 0.479915
0.49 1 0.504701
0.46 1 0.529487
0.43 1 0.554274
0.4 1 0.57906
0.37 1 0.603846
0.34 1 0.628632
0.31 1 0.653419
0.28 1 0.678205
0.25 1 0.702991
0.22 1 0.727778
0.19 1 0.752564
0.16 1 0.77735
0.13 1 0.802137
0.1 1 0.826923
0.97 1 0.109274
0.94 1 0.135214
0.91 1 0.161154
0.88 1 0.187094
0.85 1 0.213034
0.82 1 0.238974
0.79 1 0.264915
0.76 1 0.290855
0.73 1 0.316795
0.7 1 0.342735
0.67 1 0.368675
0.64 1 0.394615
0.61 1 0.420556
0.58 1 0.446496
0.55 1 0.472436
0.52 1 0.498376
0.49 1 0.524316
0.46 1 0.550256
0.43 1 0.576197
0.4 1 0.602137
0.37 1 0.628077
0.34 1 0.654017
0.31 1 0.679957
0.28 1 0.705897
0.25 1 0.731838
0.22 1 0.757778
0.19 1 0.783718
0.16 1 0.809658
0.13 1 0.835598
0.1 1 0.861538
1 1 0.1
0.97 1 0.125962
0.94 1 0.151923
0.91 1 0.177885
0.88 1 0.203846
0.85 1 0.229808
0.82 1 0.255769
0.79 1 0.281731
0.76 1 0.307692
0.73 1 0.333654
0.7 1 0.359615
0.67 1 0.385577
0.64 1 0.411538
0.61 1 0.4375
0.58 1 0.463462
0.55 1 0.489423
0.52 1 0.515385
0.49 1 0.541346
0.46 1 0.567308
0.43 1 0.593269
0.4 1 0.619231
0.37 1 0.645192
0.34 1 0.671154
0.31 1 0.697115
0.28 1 0.723077
0.25 1 0.749038
0.22 1 0.775
0.19 1 0.800962
0.16 1 0.826923
0.13 1 0.852885
0.1 1 0.878846
0.97 1 0.127115
0.94 1 0.154231
0.91 1 0.181346
0.88 1 0.208462
0.85 1 0.235577
0.82 1 0.262692
0.79 1 0.289808
0.76 1 0.316923
0.73 1 0.344038
0.7 1 0.371154
0.67 1 0.398269
0.64 1 0.425385
0.61 1 0.4525
0.58 1 0.479615
0.55 1 0.506731
0.52 1 0.533846
0.49 1 0.560962
0.46 1 0.588077
0.43 1 0.615192
0.4 1 0.642308
0.37 1 0.669423
0.34 1 0.696538
0.31 1 0.723654
0.28 1 0.750769
0.25 1 0.777885
0.22 1 0.805
0.19 1 0.832115
0.16 1 0.859231
0.13 1 0.886346
0.1 1 0.913462
0.97 1 0.128269
0.94 1 0.156538
0.91 1 0.184808
0.88 1 0.213077
0.85 1 0.241346
0.82 1 0.269615
0.79 1 0.297885
0.76 1 0.326154
0.73 1 0.354423
0.7 1 0.382692
0.67 1 0.410962
0.64 1 0.439231
0.61 1 0.4675
0.58 1 0.495769
0.55 1 0.524038
0.52 1 0.552308
0.49 1 0.580577
0.46 1 0.608846
0.43 1 0.637115
0.4 1 0.665385
0.37 1 0.693654
0.34 1 0.721923
0.31 1 0.750192
0.28 1 0.778462
0.25 1 0.806731
0.22 1 0.835
0.19 1 0.863269
0.16 1 0.891538
0.13 1 0.919808
0.1 1 0.948077
0.97 1 0.129423
0.94 1 0.158846
0.91 1 0.188269
0.88 1 0.217692
0.85 1 0.247115
0.82 1 0.276538
0.79 1 0.305962
0.76 1 0.335385
0.73 1 0.364808
0.7 1 0.394231
0.67 1 0.423654
0.64 1 0.453077
0.61 1 0.4825
0.58 1 0.511923
0.55 1 0.541346
0.52 1 0.570769
0.49 1 0.600192
0.46 1 0.629615
0.43 1 0.659038
0.4 1 0.688462
0.37 1 0.717885
0.34 1 0.747308
0.31 1 0.776731
0.28 1 0.806154
0.25 1 0.835577
0.22 1 0.865
0.19 1 0.894423
0.16 1 0.923846
0.13 1 0.953269
0.1 1 0.982692
0.97 1 0.13
0.94 1 0.16
0.91 1 0.19
0.88 1 0.22
0.85 1 0.25
0.82 1 0.28
0.79 1 0.31
0.76 1 0.34
0.73 1 0.37
0.7 1 0.4
0.67 1 0.43
0.64 1 0.46
0.61 1 0.49
0.58 1 0.52
0.55 1 0.55
0.52 1 0.58
0.49 1 0.61
0.46 1 0.64
0.43 1 0.67
0.4 1 0.7
0.37 1 0.73
0.34 1 0.76
0.31 1 0.79
0.28 1 0.82
0.25 1 0.85
0.22 1 0.88
0.19 1 0.91
0.16 1 0.94
0.13 1 0.97
0.1 1 1
3 0 1 32
3 0 32 31
3 31 32 62
3 31 62 92
3 31 92 122
3 31 122 153
3 31 153 152
3 152 153 183
3 152 183 213
3 152 213 243
3 152 243 273
3 152 273 304
3 152 304 303
3 303 304 334
3 303 334 364
3 303 364 394
3 303 394 424
3 303 424 455
3 303 455 454
3 454 455 485
3 454 485 515
3 454 515 545
3 454 545 575
3 454 575 606
3 454 606 605
3 605 606 636
3 605 636 666
3 605 666 696
3 605 696 726
3 605 726 757
3 605 757 756
3 756 757 787
3 756 787 817
3 756 817 847
3 756 847 877
3 1 2 33
3 1 33 32
3 32 33 63
3 32 63 62
3 62 63 93
3 62 93 92
3 92 93 123
3 92 123 122
3 122 123 154
3 122 154 153
3 153 154 184
3 153 184 183
3 183 184 214
3 183 214 213
3 213 214 244
3 213 244 243
3 243 244 274
3 243 274 273
3 273 274 305
3 273 305 304
3 304 305 335
3 304 335 334
3 334 335 365
3 334 365 364
3 364 365 395
3 364 395 394
3 394 395 425
3 394 425 424
3 424 425 456
3 424 456 455
3 455 456 486
3 455 486 485
3 485 486 516
3 485 516 515
3 515 516 546
3 515 546 545
3 545 546 576
3 545 576 575
3 575 576 607
3 575 607 606
3 606 607 637
3 606 637 636
3 636 637 667
3 636 667 666
3 666 667 697
3 666 697 696
3 696 697 727
3 696 727 726
3 726 727 758
3 726 758 757
3 757 758 788
3 757 788 787
3 787 788 818
3 787 818 817
3 817 818 848
3 817 848 847
3 847 848 878
3 847 878 877
3 2 3 34
3 2 34 33
3 33 34 64
3 33 64 63
3 63 64 94
3 63 94 93
3 93 94 124
3 93 124 123
3 123 124 155
3 123 155 154
3 154 155 185
3 154 185 184
3 184 185 215
3 184 215 214
3 214 215 245
3 214 245 244
3 244 245 275
3 244 275 274
3 274 275 306
3 274 306 305
3 305 306 336
3 305 336 335
3 335 336 366
3 335 366 365
3 365 366 396
3 365 396 395
3 395 396 426
3 395 426 425
3 425 426 457
3 425 457 456
3 456 457 487
3 456 487 486
3 486 487 517
3 486 517 516
3 516 517 547
3 516 547 546
3 546 547 577
3 546 577 576
3 576 577 608
3 576 608 607
3 607 608 638
3 607 638 637
3 637 638 668
3 637 668 667
3 667 668 698
3 667 698 697
3 697 698 728
3 697 728 727
3 727 728 759
3 727 759 758
3 758 759 789
3 758 789 788
3 788 789 819
3 788 819 818
3 818 819 849
3 818 849 848
3 848 849 879
3 848 879 878
3 3 4 35
3 3 35 34
3 34 35 65
3 34 65 64
3 64 65 95
3 64 95 94
3 94 95 125
3 94 125 124
3 124 125 156
3 124 156 155
3 155 156 186
3 155 186 185
3 185 186 216
3 185 216 215
3 215 216 246
3 215 246 245
3 245 246 276
3 245 276 275
3 275 276 307
3 275 307 306
3 306 307 337
3 306 337 336
3 336 337 367
3 336 367 366
3 366 367 397
3 366 397 396
3 396 397 427
3 396 427 426
3 426 427 458
3 426 458 457
3 457 458 488
3 457 488 487
3 487 488 518
3 487 518 517
3 517 518 548
3 517 548 547
3 547 548 578
3 547 578 577
3 577 578 609
3 577 609 608
3 608 609 639
3 608 639 638
3 638 639 669
3 638 669 668
3 668 669 699
3 668 699 698
3 698 699 729
3 698 729 728
3 728 729 760
3 728 760 759
3 759 760 790
3 759 790 789
3 789 790 820
3 789 820 819
3 819 820 850
3 819 850 849
3 849 850 880
3 849 880 879
3 4 5 36
3 4 36 35
3 35 36 66
3 35 66 65
3 65 66 96
3 65 96 95
3 95 96 126
3 95 126 125
3 125 126 157
3 125 157 156
3 156 157 187
3 156 187 186
3 186 187 217
3 186 217 216
3 216 217 247
3 216 247 246
3 246 247 277
3 246 277 276
3 276 277 308
3 276 308 307
3 307 308 338
3 307 338 337
3 337 338 368
3 337 368 367
3 367 368 398
3 367 398 397
3 397 398 428
3 397 428 427
3 427 428 459
3 427 459 458
3 458 459 489
3 458 489 488
3 488 489 519
3 488 519 518
3 518 519 549
3 518 549 548
3 548 549 579
3 548 579 578
3 578 579 610
3 578 610 609
3 609 610 640
3 609 640 639
3 639 640 670
3 639 670 669
3 669 670 700
3 669 700 699
3 699 700 730
3 699 730 729
3 729 730 761
3 729 761 760
3 760 761 791
3 760 791 790
3 790 791 821
3 790 821 820
3 820 821 851
3 820 851 850
3 850 851 881
3 850 881 880
3 5 6 37
3 5 37 36
3 36 37 67
3 36 67 66
3 66 67 97
3 66 97 96
3 96 97 127
3 96 127 126
3 126 127 158
3 126 158 157
3 157 158 188
3 157 188 187
3 187 188 218
3 187 218 217
3 217 218 248
3 217 248 247
3 247 248 278
3 247 278 277
3 277 278 309
3 277 309 308
3 308 309 339
3 308 339 338
3 338 339 369
3 338 369 368
3 368 369 399
3 368 399 398
3 398 399 429
3 398 429 428
3 428 429 460
3 428 460 459
3 459 460 490
3 459 490 489
3 489 490 520
3 489 520 519
3 519 520 550
3 519 550 549
3 549 550 580
3 549 580 579
3 579 580 611
3 579 611 610
3 610 611 641
3 610 641 640
3 640 641 671
3 640 671 670
3 670 671 701
3 670 701 700
3 700 701 731
3 700 731 730
3 730 731 762
3 730 762 761
3 761 762 792
3 761 792 791
3 791 792 822
3 791 822 821
3 821 822 852
3 821 852 851
3 851 852 882
3 851 882 881
3 6 7 38
3 6 38 37
3 37 38 68
3 37 68 67
3 67 68 98
3 67 98 97
3 97 98 128
3 97 128 127
3 127 128 159
3 127 159 158
3 158 159 189
3 158 189 188
3 188 189 219
3 188 219 218
3 218 219 249
3 218 249 248
3 248 249 279
3 248 279 278
3 278 279 310
3 278 310 309
3 309 310 340
3 309 340 339
3 339 340 370
3 339 370 369
3 369 370 400
3 369 400 399
3 399 400 430
3 399 430 429
3 429 430 461
3 429 461 460
3 460 461 491
3 460 491 490
3 490 491 521
3 490 521 520
3 520 521 551
3 520 551 550
3 550 551 581
3 550 581 580
3 580 581 612
3 580 612 611
3 611 612 642
3 611 642 641
3 641 642 672
3 641 672 671
3 671 672 702
3 671 702 701
3 701 702 732
3 701 732 731
3 731 732 763
3 731 763 762
3 762 763 793
3 762 793 792
3 792 793 823
3 792 823 822
3 822 823 853
3 822 853 852
3 852 853 883
3 852 883 882
3 7 8 39
3 7 39 38
3 38 39 69
3 38 69 68
3 68 69 99
3 68 99 98
3 98 99 129
3 98 129 128
3 128 129 160
3 128 160 159
3 159 160 190
3 159 190 189
3 189 190 220
3 189 220 219
3 219 220 250
3 219 250 249
3 249 250 280
3 249 280 279
3 279 280 311
3 279 311 310
3 310 311 341
3 310 341 340
3 340 341 371
3 340 371 370
3 370 371 401
3 370 401 400
3 400 401 431
3 400 431 430
3 430 431 462
3 430 462 461
3 461 462 492
3 461 492 491
3 491 492 522
3 491 522 521
3 521 522 552
3 521 552 551
3 551 552 582
3 551 582 581
3 581 582 613
3 581 613 612
3 612 613 643
3 612 643 642
3 642 643 673
3 642 673 672
3 672 673 703
3 672 703 702
3 702 703 733
3 702 733 732
3 732 733 764
3 732 764 763
3 763 764 794
3 763 794 793
3 793 794 824
3 793 824 823
3 823 824 854
3 823 854 853
3 853 854 884
3 853 884 883
3 8 9 40
3 8 40 39
3 39 40 70
3 39 70 69
3 69 70 100
3 69 100 99
3 99 100 130
3 99 130 129
3 129 130 161
3 129 161 160
3 160 161 191
3 160 191 190
3 190 191 221
3 190 221 220
3 220 221 251
3 220 251 250
3 250 251 281
3 250 281 280
3 280 281 312
3 280 312 311
3 311 312 342
3 311 342 341
3 341 342 372
3 341 372 371
3 371 372 402
3 371 402 401
3 401 402 432
3 401 432 431
3 431 432 463
3 431 463 462
3 462 463 493
3 462 493 492
3 492 493 523
3 492 523 522
3 522 523 553
3 522 553 552
3 552 553 583
3 552 583 582
3 582 583 614
3 582 614 613
3 613 614 644
3 613 644 643
3 643 644 674
3 643 674 673
3 673 674 704
3 673 704 703
3 703 704 734
3 703 734 733
3 733 734 765
3 733 765 764
3 764 765 795
3 764 795 794
3 794 795 825
3 794 825 824
3 824 825 855
3 824 855 854
3 854 855 885
3 854 885 884
3 9 10 41
3 9 41 40
3 40 41 71
3 40 71 70
3 70 71 101
3 70 101 100
3 100 101 131
3 100 131 130
3 130 131 162
3 130 162 161
3 161 162 192
3 161 192 191
3 191 192 222
3 191 222 221
3 221 222 252
3 221 252 251
3 251 252 282
3 251 282 281
3 281 282 313
3 281 313 312
3 312 313 343
3 312 343 342
3 342 343 373
3 342 373 372
3 372 373 403
3 372 403 402
3 402 403 433
3 402 433 432
3 432 433 464
3 432 464 463
3 463 464 494
3 463 494 493
3 493 494 524
3 493 524 523
3 523 524 554
3 523 554 553
3 553 554 584
3 553 584 583
3 583 584 615
3 583 615 614
3 614 615 645
3 614 645 644
3 644 645 675
3 644 675 674
3 674 675 705
3 674 705 704
3 704 705 735
3 704 735 734
3 734 735 766
3 734 766 765
3 765 766 796
3 765 796 795
3 795 796 826
3 795 826 825
3 825 826 856
3 825 856 855
3 855 856 886
3 855 886 885
3 10 11 42
3 10 42 41
3 41 42 72
3 41 72 71
3 71 72 102
3 71 102 101
3 101 102 132
3 101 132 131
3 131 132 163
3 131 163 162
3 162 163 193
3 162 193 192
3 192 193 223
3 192 223 222
3 222 223 253
3 222 253 252
3 252 253 283
3 252 283 282
3 282 283 314
3 282 314 313
3 313 314 344
3 313 344 343
3 343 344 374
3 343 374 373
3 373 374 404
3 373 404 403
3 403 404 434
3 403 434 433
3 433 434 465
3 433 465 464
3 464 465 495
3 464 495 494
3 494 495 525
3 494 525 524
3 524 525 555
3 524 555 554
3 554 555 585
3 554 585 584
3 584 585 616
3 584 616 615
3 615 616 646
3 615 646 645
3 645 646 676
3 645 676 675
3 675 676 706
3 675 706 705
3 705 706 736
3 705 736 735
3 735 736 767
3 735 767 766
3 766 767 797
3 766 797 796
3 796 797 827
3 796 827 826
3 826 827 857
3 826 857 856
3 856 857 887
3 856 887 886
3 11 12 43
3 11 43 42
3 42 43 73
3 42 73 72
3 72 73 103
3 72 103 102
3 102 103 133
3 102 133 132
3 132 133 164
3 132 164 163
3 163 164 194
3 163 194 193
3 193 194 224
3 193 224 223
3 223 224 254
3 223 254 253
3 253 254 284
3 253 284 283
3 283 284 315
3 283 315 314
3 314 315 345
3 314 345 344
3 344 345 375
3 344 375 374
3 374 375 405
3 374 405 404
3 404 405 435
3 404 435 434
3 434 435 466
3 434 466 465
3 465 466 496
3 465 496 495
3 495 496 526
3 495 526 525
3 525 526 556
3 525 556 555
3 555 556 586
3 555 586 585
3 585 586 617
3 585 617 616
3 616 617 647
3 616 647 646
3 646 647 677
3 646 677 676
3 676 677 707
3 676 707 706
3 706 707 737
3 706 737 736
3 736 737 768
3 736 768 767
3 767 768 798
3 767 798 797
3 797 798 828
3 797 828 827
3 827 828 858
3 827 858 857
3 857 858 888
3 857 888 887
3 12 13 44
3 12 44 43
3 43 44 74
3 43 74 73
3 73 74 104
3 73 104 103
3 103 104 134
3 103 134 133
3 133 134 165
3 133 165 164
3 164 165 195
3 164 195 194
3 194 195 225
3 194 225 224
3 224 225 255
3 224 255 254
3 254 255 285
3 254 285 284
3 284 285 316
3 284 316 315
3 315 316 346
3 315 346 345
3 345 346 376
3 345 376 375
3 375 376 406
3 375 406 405
3 405 406 436
3 405 436 435
3 435 436 467
3 435 467 466
3 466 467 497
3 466 497 496
3 496 497 527
3 496 527 526
3 526 527 557
3 526 557 556
3 556 557 587
3 556 587 586
3 586 587 618
3 586 618 617
3 617 618 648
3 617 648 647
3 647 648 678
3 647 678 677
3 677 678 708
3 677 708 707
3 707 708 738
3 707 738 737
3 737 738 769
3 737 769 768
3 768 769 799
3 768 799 798
3 798 799 829
3 798 829 828
3 828 829 859
3 828 859 858
3 858 859 889
3 858 889 888
3 13 14 45
3 13 45 44
3 44 45 75
3 44 75 74
3 74 75 105
3 74 105 104
3 104 105 135
3 104 135 134
3 134 135 166
3 134 166 165
3 165 166 196
3 165 196 195
3 195 196 226
3 195 226 225
3 225 226 256
3 225 256 255
3 255 256 286
3 255 286 285
3 285 286 317
3 285 317 316
3 316 317 347
3 316 347 346
3 346 347 377
3 346 377 376
3 376 377 407
3 376 407 406
3 406 407 437
3 406 437 436
3 436 437 468
3 436 468 467
3 467 468 498
3 467 498 497
3 497 498 528
3 497 528 527
3 527 528 558
3 527 558 557
3 557 558 588
3 557 588 587
3 587 588 619
3 587 619 618
3 618 619 649
3 618 649 648
3 648 649 679
3 648 679 678
3 678 679 709
3 678 709 708
3 708 709 739
3 708 739 738
3 738 739 770
3 738 770 769
3 769 770 800
3 769 800 799
3 799 800 830
3 799 830 829
3 829 830 860
3 829 860 859
3 859 860 890
3 859 890 889
3 14 15 46
3 14 46 45
3 45 46 76
3 45 76 75
3 75 76 106
3 75 106 105
3 105 106 136
3 105 136 135
3 135 136 167
3 135 167 166
3 166 167 197
3 166 197 196
3 196 197 227
3 196 227 226
3 226 227 257
3 226 257 256
3 256 257 287
3 256 287 286
3 286 287 318
3 286 318 317
3 317 318 348
3 317 348 347
3 347 348 378
3 347 378 377
3 377 378 408
3 377 408 407
3 407 408 438
3 407 438 437
3 437 438 469
3 437 469 468
3 468 469 499
3 468 499 498
3 498 499 529
3 498 529 528
3 528 529 559
3 528 559 558
3 558 559 589
3 558 589 588
3 588 589 620
3 588 620 619
3 619 620 650
3 619 650 649
3 649 650 680
3 649 680 679
3 679 680 710
3 679 710 709
3 709 710 740
3 709 740 739
3 739 740 771
3 739 771 770
3 770 771 801
3 770 801 800
3 800 801 831
3 800 831 830
3 830 831 861
3 830 861 860
3 860 861 891
3 860 891 890
3 15 16 47
3 15 47 46
3 46 47 77
3 46 77 76
3 76 77 107
3 76 107 106
3 106 107 137
3 106 137 136
3 136 137 168
3 136 168 167
3 167 168 198
3 167 198 197
3 197 198 228
3 197 228 227
3 227 228 258
3 227 258 257
3 257 258 288
3 257 288 287
3 287 288 319
3 287 319 318
3 318 319 349
3 318 349 348
3 348 349 379
3 348 379 378
3 378 379 409
3 378 409 408
3 408 409 439
3 408 439 438
3 438 439 470
3 438 470 469
3 469 470 500
3 469 500 499
3 499 500 530
3 499 530 529
3 529 530 560
3 529 560 559
3 559 560 590
3 559 590 589
3 589 590 621
3 589 621 620
3 620 621 651
3 620 651 650
3 650 651 681
3 650 681 680
3 680 681 711
3 680 711 710
3 710 711 741
3 710 741 740
3 740 741 772
3 740 772 771
3 771 772 802
3 771 802 801
3 801 802 832
3 801 832 831
3 831 832 862
3 831 862 861
3 861 862 892
3 861 892 891
3 16 17 48
3 16 48 47
3 47 48 78
3 47 78 77
3 77 78 108
3 77 108 107
3 107 108 138
3 107 138 137
3 137 138 169
3 137 169 168
3 168 169 199
3 168 199 198
3 198 199 229
3 198 229 228
3 228 229 259
3 228 259 258
3 258 259 289
3 258 289 288
3 288 289 320
3 288 320 319
3 319 320 350
3 319 350 349
3 349 350 380
3 349 380 379
3 379 380 410
3 379 410 409
3 409 410 440
3 409 440 439
3 439 440 471
3 439 471 470
3 470 471 501
3 470 501 500
3 500 501 531
3 500 531 530
3 530 531 561
3 530 561 560
3 560 561 591
3 560 591 590
3 590 591 622
3 590 622 621
3 621 622 652
3 621 652 651
3 651 652 682
3 651 682 681
3 681 682 712
3 681 712 711
3 711 712 742
3 711 742 741
3 741 742 773
3 741 773 772
3 772 773 803
3 772 803 802
3 802 803 833
3 802 833 832
3 832 833 863
3 832 863 862
3 862 863 893
3 862 893 892
3 17 18 49
3 17 49 48
3 48 49 79
3 48 79 78
3 78 79 109
3 78 109 108
3 108 109 139
3 108 139 138
3 138 139 170
3 138 170 169
3 169 170 200
3 169 200 199
3 199 200 230
3 199 230 229
3 229 230 260
3 229 260 259
3 259 260 290
3 259 290 289
3 289 290 321
3 289 321 320
3 320 321 351
3 320 351 350
3 350 351 381
3 350 381 380
3 380 381 411
3 380 411 410
3 410 411 441
3 410 441 440
3 440 441 472
3 440 472 471
3 471 472 502
3 471 502 501
3 501 502 532
3 501 532 531
3 531 532 562
3 531 562 561
3 561 562 592
3 561 592 591
3 591 592 623
3 591 623 622
3 622 623 653
3 622 653 652
3 652 653 683
3 652 683 682
3 682 683 713
3 682 713 712
3 712 713 743
3 712 743 742
3 742 743 774
3 742 774 773
3 773 774 804
3 773 804 803
3 803 804 834
3 803 834 833
3 833 834 864
3 833 864 863
3 863 864 894
3 863 894 893
3 18 19 50
3 18 50 49
3 49 50 80
3 49 80 79
3 79 80 110
3 79 110 109
3 109 110 140
3 109 140 139
3 139 140 171
3 139 171 170
3 170 171 201
3 170 201 200
3 200 201 231
3 200 231 230
3 230 231 261
3 230 261 260
3 260 261 291
3 260 291 290
3 290 291 322
3 290 322 321
3 321 322 352
3 321 352 351
3 351 352 382
3 351 382 381
3 381 382 412
3 381 412 411
3 411 412 442
3 411 442 441
3 441 442 473
3 441 473 472
3 472 473 503
3 472 503 502
3 502 503 533
3 502 533 532
3 532 533 563
3 532 563 562
3 562 563 593
3 562 593 592
3 592 593 624
3 592 624 623
3 623 624 654
3 623 654 653
3 653 654 684
3 653 684 683
3 683 684 714
3 683 714 713
3 713 714 744
3 713 744 743
3 743 744 775
3 743 775 774
3 774 775 805
3 774 805 804
3 804 805 835
3 804 835 834
3 834 835 865
3 834 865 864
3 864 865 895
3 864 895 894
3 19 20 51
3 19 51 50
3 50 51 81
3 50 81 80
3 80 81 111
3 80 111 110
3 110 111 141
3 110 141 140
3 140 141 172
3 140 172 171
3 171 172 202
3 171 202 201
3 201 202 232
3 201 232 231
3 231 232 262
3 231 262 261
3 261 262 292
3 261 292 291
3 291 292 323
3 291 323 322
3 322 323 353
3 322 353 352
3 352 353 383
3 352 383 382
3 382 383 413
3 382 413 412
3 412 413 443
3 412 443 442
3 442 443 474
3 442 474 473
3 473 474 504
3 473 504 503
3 503 504 534
3 503 534 533
3 533 534 564
3 533 564 563
3 563 564 594
3 563 594 593
3 593 594 625
3 593 625 624
3 624 625 655
3 624 655 654
3 654 655 685
3 654 685 684
3 684 685 715
3 684 715 714
3 714 715 745
3 714 745 744
3 744 745 776
3 744 776 775
3 775 776 806
3 775 806 805
3 805 806 836
3 805 836 835
3 835 836 866
3 835 866 865
3 865 866 896
3 865 896 895
3 20 21 52
3 20 52 51
3 51 52 82
3 51 82 81
3 81 82 112
3 81 112 111
3 111 112 142
3 111 142 141
3 141 142 173
3 141 173 172
3 172 173 203
3 172 203 202
3 202 203 233
3 202 233 232
3 232 233 263
3 232 263 262
3 262 263 293
3 262 293 292
3 292 293 324
3 292 324 323
3 323 324 354
3 323 354 353
3 353 354 384
3 353 384 383
3 383 384 414
3 383 414 413
3 413 414 444
3 413 444 443
3 443 444 475
3 443 475 474
3 474 475 505
3 474 505 504
3 504 505 535
3 504 535 534
3 534 535 565
3 534 565 564
3 564 565 595
3 564 595 594
3 594 595 626
3 594 626 625
3 625 626 656
3 625 656 655
3 655 656 686
3 655 686 685
3 685 686 716
3 685 716 715
3 715 716 746
3 715 746 745
3 745 746 777
3 745 777 776
3 776 777 807
3 776 807 806
3 806 807 837
3 806 837 836
3 836 837 867
3 836 867 866
3 866 867 897
3 866 897 896
3 21 22 53
3 21 53 52
3 52 53 83
3 52 83 82
3 82 83 113
3 82 113 112
3 112 113 143
3 112 143 142
3 142 143 174
3 142 174 173
3 173 174 204
3 173 204 203
3 203 204 234
3 203 234 233
3 233 234 264
3 233 264 263
3 263 264 294
3 263 294 293
3 293 294 325
3 293 325 324
3 324 325 355
3 324 355 354
3 354 355 385
3 354 385 384
3 384 385 415
3 384 415 414
3 414 415 445
3 414 445 444
3 444 445 476
3 444 476 475
3 475 476 506
3 475 506 505
3 505 506 536
3 505 536 535
3 535 536 566
3 535 566 565
3 565 566 596
3 565 596 595
3 595 596 627
3 595 627 626
3 626 627 657
3 626 657 656
3 656 657 687
3 656 687 686
3 686 687 717
3 686 717 716
3 716 717 747
3 716 747 746
3 746 747 778
3 746 778 777
3 777 778 808
3 777 808 807
3 807 808 838
3 807 838 837
3 837 838 868
3 837 868 867
3 867 868 898
3 867 898 897
3 22 23 54
3 22 54 53
3 53 54 84
3 53 84 83
3 83 84 114
3 83 114 113
3 113 114 144
3 113 144 143
3 143 144 175
3 143 175 174
3 174 175 205
3 174 205 204
3 204 205 235
3 204 235 234
3 234 235 265
3 234 265 264
3 264 265 295
3 264 295 294
3 294 295 326
3 294 326 325
3 325 326 356
3 325 356 355
3 355 356 386
3 355 386 385
3 385 386 416
3 385 416 415
3 415 416 446
3 415 446 445
3 445 446 477
3 445 477 476
3 476 477 507
3 476 507 506
3 506 507 537
3 506 537 536
3 536 537 567
3 536 567 566
3 566 567 597
3 566 597 596
3 596 597 628
3 596 628 627
3 627 628 658
3 627 658 657
3 657 658 688
3 657 688 687
3 687 688 718
3 687 718 717
3 717 718 748
3 717 748 747
3 747 748 779
3 747 779 778
3 778 779 809
3 778 809 808
3 808 809 839
3 808 839 838
3 838 839 869
3 838 869 868
3 868 869 899
3 868 899 898
3 23 24 55
3 23 55 54
3 54 55 85
3 54 85 84
3 84 85 115
3 84 115 114
3 114 115 145
3 114 145 144
3 144 145 176
3 144 176 175
3 175 176 206
3 175 206 205
3 205 206 236
3 205 236 235
3 235 236 266
3 235 266 265
3 265 266 296
3 265 296 295
3 295 296 327
3 295 327 326
3 326 327 357
3 326 357 356
3 356 357 387
3 356 387 386
3 386 387 417
3 386 417 416
3 416 417 447
3 416 447 446
3 446 447 478
3 446 478 477
3 477 478 508
3 477 508 507
3 507 508 538
3 507 538 537
3 537 538 568
3 537 568 567
3 567 568 598
3 567 598 597
3 597 598 629
3 597 629 628
3 628 629 659
3 628 659 658
3 658 659 689
3 658 689 688
3 688 689 719
3 688 719 718
3 718 719 749
3 718 749 748
3 748 749 780
3 748 780 779
3 779 780 810
3 779 810 809
3 809 810 840
3 809 840 839
3 839 840 870
3 839 870 869
3 869 870 900
3 869 900 899
3 24 25 56
3 24 56 55
3 55 56 86
3 55 86 85
3 85 86 116
3 85 116 115
3 115 116 146
3 115 146 145
3 145 146 177
3 145 177 176
3 176 177 207
3 176 207 206
3 206 207 237
3 206 237 236
3 236 237 267
3 236 267 266
3 266 267 297
3 266 297 296
3 296 297 328
3 296 328 327
3 327 328 358
3 327 358 357
3 357 358 388
3 357 388 387
3 387 388 418
3 387 418 417
3 417 418 448
3 417 448 447
3 447 448 479
3 447 479 478
3 478 479 509
3 478 509 508
3 508 509 539
3 508 539 538
3 538 539 569
3 538 569 568
3 568 569 599
3 568 599 598
3 598 599 630
3 598 630 629
3 629 630 660
3 629 660 659
3 659 660 690
3 659 690 689
3 689 690 720
3 689 720 719
3 719 720 750
3 719 750 749
3 749 750 781
3 749 781 780
3 780 781 811
3 780 811 810
3 810 811 841
3 810 841 840
3 840 841 871
3 840 871 870
3 870 871 901
3 870 901 900
3 25 26 57
3 25 57 56
3 56 57 87
3 56 87 86
3 86 87 117
3 86 117 116
3 116 117 147
3 116 147 146
3 146 147 178
3 146 178 177
3 177 178 208
3 177 208 207
3 207 208 238
3 207 238 237
3 237 238 268
3 237 268 267
3 267 268 298
3 267 298 297
3 297 298 329
3 297 329 328
3 328 329 359
3 328 359 358
3 358 359 389
3 358 389 388
3 388 389 419
3 388 419 418
3 418 419 449
3 418 449 448
3 448 449 480
3 448 480 479
3 479 480 510
3 479 510 509
3 509 510 540
3 509 540 539
3 539 540 570
3 539 570 569
3 569 570 600
3 569 600 599
3 599 600 631
3 599 631 630
3 630 631 661
3 630 661 660
3 660 661 691
3 660 691 690
3 690 691 721
3 690 721 720
3 720 721 751
3 720 751 750
3 750 751 782
3 750 782 781
3 781 782 812
3 781 812 811
3 811 812 842
3 811 842 841
3 841 842 872
3 841 872 871
3 871 872 902
3 871 902 901
3 26 27 58
3 26 58 57
3 57 58 88
3 57 88 87
3 87 88 118
3 87 118 117
3 117 118 148
3 117 148 147
3 147 148 179
3 147 179 178
3 178 179 209
3 178 209 208
3 208 209 239
3 208 239 238
3 238 239 269
3 238 269 268
3 268 269 299
3 268 299 298
3 298 299 330
3 298 330 329
3 329 330 360
3 329 360 359
3 359 360 390
3 359 390 389
3 389 390 420
3 389 420 419
3 419 420 450
3 419 450 449
3 449 450 481
3 449 481 480
3 480 481 511
3 480 511 510
3 510 511 541
3 510 541 540
3 540 541 571
3 540 571 570
3 570 571 601
3 570 601 600
3 600 601 632
3 600 632 631
3 631 632 662
3 631 662 661
3 661 662 692
3 661 692 691
3 691 692 722
3 691 722 721
3 721 722 752
3 721 752 751
3 751 752 783
3 751 783 782
3 782 783 813
3 782 813 812
3 812 813 843
3 812 843 842
3 842 843 873
3 842 873 872
3 872 873 903
3 872 903 902
3 27 28 59
3 27 59 58
3 58 59 89
3 58 89 88
3 88 89 119
3 88 119 118
3 118 119 149
3 118 149 148
3 148 149 180
3 148 180 179
3 179 180 210
3 179 210 209
3 209 210 240
3 209 240 239
3 239 240 270
3 239 270 269
3 269 270 300
3 269 300 299
3 299 300 331
3 299 331 330
3 330 331 361
3 330 361 360
3 360 361 391
3 360 391 390
3 390 391 421
3 390 421 420
3 420 421 451
3 420 451 450
3 450 451 482
3 450 482 481
3 481 482 512
3 481 512 511
3 511 512 542
3 511 542 541
3 541 542 572
3 541 572 571
3 571 572 602
3 571 602 601
3 601 602 633
3 601 633 632
3 632 633 663
3 632 663 662
3 662 663 693
3 662 693 692
3 692 693 723
3 692 723 722
3 722 723 753
3 722 753 752
3 752 753 784
3 752 784 783
3 783 784 814
3 783 814 813
3 813 814 844
3 813 844 843
3 843 844 874
3 843 874 873
3 873 874 904
3 873 904 903
3 28 29 60
3 28 60 59
3 59 60 90
3 59 90 89
3 89 90 120
3 89 120 119
3 119 120 150
3 119 150 149
3 149 150 181
3 149 181 180
3 180 181 211
3 180 211 210
3 210 211 241
3 210 241 240
3 240 241 271
3 240 271 270
3 270 271 301
3 270 301 300
3 300 301 332
3 300 332 331
3 331 332 362
3 331 362 361
3 361 362 392
3 361 392 391
3 391 392 422
3 391 422 421
3 421 422 452
3 421 452 451
3 451 452 483
3 451 483 482
3 482 483 513
3 482 513 512
3 512 513 543
3 512 543 542
3 542 543 573
3 542 573 572
3 572 573 603
3 572 603 602
3 602 603 634
3 602 634 633
3 633 634 664
3 633 664 663
3 663 664 694
3 663 694 693
3 693 694 724
3 693 724 723
3 723 724 754
3 723 754 753
3 753 754 785
3 753 785 784
3 784 785 815
3 784 815 814
3 814 815 845
3 814 845 844
3 844 845 875
3 844 875 874
3 874 875 905
3 874 905 904
3 29 30 61
3 29 61 60
3 60 61 91
3 60 91 90
3 90 91 121
3 90 121 120
3 120 121 151
3 120 151 150
3 150 151 182
3 150 182 181
3 181 182 212
3 181 212 211
3 211 212 242
3 211 242 241
3 241 242 272
3 241 272 271
3 271 272 302
3 271 302 301
3 301 302 333
3 301 333 332
3 332 333 363
3 332 363 362
3 362 363 393
3 362 393 392
3 392 393 423
3 392 423 422
3 422 423 453
3 422 453 452
3 452 453 484
3 452 484 483
3 483 484 514
3 483 514 513
3 513 514 544
3 513 544 543
3 543 544 574
3 543 574 573
3 573 574 604
3 573 604 603
3 603 604 635
3 603 635 634
3 634 635 665
3 634 665 664
3 664 665 695
3 664 695 694
3 694 695 725
3 694 725 724
3 724 725 755
3 724 755 754
3 754 755 786
3 754 786 785
3 785 786 816
3 785 816 815
3 815 816 846
3 815 846 845
3 845 846 876
3 845 876 875
3 875 876 906
3 875 906 905
