ply
format ascii 1.0
comment Created by Open3D
element vertex 907
property double x
property double y
property double z
element face 1717
property list uchar uint vertex_indices
end_header
1 5.55112e-17 5.55112e-17
1 0.0333333 0.00333333
1 0.0666667 0.00666667
1 0.1 0.01
1 0.133333 0.0133333
1 0.166667 0.0166667
1 0.2 0.02
1 0.233333 0.0233333
1 0.266667 0.0266667
1 0.3 0.03
1 0.333333 0.0333333
1 0.366667 0.0366667
1 0.4 0.04
1 0.433333 0.0433333
1 0.466667 0.0466667
1 0.5 0.05
1 0.533333 0.0533333
1 0.566667 0.0566667
1 0.6 0.06
1 0.633333 0.0633333
1 0.666667 0.0666667
1 0.7 0.07
1 0.733333 0.0733333
1 0.766667 0.0766667
1 0.8 0.08
1 0.833333 0.0833333
1 0.866667 0.0866667
1 0.9 0.09
1 0.933333 0.0933333
1 0.966667 0.0966667
1 1 0.1
1 5.55112e-17 0.0344828
1 0.0333333 0.0366667
1 0.0666667 0.0388506
1 0.1 0.0410345
1 0.133333 0.0432184
1 0.166667 0.0454023
1 0.2 0.0475862
1 0.233333 0.0497701
1 0.266667 0.051954
1 0.3 0.0541379
1 0.333333 0.0563218
1 0.366667 0.0585057
1 0.4 0.0606897
1 0.433333 0.0628736
1 0.466667 0.0650575
1 0.5 0.0672414
1 0.533333 0.0694253
1 0.566667 0.0716092
1 0.6 0.0737931
1 0.633333 0.075977
1 0.666667 0.0781609
1 0.7 0.0803448
1 0.733333 0.0825287
1 0.766667 0.0847126
1 0.8 0.0868966
1 0.833333 0.0890805
1 0.866667 0.0912644
1 0.9 0.0934483
1 0.933333 0.0956322
1 0.966667 0.0978161
1 5.55112e-17 0.0689655
1 0.0333333 0.07
1 0.0666667 0.0710345
1 0.1 0.072069
1 0.133333 0.0731034
1 0.166667 0.0741379
1 0.2 0.0751724
1 0.233333 0.0762069
1 0.266667 0.0772414
1 0.3 0.0782759
1 0.333333 0.0793103
1 0.366667 0.0803448
1 0.4 0.0813793
1 0.433333 0.0824138
1 0.466667 0.0834483
1 0.5 0.0844828
1 0.533333 0.0855172
1 0.566667 0.0865517
1 0.6 0.0875862
1 0.633333 0.0886207
1 0.666667 0.0896552
1 0.7 0.0906897
1 0.733333 0.0917241
1 0.766667 0.0927586
1 0.8 0.0937931
1 0.833333 0.0948276
1 0.866667 0.0958621
1 0.9 0.0968966
1 0.933333 0.097931
1 0.966667 0.0989655
1 5.55112e-17 0.103448
1 0.0333333 0.103333
1 0.0666667 0.103218
1 0.1 0.103103
1 0.133333 0.102989
1 0.166667 0.102874
1 0.2 0.102759
1 0.233333 0.102644
1 0.266667 0.102529
1 0.3 0.102414
1 0.333333 0.102299
1 0.366667 0.102184
1 0.4 0.102069
1 0.433333 0.101954
1 0.466667 0.101839
1 0.5 0.101724
1 0.533333 0.101609
1 0.566667 0.101494
1 0.6 0.101379
1 0.633333 0.101264
1 0.666667 0.101149
1 0.7 0.101034
1 0.733333 0.10092
1 0.766667 0.100805
1 0.8 0.10069
1 0.833333 0.100575
1 0.866667 0.10046
1 0.9 0.100345
1 0.933333 0.10023
1 0.966667 0.100115
1 5.55112e-17 0.137931
1 0.0333333 0.136667
1 0.0666667 0.135402
1 0.1 0.134138
1 0.133333 0.132874
1 0.166667 0.131609
1 0.2 0.130345
1 0.233333 0.12908
1 0.266667 0.127816
1 0.3 0.126552
1 0.333333 0.125287
1 0.366667 0.124023
1 0.4 0.122759
1 0.433333 0.121494
1 0.466667 0.12023
1 0.5 0.118966
1 0.533333 0.117701
1 0.566667 0.116437
1 0.6 0.115172
1 0.633333 0.113908
1 0.666667 0.112644
1 0.7 0.111379
1 0.733333 0.110115
1 0.766667 0.108851
1 0.8 0.107586
1 0.833333 0.106322
1 0.866667 0.105057
1 0.9 0.103793
1 0.933333 0.102529
1 0.966667 0.101264
1 5.55112e-17 0.172414
1 0.0333333 0.169444
1 0.0666667 0.166475
1 0.1 0.163506
1 0.133333 0.160536
1 0.166667 0.157567
1 0.2 0.154598
1 0.233333 0.151628
1 0.266667 0.148659
1 0.3 0.14569
1 0.333333 0.14272
1 0.366667 0.139751
1 0.4 0.136782
1 0.433333 0.133812
1 0.466667 0.130843
1 0.5 0.127874
1 0.533333 0.124904
1 0.566667 0.121935
1 0.6 0.118966
1 0.633333 0.115996
1 0.666667 0.113027
1 0.7 0.110057
1 0.733333 0.107088
1 0.766667 0.104119
1 0.8 0.101149
1 0.833333 0.0981801
1 0.866667 0.0952107
1 0.9 0.0922414
1 0.933333 0.089272
1 0.966667 0.0863027
1 1 0.0833333
1 5.55112e-17 0.206897
1 0.0333333 0.202778
1 0.0666667 0.198659
1 0.1 0.19454
1 0.133333 0.190421
1 0.166667 0.186303
1 0.2 0.182184
1 0.233333 0.178065
1 0.266667 0.173946
1 0.3 0.169828
1 0.333333 0.165709
1 0.366667 0.16159
1 0.4 0.157471
1 0.433333 0.153352
1 0.466667 0.149234
1 0.5 0.145115
1 0.533333 0.140996
1 0.566667 0.136877
1 0.6 0.132759
1 0.633333 0.12864
1 0.666667 0.124521
1 0.7 0.120402
1 0.733333 0.116284
1 0.766667 0.112165
1 0.8 0.108046
1 0.833333 0.103927
1 0.866667 0.0998084
1 0.9 0.0956897
1 0.933333 0.0915709
1 0.966667 0.0874521
1 5.55112e-17 0.241379
1 0.0333333 0.236111
1 0.0666667 0.230843
1 0.1 0.225575
1 0.133333 0.220307
1 0.166667 0.215038
1 0.2 0.20977
1 0.233333 0.204502
1 0.266667 0.199234
1 0.3 0.193966
1 0.333333 0.188697
1 0.366667 0.183429
1 0.4 0.178161
1 0.433333 0.172893
1 0.466667 0.167625
1 0.5 0.162356
1 0.533333 0.157088
1 0.566667 0.15182
1 0.6 0.146552
1 0.633333 0.141284
1 0.666667 0.136015
1 0.7 0.130747
1 0.733333 0.125479
1 0.766667 0.120211
1 0.8 0.114943
1 0.833333 0.109674
1 0.866667 0.104406
1 0.9 0.0991379
1 0.933333 0.0938697
1 0.966667 0.0886015
1 5.55112e-17 0.275862
1 0.0333333 0.269444
1 0.0666667 0.263027
1 0.1 0.256609
1 0.133333 0.250192
1 0.166667 0.243774
1 0.2 0.237356
1 0.233333 0.230939
1 0.266667 0.224521
1 0.3 0.218103
1 0.333333 0.211686
1 0.366667 0.205268
1 0.4 0.198851
1 0.433333 0.192433
1 0.466667 0.186015
1 0.5 0.179598
1 0.533333 0.17318
1 0.566667 0.166762
1 0.6 0.160345
1 0.633333 0.153927
1 0.666667 0.14751
1 0.7 0.141092
1 0.733333 0.134674
1 0.766667 0.128257
1 0.8 0.121839
1 0.833333 0.115421
1 0.866667 0.109004
1 0.9 0.102586
1 0.933333 0.0961686
1 0.966667 0.089751
1 5.55112e-17 0.310345
1 0.0333333 0.302778
1 0.0666667 0.295211
1 0.1 0.287644
1 0.133333 0.280077
1 0.166667 0.27251
1 0.2 0.264943
1 0.233333 0.257375
1 0.266667 0.249808
1 0.3 0.242241
1 0.333333 0.234674
1 0.366667 0.227107
1 0.4 0.21954
1 0.433333 0.211973
1 0.466667 0.204406
1 0.5 0.196839
1 0.533333 0.189272
1 0.566667 0.181705
1 0.6 0.174138
1 0.633333 0.166571
1 0.666667 0.159004
1 0.7 0.151437
1 0.733333 0.14387
1 0.766667 0.136303
1 0.8 0.128736
1 0.833333 0.121169
1 0.866667 0.113602
1 0.9 0.106034
1 0.933333 0.0984674
1 0.966667 0.0909004
1 5.55112e-17 0.344828
1 0.0333333 0.335556
1 0.0666667 0.326284
1 0.1 0.317011
1 0.133333 0.307739
1 0.166667 0.298467
1 0.2 0.289195
1 0.233333 0.279923
1 0.266667 0.270651
1 0.3 0.261379
1 0.333333 0.252107
1 0.366667 0.242835
1 0.4 0.233563
1 0.433333 0.224291
1 0.466667 0.215019
1 0.5 0.205747
1 0.533333 0.196475
1 0.566667 0.187203
1 0.6 0.177931
1 0.633333 0.168659
1 0.666667 0.159387
1 0.7 0.150115
1 0.733333 0.140843
1 0.766667 0.131571
1 0.8 0.122299
1 0.833333 0.113027
1 0.866667 0.103755
1 0.9 0.0944828
1 0.933333 0.0852107
1 0.966667 0.0759387
1 1 0.0666667
1 5.55112e-17 0.37931
1 0.0333333 0.368889
1 0.0666667 0.358467
1 0.1 0.348046
1 0.133333 0.337625
1 0.166667 0.327203
1 0.2 0.316782
1 0.233333 0.30636
1 0.266667 0.295939
1 0.3 0.285517
1 0.333333 0.275096
1 0.366667 0.264674
1 0.4 0.254253
1 0.433333 0.243831
1 0.466667 0.23341
1 0.5 0.222989
1 0.533333 0.212567
1 0.566667 0.202146
1 0.6 0.191724
1 0.633333 0.181303
1 0.666667 0.170881
1 0.7 0.16046
1 0.733333 0.150038
1 0.766667 0.139617
1 0.8 0.129195
1 0.833333 0.118774
1 0.866667 0.108352
1 0.9 0.097931
1 0.933333 0.0875096
1 0.966667 0.0770881
1 5.55112e-17 0.413793
1 0.0333333 0.402222
1 0.0666667 0.390651
1 0.1 0.37908
1 0.133333 0.36751
1 0.166667 0.355939
1 0.2 0.344368
1 0.233333 0.332797
1 0.266667 0.321226
1 0.3 0.309655
1 0.333333 0.298084
1 0.366667 0.286513
1 0.4 0.274943
1 0.433333 0.263372
1 0.466667 0.251801
1 0.5 0.24023
1 0.533333 0.228659
1 0.566667 0.217088
1 0.6 0.205517
1 0.633333 0.193946
1 0.666667 0.182375
1 0.7 0.170805
1 0.733333 0.159234
1 0.766667 0.147663
1 0.8 0.136092
1 0.833333 0.124521
1 0.866667 0.11295
1 0.9 0.101379
1 0.933333 0.0898084
1 0.966667 0.0782375
1 5.55112e-17 0.448276
1 0.0333333 0.435556
1 0.0666667 0.422835
1 0.1 0.410115
1 0.133333 0.397395
1 0.166667 0.384674
1 0.2 0.371954
1 0.233333 0.359234
1 0.266667 0.346513
1 0.3 0.333793
1 0.333333 0.321073
1 0.366667 0.308352
1 0.4 0.295632
1 0.433333 0.282912
1 0.466667 0.270192
1 0.5 0.257471
1 0.533333 0.244751
1 0.566667 0.232031
1 0.6 0.21931
1 0.633333 0.20659
1 0.666667 0.19387
1 0.7 0.181149
1 0.733333 0.168429
1 0.766667 0.155709
1 0.8 0.142989
1 0.833333 0.130268
1 0.866667 0.117548
1 0.9 0.104828
1 0.933333 0.0921073
1 0.966667 0.079387
1 5.55112e-17 0.482759
1 0.0333333 0.468889
1 0.0666667 0.455019
1 0.1 0.441149
1 0.133333 0.42728
1 0.166667 0.41341
1 0.2 0.39954
1 0.233333 0.38567
1 0.266667 0.371801
1 0.3 0.357931
1 0.333333 0.344061
1 0.366667 0.330192
1 0.4 0.316322
1 0.433333 0.302452
1 0.466667 0.288582
1 0.5 0.274713
1 0.533333 0.260843
1 0.566667 0.246973
1 0.6 0.233103
1 0.633333 0.219234
1 0.666667 0.205364
1 0.7 0.191494
1 0.733333 0.177625
1 0.766667 0.163755
1 0.8 0.149885
1 0.833333 0.136015
1 0.866667 0.122146
1 0.9 0.108276
1 0.933333 0.0944061
1 0.966667 0.0805364
1 5.55112e-17 0.517241
1 0.0333333 0.501667
1 0.0666667 0.486092
1 0.1 0.470517
1 0.133333 0.454943
1 0.166667 0.439368
1 0.2 0.423793
1 0.233333 0.408218
1 0.266667 0.392644
1 0.3 0.377069
1 0.333333 0.361494
1 0.366667 0.34592
1 0.4 0.330345
1 0.433333 0.31477
1 0.466667 0.299195
1 0.5 0.283621
1 0.533333 0.268046
1 0.566667 0.252471
1 0.6 0.236897
1 0.633333 0.221322
1 0.666667 0.205747
1 0.7 0.190172
1 0.733333 0.174598
1 0.766667 0.159023
1 0.8 0.143448
1 0.833333 0.127874
1 0.866667 0.112299
1 0.9 0.0967241
1 0.933333 0.0811494
1 0.966667 0.0655747
1 1 0.05
1 5.55112e-17 0.551724
1 0.0333333 0.535
1 0.0666667 0.518276
1 0.1 0.501552
1 0.133333 0.484828
1 0.166667 0.468103
1 0.2 0.451379
1 0.233333 0.434655
1 0.266667 0.417931
1 0.3 0.401207
1 0.333333 0.384483
1 0.366667 0.367759
1 0.4 0.351034
1 0.433333 0.33431
1 0.466667 0.317586
1 0.5 0.300862
1 0.533333 0.284138
1 0.566667 0.267414
1 0.6 0.25069
1 0.633333 0.233966
1 0.666667 0.217241
1 0.7 0.200517
1 0.733333 0.183793
1 0.766667 0.167069
1 0.8 0.150345
1 0.833333 0.133621
1 0.866667 0.116897
1 0.9 0.100172
1 0.933333 0.0834483
1 0.966667 0.0667241
1 5.55112e-17 0.586207
1 0.0333333 0.568333
1 0.0666667 0.55046
1 0.1 0.532586
1 0.133333 0.514713
1 0.166667 0.496839
1 0.2 0.478966
1 0.233333 0.461092
1 0.266667 0.443218
1 0.3 0.425345
1 0.333333 0.407471
1 0.366667 0.389598
1 0.4 0.371724
1 0.433333 0.353851
1 0.466667 0.335977
1 0.5 0.318103
1 0.533333 0.30023
1 0.566667 0.282356
1 0.6 0.264483
1 0.633333 0.246609
1 0.666667 0.228736
1 0.7 0.210862
1 0.733333 0.192989
1 0.766667 0.175115
1 0.8 0.157241
1 0.833333 0.139368
1 0.866667 0.121494
1 0.9 0.103621
1 0.933333 0.0857471
1 0.966667 0.0678736
1 5.55112e-17 0.62069
1 0.0333333 0.601667
1 0.0666667 0.582644
1 0.1 0.563621
1 0.133333 0.544598
1 0.166667 0.525575
1 0.2 0.506552
1 0.233333 0.487529
1 0.266667 0.468506
1 0.3 0.449483
1 0.333333 0.43046
1 0.366667 0.411437
1 0.4 0.392414
1 0.433333 0.373391
1 0.466667 0.354368
1 0.5 0.335345
1 0.533333 0.316322
1 0.566667 0.297299
1 0.6 0.278276
1 0.633333 0.259253
1 0.666667 0.24023
1 0.7 0.221207
1 0.733333 0.202184
1 0.766667 0.183161
1 0.8 0.164138
1 0.833333 0.145115
1 0.866667 0.126092
1 0.9 0.107069
1 0.933333 0.088046
1 0.966667 0.069023
1 5.55112e-17 0.655172
1 0.0333333 0.635
1 0.0666667 0.614828
1 0.1 0.594655
1 0.133333 0.574483
1 0.166667 0.55431
1 0.2 0.534138
1 0.233333 0.513966
1 0.266667 0.493793
1 0.3 0.473621
1 0.333333 0.453448
1 0.366667 0.433276
1 0.4 0.413103
1 0.433333 0.392931
1 0.466667 0.372759
1 0.5 0.352586
1 0.533333 0.332414
1 0.566667 0.312241
1 0.6 0.292069
1 0.633333 0.271897
1 0.666667 0.251724
1 0.7 0.231552
1 0.733333 0.211379
1 0.766667 0.191207
1 0.8 0.171034
1 0.833333 0.150862
1 0.866667 0.13069
1 0.9 0.110517
1 0.933333 0.0903448
1 0.966667 0.0701724
1 5.55112e-17 0.689655
1 0.0333333 0.667778
1 0.0666667 0.6459
1 0.1 0.624023
1 0.133333 0.602146
1 0.166667 0.580268
1 0.2 0.558391
1 0.233333 0.536513
1 0.266667 0.514636
1 0.3 0.492759
1 0.333333 0.470881
1 0.366667 0.449004
1 0.4 0.427126
1 0.433333 0.405249
1 0.466667 0.383372
1 0.5 0.361494
1 0.533333 0.339617
1 0.566667 0.317739
1 0.6 0.295862
1 0.633333 0.273985
1 0.666667 0.252107
1 0.7 0.23023
1 0.733333 0.208352
1 0.766667 0.186475
1 0.8 0.164598
1 0.833333 0.14272
1 0.866667 0.120843
1 0.9 0.0989655
1 0.933333 0.0770881
1 0.966667 0.0552107
1 1 0.0333333
1 5.55112e-17 0.724138
1 0.0333333 0.701111
1 0.0666667 0.678084
1 0.1 0.655057
1 0.133333 0.632031
1 0.166667 0.609004
1 0.2 0.585977
1 0.233333 0.56295
1 0.266667 0.539923
1 0.3 0.516897
1 0.333333 0.49387
1 0.366667 0.470843
1 0.4 0.447816
1 0.433333 0.424789
1 0.466667 0.401762
1 0.5 0.378736
1 0.533333 0.355709
1 0.566667 0.332682
1 0.6 0.309655
1 0.633333 0.286628
1 0.666667 0.263602
1 0.7 0.240575
1 0.733333 0.217548
1 0.766667 0.194521
1 0.8 0.171494
1 0.833333 0.148467
1 0.866667 0.125441
1 0.9 0.102414
1 0.933333 0.079387
1 0.966667 0.0563602
1 5.55112e-17 0.758621
1 0.0333333 0.734444
1 0.0666667 0.710268
1 0.1 0.686092
1 0.133333 0.661916
1 0.166667 0.637739
1 0.2 0.613563
1 0.233333 0.589387
1 0.266667 0.565211
1 0.3 0.541034
1 0.333333 0.516858
1 0.366667 0.492682
1 0.4 0.468506
1 0.433333 0.44433
1 0.466667 0.420153
1 0.5 0.395977
1 0.533333 0.371801
1 0.566667 0.347625
1 0.6 0.323448
1 0.633333 0.299272
1 0.666667 0.275096
1 0.7 0.25092
1 0.733333 0.226743
1 0.766667 0.202567
1 0.8 0.178391
1 0.833333 0.154215
1 0.866667 0.130038
1 0.9 0.105862
1 0.933333 0.0816858
1 0.966667 0.0575096
1 5.55112e-17 0.793103
1 0.0333333 0.767778
1 0.0666667 0.742452
1 0.1 0.717126
1 0.133333 0.691801
1 0.166667 0.666475
1 0.2 0.641149
1 0.233333 0.615824
1 0.266667 0.590498
1 0.3 0.565172
1 0.333333 0.539847
1 0.366667 0.514521
1 0.4 0.489195
1 0.433333 0.46387
1 0.466667 0.438544
1 0.5 0.413218
1 0.533333 0.387893
1 0.566667 0.362567
1 0.6 0.337241
1 0.633333 0.311916
1 0.666667 0.28659
1 0.7 0.261264
1 0.733333 0.235939
1 0.766667 0.210613
1 0.8 0.185287
1 0.833333 0.159962
1 0.866667 0.134636
1 0.9 0.10931
1 0.933333 0.0839847
1 0.966667 0.058659
1 5.55112e-17 0.827586
1 0.0333333 0.801111
1 0.0666667 0.774636
1 0.1 0.748161
1 0.133333 0.721686
1 0.166667 0.695211
1 0.2 0.668736
1 0.233333 0.642261
1 0.266667 0.615785
1 0.3 0.58931
1 0.333333 0.562835
1 0.366667 0.53636
1 0.4 0.509885
1 0.433333 0.48341
1 0.466667 0.456935
1 0.5 0.43046
1 0.533333 0.403985
1 0.566667 0.37751
1 0.6 0.351034
1 0.633333 0.324559
1 0.666667 0.298084
1 0.7 0.271609
1 0.733333 0.245134
1 0.766667 0.218659
1 0.8 0.192184
1 0.833333 0.165709
1 0.866667 0.139234
1 0.9 0.112759
1 0.933333 0.0862835
1 0.966667 0.0598084
1 5.55112e-17 0.862069
1 0.0333333 0.833889
1 0.0666667 0.805709
1 0.1 0.777529
1 0.133333 0.749349
1 0.166667 0.721169
1 0.2 0.692989
1 0.233333 0.664808
1 0.266667 0.636628
1 0.3 0.608448
1 0.333333 0.580268
1 0.366667 0.552088
1 0.4 0.523908
1 0.433333 0.495728
1 0.466667 0.467548
1 0.5 0.439368
1 0.533333 0.411188
1 0.566667 0.383008
1 0.6 0.354828
1 0.633333 0.326648
1 0.666667 0.298467
1 0.7 0.270287
1 0.733333 0.242107
1 0.766667 0.213927
1 0.8 0.185747
1 0.833333 0.157567
1 0.866667 0.129387
1 0.9 0.101207
1 0.933333 0.0730268
1 0.966667 0.0448467
1 1 0.0166667
1 5.55112e-17 0.896552
1 0.0333333 0.867222
1 0.0666667 0.837893
1 0.1 0.808563
1 0.133333 0.779234
1 0.166667 0.749904
1 0.2 0.720575
1 0.233333 0.691245
1 0.266667 0.661916
1 0.3 0.632586
1 0.333333 0.603257
1 0.366667 0.573927
1 0.4 0.544598
1 0.433333 0.515268
1 0.466667 0.485939
1 0.5 0.456609
1 0.533333 0.42728
1 0.566667 0.39795
1 0.6 0.368621
1 0.633333 0.339291
1 0.666667 0.309962
1 0.7 0.280632
1 0.733333 0.251303
1 0.766667 0.221973
1 0.8 0.192644
1 0.833333 0.163314
1 0.866667 0.133985
1 0.9 0.104655
1 0.933333 0.0753257
1 0.966667 0.0459962
1 5.55112e-17 0.931034
1 0.0333333 0.900556
1 0.0666667 0.870077
1 0.1 0.839598
1 0.133333 0.809119
1 0.166667 0.77864
1 0.2 0.748161
1 0.233333 0.717682
1 0.266667 0.687203
1 0.3 0.656724
1 0.333333 0.626245
1 0.366667 0.595766
1 0.4 0.565287
1 0.433333 0.534808
1 0.466667 0.50433
1 0.5 0.473851
1 0.533333 0.443372
1 0.566667 0.412893
1 0.6 0.382414
1 0.633333 0.351935
1 0.666667 0.321456
1 0.7 0.290977
1 0.733333 0.260498
1 0.766667 0.230019
1 0.8 0.19954
1 0.833333 0.169061
1 0.866667 0.138582
1 0.9 0.108103
1 0.933333 0.0776245
1 0.966667 0.0471456
1 5.55112e-17 0.965517
1 0.0333333 0.933889
1 0.0666667 0.902261
1 0.1 0.870632
1 0.133333 0.839004
1 0.166667 0.807375
1 0.2 0.775747
1 0.233333 0.744119
1 0.266667 0.71249
1 0.3 0.680862
1 0.333333 0.649234
1 0.366667 0.617605
1 0.4 0.585977
1 0.433333 0.554349
1 0.466667 0.52272
1 0.5 0.491092
1 0.533333 0.459464
1 0.566667 0.427835
1 0.6 0.396207
1 0.633333 0.364579
1 0.666667 0.33295
1 0.7 0.301322
1 0.733333 0.269693
1 0.766667 0.238065
1 0.8 0.206437
1 0.833333 0.174808
1 0.866667 0.14318
1 0.9 0.111552
1 0.933333 0.0799234
1 0.966667 0.048295
1 5.55112e-17 1
1 0.0333333 0.966667
1 0.0666667 0.933333
1 0.1 0.9
1 0.133333 0.866667
1 0.166667 0.833333
1 0.2 0.8
1 0.233333 0.766667
1 0.266667 0.733333
1 0.3 0.7
1 0.333333 0.666667
1 0.366667 0.633333
1 0.4 0.6
1 0.433333 0.566667
1 0.466667 0.533333
1 0.5 0.5
1 0.533333 0.466667
1 0.566667 0.433333
1 0.6 0.4
1 0.633333 0.366667
1 0.666667 0.333333
1 0.7 0.3
1 0.733333 0.266667
1 0.766667 0.233333
1 0.8 0.2
1 0.833333 0.166667
1 0.866667 0.133333
1 0.9 0.1
1 0.933333 0.0666667
1 0.966667 0.0333333
1 1 5.55112e-17
3 0 1 32
3 0 32 31
3 31 32 62
3 31 62 61
3 61 62 92
3 61 92 91
3 91 92 122
3 91 122 121
3 121 122 152
3 121 152 151
3 151 152 183
3 151 183 182
3 182 183 213
3 182 213 212
3 212 213 243
3 212 243 242
3 242 243 273
3 242 273 272
3 272 273 303
3 272 303 302
3 302 303 334
3 302 334 333
3 333 334 364
3 333 364 363
3 363 364 394
3 363 394 393
3 393 394 424
3 393 424 423
3 423 424 454
3 423 454 453
3 453 454 485
3 453 485 484
3 484 485 515
3 484 515 514
3 514 515 545
3 514 545 544
3 544 545 575
3 544 575 574
3 574 575 605
3 574 605 604
3 604 605 636
3 604 636 635
3 635 636 666
3 635 666 665
3 665 666 696
3 665 696 695
3 695 696 726
3 695 726 725
3 725 726 756
3 725 756 755
3 755 756 787
3 755 787 786
3 786 787 817
3 786 817 816
3 816 817 847
3 816 847 846
3 846 847 877
3 846 877 876
3 1 2 33
3 1 33 32
3 32 33 63
3 32 63 62
3 62 63 93
3 62 93 92
3 92 93 123
3 92 123 122
3 122 123 153
3 122 153 152
3 152 153 184
3 152 184 183
3 183 184 214
3 183 214 213
3 213 214 244
3 213 244 243
3 243 244 274
3 243 274 273
3 273 274 304
3 273 304 303
3 303 304 335
3 303 335 334
3 334 335 365
3 334 365 364
3 364 365 395
3 364 395 394
3 394 395 425
3 394 425 424
3 424 425 455
3 424 455 454
3 454 455 486
3 454 486 485
3 485 486 516
3 485 516 515
3 515 516 546
3 515 546 545
3 545 546 576
3 545 576 575
3 575 576 606
3 575 606 605
3 605 606 637
3 605 637 636
3 636 637 667
3 636 667 666
3 666 667 697
3 666 697 696
3 696 697 727
3 696 727 726
3 726 727 757
3 726 757 756
3 756 757 788
3 756 788 787
3 787 788 818
3 787 818 817
3 817 818 848
3 817 848 847
3 847 848 878
3 847 878 877
3 2 3 34
3 2 34 33
3 33 34 64
3 33 64 63
3 63 64 94
3 63 94 93
3 93 94 124
3 93 124 123
3 123 124 154
3 123 154 153
3 153 154 185
3 153 185 184
3 184 185 215
3 184 215 214
3 214 215 245
3 214 245 244
3 244 245 275
3 244 275 274
3 274 275 305
3 274 305 304
3 304 305 336
3 304 336 335
3 335 336 366
3 335 366 365
3 365 366 396
3 365 396 395
3 395 396 426
3 395 426 425
3 425 426 456
3 425 456 455
3 455 456 487
3 455 487 486
3 486 487 517
3 486 517 516
3 516 517 547
3 516 547 546
3 546 547 577
3 546 577 576
3 576 577 607
3 576 607 606
3 606 607 638
3 606 638 637
3 637 638 668
3 637 668 667
3 667 668 698
3 667 698 697
3 697 698 728
3 697 728 727
3 727 728 758
3 727 758 757
3 757 758 789
3 757 789 788
3 788 789 819
3 788 819 818
3 818 819 849
3 818 849 848
3 848 849 879
3 848 879 878
3 3 4 35
3 3 35 34
3 34 35 65
3 34 65 64
3 64 65 95
3 64 95 94
3 94 95 125
3 94 125 124
3 124 125 155
3 124 155 154
3 154 155 186
3 154 186 185
3 185 186 216
3 185 216 215
3 215 216 246
3 215 246 245
3 245 246 276
3 245 276 275
3 275 276 306
3 275 306 305
3 305 306 337
3 305 337 336
3 336 337 367
3 336 367 366
3 366 367 397
3 366 397 396
3 396 397 427
3 396 427 426
3 426 427 457
3 426 457 456
3 456 457 488
3 456 488 487
3 487 488 518
3 487 518 517
3 517 518 548
3 517 548 547
3 547 548 578
3 547 578 577
3 577 578 608
3 577 608 607
3 607 608 639
3 607 639 638
3 638 639 669
3 638 669 668
3 668 669 699
3 668 699 698
3 698 699 729
3 698 729 728
3 728 729 759
3 728 759 758
3 758 759 790
3 758 790 789
3 789 790 820
3 789 820 819
3 819 820 850
3 819 850 849
3 849 850 880
3 849 880 879
3 4 5 36
3 4 36 35
3 35 36 66
3 35 66 65
3 65 66 96
3 65 96 95
3 95 96 126
3 95 126 125
3 125 126 156
3 125 156 155
3 155 156 187
3 155 187 186
3 186 187 217
3 186 217 216
3 216 217 247
3 216 247 246
3 246 247 277
3 246 277 276
3 276 277 307
3 276 307 306
3 306 307 338
3 306 338 337
3 337 338 368
3 337 368 367
3 367 368 398
3 367 398 397
3 397 398 428
3 397 428 427
3 427 428 458
3 427 458 457
3 457 458 489
3 457 489 488
3 488 489 519
3 488 519 518
3 518 519 549
3 518 549 548
3 548 549 579
3 548 579 578
3 578 579 609
3 578 609 608
3 608 609 640
3 608 640 639
3 639 640 670
3 639 670 669
3 669 670 700
3 669 700 699
3 699 700 730
3 699 730 729
3 729 730 760
3 729 760 759
3 759 760 791
3 759 791 790
3 790 791 821
3 790 821 820
3 820 821 851
3 820 851 850
3 850 851 881
3 850 881 880
3 5 6 37
3 5 37 36
3 36 37 67
3 36 67 66
3 66 67 97
3 66 97 96
3 96 97 127
3 96 127 126
3 126 127 157
3 126 157 156
3 156 157 188
3 156 188 187
3 187 188 218
3 187 218 217
3 217 218 248
3 217 248 247
3 247 248 278
3 247 278 277
3 277 278 308
3 277 308 307
3 307 308 339
3 307 339 338
3 338 339 369
3 338 369 368
3 368 369 399
3 368 399 398
3 398 399 429
3 398 429 428
3 428 429 459
3 428 459 458
3 458 459 490
3 458 490 489
3 489 490 520
3 489 520 519
3 519 520 550
3 519 550 549
3 549 550 580
3 549 580 579
3 579 580 610
3 579 610 609
3 609 610 641
3 609 641 640
3 640 641 671
3 640 671 670
3 670 671 701
3 670 701 700
3 700 701 731
3 700 731 730
3 730 731 761
3 730 761 760
3 760 761 792
3 760 792 791
3 791 792 822
3 791 822 821
3 821 822 852
3 821 852 851
3 851 852 882
3 851 882 881
3 6 7 38
3 6 38 37
3 37 38 68
3 37 68 67
3 67 68 98
3 67 98 97
3 97 98 128
3 97 128 127
3 127 128 158
3 127 158 157
3 157 158 189
3 157 189 188
3 188 189 219
3 188 219 218
3 218 219 249
3 218 249 248
3 248 249 279
3 248 279 278
3 278 279 309
3 278 309 308
3 308 309 340
3 308 340 339
3 339 340 370
3 339 370 369
3 369 370 400
3 369 400 399
3 399 400 430
3 399 430 429
3 429 430 460
3 429 460 459
3 459 460 491
3 459 491 490
3 490 491 521
3 490 521 520
3 520 521 551
3 520 551 550
3 550 551 581
3 550 581 580
3 580 581 611
3 580 611 610
3 610 611 642
3 610 642 641
3 641 642 672
3 641 672 671
3 671 672 702
3 671 702 701
3 701 702 732
3 701 732 731
3 731 732 762
3 731 762 761
3 761 762 793
3 761 793 792
3 792 793 823
3 792 823 822
3 822 823 853
3 822 853 852
3 852 853 883
3 852 883 882
3 7 8 39
3 7 39 38
3 38 39 69
3 38 69 68
3 68 69 99
3 68 99 98
3 98 99 129
3 98 129 128
3 128 129 159
3 128 159 158
3 158 159 190
3 158 190 189
3 189 190 220
3 189 220 219
3 219 220 250
3 219 250 249
3 249 250 280
3 249 280 279
3 279 280 310
3 279 310 309
3 309 310 341
3 309 341 340
3 340 341 371
3 340 371 370
3 370 371 401
3 370 401 400
3 400 401 431
3 400 431 430
3 430 431 461
3 430 461 460
3 460 461 492
3 460 492 491
3 491 492 522
3 491 522 521
3 521 522 552
3 521 552 551
3 551 552 582
3 551 582 581
3 581 582 612
3 581 612 611
3 611 612 643
3 611 643 642
3 642 643 673
3 642 673 672
3 672 673 703
3 672 703 702
3 702 703 733
3 702 733 732
3 732 733 763
3 732 763 762
3 762 763 794
3 762 794 793
3 793 794 824
3 793 824 823
3 823 824 854
3 823 854 853
3 853 854 884
3 853 884 883
3 8 9 40
3 8 40 39
3 39 40 70
3 39 70 69
3 69 70 100
3 69 100 99
3 99 100 130
3 99 130 129
3 129 130 160
3 129 160 159
3 159 160 191
3 159 191 190
3 190 191 221
3 190 221 220
3 220 221 251
3 220 251 250
3 250 251 281
3 250 281 280
3 280 281 311
3 280 311 310
3 310 311 342
3 310 342 341
3 341 342 372
3 341 372 371
3 371 372 402
3 371 402 401
3 401 402 432
3 401 432 431
3 431 432 462
3 431 462 461
3 461 462 493
3 461 493 492
3 492 493 523
3 492 523 522
3 522 523 553
3 522 553 552
3 552 553 583
3 552 583 582
3 582 583 613
3 582 613 612
3 612 613 644
3 612 644 643
3 643 644 674
3 643 674 673
3 673 674 704
3 673 704 703
3 703 704 734
3 703 734 733
3 733 734 764
3 733 764 763
3 763 764 795
3 763 795 794
3 794 795 825
3 794 825 824
3 824 825 855
3 824 855 854
3 854 855 885
3 854 885 884
3 9 10 41
3 9 41 40
3 40 41 71
3 40 71 70
3 70 71 101
3 70 101 100
3 100 101 131
3 100 131 130
3 130 131 161
3 130 161 160
3 160 161 192
3 160 192 191
3 191 192 222
3 191 222 221
3 221 222 252
3 221 252 251
3 251 252 282
3 251 282 281
3 281 282 312
3 281 312 311
3 311 312 343
3 311 343 342
3 342 343 373
3 342 373 372
3 372 373 403
3 372 403 402
3 402 403 433
3 402 433 432
3 432 433 463
3 432 463 462
3 462 463 494
3 462 494 493
3 493 494 524
3 493 524 523
3 523 524 554
3 523 554 553
3 553 554 584
3 553 584 583
3 583 584 614
3 583 614 613
3 613 614 645
3 613 645 644
3 644 645 675
3 644 675 674
3 674 675 705
3 674 705 704
3 704 705 735
3 704 735 734
3 734 735 765
3 734 765 764
3 764 765 796
3 764 796 795
3 795 796 826
3 795 826 825
3 825 826 856
3 825 856 855
3 855 856 886
3 855 886 885
3 10 11 42
3 10 42 41
3 41 42 72
3 41 72 71
3 71 72 102
3 71 102 101
3 101 102 132
3 101 132 131
3 131 132 162
3 131 162 161
3 161 162 193
3 161 193 192
3 192 193 223
3 192 223 222
3 222 223 253
3 222 253 252
3 252 253 283
3 252 283 282
3 282 283 313
3 282 313 312
3 312 313 344
3 312 344 343
3 343 344 374
3 343 374 373
3 373 374 404
3 373 404 403
3 403 404 434
3 403 434 433
3 433 434 464
3 433 464 463
3 463 464 495
3 463 495 494
3 494 495 525
3 494 525 524
3 524 525 555
3 524 555 554
3 554 555 585
3 554 585 584
3 584 585 615
3 584 615 614
3 614 615 646
3 614 646 645
3 645 646 676
3 645 676 675
3 675 676 706
3 675 706 705
3 705 706 736
3 705 736 735
3 735 736 766
3 735 766 765
3 765 766 797
3 765 797 796
3 796 797 827
3 796 827 826
3 826 827 857
3 826 857 856
3 856 857 887
3 856 887 886
3 11 12 43
3 11 43 42
3 42 43 73
3 42 73 72
3 72 73 103
3 72 103 102
3 102 103 133
3 102 133 132
3 132 133 163
3 132 163 162
3 162 163 194
3 162 194 193
3 193 194 224
3 193 224 223
3 223 224 254
3 223 254 253
3 253 254 284
3 253 284 283
3 283 284 314
3 283 314 313
3 313 314 345
3 313 345 344
3 344 345 375
3 344 375 374
3 374 375 405
3 374 405 404
3 404 405 435
3 404 435 434
3 434 435 465
3 434 465 464
3 464 465 496
3 464 496 495
3 495 496 526
3 495 526 525
3 525 526 556
3 525 556 555
3 555 556 586
3 555 586 585
3 585 586 616
3 585 616 615
3 615 616 647
3 615 647 646
3 646 647 677
3 646 677 676
3 676 677 707
3 676 707 706
3 706 707 737
3 706 737 736
3 736 737 767
3 736 767 766
3 766 767 798
3 766 798 797
3 797 798 828
3 797 828 827
3 827 828 858
3 827 858 857
3 857 858 888
3 857 888 887
3 12 13 44
3 12 44 43
3 43 44 74
3 43 74 73
3 73 74 104
3 73 104 103
3 103 104 134
3 103 134 133
3 133 134 164
3 133 164 163
3 163 164 195
3 163 195 194
3 194 195 225
3 194 225 224
3 224 225 255
3 224 255 254
3 254 255 285
3 254 285 284
3 284 285 315
3 284 315 314
3 314 315 346
3 314 346 345
3 345 346 376
3 345 376 375
3 375 376 406
3 375 406 405
3 405 406 436
3 405 436 435
3 435 436 466
3 435 466 465
3 465 466 497
3 465 497 496
3 496 497 527
3 496 527 526
3 526 527 557
3 526 557 556
3 556 557 587
3 556 587 586
3 586 587 617
3 586 617 616
3 616 617 648
3 616 648 647
3 647 648 678
3 647 678 677
3 677 678 708
3 677 708 707
3 707 708 738
3 707 738 737
3 737 738 768
3 737 768 767
3 767 768 799
3 767 799 798
3 798 799 829
3 798 829 828
3 828 829 859
3 828 859 858
3 858 859 889
3 858 889 888
3 13 14 45
3 13 45 44
3 44 45 75
3 44 75 74
3 74 75 105
3 74 105 104
3 104 105 135
3 104 135 134
3 134 135 165
3 134 165 164
3 164 165 196
3 164 196 195
3 195 196 226
3 195 226 225
3 225 226 256
3 225 256 255
3 255 256 286
3 255 286 285
3 285 286 316
3 285 316 315
3 315 316 347
3 315 347 346
3 346 347 377
3 346 377 376
3 376 377 407
3 376 407 406
3 406 407 437
3 406 437 436
3 436 437 467
3 436 467 466
3 466 467 498
3 466 498 497
3 497 498 528
3 497 528 527
3 527 528 558
3 527 558 557
3 557 558 588
3 557 588 587
3 587 588 618
3 587 618 617
3 617 618 649
3 617 649 648
3 648 649 679
3 648 679 678
3 678 679 709
3 678 709 708
3 708 709 739
3 708 739 738
3 738 739 769
3 738 769 768
3 768 769 800
3 768 800 799
3 799 800 830
3 799 830 829
3 829 830 860
3 829 860 859
3 859 860 890
3 859 890 889
3 14 15 46
3 14 46 45
3 45 46 76
3 45 76 75
3 75 76 106
3 75 106 105
3 105 106 136
3 105 136 135
3 135 136 166
3 135 166 165
3 165 166 197
3 165 197 196
3 196 197 227
3 196 227 226
3 226 227 257
3 226 257 256
3 256 257 287
3 256 287 286
3 286 287 317
3 286 317 316
3 316 317 348
3 316 348 347
3 347 348 378
3 347 378 377
3 377 378 408
3 377 408 407
3 407 408 438
3 407 438 437
3 437 438 468
3 437 468 467
3 467 468 499
3 467 499 498
3 498 499 529
3 498 529 528
3 528 529 559
3 528 559 558
3 558 559 589
3 558 589 588
3 588 589 619
3 588 619 618
3 618 619 650
3 618 650 649
3 649 650 680
3 649 680 679
3 679 680 710
3 679 710 709
3 709 710 740
3 709 740 739
3 739 740 770
3 739 770 769
3 769 770 801
3 769 801 800
3 800 801 831
3 800 831 830
3 830 831 861
3 830 861 860
3 860 861 891
3 860 891 890
3 15 16 47
3 15 47 46
3 46 47 77
3 46 77 76
3 76 77 107
3 76 107 106
3 106 107 137
3 106 137 136
3 136 137 167
3 136 167 166
3 166 167 198
3 166 198 197
3 197 198 228
3 197 228 227
3 227 228 258
3 227 258 257
3 257 258 288
3 257 288 287
3 287 288 318
3 287 318 317
3 317 318 349
3 317 349 348
3 348 349 379
3 348 379 378
3 378 379 409
3 378 409 408
3 408 409 439
3 408 439 438
3 438 439 469
3 438 469 468
3 468 469 500
3 468 500 499
3 499 500 530
3 499 530 529
3 529 530 560
3 529 560 559
3 559 560 590
3 559 590 589
3 589 590 620
3 589 620 619
3 619 620 651
3 619 651 650
3 650 651 681
3 650 681 680
3 680 681 711
3 680 711 710
3 710 711 741
3 710 741 740
3 740 741 771
3 740 771 770
3 770 771 802
3 770 802 801
3 801 802 832
3 801 832 831
3 831 832 862
3 831 862 861
3 861 862 892
3 861 892 891
3 16 17 48
3 16 48 47
3 47 48 78
3 47 78 77
3 77 78 108
3 77 108 107
3 107 108 138
3 107 138 137
3 137 138 168
3 137 168 167
3 167 168 199
3 167 199 198
3 198 199 229
3 198 229 228
3 228 229 259
3 228 259 258
3 258 259 289
3 258 289 288
3 288 289 319
3 288 319 318
3 318 319 350
3 318 350 349
3 349 350 380
3 349 380 379
3 379 380 410
3 379 410 409
3 409 410 440
3 409 440 439
3 439 440 470
3 439 470 469
3 469 470 501
3 469 501 500
3 500 501 531
3 500 531 530
3 530 531 561
3 530 561 560
3 560 561 591
3 560 591 590
3 590 591 621
3 590 621 620
3 620 621 652
3 620 652 651
3 651 652 682
3 651 682 681
3 681 682 712
3 681 712 711
3 711 712 742
3 711 742 741
3 741 742 772
3 741 772 771
3 771 772 803
3 771 803 802
3 802 803 833
3 802 833 832
3 832 833 863
3 832 863 862
3 862 863 893
3 862 893 892
3 17 18 49
3 17 49 48
3 48 49 79
3 48 79 78
3 78 79 109
3 78 109 108
3 108 109 139
3 108 139 138
3 138 139 169
3 138 169 168
3 168 169 200
3 168 200 199
3 199 200 230
3 199 230 229
3 229 230 260
3 229 260 259
3 259 260 290
3 259 290 289
3 289 290 320
3 289 320 319
3 319 320 351
3 319 351 350
3 350 351 381
3 350 381 380
3 380 381 411
3 380 411 410
3 410 411 441
3 410 441 440
3 440 441 471
3 440 471 470
3 470 471 502
3 470 502 501
3 501 502 532
3 501 532 531
3 531 532 562
3 531 562 561
3 561 562 592
3 561 592 591
3 591 592 622
3 591 622 621
3 621 622 653
3 621 653 652
3 652 653 683
3 652 683 682
3 682 683 713
3 682 713 712
3 712 713 743
3 712 743 742
3 742 743 773
3 742 773 772
3 772 773 804
3 772 804 803
3 803 804 834
3 803 834 833
3 833 834 864
3 833 864 863
3 863 864 894
3 863 894 893
3 18 19 50
3 18 50 49
3 49 50 80
3 49 80 79
3 79 80 110
3 79 110 109
3 109 110 140
3 109 140 139
3 139 140 170
3 139 170 169
3 169 170 201
3 169 201 200
3 200 201 231
3 200 231 230
3 230 231 261
3 230 261 260
3 260 261 291
3 260 291 290
3 290 291 321
3 290 321 320
3 320 321 352
3 320 352 351
3 351 352 382
3 351 382 381
3 381 382 412
3 381 412 411
3 411 412 442
3 411 442 441
3 441 442 472
3 441 472 471
3 471 472 503
3 471 503 502
3 502 503 533
3 502 533 532
3 532 533 563
3 532 563 562
3 562 563 593
3 562 593 592
3 592 593 623
3 592 623 622
3 622 623 654
3 622 654 653
3 653 654 684
3 653 684 683
3 683 684 714
3 683 714 713
3 713 714 744
3 713 744 743
3 743 744 774
3 743 774 773
3 773 774 805
3 773 805 804
3 804 805 835
3 804 835 834
3 834 835 865
3 834 865 864
3 864 865 895
3 864 895 894
3 19 20 51
3 19 51 50
3 50 51 81
3 50 81 80
3 80 81 111
3 80 111 110
3 110 111 141
3 110 141 140
3 140 141 171
3 140 171 170
3 170 171 202
3 170 202 201
3 201 202 232
3 201 232 231
3 231 232 262
3 231 262 261
3 261 262 292
3 261 292 291
3 291 292 322
3 291 322 321
3 321 322 353
3 321 353 352
3 352 353 383
3 352 383 382
3 382 383 413
3 382 413 412
3 412 413 443
3 412 443 442
3 442 443 473
3 442 473 472
3 472 473 504
3 472 504 503
3 503 504 534
3 503 534 533
3 533 534 564
3 533 564 563
3 563 564 594
3 563 594 593
3 593 594 624
3 593 624 623
3 623 624 655
3 623 655 654
3 654 655 685
3 654 685 684
3 684 685 715
3 684 715 714
3 714 715 745
3 714 745 744
3 744 745 775
3 744 775 774
3 774 775 806
3 774 806 805
3 805 806 836
3 805 836 835
3 835 836 866
3 835 866 865
3 865 866 896
3 865 896 895
3 20 21 52
3 20 52 51
3 51 52 82
3 51 82 81
3 81 82 112
3 81 112 111
3 111 112 142
3 111 142 141
3 141 142 172
3 141 172 171
3 171 172 203
3 171 203 202
3 202 203 233
3 202 233 232
3 232 233 263
3 232 263 262
3 262 263 293
3 262 293 292
3 292 293 323
3 292 323 322
3 322 323 354
3 322 354 353
3 353 354 384
3 353 384 383
3 383 384 414
3 383 414 413
3 413 414 444
3 413 444 443
3 443 444 474
3 443 474 473
3 473 474 505
3 473 505 504
3 504 505 535
3 504 535 534
3 534 535 565
3 534 565 564
3 564 565 595
3 564 595 594
3 594 595 625
3 594 625 624
3 624 625 656
3 624 656 655
3 655 656 686
3 655 686 685
3 685 686 716
3 685 716 715
3 715 716 746
3 715 746 745
3 745 746 776
3 745 776 775
3 775 776 807
3 775 807 806
3 806 807 837
3 806 837 836
3 836 837 867
3 836 867 866
3 866 867 897
3 866 897 896
3 21 22 53
3 21 53 52
3 52 53 83
3 52 83 82
3 82 83 113
3 82 113 112
3 112 113 143
3 112 143 142
3 142 143 173
3 142 173 172
3 172 173 204
3 172 204 203
3 203 204 234
3 203 234 233
3 233 234 264
3 233 264 263
3 263 264 294
3 263 294 293
3 293 294 324
3 293 324 323
3 323 324 355
3 323 355 354
3 354 355 385
3 354 385 384
3 384 385 415
3 384 415 414
3 414 415 445
3 414 445 444
3 444 445 475
3 444 475 474
3 474 475 506
3 474 506 505
3 505 506 536
3 505 536 535
3 535 536 566
3 535 566 565
3 565 566 596
3 565 596 595
3 595 596 626
3 595 626 625
3 625 626 657
3 625 657 656
3 656 657 687
3 656 687 686
3 686 687 717
3 686 717 716
3 716 717 747
3 716 747 746
3 746 747 777
3 746 777 776
3 776 777 808
3 776 808 807
3 807 808 838
3 807 838 837
3 837 838 868
3 837 868 867
3 867 868 898
3 867 898 897
3 22 23 54
3 22 54 53
3 53 54 84
3 53 84 83
3 83 84 114
3 83 114 113
3 113 114 144
3 113 144 143
3 143 144 174
3 143 174 173
3 173 174 205
3 173 205 204
3 204 205 235
3 204 235 234
3 234 235 265
3 234 265 264
3 264 265 295
3 264 295 294
3 294 295 325
3 294 325 324
3 324 325 356
3 324 356 355
3 355 356 386
3 355 386 385
3 385 386 416
3 385 416 415
3 415 416 446
3 415 446 445
3 445 446 476
3 445 476 475
3 475 476 507
3 475 507 506
3 506 507 537
3 506 537 536
3 536 537 567
3 536 567 566
3 566 567 597
3 566 597 596
3 596 597 627
3 596 627 626
3 626 627 658
3 626 658 657
3 657 658 688
3 657 688 687
3 687 688 718
3 687 718 717
3 717 718 748
3 717 748 747
3 747 748 778
3 747 778 777
3 777 778 809
3 777 809 808
3 808 809 839
3 808 839 838
3 838 839 869
3 838 869 868
3 868 869 899
3 868 899 898
3 23 24 55
3 23 55 54
3 54 55 85
3 54 85 84
3 84 85 115
3 84 115 114
3 114 115 145
3 114 145 144
3 144 145 175
3 144 175 174
3 174 175 206
3 174 206 205
3 205 206 236
3 205 236 235
3 235 236 266
3 235 266 265
3 265 266 296
3 265 296 295
3 295 296 326
3 295 326 325
3 325 326 357
3 325 357 356
3 356 357 387
3 356 387 386
3 386 387 417
3 386 417 416
3 416 417 447
3 416 447 446
3 446 447 477
3 446 477 476
3 476 477 508
3 476 508 507
3 507 508 538
3 507 538 537
3 537 538 568
3 537 568 567
3 567 568 598
3 567 598 597
3 597 598 628
3 597 628 627
3 627 628 659
3 627 659 658
3 658 659 689
3 658 689 688
3 688 689 719
3 688 719 718
3 718 719 749
3 718 749 748
3 748 749 779
3 748 779 778
3 778 779 810
3 778 810 809
3 809 810 840
3 809 840 839
3 839 840 870
3 839 870 869
3 869 870 900
3 869 900 899
3 24 25 56
3 24 56 55
3 55 56 86
3 55 86 85
3 85 86 116
3 85 116 115
3 115 116 146
3 115 146 145
3 145 146 176
3 145 176 175
3 175 176 207
3 175 207 206
3 206 207 237
3 206 237 236
3 236 237 267
3 236 267 266
3 266 267 297
3 266 297 296
3 296 297 327
3 296 327 326
3 326 327 358
3 326 358 357
3 357 358 388
3 357 388 387
3 387 388 418
3 387 418 417
3 417 418 448
3 417 448 447
3 447 448 478
3 447 478 477
3 477 478 509
3 477 509 508
3 508 509 539
3 508 539 538
3 538 539 569
3 538 569 568
3 568 569 599
3 568 599 598
3 598 599 629
3 598 629 628
3 628 629 660
3 628 660 659
3 659 660 690
3 659 690 689
3 689 690 720
3 689 720 719
3 719 720 750
3 719 750 749
3 749 750 780
3 749 780 779
3 779 780 811
3 779 811 810
3 810 811 841
3 810 841 840
3 840 841 871
3 840 871 870
3 870 871 901
3 870 901 900
3 25 26 57
3 25 57 56
3 56 57 87
3 56 87 86
3 86 87 117
3 86 117 116
3 116 117 147
3 116 147 146
3 146 147 177
3 146 177 176
3 176 177 208
3 176 208 207
3 207 208 238
3 207 238 237
3 237 238 268
3 237 268 267
3 267 268 298
3 267 298 297
3 297 298 328
3 297 328 327
3 327 328 359
3 327 359 358
3 358 359 389
3 358 389 388
3 388 389 419
3 388 419 418
3 418 419 449
3 418 449 448
3 448 449 479
3 448 479 478
3 478 479 510
3 478 510 509
3 509 510 540
3 509 540 539
3 539 540 570
3 539 570 569
3 569 570 600
3 569 600 599
3 599 600 630
3 599 630 629
3 629 630 661
3 629 661 660
3 660 661 691
3 660 691 690
3 690 691 721
3 690 721 720
3 720 721 751
3 720 751 750
3 750 751 781
3 750 781 780
3 780 781 812
3 780 812 811
3 811 812 842
3 811 842 841
3 841 842 872
3 841 872 871
3 871 872 902
3 871 902 901
3 26 27 58
3 26 58 57
3 57 58 88
3 57 88 87
3 87 88 118
3 87 118 117
3 117 118 148
3 117 148 147
3 147 148 178
3 147 178 177
3 177 178 209
3 177 209 208
3 208 209 239
3 208 239 238
3 238 239 269
3 238 269 268
3 268 269 299
3 268 299 298
3 298 299 329
3 298 329 328
3 328 329 360
3 328 360 359
3 359 360 390
3 359 390 389
3 389 390 420
3 389 420 419
3 419 420 450
3 419 450 449
3 449 450 480
3 449 480 479
3 479 480 511
3 479 511 510
3 510 511 541
3 510 541 540
3 540 541 571
3 540 571 570
3 570 571 601
3 570 601 600
3 600 601 631
3 600 631 630
3 630 631 662
3 630 662 661
3 661 662 692
3 661 692 691
3 691 692 722
3 691 722 721
3 721 722 752
3 721 752 751
3 751 752 782
3 751 782 781
3 781 782 813
3 781 813 812
3 812 813 843
3 812 843 842
3 842 843 873
3 842 873 872
3 872 873 903
3 872 903 902
3 27 28 59
3 27 59 58
3 58 59 89
3 58 89 88
3 88 89 119
3 88 119 118
3 118 119 149
3 118 149 148
3 148 149 179
3 148 179 178
3 178 179 210
3 178 210 209
3 209 210 240
3 209 240 239
3 239 240 270
3 239 270 269
3 269 270 300
3 269 300 299
3 299 300 330
3 299 330 329
3 329 330 361
3 329 361 360
3 360 361 391
3 360 391 390
3 390 391 421
3 390 421 420
3 420 421 451
3 420 451 450
3 450 451 481
3 450 481 480
3 480 481 512
3 480 512 511
3 511 512 542
3 511 542 541
3 541 542 572
3 541 572 571
3 571 572 602
3 571 602 601
3 601 602 632
3 601 632 631
3 631 632 663
3 631 663 662
3 662 663 693
3 662 693 692
3 692 693 723
3 692 723 722
3 722 723 753
3 722 753 752
3 752 753 783
3 752 783 782
3 782 783 814
3 782 814 813
3 813 814 844
3 813 844 843
3 843 844 874
3 843 874 873
3 873 874 904
3 873 904 903
3 28 29 60
3 28 60 59
3 59 60 90
3 59 90 89
3 89 90 120
3 89 120 119
3 119 120 150
3 119 150 149
3 149 150 180
3 149 180 179
3 179 180 211
3 179 211 210
3 210 211 241
3 210 241 240
3 240 241 271
3 240 271 270
3 270 271 301
3 270 301 300
3 300 301 331
3 300 331 330
3 330 331 362
3 330 362 361
3 361 362 392
3 361 392 391
3 391 392 422
3 391 422 421
3 421 422 452
3 421 452 451
3 451 452 482
3 451 482 481
3 481 482 513
3 481 513 512
3 512 513 543
3 512 543 542
3 542 543 573
3 542 573 572
3 572 573 603
3 572 603 602
3 602 603 633
3 602 633 632
3 632 633 664
3 632 664 663
3 663 664 694
3 663 694 693
3 693 694 724
3 693 724 723
3 723 724 754
3 723 754 753
3 753 754 784
3 753 784 783
3 783 784 815
3 783 815 814
3 814 815 845
3 814 845 844
3 844 845 875
3 844 875 874
3 874 875 905
3 874 905 904
3 29 30 60
3 60 30 90
3 90 30 120
3 120 30 150
3 150 30 181
3 150 181 180
3 180 181 211
3 211 181 241
3 241 181 271
3 271 181 301
3 301 181 332
3 301 332 331
3 331 332 362
3 362 332 392
3 392 332 422
3 422 332 452
3 452 332 483
3 452 483 482
3 482 483 513
3 513 483 543
3 543 483 573
3 573 483 603
3 603 483 634
3 603 634 633
3 633 634 664
3 664 634 694
3 694 634 724
3 724 634 754
3 754 634 785
3 754 785 784
3 784 785 815
3 815 785 845
3 845 785 875
3 875 785 906
3 875 906 905
