ply
format ascii 1.0
comment Created by Open3D
element vertex 105
property double x
property double y
property double z
element face 177
property list uchar uint vertex_indices
end_header
0 1 1
0.01 1 1
0.02 1 1
0.03 1 1
0.04 1 1
0.05 1 1
0.06 1 1
0.07 1 1
0.08 1 1
0.09 1 1
0.1 1 1
0.0166667 1 1
0.025 1 0.991346
0.0333333 1 0.982692
0.0416667 1 0.974038
0.05 1 0.965385
0.0583333 1 0.956731
0.0666667 1 0.948077
0.075 1 0.939423
0.0833333 1 0.930769
0.0916667 1 0.922115
0.1 1 0.913462
0.0333333 1 1
0.04 1 0.980962
0.0466667 1 0.961923
0.0533333 1 0.942885
0.06 1 0.923846
0.0666667 1 0.904808
0.0733333 1 0.885769
0.08 1 0.866731
0.0866667 1 0.847692
0.0933333 1 0.828654
0.1 1 0.809615
0.04 1 0.970577
0.0466667 1 0.941154
0.0533333 1 0.911731
0.06 1 0.882308
0.0666667 1 0.852885
0.0733333 1 0.823462
0.08 1 0.794038
0.0866667 1 0.764615
0.0933333 1 0.735192
0.1 1 0.705769
0.05 1 1
0.055 1 0.960192
0.06 1 0.920385
0.065 1 0.880577
0.07 1 0.840769
0.075 1 0.800962
0.08 1 0.761154
0.085 1 0.721346
0.09 1 0.681538
0.095 1 0.641731
0.1 1 0.601923
0.0666667 1 1
0.07 1 0.951538
0.0733333 1 0.903077
0.0766667 1 0.854615
0.08 1 0.806154
0.0833333 1 0.757692
0.0866667 1 0.709231
0.09 1 0.660769
0.0933333 1 0.612308
0.0966667 1 0.563846
0.1 1 0.515385
0.07 1 0.941154
0.0733333 1 0.882308
0.0766667 1 0.823462
0.08 1 0.764615
0.0833333 1 0.705769
0.0866667 1 0.646923
0.09 1 0.588077
0.0933333 1 0.529231
0.0966667 1 0.470385
0.1 1 0.411538
0.0833333 1 1
0.085 1 0.930769
0.0866667 1 0.861538
0.0883333 1 0.792308
0.09 1 0.723077
0.0916667 1 0.653846
0.0933333 1 0.584615
0.095 1 0.515385
0.0966667 1 0.446154
0.0983333 1 0.376923
0.1 1 0.307692
0.1 1 0.920385
0.1 1 0.840769
0.1 1 0.761154
0.1 1 0.681538
0.1 1 0.522308
0.1 1 0.442692
0.1 1 0.363077
0.1 1 0.283462
0.1 1 0.203846
0.1 1 0.91
0.1 1 0.82
0.1 1 0.73
0.1 1 0.64
0.1 1 0.55
0.1 1 0.46
0.1 1 0.37
0.1 1 0.28
0.1 1 0.19
0.1 1 0.1
3 0 1 12
3 0 12 11
3 11 12 23
3 11 23 22
3 22 23 33
3 22 33 44
3 22 44 43
3 43 44 55
3 43 55 54
3 54 55 65
3 54 65 76
3 54 76 75
3 75 76 86
3 75 86 10
3 10 86 95
3 1 2 13
3 1 13 12
3 12 13 24
3 12 24 23
3 23 24 34
3 23 34 33
3 33 34 45
3 33 45 44
3 44 45 56
3 44 56 55
3 55 56 66
3 55 66 65
3 65 66 77
3 65 77 76
3 76 77 87
3 76 87 86
3 86 87 96
3 86 96 95
3 2 3 14
3 2 14 13
3 13 14 25
3 13 25 24
3 24 25 35
3 24 35 34
3 34 35 46
3 34 46 45
3 45 46 57
3 45 57 56
3 56 57 67
3 56 67 66
3 66 67 78
3 66 78 77
3 77 78 88
3 77 88 87
3 87 88 97
3 87 97 96
3 3 4 15
3 3 15 14
3 14 15 26
3 14 26 25
3 25 26 36
3 25 36 35
3 35 36 47
3 35 47 46
3 46 47 58
3 46 58 57
3 57 58 68
3 57 68 67
3 67 68 79
3 67 79 78
3 78 79 89
3 78 89 88
3 88 89 98
3 88 98 97
3 4 5 16
3 4 16 15
3 15 16 27
3 15 27 26
3 26 27 37
3 26 37 36
3 36 37 48
3 36 48 47
3 47 48 59
3 47 59 58
3 58 59 69
3 58 69 68
3 68 69 80
3 68 80 79
3 79 80 53
3 79 53 89
3 89 53 99
3 89 99 98
3 5 6 17
3 5 17 16
3 16 17 28
3 16 28 27
3 27 28 38
3 27 38 37
3 37 38 49
3 37 49 48
3 48 49 60
3 48 60 59
3 59 60 70
3 59 70 69
3 69 70 81
3 69 81 80
3 80 81 90
3 80 90 53
3 53 90 100
3 53 100 99
3 6 7 18
3 6 18 17
3 17 18 29
3 17 29 28
3 28 29 39
3 28 39 38
3 38 39 50
3 38 50 49
3 49 50 61
3 49 61 60
3 60 61 71
3 60 71 70
3 70 71 82
3 70 82 81
3 81 82 91
3 81 91 90
3 90 91 101
3 90 101 100
3 7 8 19
3 7 19 18
3 18 19 30
3 18 30 29
3 29 30 40
3 29 40 39
3 39 40 51
3 39 51 50
3 50 51 62
3 50 62 61
3 61 62 72
3 61 72 71
3 71 72 83
3 71 83 82
3 82 83 92
3 82 92 91
3 91 92 102
3 91 102 101
3 8 9 20
3 8 20 19
3 19 20 31
3 19 31 30
3 30 31 41
3 30 41 40
3 40 41 52
3 40 52 51
3 51 52 63
3 51 63 62
3 62 63 73
3 62 73 72
3 72 73 84
3 72 84 83
3 83 84 93
3 83 93 92
3 92 93 103
3 92 103 102
3 9 10 21
3 9 21 20
3 20 21 32
3 20 32 31
3 31 32 42
3 31 42 41
3 41 42 53
3 41 53 52
3 52 53 64
3 52 64 63
3 63 64 74
3 63 74 73
3 73 74 85
3 73 85 84
3 84 85 94
3 84 94 93
3 93 94 104
3 93 104 103
