ply
format ascii 1.0
comment Created by Open3D
element vertex 107
property double x
property double y
property double z
element face 177
property list uchar uint vertex_indices
end_header
1 1 0.1
1 0.9 0.19
1 0.8 0.28
1 0.7 0.37
1 0.6 0.46
1 0.5 0.55
1 0.4 0.64
1 0.3 0.73
1 0.2 0.82
1 0.1 0.91
1 5.55112e-17 1
1 0.896154 0.1
1 0.806538 0.19
1 0.716923 0.28
1 0.627308 0.37
1 0.537692 0.46
1 0.448077 0.55
1 0.358462 0.64
1 0.268846 0.73
1 0.179231 0.82
1 0.0896154 0.91
1 0.792308 0.1
1 0.714744 0.19
1 0.637179 0.28
1 0.559615 0.37
1 0.482051 0.46
1 0.404487 0.55
1 0.326923 0.64
1 0.249359 0.73
1 0.171795 0.82
1 0.0942308 0.91
1 0.0166667 1
1 0.688462 0.1
1 0.622949 0.19
1 0.557436 0.28
1 0.491923 0.37
1 0.42641 0.46
1 0.360897 0.55
1 0.295385 0.64
1 0.229872 0.73
1 0.164359 0.82
1 0.0988462 0.91
1 0.0333333 1
1 0.584615 0.1
1 0.529487 0.19
1 0.474359 0.28
1 0.419231 0.37
1 0.364103 0.46
1 0.308974 0.55
1 0.253846 0.64
1 0.198718 0.73
1 0.14359 0.82
1 0.0884615 0.91
1 0.498077 0.1
1 0.453269 0.19
1 0.408462 0.28
1 0.363654 0.37
1 0.318846 0.46
1 0.274038 0.55
1 0.229231 0.64
1 0.184423 0.73
1 0.139615 0.82
1 0.0948077 0.91
1 0.05 1
1 0.394231 0.1
1 0.361474 0.19
1 0.328718 0.28
1 0.295962 0.37
1 0.263205 0.46
1 0.230449 0.55
1 0.197692 0.64
1 0.164936 0.73
1 0.132179 0.82
1 0.0994231 0.91
1 0.0666667 1
1 0.290385 0.1
1 0.268013 0.19
1 0.245641 0.28
1 0.223269 0.37
1 0.200897 0.46
1 0.178526 0.55
1 0.156154 0.64
1 0.133782 0.73
1 0.11141 0.82
1 0.0890385 0.91
1 0.186538 0.1
1 0.176218 0.19
1 0.165897 0.28
1 0.155577 0.37
1 0.145256 0.46
1 0.134936 0.55
1 0.124615 0.64
1 0.114295 0.73
1 0.103974 0.82
1 0.0936538 0.91
1 0.0833333 1
1 0.1 0.1
1 0.1 0.19
1 0.1 0.28
1 0.1 0.37
1 0.1 0.46
1 0.1 0.55
1 0.1 0.64
1 0.1 0.73
1 0.1 0.82
1 0.1 0.91
1 0.1 1
3 0 1 12
3 0 12 11
3 11 12 22
3 11 22 21
3 21 22 33
3 21 33 32
3 32 33 44
3 32 44 43
3 43 44 54
3 43 54 53
3 53 54 65
3 53 65 64
3 64 65 76
3 64 76 75
3 75 76 86
3 75 86 85
3 85 86 97
3 85 97 96
3 1 2 13
3 1 13 12
3 12 13 23
3 12 23 22
3 22 23 34
3 22 34 33
3 33 34 45
3 33 45 44
3 44 45 55
3 44 55 54
3 54 55 66
3 54 66 65
3 65 66 77
3 65 77 76
3 76 77 87
3 76 87 86
3 86 87 98
3 86 98 97
3 2 3 14
3 2 14 13
3 13 14 24
3 13 24 23
3 23 24 35
3 23 35 34
3 34 35 46
3 34 46 45
3 45 46 56
3 45 56 55
3 55 56 67
3 55 67 66
3 66 67 78
3 66 78 77
3 77 78 88
3 77 88 87
3 87 88 99
3 87 99 98
3 3 4 15
3 3 15 14
3 14 15 25
3 14 25 24
3 24 25 36
3 24 36 35
3 35 36 47
3 35 47 46
3 46 47 57
3 46 57 56
3 56 57 68
3 56 68 67
3 67 68 79
3 67 79 78
3 78 79 89
3 78 89 88
3 88 89 100
3 88 100 99
3 4 5 16
3 4 16 15
3 15 16 26
3 15 26 25
3 25 26 37
3 25 37 36
3 36 37 48
3 36 48 47
3 47 48 58
3 47 58 57
3 57 58 69
3 57 69 68
3 68 69 80
3 68 80 79
3 79 80 90
3 79 90 89
3 89 90 101
3 89 101 100
3 5 6 17
3 5 17 16
3 16 17 27
3 16 27 26
3 26 27 38
3 26 38 37
3 37 38 49
3 37 49 48
3 48 49 59
3 48 59 58
3 58 59 70
3 58 70 69
3 69 70 81
3 69 81 80
3 80 81 91
3 80 91 90
3 90 91 102
3 90 102 101
3 6 7 18
3 6 18 17
3 17 18 28
3 17 28 27
3 27 28 39
3 27 39 38
3 38 39 50
3 38 50 49
3 49 50 60
3 49 60 59
3 59 60 71
3 59 71 70
3 70 71 82
3 70 82 81
3 81 82 92
3 81 92 91
3 91 92 103
3 91 103 102
3 7 8 19
3 7 19 18
3 18 19 29
3 18 29 28
3 28 29 40
3 28 40 39
3 39 40 51
3 39 51 50
3 50 51 61
3 50 61 60
3 60 61 72
3 60 72 71
3 71 72 83
3 71 83 82
3 82 83 93
3 82 93 92
3 92 93 104
3 92 104 103
3 8 9 20
3 8 20 19
3 19 20 30
3 19 30 29
3 29 30 41
3 29 41 40
3 40 41 52
3 40 52 51
3 51 52 62
3 51 62 61
3 61 62 73
3 61 73 72
3 72 73 84
3 72 84 83
3 83 84 94
3 83 94 93
3 93 94 105
3 93 105 104
3 9 10 20
3 20 10 31
3 20 31 30
3 30 31 42
3 30 42 41
3 41 42 52
3 52 42 63
3 52 63 62
3 62 63 74
3 62 74 73
3 73 74 84
3 84 74 95
3 84 95 94
3 94 95 106
3 94 106 105
