ply
format ascii 1.0
comment Created by Open3D
element vertex 910
property double x
property double y
property double z
element face 1714
property list uchar uint vertex_indices
end_header
1 1 0.1
0.97 0.97 0.1
0.94 0.94 0.1
0.91 0.91 0.1
0.88 0.88 0.1
0.85 0.85 0.1
0.82 0.82 0.1
0.79 0.79 0.1
0.76 0.76 0.1
0.73 0.73 0.1
0.7 0.7 0.1
0.67 0.67 0.1
0.64 0.64 0.1
0.61 0.61 0.1
0.58 0.58 0.1
0.55 0.55 0.1
0.52 0.52 0.1
0.49 0.49 0.1
0.46 0.46 0.1
0.43 0.43 0.1
0.4 0.4 0.1
0.37 0.37 0.1
0.34 0.34 0.1
0.31 0.31 0.1
0.28 0.28 0.1
0.25 0.25 0.1
0.22 0.22 0.1
0.19 0.19 0.1
0.16 0.16 0.1
0.13 0.13 0.1
0.1 0.1 0.1
1 0.965385 0.1
0.97 0.937115 0.1
0.94 0.908846 0.1
0.91 0.880577 0.1
0.88 0.852308 0.1
0.85 0.824038 0.1
0.82 0.795769 0.1
0.79 0.7675 0.1
0.76 0.739231 0.1
0.73 0.710962 0.1
0.7 0.682692 0.1
0.67 0.654423 0.1
0.64 0.626154 0.1
0.61 0.597885 0.1
0.58 0.569615 0.1
0.55 0.541346 0.1
0.52 0.513077 0.1
0.49 0.484808 0.1
0.46 0.456538 0.1
0.43 0.428269 0.1
0.4 0.4 0.1
0.37 0.371731 0.1
0.34 0.343462 0.1
0.31 0.315192 0.1
0.28 0.286923 0.1
0.25 0.258654 0.1
0.22 0.230385 0.1
0.19 0.202115 0.1
0.16 0.173846 0.1
0.13 0.145577 0.1
0.1 0.117308 0.1
1 0.930769 0.1
0.97 0.904808 0.1
0.94 0.878846 0.1
0.91 0.852885 0.1
0.88 0.826923 0.1
0.85 0.800962 0.1
0.82 0.775 0.1
0.79 0.749038 0.1
0.76 0.723077 0.1
0.73 0.697115 0.1
0.7 0.671154 0.1
0.67 0.645192 0.1
0.64 0.619231 0.1
0.61 0.593269 0.1
0.58 0.567308 0.1
0.55 0.541346 0.1
0.52 0.515385 0.1
0.49 0.489423 0.1
0.46 0.463462 0.1
0.43 0.4375 0.1
0.4 0.411538 0.1
0.37 0.385577 0.1
0.34 0.359615 0.1
0.31 0.333654 0.1
0.28 0.307692 0.1
0.25 0.281731 0.1
0.22 0.255769 0.1
0.19 0.229808 0.1
0.16 0.203846 0.1
0.13 0.177885 0.1
0.1 0.151923 0.1
1 0.896154 0.1
0.97 0.8725 0.1
0.94 0.848846 0.1
0.91 0.825192 0.1
0.88 0.801538 0.1
0.85 0.777885 0.1
0.82 0.754231 0.1
0.79 0.730577 0.1
0.76 0.706923 0.1
0.73 0.683269 0.1
0.7 0.659615 0.1
0.67 0.635962 0.1
0.64 0.612308 0.1
0.61 0.588654 0.1
0.58 0.565 0.1
0.52 0.517692 0.1
0.49 0.494038 0.1
0.46 0.470385 0.1
0.43 0.446731 0.1
0.4 0.423077 0.1
0.37 0.399423 0.1
0.34 0.375769 0.1
0.31 0.352115 0.1
0.28 0.328462 0.1
0.25 0.304808 0.1
0.22 0.281154 0.1
0.19 0.2575 0.1
0.16 0.233846 0.1
0.13 0.210192 0.1
0.1 0.186538 0.1
1 0.861538 0.1
0.97 0.840192 0.1
0.94 0.818846 0.1
0.91 0.7975 0.1
0.88 0.776154 0.1
0.85 0.754808 0.1
0.82 0.733462 0.1
0.79 0.712115 0.1
0.76 0.690769 0.1
0.73 0.669423 0.1
0.7 0.648077 0.1
0.67 0.626731 0.1
0.64 0.605385 0.1
0.61 0.584038 0.1
0.58 0.562692 0.1
0.55 0.541346 0.1
0.52 0.52 0.1
0.49 0.498654 0.1
0.46 0.477308 0.1
0.43 0.455962 0.1
0.4 0.434615 0.1
0.37 0.413269 0.1
0.34 0.391923 0.1
0.31 0.370577 0.1
0.28 0.349231 0.1
0.25 0.327885 0.1
0.22 0.306538 0.1
0.19 0.285192 0.1
0.16 0.263846 0.1
0.13 0.2425 0.1
0.1 0.221154 0.1
1 0.844231 0.1
0.97 0.824038 0.1
0.94 0.803846 0.1
0.91 0.783654 0.1
0.88 0.763462 0.1
0.85 0.743269 0.1
0.82 0.723077 0.1
0.79 0.702885 0.1
0.76 0.682692 0.1
0.73 0.6625 0.1
0.7 0.642308 0.1
0.67 0.622115 0.1
0.64 0.601923 0.1
0.61 0.581731 0.1
0.58 0.561538 0.1
0.55 0.541346 0.1
0.52 0.521154 0.1
0.49 0.500962 0.1
0.46 0.480769 0.1
0.43 0.460577 0.1
0.4 0.440385 0.1
0.37 0.420192 0.1
0.34 0.4 0.1
0.31 0.379808 0.1
0.28 0.359615 0.1
0.25 0.339423 0.1
0.22 0.319231 0.1
0.19 0.299038 0.1
0.16 0.278846 0.1
0.13 0.258654 0.1
0.1 0.238462 0.1
1 0.809615 0.1
0.97 0.791731 0.1
0.94 0.773846 0.1
0.91 0.755962 0.1
0.88 0.738077 0.1
0.85 0.720192 0.1
0.82 0.702308 0.1
0.79 0.684423 0.1
0.76 0.666538 0.1
0.73 0.648654 0.1
0.7 0.630769 0.1
0.67 0.612885 0.1
0.64 0.595 0.1
0.61 0.577115 0.1
0.58 0.559231 0.1
0.52 0.523462 0.1
0.49 0.505577 0.1
0.46 0.487692 0.1
0.43 0.469808 0.1
0.4 0.451923 0.1
0.37 0.434038 0.1
0.34 0.416154 0.1
0.31 0.398269 0.1
0.28 0.380385 0.1
0.25 0.3625 0.1
0.22 0.344615 0.1
0.19 0.326731 0.1
0.16 0.308846 0.1
0.13 0.290962 0.1
0.1 0.273077 0.1
1 0.775 0.1
0.97 0.759423 0.1
0.94 0.743846 0.1
0.91 0.728269 0.1
0.88 0.712692 0.1
0.85 0.697115 0.1
0.82 0.681538 0.1
0.79 0.665962 0.1
0.76 0.650385 0.1
0.73 0.634808 0.1
0.7 0.619231 0.1
0.67 0.603654 0.1
0.64 0.588077 0.1
0.61 0.5725 0.1
0.58 0.556923 0.1
0.52 0.525769 0.1
0.49 0.510192 0.1
0.46 0.494615 0.1
0.43 0.479038 0.1
0.4 0.463462 0.1
0.37 0.447885 0.1
0.34 0.432308 0.1
0.31 0.416731 0.1
0.28 0.401154 0.1
0.25 0.385577 0.1
0.22 0.37 0.1
0.19 0.354423 0.1
0.16 0.338846 0.1
0.13 0.323269 0.1
0.1 0.307692 0.1
1 0.740385 0.1
0.97 0.727115 0.1
0.94 0.713846 0.1
0.91 0.700577 0.1
0.88 0.687308 0.1
0.85 0.674038 0.1
0.82 0.660769 0.1
0.79 0.6475 0.1
0.76 0.634231 0.1
0.73 0.620962 0.1
0.7 0.607692 0.1
0.67 0.594423 0.1
0.64 0.581154 0.1
0.61 0.567885 0.1
0.58 0.554615 0.1
0.55 0.541346 0.1
0.52 0.528077 0.1
0.49 0.514808 0.1
0.46 0.501538 0.1
0.43 0.488269 0.1
0.4 0.475 0.1
0.37 0.461731 0.1
0.34 0.448462 0.1
0.31 0.435192 0.1
0.28 0.421923 0.1
0.25 0.408654 0.1
0.22 0.395385 0.1
0.19 0.382115 0.1
0.16 0.368846 0.1
0.13 0.355577 0.1
0.1 0.342308 0.1
1 0.705769 0.1
0.97 0.694808 0.1
0.94 0.683846 0.1
0.91 0.672885 0.1
0.88 0.661923 0.1
0.85 0.650962 0.1
0.82 0.64 0.1
0.79 0.629038 0.1
0.76 0.618077 0.1
0.73 0.607115 0.1
0.7 0.596154 0.1
0.67 0.585192 0.1
0.64 0.574231 0.1
0.61 0.563269 0.1
0.58 0.552308 0.1
0.55 0.541346 0.1
0.52 0.530385 0.1
0.49 0.519423 0.1
0.46 0.508462 0.1
0.43 0.4975 0.1
0.4 0.486538 0.1
0.37 0.475577 0.1
0.34 0.464615 0.1
0.31 0.453654 0.1
0.28 0.442692 0.1
0.25 0.431731 0.1
0.22 0.420769 0.1
0.19 0.409808 0.1
0.16 0.398846 0.1
0.13 0.387885 0.1
0.1 0.376923 0.1
1 0.688462 0.1
0.97 0.678654 0.1
0.94 0.668846 0.1
0.91 0.659038 0.1
0.88 0.649231 0.1
0.85 0.639423 0.1
0.82 0.629615 0.1
0.79 0.619808 0.1
0.76 0.61 0.1
0.73 0.600192 0.1
0.7 0.590385 0.1
0.67 0.580577 0.1
0.64 0.570769 0.1
0.61 0.560962 0.1
0.58 0.551154 0.1
0.55 0.541346 0.1
0.52 0.531538 0.1
0.49 0.521731 0.1
0.46 0.511923 0.1
0.43 0.502115 0.1
0.4 0.492308 0.1
0.37 0.4825 0.1
0.34 0.472692 0.1
0.31 0.462885 0.1
0.28 0.453077 0.1
0.25 0.443269 0.1
0.22 0.433462 0.1
0.19 0.423654 0.1
0.16 0.413846 0.1
0.13 0.404038 0.1
0.1 0.394231 0.1
1 0.653846 0.1
0.97 0.646346 0.1
0.94 0.638846 0.1
0.91 0.631346 0.1
0.88 0.623846 0.1
0.85 0.616346 0.1
0.82 0.608846 0.1
0.79 0.601346 0.1
0.76 0.593846 0.1
0.73 0.586346 0.1
0.7 0.578846 0.1
0.67 0.571346 0.1
0.64 0.563846 0.1
0.61 0.556346 0.1
0.58 0.548846 0.1
0.55 0.541346 0.1
0.52 0.533846 0.1
0.49 0.526346 0.1
0.46 0.518846 0.1
0.43 0.511346 0.1
0.4 0.503846 0.1
0.37 0.496346 0.1
0.34 0.488846 0.1
0.31 0.481346 0.1
0.28 0.473846 0.1
0.25 0.466346 0.1
0.22 0.458846 0.1
0.19 0.451346 0.1
0.16 0.443846 0.1
0.13 0.436346 0.1
0.1 0.428846 0.1
1 0.619231 0.1
0.97 0.614038 0.1
0.94 0.608846 0.1
0.91 0.603654 0.1
0.88 0.598462 0.1
0.85 0.593269 0.1
0.82 0.588077 0.1
0.79 0.582885 0.1
0.76 0.577692 0.1
0.73 0.5725 0.1
0.7 0.567308 0.1
0.67 0.562115 0.1
0.64 0.556923 0.1
0.61 0.551731 0.1
0.58 0.546538 0.1
0.55 0.541346 0.1
0.52 0.536154 0.1
0.49 0.530962 0.1
0.46 0.525769 0.1
0.43 0.520577 0.1
0.4 0.515385 0.1
0.37 0.510192 0.1
0.34 0.505 0.1
0.31 0.499808 0.1
0.28 0.494615 0.1
0.25 0.489423 0.1
0.22 0.484231 0.1
0.19 0.479038 0.1
0.16 0.473846 0.1
0.13 0.468654 0.1
0.1 0.463462 0.1
1 0.584615 0.1
0.97 0.581731 0.1
0.94 0.578846 0.1
0.91 0.575962 0.1
0.88 0.573077 0.1
0.85 0.570192 0.1
0.82 0.567308 0.1
0.79 0.564423 0.1
0.76 0.561538 0.1
0.73 0.558654 0.1
0.7 0.555769 0.1
0.67 0.552885 0.1
0.64 0.55 0.1
0.61 0.547115 0.1
0.58 0.544231 0.1
0.52 0.538462 0.1
0.49 0.535577 0.1
0.46 0.532692 0.1
0.43 0.529808 0.1
0.4 0.526923 0.1
0.37 0.524038 0.1
0.34 0.521154 0.1
0.31 0.518269 0.1
0.28 0.515385 0.1
0.25 0.5125 0.1
0.22 0.509615 0.1
0.19 0.506731 0.1
0.16 0.503846 0.1
0.13 0.500962 0.1
0.1 0.498077 0.1
1 0.55 0.1
0.97 0.549423 0.1
0.94 0.548846 0.1
0.91 0.548269 0.1
0.88 0.547692 0.1
0.85 0.547115 0.1
0.82 0.546538 0.1
0.79 0.545962 0.1
0.76 0.545385 0.1
0.73 0.544808 0.1
0.7 0.544231 0.1
0.67 0.543654 0.1
0.64 0.543077 0.1
0.61 0.5425 0.1
0.58 0.541923 0.1
0.52 0.540769 0.1
0.49 0.540192 0.1
0.46 0.539615 0.1
0.43 0.539038 0.1
0.4 0.538462 0.1
0.37 0.537885 0.1
0.34 0.537308 0.1
0.31 0.536731 0.1
0.28 0.536154 0.1
0.25 0.535577 0.1
0.22 0.535 0.1
0.19 0.534423 0.1
0.16 0.533846 0.1
0.13 0.533269 0.1
0.1 0.532692 0.1
1 0.532692 0.1
0.97 0.533269 0.1
0.94 0.533846 0.1
0.91 0.534423 0.1
0.88 0.535 0.1
0.85 0.535577 0.1
0.82 0.536154 0.1
0.79 0.536731 0.1
0.76 0.537308 0.1
0.73 0.537885 0.1
0.7 0.538462 0.1
0.67 0.539038 0.1
0.64 0.539615 0.1
0.61 0.540192 0.1
0.58 0.540769 0.1
0.52 0.541923 0.1
0.49 0.5425 0.1
0.46 0.543077 0.1
0.43 0.543654 0.1
0.4 0.544231 0.1
0.37 0.544808 0.1
0.34 0.545385 0.1
0.31 0.545962 0.1
0.28 0.546538 0.1
0.25 0.547115 0.1
0.22 0.547692 0.1
0.19 0.548269 0.1
0.16 0.548846 0.1
0.13 0.549423 0.1
0.1 0.55 0.1
1 0.498077 0.1
0.97 0.500962 0.1
0.94 0.503846 0.1
0.91 0.506731 0.1
0.88 0.509615 0.1
0.85 0.5125 0.1
0.82 0.515385 0.1
0.79 0.518269 0.1
0.76 0.521154 0.1
0.73 0.524038 0.1
0.7 0.526923 0.1
0.67 0.529808 0.1
0.64 0.532692 0.1
0.61 0.535577 0.1
0.58 0.538462 0.1
0.52 0.544231 0.1
0.49 0.547115 0.1
0.46 0.55 0.1
0.43 0.552885 0.1
0.4 0.555769 0.1
0.37 0.558654 0.1
0.34 0.561538 0.1
0.31 0.564423 0.1
0.28 0.567308 0.1
0.25 0.570192 0.1
0.22 0.573077 0.1
0.19 0.575962 0.1
0.16 0.578846 0.1
0.13 0.581731 0.1
0.1 0.584615 0.1
1 0.463462 0.1
0.97 0.468654 0.1
0.94 0.473846 0.1
0.91 0.479038 0.1
0.88 0.484231 0.1
0.85 0.489423 0.1
0.82 0.494615 0.1
0.79 0.499808 0.1
0.76 0.505 0.1
0.73 0.510192 0.1
0.7 0.515385 0.1
0.67 0.520577 0.1
0.64 0.525769 0.1
0.61 0.530962 0.1
0.58 0.536154 0.1
0.52 0.546538 0.1
0.49 0.551731 0.1
0.46 0.556923 0.1
0.43 0.562115 0.1
0.4 0.567308 0.1
0.37 0.5725 0.1
0.34 0.577692 0.1
0.31 0.582885 0.1
0.28 0.588077 0.1
0.25 0.593269 0.1
0.22 0.598462 0.1
0.19 0.603654 0.1
0.16 0.608846 0.1
0.13 0.614038 0.1
0.1 0.619231 0.1
1 0.428846 0.1
0.97 0.436346 0.1
0.94 0.443846 0.1
0.91 0.451346 0.1
0.88 0.458846 0.1
0.85 0.466346 0.1
0.82 0.473846 0.1
0.79 0.481346 0.1
0.76 0.488846 0.1
0.73 0.496346 0.1
0.7 0.503846 0.1
0.67 0.511346 0.1
0.64 0.518846 0.1
0.61 0.526346 0.1
0.58 0.533846 0.1
0.52 0.548846 0.1
0.49 0.556346 0.1
0.46 0.563846 0.1
0.43 0.571346 0.1
0.4 0.578846 0.1
0.37 0.586346 0.1
0.34 0.593846 0.1
0.31 0.601346 0.1
0.28 0.608846 0.1
0.25 0.616346 0.1
0.22 0.623846 0.1
0.19 0.631346 0.1
0.16 0.638846 0.1
0.13 0.646346 0.1
0.1 0.653846 0.1
1 0.394231 0.1
0.97 0.404038 0.1
0.94 0.413846 0.1
0.91 0.423654 0.1
0.88 0.433462 0.1
0.85 0.443269 0.1
0.82 0.453077 0.1
0.79 0.462885 0.1
0.76 0.472692 0.1
0.73 0.4825 0.1
0.7 0.492308 0.1
0.67 0.502115 0.1
0.64 0.511923 0.1
0.61 0.521731 0.1
0.58 0.531538 0.1
0.52 0.551154 0.1
0.49 0.560962 0.1
0.46 0.570769 0.1
0.43 0.580577 0.1
0.4 0.590385 0.1
0.37 0.600192 0.1
0.34 0.61 0.1
0.31 0.619808 0.1
0.28 0.629615 0.1
0.25 0.639423 0.1
0.22 0.649231 0.1
0.19 0.659038 0.1
0.16 0.668846 0.1
0.13 0.678654 0.1
0.1 0.688462 0.1
1 0.376923 0.1
0.97 0.387885 0.1
0.94 0.398846 0.1
0.91 0.409808 0.1
0.88 0.420769 0.1
0.85 0.431731 0.1
0.82 0.442692 0.1
0.79 0.453654 0.1
0.76 0.464615 0.1
0.73 0.475577 0.1
0.7 0.486538 0.1
0.67 0.4975 0.1
0.64 0.508462 0.1
0.61 0.519423 0.1
0.58 0.530385 0.1
0.52 0.552308 0.1
0.49 0.563269 0.1
0.46 0.574231 0.1
0.43 0.585192 0.1
0.4 0.596154 0.1
0.37 0.607115 0.1
0.34 0.618077 0.1
0.31 0.629038 0.1
0.28 0.64 0.1
0.25 0.650962 0.1
0.22 0.661923 0.1
0.19 0.672885 0.1
0.16 0.683846 0.1
0.13 0.694808 0.1
0.1 0.705769 0.1
1 0.342308 0.1
0.97 0.355577 0.1
0.94 0.368846 0.1
0.91 0.382115 0.1
0.88 0.395385 0.1
0.85 0.408654 0.1
0.82 0.421923 0.1
0.79 0.435192 0.1
0.76 0.448462 0.1
0.73 0.461731 0.1
0.7 0.475 0.1
0.67 0.488269 0.1
0.64 0.501538 0.1
0.61 0.514808 0.1
0.58 0.528077 0.1
0.52 0.554615 0.1
0.49 0.567885 0.1
0.46 0.581154 0.1
0.43 0.594423 0.1
0.4 0.607692 0.1
0.37 0.620962 0.1
0.34 0.634231 0.1
0.31 0.6475 0.1
0.28 0.660769 0.1
0.25 0.674038 0.1
0.22 0.687308 0.1
0.19 0.700577 0.1
0.16 0.713846 0.1
0.13 0.727115 0.1
0.1 0.740385 0.1
1 0.307692 0.1
0.97 0.323269 0.1
0.94 0.338846 0.1
0.91 0.354423 0.1
0.88 0.37 0.1
0.85 0.385577 0.1
0.82 0.401154 0.1
0.79 0.416731 0.1
0.76 0.432308 0.1
0.73 0.447885 0.1
0.7 0.463462 0.1
0.67 0.479038 0.1
0.64 0.494615 0.1
0.61 0.510192 0.1
0.58 0.525769 0.1
0.52 0.556923 0.1
0.49 0.5725 0.1
0.46 0.588077 0.1
0.43 0.603654 0.1
0.4 0.619231 0.1
0.37 0.634808 0.1
0.34 0.650385 0.1
0.31 0.665962 0.1
0.28 0.681538 0.1
0.25 0.697115 0.1
0.22 0.712692 0.1
0.19 0.728269 0.1
0.16 0.743846 0.1
0.13 0.759423 0.1
0.1 0.775 0.1
1 0.273077 0.1
0.97 0.290962 0.1
0.94 0.308846 0.1
0.91 0.326731 0.1
0.88 0.344615 0.1
0.85 0.3625 0.1
0.82 0.380385 0.1
0.79 0.398269 0.1
0.76 0.416154 0.1
0.73 0.434038 0.1
0.7 0.451923 0.1
0.67 0.469808 0.1
0.64 0.487692 0.1
0.61 0.505577 0.1
0.58 0.523462 0.1
0.52 0.559231 0.1
0.49 0.577115 0.1
0.46 0.595 0.1
0.43 0.612885 0.1
0.4 0.630769 0.1
0.37 0.648654 0.1
0.34 0.666538 0.1
0.31 0.684423 0.1
0.28 0.702308 0.1
0.25 0.720192 0.1
0.22 0.738077 0.1
0.19 0.755962 0.1
0.16 0.773846 0.1
0.13 0.791731 0.1
0.1 0.809615 0.1
1 0.238462 0.1
0.97 0.258654 0.1
0.94 0.278846 0.1
0.91 0.299038 0.1
0.88 0.319231 0.1
0.85 0.339423 0.1
0.82 0.359615 0.1
0.79 0.379808 0.1
0.76 0.4 0.1
0.73 0.420192 0.1
0.7 0.440385 0.1
0.67 0.460577 0.1
0.64 0.480769 0.1
0.61 0.500962 0.1
0.58 0.521154 0.1
0.52 0.561538 0.1
0.49 0.581731 0.1
0.46 0.601923 0.1
0.43 0.622115 0.1
0.4 0.642308 0.1
0.37 0.6625 0.1
0.34 0.682692 0.1
0.31 0.702885 0.1
0.28 0.723077 0.1
0.25 0.743269 0.1
0.22 0.763462 0.1
0.19 0.783654 0.1
0.16 0.803846 0.1
0.13 0.824038 0.1
0.1 0.844231 0.1
1 0.221154 0.1
0.97 0.2425 0.1
0.94 0.263846 0.1
0.91 0.285192 0.1
0.88 0.306538 0.1
0.85 0.327885 0.1
0.82 0.349231 0.1
0.79 0.370577 0.1
0.76 0.391923 0.1
0.73 0.413269 0.1
0.7 0.434615 0.1
0.67 0.455962 0.1
0.64 0.477308 0.1
0.61 0.498654 0.1
0.58 0.52 0.1
0.52 0.562692 0.1
0.49 0.584038 0.1
0.46 0.605385 0.1
0.43 0.626731 0.1
0.4 0.648077 0.1
0.37 0.669423 0.1
0.34 0.690769 0.1
0.31 0.712115 0.1
0.28 0.733462 0.1
0.25 0.754808 0.1
0.22 0.776154 0.1
0.19 0.7975 0.1
0.16 0.818846 0.1
0.13 0.840192 0.1
0.1 0.861538 0.1
1 0.186538 0.1
0.97 0.210192 0.1
0.94 0.233846 0.1
0.91 0.2575 0.1
0.88 0.281154 0.1
0.85 0.304808 0.1
0.82 0.328462 0.1
0.79 0.352115 0.1
0.76 0.375769 0.1
0.73 0.399423 0.1
0.7 0.423077 0.1
0.67 0.446731 0.1
0.64 0.470385 0.1
0.61 0.494038 0.1
0.58 0.517692 0.1
0.52 0.565 0.1
0.49 0.588654 0.1
0.46 0.612308 0.1
0.43 0.635962 0.1
0.4 0.659615 0.1
0.37 0.683269 0.1
0.34 0.706923 0.1
0.31 0.730577 0.1
0.28 0.754231 0.1
0.25 0.777885 0.1
0.22 0.801538 0.1
0.19 0.825192 0.1
0.16 0.848846 0.1
0.13 0.8725 0.1
0.1 0.896154 0.1
1 0.151923 0.1
0.97 0.177885 0.1
0.94 0.203846 0.1
0.91 0.229808 0.1
0.88 0.255769 0.1
0.85 0.281731 0.1
0.82 0.307692 0.1
0.79 0.333654 0.1
0.76 0.359615 0.1
0.73 0.385577 0.1
0.7 0.411538 0.1
0.67 0.4375 0.1
0.64 0.463462 0.1
0.61 0.489423 0.1
0.58 0.515385 0.1
0.52 0.567308 0.1
0.49 0.593269 0.1
0.46 0.619231 0.1
0.43 0.645192 0.1
0.4 0.671154 0.1
0.37 0.697115 0.1
0.34 0.723077 0.1
0.31 0.749038 0.1
0.28 0.775 0.1
0.25 0.800962 0.1
0.22 0.826923 0.1
0.19 0.852885 0.1
0.16 0.878846 0.1
0.13 0.904808 0.1
0.1 0.930769 0.1
1 0.117308 0.1
0.97 0.145577 0.1
0.94 0.173846 0.1
0.91 0.202115 0.1
0.88 0.230385 0.1
0.85 0.258654 0.1
0.82 0.286923 0.1
0.79 0.315192 0.1
0.76 0.343462 0.1
0.73 0.371731 0.1
0.7 0.4 0.1
0.67 0.428269 0.1
0.64 0.456538 0.1
0.61 0.484808 0.1
0.58 0.513077 0.1
0.52 0.569615 0.1
0.49 0.597885 0.1
0.46 0.626154 0.1
0.43 0.654423 0.1
0.4 0.682692 0.1
0.37 0.710962 0.1
0.34 0.739231 0.1
0.31 0.7675 0.1
0.28 0.795769 0.1
0.25 0.824038 0.1
0.22 0.852308 0.1
0.19 0.880577 0.1
0.16 0.908846 0.1
0.13 0.937115 0.1
0.1 0.965385 0.1
1 0.1 0.1
0.97 0.13 0.1
0.94 0.16 0.1
0.91 0.19 0.1
0.88 0.22 0.1
0.85 0.25 0.1
0.82 0.28 0.1
0.79 0.31 0.1
0.76 0.34 0.1
0.73 0.37 0.1
0.67 0.43 0.1
0.64 0.46 0.1
0.61 0.49 0.1
0.58 0.52 0.1
0.55 0.55 0.1
0.52 0.58 0.1
0.49 0.61 0.1
0.46 0.64 0.1
0.43 0.67 0.1
0.4 0.7 0.1
0.37 0.73 0.1
0.34 0.76 0.1
0.31 0.79 0.1
0.28 0.82 0.1
0.25 0.85 0.1
0.22 0.88 0.1
0.19 0.91 0.1
0.16 0.94 0.1
0.13 0.97 0.1
0.1 1 0.1
3 0 1 32
3 0 32 31
3 31 32 63
3 31 63 62
3 62 63 94
3 62 94 93
3 93 94 124
3 93 124 123
3 123 124 155
3 123 155 154
3 154 155 186
3 154 186 185
3 185 186 216
3 185 216 215
3 215 216 246
3 215 246 245
3 245 246 277
3 245 277 276
3 276 277 308
3 276 308 307
3 307 308 339
3 307 339 338
3 338 339 370
3 338 370 369
3 369 370 401
3 369 401 400
3 400 401 431
3 400 431 430
3 430 431 461
3 430 461 460
3 460 461 491
3 460 491 490
3 490 491 521
3 490 521 520
3 520 521 551
3 520 551 550
3 550 551 581
3 550 581 580
3 580 581 611
3 580 611 610
3 610 611 641
3 610 641 640
3 640 641 671
3 640 671 670
3 670 671 701
3 670 701 700
3 700 701 731
3 700 731 730
3 730 731 761
3 730 761 760
3 760 761 791
3 760 791 790
3 790 791 821
3 790 821 820
3 820 821 851
3 820 851 850
3 850 851 881
3 850 881 880
3 1 2 33
3 1 33 32
3 32 33 64
3 32 64 63
3 63 64 95
3 63 95 94
3 94 95 125
3 94 125 124
3 124 125 156
3 124 156 155
3 155 156 187
3 155 187 186
3 186 187 217
3 186 217 216
3 216 217 247
3 216 247 246
3 246 247 278
3 246 278 277
3 277 278 309
3 277 309 308
3 308 309 340
3 308 340 339
3 339 340 371
3 339 371 370
3 370 371 402
3 370 402 401
3 401 402 432
3 401 432 431
3 431 432 462
3 431 462 461
3 461 462 492
3 461 492 491
3 491 492 522
3 491 522 521
3 521 522 552
3 521 552 551
3 551 552 582
3 551 582 581
3 581 582 612
3 581 612 611
3 611 612 642
3 611 642 641
3 641 642 672
3 641 672 671
3 671 672 702
3 671 702 701
3 701 702 732
3 701 732 731
3 731 732 762
3 731 762 761
3 761 762 792
3 761 792 791
3 791 792 822
3 791 822 821
3 821 822 852
3 821 852 851
3 851 852 882
3 851 882 881
3 2 3 34
3 2 34 33
3 33 34 65
3 33 65 64
3 64 65 96
3 64 96 95
3 95 96 126
3 95 126 125
3 125 126 157
3 125 157 156
3 156 157 188
3 156 188 187
3 187 188 218
3 187 218 217
3 217 218 248
3 217 248 247
3 247 248 279
3 247 279 278
3 278 279 310
3 278 310 309
3 309 310 341
3 309 341 340
3 340 341 372
3 340 372 371
3 371 372 403
3 371 403 402
3 402 403 433
3 402 433 432
3 432 433 463
3 432 463 462
3 462 463 493
3 462 493 492
3 492 493 523
3 492 523 522
3 522 523 553
3 522 553 552
3 552 553 583
3 552 583 582
3 582 583 613
3 582 613 612
3 612 613 643
3 612 643 642
3 642 643 673
3 642 673 672
3 672 673 703
3 672 703 702
3 702 703 733
3 702 733 732
3 732 733 763
3 732 763 762
3 762 763 793
3 762 793 792
3 792 793 823
3 792 823 822
3 822 823 853
3 822 853 852
3 852 853 883
3 852 883 882
3 3 4 35
3 3 35 34
3 34 35 66
3 34 66 65
3 65 66 97
3 65 97 96
3 96 97 127
3 96 127 126
3 126 127 158
3 126 158 157
3 157 158 189
3 157 189 188
3 188 189 219
3 188 219 218
3 218 219 249
3 218 249 248
3 248 249 280
3 248 280 279
3 279 280 311
3 279 311 310
3 310 311 342
3 310 342 341
3 341 342 373
3 341 373 372
3 372 373 404
3 372 404 403
3 403 404 434
3 403 434 433
3 433 434 464
3 433 464 463
3 463 464 494
3 463 494 493
3 493 494 524
3 493 524 523
3 523 524 554
3 523 554 553
3 553 554 584
3 553 584 583
3 583 584 614
3 583 614 613
3 613 614 644
3 613 644 643
3 643 644 674
3 643 674 673
3 673 674 704
3 673 704 703
3 703 704 734
3 703 734 733
3 733 734 764
3 733 764 763
3 763 764 794
3 763 794 793
3 793 794 824
3 793 824 823
3 823 824 854
3 823 854 853
3 853 854 884
3 853 884 883
3 4 5 36
3 4 36 35
3 35 36 67
3 35 67 66
3 66 67 98
3 66 98 97
3 97 98 128
3 97 128 127
3 127 128 159
3 127 159 158
3 158 159 190
3 158 190 189
3 189 190 220
3 189 220 219
3 219 220 250
3 219 250 249
3 249 250 281
3 249 281 280
3 280 281 312
3 280 312 311
3 311 312 343
3 311 343 342
3 342 343 374
3 342 374 373
3 373 374 405
3 373 405 404
3 404 405 435
3 404 435 434
3 434 435 465
3 434 465 464
3 464 465 495
3 464 495 494
3 494 495 525
3 494 525 524
3 524 525 555
3 524 555 554
3 554 555 585
3 554 585 584
3 584 585 615
3 584 615 614
3 614 615 645
3 614 645 644
3 644 645 675
3 644 675 674
3 674 675 705
3 674 705 704
3 704 705 735
3 704 735 734
3 734 735 765
3 734 765 764
3 764 765 795
3 764 795 794
3 794 795 825
3 794 825 824
3 824 825 855
3 824 855 854
3 854 855 885
3 854 885 884
3 5 6 37
3 5 37 36
3 36 37 68
3 36 68 67
3 67 68 99
3 67 99 98
3 98 99 129
3 98 129 128
3 128 129 160
3 128 160 159
3 159 160 191
3 159 191 190
3 190 191 221
3 190 221 220
3 220 221 251
3 220 251 250
3 250 251 282
3 250 282 281
3 281 282 313
3 281 313 312
3 312 313 344
3 312 344 343
3 343 344 375
3 343 375 374
3 374 375 406
3 374 406 405
3 405 406 436
3 405 436 435
3 435 436 466
3 435 466 465
3 465 466 496
3 465 496 495
3 495 496 526
3 495 526 525
3 525 526 556
3 525 556 555
3 555 556 586
3 555 586 585
3 585 586 616
3 585 616 615
3 615 616 646
3 615 646 645
3 645 646 676
3 645 676 675
3 675 676 706
3 675 706 705
3 705 706 736
3 705 736 735
3 735 736 766
3 735 766 765
3 765 766 796
3 765 796 795
3 795 796 826
3 795 826 825
3 825 826 856
3 825 856 855
3 855 856 886
3 855 886 885
3 6 7 38
3 6 38 37
3 37 38 69
3 37 69 68
3 68 69 100
3 68 100 99
3 99 100 130
3 99 130 129
3 129 130 161
3 129 161 160
3 160 161 192
3 160 192 191
3 191 192 222
3 191 222 221
3 221 222 252
3 221 252 251
3 251 252 283
3 251 283 282
3 282 283 314
3 282 314 313
3 313 314 345
3 313 345 344
3 344 345 376
3 344 376 375
3 375 376 407
3 375 407 406
3 406 407 437
3 406 437 436
3 436 437 467
3 436 467 466
3 466 467 497
3 466 497 496
3 496 497 527
3 496 527 526
3 526 527 557
3 526 557 556
3 556 557 587
3 556 587 586
3 586 587 617
3 586 617 616
3 616 617 647
3 616 647 646
3 646 647 677
3 646 677 676
3 676 677 707
3 676 707 706
3 706 707 737
3 706 737 736
3 736 737 767
3 736 767 766
3 766 767 797
3 766 797 796
3 796 797 827
3 796 827 826
3 826 827 857
3 826 857 856
3 856 857 887
3 856 887 886
3 7 8 39
3 7 39 38
3 38 39 70
3 38 70 69
3 69 70 101
3 69 101 100
3 100 101 131
3 100 131 130
3 130 131 162
3 130 162 161
3 161 162 193
3 161 193 192
3 192 193 223
3 192 223 222
3 222 223 253
3 222 253 252
3 252 253 284
3 252 284 283
3 283 284 315
3 283 315 314
3 314 315 346
3 314 346 345
3 345 346 377
3 345 377 376
3 376 377 408
3 376 408 407
3 407 408 438
3 407 438 437
3 437 438 468
3 437 468 467
3 467 468 498
3 467 498 497
3 497 498 528
3 497 528 527
3 527 528 558
3 527 558 557
3 557 558 588
3 557 588 587
3 587 588 618
3 587 618 617
3 617 618 648
3 617 648 647
3 647 648 678
3 647 678 677
3 677 678 708
3 677 708 707
3 707 708 738
3 707 738 737
3 737 738 768
3 737 768 767
3 767 768 798
3 767 798 797
3 797 798 828
3 797 828 827
3 827 828 858
3 827 858 857
3 857 858 888
3 857 888 887
3 8 9 40
3 8 40 39
3 39 40 71
3 39 71 70
3 70 71 102
3 70 102 101
3 101 102 132
3 101 132 131
3 131 132 163
3 131 163 162
3 162 163 194
3 162 194 193
3 193 194 224
3 193 224 223
3 223 224 254
3 223 254 253
3 253 254 285
3 253 285 284
3 284 285 316
3 284 316 315
3 315 316 347
3 315 347 346
3 346 347 378
3 346 378 377
3 377 378 409
3 377 409 408
3 408 409 439
3 408 439 438
3 438 439 469
3 438 469 468
3 468 469 499
3 468 499 498
3 498 499 529
3 498 529 528
3 528 529 559
3 528 559 558
3 558 559 589
3 558 589 588
3 588 589 619
3 588 619 618
3 618 619 649
3 618 649 648
3 648 649 679
3 648 679 678
3 678 679 709
3 678 709 708
3 708 709 739
3 708 739 738
3 738 739 769
3 738 769 768
3 768 769 799
3 768 799 798
3 798 799 829
3 798 829 828
3 828 829 859
3 828 859 858
3 858 859 889
3 858 889 888
3 9 10 41
3 9 41 40
3 40 41 72
3 40 72 71
3 71 72 103
3 71 103 102
3 102 103 133
3 102 133 132
3 132 133 164
3 132 164 163
3 163 164 195
3 163 195 194
3 194 195 225
3 194 225 224
3 224 225 255
3 224 255 254
3 254 255 286
3 254 286 285
3 285 286 317
3 285 317 316
3 316 317 348
3 316 348 347
3 347 348 379
3 347 379 378
3 378 379 410
3 378 410 409
3 409 410 440
3 409 440 439
3 439 440 470
3 439 470 469
3 469 470 500
3 469 500 499
3 499 500 530
3 499 530 529
3 529 530 560
3 529 560 559
3 559 560 590
3 559 590 589
3 589 590 620
3 589 620 619
3 619 620 650
3 619 650 649
3 649 650 680
3 649 680 679
3 679 680 710
3 679 710 709
3 709 710 740
3 709 740 739
3 739 740 770
3 739 770 769
3 769 770 800
3 769 800 799
3 799 800 830
3 799 830 829
3 829 830 860
3 829 860 859
3 859 860 889
3 10 11 42
3 10 42 41
3 41 42 73
3 41 73 72
3 72 73 104
3 72 104 103
3 103 104 134
3 103 134 133
3 133 134 165
3 133 165 164
3 164 165 196
3 164 196 195
3 195 196 226
3 195 226 225
3 225 226 256
3 225 256 255
3 255 256 287
3 255 287 286
3 286 287 318
3 286 318 317
3 317 318 349
3 317 349 348
3 348 349 380
3 348 380 379
3 379 380 411
3 379 411 410
3 410 411 441
3 410 441 440
3 440 441 471
3 440 471 470
3 470 471 501
3 470 501 500
3 500 501 531
3 500 531 530
3 530 531 561
3 530 561 560
3 560 561 591
3 560 591 590
3 590 591 621
3 590 621 620
3 620 621 651
3 620 651 650
3 650 651 681
3 650 681 680
3 680 681 711
3 680 711 710
3 710 711 741
3 710 741 740
3 740 741 771
3 740 771 770
3 770 771 801
3 770 801 800
3 800 801 831
3 800 831 830
3 830 831 861
3 830 861 860
3 860 861 890
3 11 12 43
3 11 43 42
3 42 43 74
3 42 74 73
3 73 74 105
3 73 105 104
3 104 105 135
3 104 135 134
3 134 135 166
3 134 166 165
3 165 166 197
3 165 197 196
3 196 197 227
3 196 227 226
3 226 227 257
3 226 257 256
3 256 257 288
3 256 288 287
3 287 288 319
3 287 319 318
3 318 319 350
3 318 350 349
3 349 350 381
3 349 381 380
3 380 381 412
3 380 412 411
3 411 412 442
3 411 442 441
3 441 442 472
3 441 472 471
3 471 472 502
3 471 502 501
3 501 502 532
3 501 532 531
3 531 532 562
3 531 562 561
3 561 562 592
3 561 592 591
3 591 592 622
3 591 622 621
3 621 622 652
3 621 652 651
3 651 652 682
3 651 682 681
3 681 682 712
3 681 712 711
3 711 712 742
3 711 742 741
3 741 742 772
3 741 772 771
3 771 772 802
3 771 802 801
3 801 802 832
3 801 832 831
3 831 832 862
3 831 862 861
3 861 862 891
3 861 891 890
3 12 13 44
3 12 44 43
3 43 44 75
3 43 75 74
3 74 75 106
3 74 106 105
3 105 106 136
3 105 136 135
3 135 136 167
3 135 167 166
3 166 167 198
3 166 198 197
3 197 198 228
3 197 228 227
3 227 228 258
3 227 258 257
3 257 258 289
3 257 289 288
3 288 289 320
3 288 320 319
3 319 320 351
3 319 351 350
3 350 351 382
3 350 382 381
3 381 382 413
3 381 413 412
3 412 413 443
3 412 443 442
3 442 443 473
3 442 473 472
3 472 473 503
3 472 503 502
3 502 503 533
3 502 533 532
3 532 533 563
3 532 563 562
3 562 563 593
3 562 593 592
3 592 593 623
3 592 623 622
3 622 623 653
3 622 653 652
3 652 653 683
3 652 683 682
3 682 683 713
3 682 713 712
3 712 713 743
3 712 743 742
3 742 743 773
3 742 773 772
3 772 773 803
3 772 803 802
3 802 803 833
3 802 833 832
3 832 833 863
3 832 863 862
3 862 863 892
3 862 892 891
3 13 14 45
3 13 45 44
3 44 45 76
3 44 76 75
3 75 76 107
3 75 107 106
3 106 107 137
3 106 137 136
3 136 137 168
3 136 168 167
3 167 168 199
3 167 199 198
3 198 199 229
3 198 229 228
3 228 229 259
3 228 259 258
3 258 259 290
3 258 290 289
3 289 290 321
3 289 321 320
3 320 321 352
3 320 352 351
3 351 352 383
3 351 383 382
3 382 383 414
3 382 414 413
3 413 414 444
3 413 444 443
3 443 444 474
3 443 474 473
3 473 474 504
3 473 504 503
3 503 504 534
3 503 534 533
3 533 534 564
3 533 564 563
3 563 564 594
3 563 594 593
3 593 594 624
3 593 624 623
3 623 624 654
3 623 654 653
3 653 654 684
3 653 684 683
3 683 684 714
3 683 714 713
3 713 714 744
3 713 744 743
3 743 744 774
3 743 774 773
3 773 774 804
3 773 804 803
3 803 804 834
3 803 834 833
3 833 834 864
3 833 864 863
3 863 864 893
3 863 893 892
3 14 15 46
3 14 46 45
3 45 46 77
3 45 77 76
3 76 77 107
3 107 77 138
3 107 138 137
3 137 138 169
3 137 169 168
3 168 169 199
3 199 169 229
3 229 169 260
3 229 260 259
3 259 260 291
3 259 291 290
3 290 291 322
3 290 322 321
3 321 322 353
3 321 353 352
3 352 353 384
3 352 384 383
3 383 384 353
3 383 353 414
3 414 353 444
3 444 353 474
3 474 353 504
3 504 353 384
3 504 384 534
3 534 384 564
3 564 384 291
3 564 291 594
3 594 291 624
3 624 291 322
3 624 322 654
3 654 322 260
3 654 260 684
3 684 260 714
3 714 260 744
3 744 260 774
3 774 260 138
3 774 138 804
3 804 138 834
3 834 138 77
3 834 77 864
3 864 77 894
3 864 894 893
3 15 16 47
3 15 47 46
3 46 47 78
3 46 78 77
3 77 78 108
3 77 108 139
3 77 139 138
3 138 139 170
3 138 170 169
3 169 170 200
3 169 200 230
3 169 230 261
3 169 261 260
3 260 261 292
3 260 292 291
3 291 292 323
3 291 323 322
3 322 323 354
3 322 354 353
3 353 354 385
3 353 385 384
3 384 385 415
3 384 415 353
3 353 415 445
3 353 445 475
3 353 475 505
3 353 505 535
3 353 535 384
3 384 535 565
3 384 565 595
3 384 595 291
3 291 595 625
3 291 625 655
3 291 655 322
3 322 655 685
3 322 685 260
3 260 685 715
3 260 715 745
3 260 745 775
3 260 775 805
3 260 805 138
3 138 805 835
3 138 835 865
3 138 865 77
3 77 865 895
3 77 895 894
3 16 17 48
3 16 48 47
3 47 48 79
3 47 79 78
3 78 79 109
3 78 109 108
3 108 109 140
3 108 140 139
3 139 140 171
3 139 171 170
3 170 171 201
3 170 201 200
3 200 201 231
3 200 231 230
3 230 231 262
3 230 262 261
3 261 262 293
3 261 293 292
3 292 293 324
3 292 324 323
3 323 324 355
3 323 355 354
3 354 355 386
3 354 386 385
3 385 386 416
3 385 416 415
3 415 416 446
3 415 446 445
3 445 446 476
3 445 476 475
3 475 476 506
3 475 506 505
3 505 506 536
3 505 536 535
3 535 536 566
3 535 566 565
3 565 566 596
3 565 596 595
3 595 596 626
3 595 626 625
3 625 626 656
3 625 656 655
3 655 656 686
3 655 686 685
3 685 686 716
3 685 716 715
3 715 716 746
3 715 746 745
3 745 746 776
3 745 776 775
3 775 776 806
3 775 806 805
3 805 806 836
3 805 836 835
3 835 836 866
3 835 866 865
3 865 866 896
3 865 896 895
3 17 18 49
3 17 49 48
3 48 49 80
3 48 80 79
3 79 80 110
3 79 110 109
3 109 110 141
3 109 141 140
3 140 141 172
3 140 172 171
3 171 172 202
3 171 202 201
3 201 202 232
3 201 232 231
3 231 232 263
3 231 263 262
3 262 263 294
3 262 294 293
3 293 294 325
3 293 325 324
3 324 325 356
3 324 356 355
3 355 356 387
3 355 387 386
3 386 387 417
3 386 417 416
3 416 417 447
3 416 447 446
3 446 447 477
3 446 477 476
3 476 477 507
3 476 507 506
3 506 507 537
3 506 537 536
3 536 537 567
3 536 567 566
3 566 567 597
3 566 597 596
3 596 597 627
3 596 627 626
3 626 627 657
3 626 657 656
3 656 657 687
3 656 687 686
3 686 687 717
3 686 717 716
3 716 717 747
3 716 747 746
3 746 747 777
3 746 777 776
3 776 777 807
3 776 807 806
3 806 807 837
3 806 837 836
3 836 837 867
3 836 867 866
3 866 867 897
3 866 897 896
3 18 19 50
3 18 50 49
3 49 50 81
3 49 81 80
3 80 81 111
3 80 111 110
3 110 111 142
3 110 142 141
3 141 142 173
3 141 173 172
3 172 173 203
3 172 203 202
3 202 203 233
3 202 233 232
3 232 233 264
3 232 264 263
3 263 264 295
3 263 295 294
3 294 295 326
3 294 326 325
3 325 326 357
3 325 357 356
3 356 357 388
3 356 388 387
3 387 388 418
3 387 418 417
3 417 418 448
3 417 448 447
3 447 448 478
3 447 478 477
3 477 478 508
3 477 508 507
3 507 508 538
3 507 538 537
3 537 538 568
3 537 568 567
3 567 568 598
3 567 598 597
3 597 598 628
3 597 628 627
3 627 628 658
3 627 658 657
3 657 658 688
3 657 688 687
3 687 688 718
3 687 718 717
3 717 718 748
3 717 748 747
3 747 748 778
3 747 778 777
3 777 778 808
3 777 808 807
3 807 808 838
3 807 838 837
3 837 838 868
3 837 868 867
3 867 868 898
3 867 898 897
3 19 20 51
3 19 51 50
3 50 51 82
3 50 82 81
3 81 82 112
3 81 112 111
3 111 112 143
3 111 143 142
3 142 143 174
3 142 174 173
3 173 174 204
3 173 204 203
3 203 204 234
3 203 234 233
3 233 234 265
3 233 265 264
3 264 265 296
3 264 296 295
3 295 296 327
3 295 327 326
3 326 327 358
3 326 358 357
3 357 358 389
3 357 389 388
3 388 389 419
3 388 419 418
3 418 419 449
3 418 449 448
3 448 449 479
3 448 479 478
3 478 479 509
3 478 509 508
3 508 509 539
3 508 539 538
3 538 539 569
3 538 569 568
3 568 569 599
3 568 599 598
3 598 599 629
3 598 629 628
3 628 629 659
3 628 659 658
3 658 659 689
3 658 689 688
3 688 689 719
3 688 719 718
3 718 719 749
3 718 749 748
3 748 749 779
3 748 779 778
3 778 779 809
3 778 809 808
3 808 809 839
3 808 839 838
3 838 839 869
3 838 869 868
3 868 869 899
3 868 899 898
3 20 21 52
3 20 52 51
3 51 52 83
3 51 83 82
3 82 83 113
3 82 113 112
3 112 113 144
3 112 144 143
3 143 144 175
3 143 175 174
3 174 175 205
3 174 205 204
3 204 205 235
3 204 235 234
3 234 235 266
3 234 266 265
3 265 266 297
3 265 297 296
3 296 297 328
3 296 328 327
3 327 328 359
3 327 359 358
3 358 359 390
3 358 390 389
3 389 390 420
3 389 420 419
3 419 420 450
3 419 450 449
3 449 450 480
3 449 480 479
3 479 480 510
3 479 510 509
3 509 510 540
3 509 540 539
3 539 540 570
3 539 570 569
3 569 570 600
3 569 600 599
3 599 600 630
3 599 630 629
3 629 630 660
3 629 660 659
3 659 660 690
3 659 690 689
3 689 690 720
3 689 720 719
3 719 720 750
3 719 750 749
3 749 750 780
3 749 780 779
3 779 780 810
3 779 810 809
3 809 810 840
3 809 840 839
3 839 840 870
3 839 870 869
3 869 870 900
3 869 900 899
3 21 22 53
3 21 53 52
3 52 53 84
3 52 84 83
3 83 84 114
3 83 114 113
3 113 114 145
3 113 145 144
3 144 145 176
3 144 176 175
3 175 176 206
3 175 206 205
3 205 206 236
3 205 236 235
3 235 236 267
3 235 267 266
3 266 267 298
3 266 298 297
3 297 298 329
3 297 329 328
3 328 329 360
3 328 360 359
3 359 360 391
3 359 391 390
3 390 391 421
3 390 421 420
3 420 421 451
3 420 451 450
3 450 451 481
3 450 481 480
3 480 481 511
3 480 511 510
3 510 511 541
3 510 541 540
3 540 541 571
3 540 571 570
3 570 571 601
3 570 601 600
3 600 601 631
3 600 631 630
3 630 631 661
3 630 661 660
3 660 661 691
3 660 691 690
3 690 691 721
3 690 721 720
3 720 721 751
3 720 751 750
3 750 751 781
3 750 781 780
3 780 781 811
3 780 811 810
3 810 811 841
3 810 841 840
3 840 841 871
3 840 871 870
3 870 871 901
3 870 901 900
3 22 23 54
3 22 54 53
3 53 54 85
3 53 85 84
3 84 85 115
3 84 115 114
3 114 115 146
3 114 146 145
3 145 146 177
3 145 177 176
3 176 177 207
3 176 207 206
3 206 207 237
3 206 237 236
3 236 237 268
3 236 268 267
3 267 268 299
3 267 299 298
3 298 299 330
3 298 330 329
3 329 330 361
3 329 361 360
3 360 361 392
3 360 392 391
3 391 392 422
3 391 422 421
3 421 422 452
3 421 452 451
3 451 452 482
3 451 482 481
3 481 482 512
3 481 512 511
3 511 512 542
3 511 542 541
3 541 542 572
3 541 572 571
3 571 572 602
3 571 602 601
3 601 602 632
3 601 632 631
3 631 632 662
3 631 662 661
3 661 662 692
3 661 692 691
3 691 692 722
3 691 722 721
3 721 722 752
3 721 752 751
3 751 752 782
3 751 782 781
3 781 782 812
3 781 812 811
3 811 812 842
3 811 842 841
3 841 842 872
3 841 872 871
3 871 872 902
3 871 902 901
3 23 24 55
3 23 55 54
3 54 55 86
3 54 86 85
3 85 86 116
3 85 116 115
3 115 116 147
3 115 147 146
3 146 147 178
3 146 178 177
3 177 178 208
3 177 208 207
3 207 208 238
3 207 238 237
3 237 238 269
3 237 269 268
3 268 269 300
3 268 300 299
3 299 300 331
3 299 331 330
3 330 331 362
3 330 362 361
3 361 362 393
3 361 393 392
3 392 393 423
3 392 423 422
3 422 423 453
3 422 453 452
3 452 453 483
3 452 483 482
3 482 483 513
3 482 513 512
3 512 513 543
3 512 543 542
3 542 543 573
3 542 573 572
3 572 573 603
3 572 603 602
3 602 603 633
3 602 633 632
3 632 633 663
3 632 663 662
3 662 663 693
3 662 693 692
3 692 693 723
3 692 723 722
3 722 723 753
3 722 753 752
3 752 753 783
3 752 783 782
3 782 783 813
3 782 813 812
3 812 813 843
3 812 843 842
3 842 843 873
3 842 873 872
3 872 873 903
3 872 903 902
3 24 25 56
3 24 56 55
3 55 56 87
3 55 87 86
3 86 87 117
3 86 117 116
3 116 117 148
3 116 148 147
3 147 148 179
3 147 179 178
3 178 179 209
3 178 209 208
3 208 209 239
3 208 239 238
3 238 239 270
3 238 270 269
3 269 270 301
3 269 301 300
3 300 301 332
3 300 332 331
3 331 332 363
3 331 363 362
3 362 363 394
3 362 394 393
3 393 394 424
3 393 424 423
3 423 424 454
3 423 454 453
3 453 454 484
3 453 484 483
3 483 484 514
3 483 514 513
3 513 514 544
3 513 544 543
3 543 544 574
3 543 574 573
3 573 574 604
3 573 604 603
3 603 604 634
3 603 634 633
3 633 634 664
3 633 664 663
3 663 664 694
3 663 694 693
3 693 694 724
3 693 724 723
3 723 724 754
3 723 754 753
3 753 754 784
3 753 784 783
3 783 784 814
3 783 814 813
3 813 814 844
3 813 844 843
3 843 844 874
3 843 874 873
3 873 874 904
3 873 904 903
3 25 26 57
3 25 57 56
3 56 57 88
3 56 88 87
3 87 88 118
3 87 118 117
3 117 118 149
3 117 149 148
3 148 149 180
3 148 180 179
3 179 180 210
3 179 210 209
3 209 210 240
3 209 240 239
3 239 240 271
3 239 271 270
3 270 271 302
3 270 302 301
3 301 302 333
3 301 333 332
3 332 333 364
3 332 364 363
3 363 364 395
3 363 395 394
3 394 395 425
3 394 425 424
3 424 425 455
3 424 455 454
3 454 455 485
3 454 485 484
3 484 485 515
3 484 515 514
3 514 515 545
3 514 545 544
3 544 545 575
3 544 575 574
3 574 575 605
3 574 605 604
3 604 605 635
3 604 635 634
3 634 635 665
3 634 665 664
3 664 665 695
3 664 695 694
3 694 695 725
3 694 725 724
3 724 725 755
3 724 755 754
3 754 755 785
3 754 785 784
3 784 785 815
3 784 815 814
3 814 815 845
3 814 845 844
3 844 845 875
3 844 875 874
3 874 875 905
3 874 905 904
3 26 27 58
3 26 58 57
3 57 58 89
3 57 89 88
3 88 89 119
3 88 119 118
3 118 119 150
3 118 150 149
3 149 150 181
3 149 181 180
3 180 181 211
3 180 211 210
3 210 211 241
3 210 241 240
3 240 241 272
3 240 272 271
3 271 272 303
3 271 303 302
3 302 303 334
3 302 334 333
3 333 334 365
3 333 365 364
3 364 365 396
3 364 396 395
3 395 396 426
3 395 426 425
3 425 426 456
3 425 456 455
3 455 456 486
3 455 486 485
3 485 486 516
3 485 516 515
3 515 516 546
3 515 546 545
3 545 546 576
3 545 576 575
3 575 576 606
3 575 606 605
3 605 606 636
3 605 636 635
3 635 636 666
3 635 666 665
3 665 666 696
3 665 696 695
3 695 696 726
3 695 726 725
3 725 726 756
3 725 756 755
3 755 756 786
3 755 786 785
3 785 786 816
3 785 816 815
3 815 816 846
3 815 846 845
3 845 846 876
3 845 876 875
3 875 876 906
3 875 906 905
3 27 28 59
3 27 59 58
3 58 59 90
3 58 90 89
3 89 90 120
3 89 120 119
3 119 120 151
3 119 151 150
3 150 151 182
3 150 182 181
3 181 182 212
3 181 212 211
3 211 212 242
3 211 242 241
3 241 242 273
3 241 273 272
3 272 273 304
3 272 304 303
3 303 304 335
3 303 335 334
3 334 335 366
3 334 366 365
3 365 366 397
3 365 397 396
3 396 397 427
3 396 427 426
3 426 427 457
3 426 457 456
3 456 457 487
3 456 487 486
3 486 487 517
3 486 517 516
3 516 517 547
3 516 547 546
3 546 547 577
3 546 577 576
3 576 577 607
3 576 607 606
3 606 607 637
3 606 637 636
3 636 637 667
3 636 667 666
3 666 667 697
3 666 697 696
3 696 697 727
3 696 727 726
3 726 727 757
3 726 757 756
3 756 757 787
3 756 787 786
3 786 787 817
3 786 817 816
3 816 817 847
3 816 847 846
3 846 847 877
3 846 877 876
3 876 877 907
3 876 907 906
3 28 29 60
3 28 60 59
3 59 60 91
3 59 91 90
3 90 91 121
3 90 121 120
3 120 121 152
3 120 152 151
3 151 152 183
3 151 183 182
3 182 183 213
3 182 213 212
3 212 213 243
3 212 243 242
3 242 243 274
3 242 274 273
3 273 274 305
3 273 305 304
3 304 305 336
3 304 336 335
3 335 336 367
3 335 367 366
3 366 367 398
3 366 398 397
3 397 398 428
3 397 428 427
3 427 428 458
3 427 458 457
3 457 458 488
3 457 488 487
3 487 488 518
3 487 518 517
3 517 518 548
3 517 548 547
3 547 548 578
3 547 578 577
3 577 578 608
3 577 608 607
3 607 608 638
3 607 638 637
3 637 638 668
3 637 668 667
3 667 668 698
3 667 698 697
3 697 698 728
3 697 728 727
3 727 728 758
3 727 758 757
3 757 758 788
3 757 788 787
3 787 788 818
3 787 818 817
3 817 818 848
3 817 848 847
3 847 848 878
3 847 878 877
3 877 878 908
3 877 908 907
3 29 30 61
3 29 61 60
3 60 61 92
3 60 92 91
3 91 92 122
3 91 122 121
3 121 122 153
3 121 153 152
3 152 153 184
3 152 184 183
3 183 184 214
3 183 214 213
3 213 214 244
3 213 244 243
3 243 244 275
3 243 275 274
3 274 275 306
3 274 306 305
3 305 306 337
3 305 337 336
3 336 337 368
3 336 368 367
3 367 368 399
3 367 399 398
3 398 399 429
3 398 429 428
3 428 429 459
3 428 459 458
3 458 459 489
3 458 489 488
3 488 489 519
3 488 519 518
3 518 519 549
3 518 549 548
3 548 549 579
3 548 579 578
3 578 579 609
3 578 609 608
3 608 609 639
3 608 639 638
3 638 639 669
3 638 669 668
3 668 669 699
3 668 699 698
3 698 699 729
3 698 729 728
3 728 729 759
3 728 759 758
3 758 759 789
3 758 789 788
3 788 789 819
3 788 819 818
3 818 819 849
3 818 849 848
3 848 849 879
3 848 879 878
3 878 879 909
3 878 909 908
