ply
format ascii 1.0
comment Created by Open3D
element vertex 107
property double x
property double y
property double z
element face 177
property list uchar uint vertex_indices
end_header
1 5.55112e-17 5.55112e-17
1 0.1 0.01
1 0.2 0.02
1 0.3 0.03
1 0.4 0.04
1 0.5 0.05
1 0.6 0.06
1 0.7 0.07
1 0.8 0.08
1 0.9 0.09
1 1 0.1
1 5.55112e-17 0.12069
1 0.1 0.118621
1 0.2 0.116552
1 0.3 0.114483
1 0.4 0.112414
1 0.5 0.110345
1 0.6 0.108276
1 0.7 0.106207
1 0.8 0.104138
1 0.9 0.102069
1 5.55112e-17 0.224138
1 0.1 0.210057
1 0.2 0.195977
1 0.3 0.181897
1 0.4 0.167816
1 0.5 0.153736
1 0.6 0.139655
1 0.7 0.125575
1 0.8 0.111494
1 0.9 0.0974138
1 1 0.0833333
1 5.55112e-17 0.344828
1 0.1 0.317011
1 0.2 0.289195
1 0.3 0.261379
1 0.4 0.233563
1 0.5 0.205747
1 0.6 0.177931
1 0.7 0.150115
1 0.8 0.122299
1 0.9 0.0944828
1 1 0.0666667
1 5.55112e-17 0.448276
1 0.1 0.410115
1 0.2 0.371954
1 0.3 0.333793
1 0.4 0.295632
1 0.5 0.257471
1 0.6 0.21931
1 0.7 0.181149
1 0.8 0.142989
1 0.9 0.104828
1 5.55112e-17 0.568966
1 0.1 0.517069
1 0.2 0.465172
1 0.3 0.413276
1 0.4 0.361379
1 0.5 0.309483
1 0.6 0.257586
1 0.7 0.20569
1 0.8 0.153793
1 0.9 0.101897
1 1 0.05
1 5.55112e-17 0.672414
1 0.1 0.608506
1 0.2 0.544598
1 0.3 0.48069
1 0.4 0.416782
1 0.5 0.352874
1 0.6 0.288966
1 0.7 0.225057
1 0.8 0.161149
1 0.9 0.0972414
1 1 0.0333333
1 5.55112e-17 0.793103
1 0.1 0.717126
1 0.2 0.641149
1 0.3 0.565172
1 0.4 0.489195
1 0.5 0.413218
1 0.6 0.337241
1 0.7 0.261264
1 0.8 0.185287
1 0.9 0.10931
1 5.55112e-17 0.896552
1 0.1 0.808563
1 0.2 0.720575
1 0.3 0.632586
1 0.4 0.544598
1 0.5 0.456609
1 0.6 0.368621
1 0.7 0.280632
1 0.8 0.192644
1 0.9 0.104655
1 1 0.0166667
1 5.55112e-17 1
1 0.1 0.9
1 0.2 0.8
1 0.3 0.7
1 0.4 0.6
1 0.5 0.5
1 0.6 0.4
1 0.7 0.3
1 0.8 0.2
1 0.9 0.1
1 1 5.55112e-17
3 0 1 12
3 0 12 11
3 11 12 22
3 11 22 21
3 21 22 33
3 21 33 32
3 32 33 44
3 32 44 43
3 43 44 54
3 43 54 53
3 53 54 65
3 53 65 64
3 64 65 76
3 64 76 75
3 75 76 86
3 75 86 85
3 85 86 97
3 85 97 96
3 1 2 13
3 1 13 12
3 12 13 23
3 12 23 22
3 22 23 34
3 22 34 33
3 33 34 45
3 33 45 44
3 44 45 55
3 44 55 54
3 54 55 66
3 54 66 65
3 65 66 77
3 65 77 76
3 76 77 87
3 76 87 86
3 86 87 98
3 86 98 97
3 2 3 14
3 2 14 13
3 13 14 24
3 13 24 23
3 23 24 35
3 23 35 34
3 34 35 46
3 34 46 45
3 45 46 56
3 45 56 55
3 55 56 67
3 55 67 66
3 66 67 78
3 66 78 77
3 77 78 88
3 77 88 87
3 87 88 99
3 87 99 98
3 3 4 15
3 3 15 14
3 14 15 25
3 14 25 24
3 24 25 36
3 24 36 35
3 35 36 47
3 35 47 46
3 46 47 57
3 46 57 56
3 56 57 68
3 56 68 67
3 67 68 79
3 67 79 78
3 78 79 89
3 78 89 88
3 88 89 100
3 88 100 99
3 4 5 16
3 4 16 15
3 15 16 26
3 15 26 25
3 25 26 37
3 25 37 36
3 36 37 48
3 36 48 47
3 47 48 58
3 47 58 57
3 57 58 69
3 57 69 68
3 68 69 80
3 68 80 79
3 79 80 90
3 79 90 89
3 89 90 101
3 89 101 100
3 5 6 17
3 5 17 16
3 16 17 27
3 16 27 26
3 26 27 38
3 26 38 37
3 37 38 49
3 37 49 48
3 48 49 59
3 48 59 58
3 58 59 70
3 58 70 69
3 69 70 81
3 69 81 80
3 80 81 91
3 80 91 90
3 90 91 102
3 90 102 101
3 6 7 18
3 6 18 17
3 17 18 28
3 17 28 27
3 27 28 39
3 27 39 38
3 38 39 50
3 38 50 49
3 49 50 60
3 49 60 59
3 59 60 71
3 59 71 70
3 70 71 82
3 70 82 81
3 81 82 92
3 81 92 91
3 91 92 103
3 91 103 102
3 7 8 19
3 7 19 18
3 18 19 29
3 18 29 28
3 28 29 40
3 28 40 39
3 39 40 51
3 39 51 50
3 50 51 61
3 50 61 60
3 60 61 72
3 60 72 71
3 71 72 83
3 71 83 82
3 82 83 93
3 82 93 92
3 92 93 104
3 92 104 103
3 8 9 20
3 8 20 19
3 19 20 30
3 19 30 29
3 29 30 41
3 29 41 40
3 40 41 52
3 40 52 51
3 51 52 62
3 51 62 61
3 61 62 73
3 61 73 72
3 72 73 84
3 72 84 83
3 83 84 94
3 83 94 93
3 93 94 105
3 93 105 104
3 9 10 20
3 20 10 31
3 20 31 30
3 30 31 42
3 30 42 41
3 41 42 52
3 52 42 63
3 52 63 62
3 62 63 74
3 62 74 73
3 73 74 84
3 84 74 95
3 84 95 94
3 94 95 106
3 94 106 105
