ply
format ascii 1.0
comment Created by Open3D
element vertex 110
property double x
property double y
property double z
element face 180
property list uchar uint vertex_indices
end_header
0 1 1
0.01 0.91 0.91
0.02 0.82 0.82
0.03 0.73 0.73
0.04 0.64 0.64
0.05 0.55 0.55
0.06 0.46 0.46
0.07 0.37 0.37
0.08 0.28 0.28
0.09 0.19 0.19
0.1 0.1 0.1
0 0.87931 1
0.01 0.801379 0.920385
0.02 0.723448 0.840769
0.03 0.645517 0.761154
0.04 0.567586 0.681538
0.05 0.489655 0.601923
0.06 0.411724 0.522308
0.07 0.333793 0.442692
0.08 0.255862 0.363077
0.09 0.177931 0.283462
0.1 0.1 0.203846
0 0.775862 1
0.01 0.708276 0.930769
0.02 0.64069 0.861538
0.03 0.573103 0.792308
0.04 0.505517 0.723077
0.05 0.437931 0.653846
0.06 0.370345 0.584615
0.07 0.302759 0.515385
0.08 0.235172 0.446154
0.09 0.167586 0.376923
0.1 0.1 0.307692
0 0.655172 1
0.01 0.599655 0.941154
0.02 0.544138 0.882308
0.03 0.488621 0.823462
0.04 0.433103 0.764615
0.05 0.377586 0.705769
0.06 0.322069 0.646923
0.07 0.266552 0.588077
0.08 0.211034 0.529231
0.09 0.155517 0.470385
0.1 0.1 0.411538
0 0.551724 1
0.01 0.506552 0.951538
0.02 0.461379 0.903077
0.03 0.416207 0.854615
0.04 0.371034 0.806154
0.05 0.325862 0.757692
0.06 0.28069 0.709231
0.07 0.235517 0.660769
0.08 0.190345 0.612308
0.09 0.145172 0.563846
0.1 0.1 0.515385
0 0.431034 1
0.01 0.397931 0.960192
0.02 0.364828 0.920385
0.03 0.331724 0.880577
0.04 0.298621 0.840769
0.05 0.265517 0.800962
0.06 0.232414 0.761154
0.07 0.19931 0.721346
0.08 0.166207 0.681538
0.09 0.133103 0.641731
0.1 0.1 0.601923
0 0.327586 1
0.01 0.304828 0.970577
0.02 0.282069 0.941154
0.03 0.25931 0.911731
0.04 0.236552 0.882308
0.05 0.213793 0.852885
0.06 0.191034 0.823462
0.07 0.168276 0.794038
0.08 0.145517 0.764615
0.09 0.122759 0.735192
0.1 0.1 0.705769
0 0.206897 1
0.01 0.196207 0.980962
0.02 0.185517 0.961923
0.03 0.174828 0.942885
0.04 0.164138 0.923846
0.05 0.153448 0.904808
0.06 0.142759 0.885769
0.07 0.132069 0.866731
0.08 0.121379 0.847692
0.09 0.11069 0.828654
0.1 0.1 0.809615
0 0.103448 1
0.01 0.103103 0.991346
0.02 0.102759 0.982692
0.03 0.102414 0.974038
0.04 0.102069 0.965385
0.05 0.101724 0.956731
0.06 0.101379 0.948077
0.07 0.101034 0.939423
0.08 0.10069 0.930769
0.09 0.100345 0.922115
0.1 0.1 0.913462
0 5.55112e-17 1
0.01 0.01 1
0.02 0.02 1
0.03 0.03 1
0.04 0.04 1
0.05 0.05 1
0.06 0.06 1
0.07 0.07 1
0.08 0.08 1
0.09 0.09 1
0.1 0.1 1
3 0 1 12
3 0 12 11
3 11 12 23
3 11 23 22
3 22 23 34
3 22 34 33
3 33 34 45
3 33 45 44
3 44 45 56
3 44 56 55
3 55 56 67
3 55 67 66
3 66 67 78
3 66 78 77
3 77 78 89
3 77 89 88
3 88 89 100
3 88 100 99
3 1 2 13
3 1 13 12
3 12 13 24
3 12 24 23
3 23 24 35
3 23 35 34
3 34 35 46
3 34 46 45
3 45 46 57
3 45 57 56
3 56 57 68
3 56 68 67
3 67 68 79
3 67 79 78
3 78 79 90
3 78 90 89
3 89 90 101
3 89 101 100
3 2 3 14
3 2 14 13
3 13 14 25
3 13 25 24
3 24 25 36
3 24 36 35
3 35 36 47
3 35 47 46
3 46 47 58
3 46 58 57
3 57 58 69
3 57 69 68
3 68 69 80
3 68 80 79
3 79 80 91
3 79 91 90
3 90 91 102
3 90 102 101
3 3 4 15
3 3 15 14
3 14 15 26
3 14 26 25
3 25 26 37
3 25 37 36
3 36 37 48
3 36 48 47
3 47 48 59
3 47 59 58
3 58 59 70
3 58 70 69
3 69 70 81
3 69 81 80
3 80 81 92
3 80 92 91
3 91 92 103
3 91 103 102
3 4 5 16
3 4 16 15
3 15 16 27
3 15 27 26
3 26 27 38
3 26 38 37
3 37 38 49
3 37 49 48
3 48 49 60
3 48 60 59
3 59 60 71
3 59 71 70
3 70 71 82
3 70 82 81
3 81 82 93
3 81 93 92
3 92 93 104
3 92 104 103
3 5 6 17
3 5 17 16
3 16 17 28
3 16 28 27
3 27 28 39
3 27 39 38
3 38 39 50
3 38 50 49
3 49 50 61
3 49 61 60
3 60 61 72
3 60 72 71
3 71 72 83
3 71 83 82
3 82 83 94
3 82 94 93
3 93 94 105
3 93 105 104
3 6 7 18
3 6 18 17
3 17 18 29
3 17 29 28
3 28 29 40
3 28 40 39
3 39 40 51
3 39 51 50
3 50 51 62
3 50 62 61
3 61 62 73
3 61 73 72
3 72 73 84
3 72 84 83
3 83 84 95
3 83 95 94
3 94 95 106
3 94 106 105
3 7 8 19
3 7 19 18
3 18 19 30
3 18 30 29
3 29 30 41
3 29 41 40
3 40 41 52
3 40 52 51
3 51 52 63
3 51 63 62
3 62 63 74
3 62 74 73
3 73 74 85
3 73 85 84
3 84 85 96
3 84 96 95
3 95 96 107
3 95 107 106
3 8 9 20
3 8 20 19
3 19 20 31
3 19 31 30
3 30 31 42
3 30 42 41
3 41 42 53
3 41 53 52
3 52 53 64
3 52 64 63
3 63 64 75
3 63 75 74
3 74 75 86
3 74 86 85
3 85 86 97
3 85 97 96
3 96 97 108
3 96 108 107
3 9 10 21
3 9 21 20
3 20 21 32
3 20 32 31
3 31 32 43
3 31 43 42
3 42 43 54
3 42 54 53
3 53 54 65
3 53 65 64
3 64 65 76
3 64 76 75
3 75 76 87
3 75 87 86
3 86 87 98
3 86 98 97
3 97 98 109
3 97 109 108
