ply
format ascii 1.0
comment Created by Open3D
element vertex 100
property double x
property double y
property double z
element face 170
property list uchar uint vertex_indices
end_header
0 1 1
0 0.9 0.9
0 0.8 0.8
0 0.7 0.7
0 0.6 0.6
0 0.5 0.5
0 0.4 0.4
0 0.3 0.3
0 0.2 0.2
0 0.1 0.1
0 5.55112e-17 5.55112e-17
0 0.87931 1
0 0.791379 0.912069
0 0.703448 0.824138
0 0.615517 0.736207
0 0.527586 0.648276
0 0.439655 0.560345
0 0.351724 0.472414
0 0.263793 0.384483
0 0.175862 0.296552
0 0.087931 0.208621
0 5.55112e-17 0.12069
0 0.775862 1
0 0.698276 0.922414
0 0.62069 0.844828
0 0.543103 0.767241
0 0.465517 0.689655
0 0.387931 0.612069
0 0.310345 0.534483
0 0.232759 0.456897
0 0.155172 0.37931
0 0.0775862 0.301724
0 5.55112e-17 0.224138
0 0.655172 1
0 0.589655 0.934483
0 0.524138 0.868966
0 0.458621 0.803448
0 0.393103 0.737931
0 0.327586 0.672414
0 0.262069 0.606897
0 0.196552 0.541379
0 0.131034 0.475862
0 0.0655172 0.410345
0 5.55112e-17 0.344828
0 0.551724 1
0 0.496552 0.944828
0 0.441379 0.889655
0 0.386207 0.834483
0 0.331034 0.77931
0 0.275862 0.724138
0 0.22069 0.668966
0 0.165517 0.613793
0 0.110345 0.558621
0 0.0551724 0.503448
0 5.55112e-17 0.448276
0 0.431034 1
0 0.387931 0.956897
0 0.344828 0.913793
0 0.301724 0.87069
0 0.258621 0.827586
0 0.215517 0.784483
0 0.172414 0.741379
0 0.12931 0.698276
0 0.0862069 0.655172
0 0.0431034 0.612069
0 5.55112e-17 0.568966
0 0.327586 1
0 0.294828 0.967241
0 0.262069 0.934483
0 0.22931 0.901724
0 0.196552 0.868966
0 0.163793 0.836207
0 0.131034 0.803448
0 0.0982759 0.77069
0 0.0655172 0.737931
0 0.0327586 0.705172
0 5.55112e-17 0.672414
0 0.206897 1
0 0.186207 0.97931
0 0.165517 0.958621
0 0.144828 0.937931
0 0.124138 0.917241
0 0.103448 0.896552
0 0.0827586 0.875862
0 0.062069 0.855172
0 0.0413793 0.834483
0 0.0206897 0.813793
0 5.55112e-17 0.793103
0 0.103448 1
0 0.0931034 0.989655
0 0.0827586 0.97931
0 0.0724138 0.968966
0 0.062069 0.958621
0 0.0517241 0.948276
0 0.0413793 0.937931
0 0.0310345 0.927586
0 0.0206897 0.917241
0 0.0103448 0.906897
0 5.55112e-17 0.896552
0 5.55112e-17 1
3 0 1 12
3 0 12 11
3 11 12 23
3 11 23 22
3 22 23 34
3 22 34 33
3 33 34 45
3 33 45 44
3 44 45 56
3 44 56 55
3 55 56 67
3 55 67 66
3 66 67 78
3 66 78 77
3 77 78 89
3 77 89 88
3 88 89 99
3 1 2 13
3 1 13 12
3 12 13 24
3 12 24 23
3 23 24 35
3 23 35 34
3 34 35 46
3 34 46 45
3 45 46 57
3 45 57 56
3 56 57 68
3 56 68 67
3 67 68 79
3 67 79 78
3 78 79 90
3 78 90 89
3 89 90 99
3 2 3 14
3 2 14 13
3 13 14 25
3 13 25 24
3 24 25 36
3 24 36 35
3 35 36 47
3 35 47 46
3 46 47 58
3 46 58 57
3 57 58 69
3 57 69 68
3 68 69 80
3 68 80 79
3 79 80 91
3 79 91 90
3 90 91 99
3 3 4 15
3 3 15 14
3 14 15 26
3 14 26 25
3 25 26 37
3 25 37 36
3 36 37 48
3 36 48 47
3 47 48 59
3 47 59 58
3 58 59 70
3 58 70 69
3 69 70 81
3 69 81 80
3 80 81 92
3 80 92 91
3 91 92 99
3 4 5 16
3 4 16 15
3 15 16 27
3 15 27 26
3 26 27 38
3 26 38 37
3 37 38 49
3 37 49 48
3 48 49 60
3 48 60 59
3 59 60 71
3 59 71 70
3 70 71 82
3 70 82 81
3 81 82 93
3 81 93 92
3 92 93 99
3 5 6 17
3 5 17 16
3 16 17 28
3 16 28 27
3 27 28 39
3 27 39 38
3 38 39 50
3 38 50 49
3 49 50 61
3 49 61 60
3 60 61 72
3 60 72 71
3 71 72 83
3 71 83 82
3 82 83 94
3 82 94 93
3 93 94 99
3 6 7 18
3 6 18 17
3 17 18 29
3 17 29 28
3 28 29 40
3 28 40 39
3 39 40 51
3 39 51 50
3 50 51 62
3 50 62 61
3 61 62 73
3 61 73 72
3 72 73 84
3 72 84 83
3 83 84 95
3 83 95 94
3 94 95 99
3 7 8 19
3 7 19 18
3 18 19 30
3 18 30 29
3 29 30 41
3 29 41 40
3 40 41 52
3 40 52 51
3 51 52 63
3 51 63 62
3 62 63 74
3 62 74 73
3 73 74 85
3 73 85 84
3 84 85 96
3 84 96 95
3 95 96 99
3 8 9 20
3 8 20 19
3 19 20 31
3 19 31 30
3 30 31 42
3 30 42 41
3 41 42 53
3 41 53 52
3 52 53 64
3 52 64 63
3 63 64 75
3 63 75 74
3 74 75 86
3 74 86 85
3 85 86 97
3 85 97 96
3 96 97 99
3 9 10 21
3 9 21 20
3 20 21 32
3 20 32 31
3 31 32 43
3 31 43 42
3 42 43 54
3 42 54 53
3 53 54 65
3 53 65 64
3 64 65 76
3 64 76 75
3 75 76 87
3 75 87 86
3 86 87 98
3 86 98 97
3 97 98 99
