ply
format ascii 1.0
comment Created by Open3D
element vertex 98
property double x
property double y
property double z
element face 168
property list uchar uint vertex_indices
end_header
1 1 5.55112e-17
1 1 5.55112e-17
1 1 0.0166667
0.989655 1 0.015
0.97931 1 0.0133333
0.968966 1 0.0116667
0.958621 1 0.01
0.948276 1 0.00833333
0.937931 1 0.00666667
0.927586 1 0.005
0.917241 1 0.00333333
0.906897 1 0.00166667
0.896552 1 5.55112e-17
1 1 0.0333333
0.97931 1 0.03
0.958621 1 0.0266667
0.937931 1 0.0233333
0.917241 1 0.02
0.896552 1 0.0166667
0.875862 1 0.0133333
0.855172 1 0.01
0.834483 1 0.00666667
0.813793 1 0.00333333
0.793103 1 5.55112e-17
0.967241 1 0.03
0.934483 1 0.0266667
0.901724 1 0.0233333
0.868966 1 0.02
0.836207 1 0.0166667
0.803448 1 0.0133333
0.77069 1 0.01
0.737931 1 0.00666667
0.705172 1 0.00333333
0.672414 1 5.55112e-17
1 1 0.05
0.956897 1 0.045
0.913793 1 0.04
0.87069 1 0.035
0.827586 1 0.03
0.784483 1 0.025
0.741379 1 0.02
0.698276 1 0.015
0.655172 1 0.01
0.612069 1 0.005
0.568966 1 5.55112e-17
1 1 0.0666667
0.944828 1 0.06
0.889655 1 0.0533333
0.834483 1 0.0466667
0.77931 1 0.04
0.724138 1 0.0333333
0.668966 1 0.0266667
0.613793 1 0.02
0.558621 1 0.0133333
0.503448 1 0.00666667
0.448276 1 5.55112e-17
0.934483 1 0.06
0.868966 1 0.0533333
0.803448 1 0.0466667
0.737931 1 0.04
0.672414 1 0.0333333
0.606897 1 0.0266667
0.541379 1 0.02
0.475862 1 0.0133333
0.410345 1 0.00666667
0.344828 1 5.55112e-17
1 1 0.0833333
0.922414 1 0.075
0.844828 1 0.0666667
0.767241 1 0.0583333
0.689655 1 0.05
0.612069 1 0.0416667
0.534483 1 0.0333333
0.456897 1 0.025
0.37931 1 0.0166667
0.301724 1 0.00833333
0.224138 1 5.55112e-17
1 1 0.1
0.912069 1 0.09
0.824138 1 0.08
0.736207 1 0.07
0.648276 1 0.06
0.560345 1 0.05
0.472414 1 0.04
0.384483 1 0.03
0.296552 1 0.02
0.208621 1 0.01
0.12069 1 5.55112e-17
0.9 1 0.09
0.8 1 0.08
0.7 1 0.07
0.6 1 0.06
0.5 1 0.05
0.4 1 0.04
0.3 1 0.03
0.2 1 0.02
0.1 1 0.01
0 1 5.55112e-17
3 0 3 2
3 2 3 14
3 2 14 13
3 13 14 24
3 13 24 35
3 13 35 34
3 34 35 46
3 34 46 45
3 45 46 56
3 45 56 67
3 45 67 66
3 66 67 78
3 66 78 77
3 77 78 88
3 0 4 3
3 3 4 15
3 3 15 14
3 14 15 25
3 14 25 24
3 24 25 36
3 24 36 35
3 35 36 47
3 35 47 46
3 46 47 57
3 46 57 56
3 56 57 68
3 56 68 67
3 67 68 79
3 67 79 78
3 78 79 89
3 78 89 88
3 0 5 4
3 4 5 16
3 4 16 15
3 15 16 26
3 15 26 25
3 25 26 37
3 25 37 36
3 36 37 48
3 36 48 47
3 47 48 58
3 47 58 57
3 57 58 69
3 57 69 68
3 68 69 80
3 68 80 79
3 79 80 90
3 79 90 89
3 0 6 5
3 5 6 17
3 5 17 16
3 16 17 27
3 16 27 26
3 26 27 38
3 26 38 37
3 37 38 49
3 37 49 48
3 48 49 59
3 48 59 58
3 58 59 70
3 58 70 69
3 69 70 81
3 69 81 80
3 80 81 91
3 80 91 90
3 0 7 6
3 6 7 18
3 6 18 17
3 17 18 28
3 17 28 27
3 27 28 39
3 27 39 38
3 38 39 50
3 38 50 49
3 49 50 60
3 49 60 59
3 59 60 71
3 59 71 70
3 70 71 82
3 70 82 81
3 81 82 92
3 81 92 91
3 0 8 7
3 7 8 19
3 7 19 18
3 18 19 29
3 18 29 28
3 28 29 40
3 28 40 39
3 39 40 51
3 39 51 50
3 50 51 61
3 50 61 60
3 60 61 72
3 60 72 71
3 71 72 83
3 71 83 82
3 82 83 93
3 82 93 92
3 0 9 8
3 8 9 20
3 8 20 19
3 19 20 30
3 19 30 29
3 29 30 41
3 29 41 40
3 40 41 52
3 40 52 51
3 51 52 62
3 51 62 61
3 61 62 73
3 61 73 72
3 72 73 84
3 72 84 83
3 83 84 94
3 83 94 93
3 0 10 9
3 9 10 21
3 9 21 20
3 20 21 31
3 20 31 30
3 30 31 42
3 30 42 41
3 41 42 53
3 41 53 52
3 52 53 63
3 52 63 62
3 62 63 74
3 62 74 73
3 73 74 85
3 73 85 84
3 84 85 95
3 84 95 94
3 0 11 10
3 10 11 22
3 10 22 21
3 21 22 32
3 21 32 31
3 31 32 43
3 31 43 42
3 42 43 54
3 42 54 53
3 53 54 64
3 53 64 63
3 63 64 75
3 63 75 74
3 74 75 86
3 74 86 85
3 85 86 96
3 85 96 95
3 0 1 12
3 0 12 11
3 11 12 23
3 11 23 22
3 22 23 33
3 22 33 32
3 32 33 44
3 32 44 43
3 43 44 55
3 43 55 54
3 54 55 65
3 54 65 64
3 64 65 76
3 64 76 75
3 75 76 87
3 75 87 86
3 86 87 97
3 86 97 96
