ply
format ascii 1.0
comment Created by Open3D
element vertex 110
property double x
property double y
property double z
element face 180
property list uchar uint vertex_indices
end_header
0 1 5.55112e-17
0.01 1 0.01
0.02 1 0.02
0.03 1 0.03
0.04 1 0.04
0.05 1 0.05
0.06 1 0.06
0.07 1 0.07
0.08 1 0.08
0.09 1 0.09
0.1 1 0.1
0.12069 1 5.55112e-17
0.118621 0.989615 0.01
0.116552 0.979231 0.02
0.114483 0.968846 0.03
0.112414 0.958462 0.04
0.110345 0.948077 0.05
0.108276 0.937692 0.06
0.106207 0.927308 0.07
0.104138 0.916923 0.08
0.102069 0.906538 0.09
0.1 0.896154 0.1
0.224138 1 5.55112e-17
0.211724 0.979231 0.01
0.19931 0.958462 0.02
0.186897 0.937692 0.03
0.174483 0.916923 0.04
0.162069 0.896154 0.05
0.149655 0.875385 0.06
0.137241 0.854615 0.07
0.124828 0.833846 0.08
0.112414 0.813077 0.09
0.1 0.792308 0.1
0.344828 1 5.55112e-17
0.320345 0.968846 0.01
0.295862 0.937692 0.02
0.271379 0.906538 0.03
0.246897 0.875385 0.04
0.222414 0.844231 0.05
0.197931 0.813077 0.06
0.173448 0.781923 0.07
0.148966 0.750769 0.08
0.124483 0.719615 0.09
0.1 0.688462 0.1
0.448276 1 5.55112e-17
0.413448 0.958462 0.01
0.378621 0.916923 0.02
0.343793 0.875385 0.03
0.308966 0.833846 0.04
0.274138 0.792308 0.05
0.23931 0.750769 0.06
0.204483 0.709231 0.07
0.169655 0.667692 0.08
0.134828 0.626154 0.09
0.1 0.584615 0.1
0.568966 1 5.55112e-17
0.522069 0.949808 0.01
0.475172 0.899615 0.02
0.428276 0.849423 0.03
0.381379 0.799231 0.04
0.334483 0.749038 0.05
0.287586 0.698846 0.06
0.24069 0.648654 0.07
0.193793 0.598462 0.08
0.146897 0.548269 0.09
0.1 0.498077 0.1
0.672414 1 5.55112e-17
0.615172 0.939423 0.01
0.557931 0.878846 0.02
0.50069 0.818269 0.03
0.443448 0.757692 0.04
0.386207 0.697115 0.05
0.328966 0.636538 0.06
0.271724 0.575962 0.07
0.214483 0.515385 0.08
0.157241 0.454808 0.09
0.1 0.394231 0.1
0.793103 1 5.55112e-17
0.723793 0.929038 0.01
0.654483 0.858077 0.02
0.585172 0.787115 0.03
0.515862 0.716154 0.04
0.446552 0.645192 0.05
0.377241 0.574231 0.06
0.307931 0.503269 0.07
0.238621 0.432308 0.08
0.16931 0.361346 0.09
0.1 0.290385 0.1
0.896552 1 5.55112e-17
0.816897 0.918654 0.01
0.737241 0.837308 0.02
0.657586 0.755962 0.03
0.577931 0.674615 0.04
0.498276 0.593269 0.05
0.418621 0.511923 0.06
0.338966 0.430577 0.07
0.25931 0.349231 0.08
0.179655 0.267885 0.09
0.1 0.186538 0.1
1 1 5.55112e-17
0.91 0.91 0.01
0.82 0.82 0.02
0.73 0.73 0.03
0.64 0.64 0.04
0.55 0.55 0.05
0.46 0.46 0.06
0.37 0.37 0.07
0.28 0.28 0.08
0.19 0.19 0.09
0.1 0.1 0.1
3 0 1 12
3 0 12 11
3 11 12 23
3 11 23 22
3 22 23 34
3 22 34 33
3 33 34 45
3 33 45 44
3 44 45 56
3 44 56 55
3 55 56 67
3 55 67 66
3 66 67 78
3 66 78 77
3 77 78 89
3 77 89 88
3 88 89 100
3 88 100 99
3 1 2 13
3 1 13 12
3 12 13 24
3 12 24 23
3 23 24 35
3 23 35 34
3 34 35 46
3 34 46 45
3 45 46 57
3 45 57 56
3 56 57 68
3 56 68 67
3 67 68 79
3 67 79 78
3 78 79 90
3 78 90 89
3 89 90 101
3 89 101 100
3 2 3 14
3 2 14 13
3 13 14 25
3 13 25 24
3 24 25 36
3 24 36 35
3 35 36 47
3 35 47 46
3 46 47 58
3 46 58 57
3 57 58 69
3 57 69 68
3 68 69 80
3 68 80 79
3 79 80 91
3 79 91 90
3 90 91 102
3 90 102 101
3 3 4 15
3 3 15 14
3 14 15 26
3 14 26 25
3 25 26 37
3 25 37 36
3 36 37 48
3 36 48 47
3 47 48 59
3 47 59 58
3 58 59 70
3 58 70 69
3 69 70 81
3 69 81 80
3 80 81 92
3 80 92 91
3 91 92 103
3 91 103 102
3 4 5 16
3 4 16 15
3 15 16 27
3 15 27 26
3 26 27 38
3 26 38 37
3 37 38 49
3 37 49 48
3 48 49 60
3 48 60 59
3 59 60 71
3 59 71 70
3 70 71 82
3 70 82 81
3 81 82 93
3 81 93 92
3 92 93 104
3 92 104 103
3 5 6 17
3 5 17 16
3 16 17 28
3 16 28 27
3 27 28 39
3 27 39 38
3 38 39 50
3 38 50 49
3 49 50 61
3 49 61 60
3 60 61 72
3 60 72 71
3 71 72 83
3 71 83 82
3 82 83 94
3 82 94 93
3 93 94 105
3 93 105 104
3 6 7 18
3 6 18 17
3 17 18 29
3 17 29 28
3 28 29 40
3 28 40 39
3 39 40 51
3 39 51 50
3 50 51 62
3 50 62 61
3 61 62 73
3 61 73 72
3 72 73 84
3 72 84 83
3 83 84 95
3 83 95 94
3 94 95 106
3 94 106 105
3 7 8 19
3 7 19 18
3 18 19 30
3 18 30 29
3 29 30 41
3 29 41 40
3 40 41 52
3 40 52 51
3 51 52 63
3 51 63 62
3 62 63 74
3 62 74 73
3 73 74 85
3 73 85 84
3 84 85 96
3 84 96 95
3 95 96 107
3 95 107 106
3 8 9 20
3 8 20 19
3 19 20 31
3 19 31 30
3 30 31 42
3 30 42 41
3 41 42 53
3 41 53 52
3 52 53 64
3 52 64 63
3 63 64 75
3 63 75 74
3 74 75 86
3 74 86 85
3 85 86 97
3 85 97 96
3 96 97 108
3 96 108 107
3 9 10 21
3 9 21 20
3 20 21 32
3 20 32 31
3 31 32 43
3 31 43 42
3 42 43 54
3 42 54 53
3 53 54 65
3 53 65 64
3 64 65 76
3 64 76 75
3 75 76 87
3 75 87 86
3 86 87 98
3 86 98 97
3 97 98 109
3 97 109 108
