ply
format ascii 1.0
comment Created by Open3D
element vertex 100
property double x
property double y
property double z
element face 170
property list uchar uint vertex_indices
end_header
0.1 1 0.1
0.203846 1 0.1
0.193462 0.989615 0.1
0.183077 0.979231 0.1
0.172692 0.968846 0.1
0.162308 0.958462 0.1
0.151923 0.948077 0.1
0.141538 0.937692 0.1
0.131154 0.927308 0.1
0.120769 0.916923 0.1
0.110385 0.906538 0.1
0.1 0.896154 0.1
0.307692 1 0.1
0.286923 0.979231 0.1
0.266154 0.958462 0.1
0.245385 0.937692 0.1
0.224615 0.916923 0.1
0.203846 0.896154 0.1
0.183077 0.875385 0.1
0.162308 0.854615 0.1
0.141538 0.833846 0.1
0.120769 0.813077 0.1
0.1 0.792308 0.1
0.411538 1 0.1
0.380385 0.968846 0.1
0.349231 0.937692 0.1
0.318077 0.906538 0.1
0.286923 0.875385 0.1
0.255769 0.844231 0.1
0.224615 0.813077 0.1
0.193462 0.781923 0.1
0.162308 0.750769 0.1
0.131154 0.719615 0.1
0.1 0.688462 0.1
0.515385 1 0.1
0.473846 0.958462 0.1
0.432308 0.916923 0.1
0.390769 0.875385 0.1
0.349231 0.833846 0.1
0.307692 0.792308 0.1
0.266154 0.750769 0.1
0.224615 0.709231 0.1
0.183077 0.667692 0.1
0.141538 0.626154 0.1
0.1 0.584615 0.1
0.601923 1 0.1
0.551731 0.949808 0.1
0.501538 0.899615 0.1
0.451346 0.849423 0.1
0.401154 0.799231 0.1
0.350962 0.749038 0.1
0.300769 0.698846 0.1
0.250577 0.648654 0.1
0.200385 0.598462 0.1
0.150192 0.548269 0.1
0.1 0.498077 0.1
0.705769 1 0.1
0.645192 0.939423 0.1
0.584615 0.878846 0.1
0.524038 0.818269 0.1
0.463462 0.757692 0.1
0.402885 0.697115 0.1
0.342308 0.636538 0.1
0.281731 0.575962 0.1
0.221154 0.515385 0.1
0.160577 0.454808 0.1
0.1 0.394231 0.1
0.809615 1 0.1
0.738654 0.929038 0.1
0.667692 0.858077 0.1
0.596731 0.787115 0.1
0.525769 0.716154 0.1
0.454808 0.645192 0.1
0.383846 0.574231 0.1
0.312885 0.503269 0.1
0.241923 0.432308 0.1
0.170962 0.361346 0.1
0.1 0.290385 0.1
0.913462 1 0.1
0.832115 0.918654 0.1
0.750769 0.837308 0.1
0.669423 0.755962 0.1
0.588077 0.674615 0.1
0.506731 0.593269 0.1
0.425385 0.511923 0.1
0.344038 0.430577 0.1
0.262692 0.349231 0.1
0.181346 0.267885 0.1
0.1 0.186538 0.1
1 1 0.1
0.91 0.91 0.1
0.82 0.82 0.1
0.73 0.73 0.1
0.64 0.64 0.1
0.55 0.55 0.1
0.46 0.46 0.1
0.37 0.37 0.1
0.28 0.28 0.1
0.19 0.19 0.1
0.1 0.1 0.1
3 0 2 1
3 1 2 13
3 1 13 12
3 12 13 24
3 12 24 23
3 23 24 35
3 23 35 34
3 34 35 46
3 34 46 45
3 45 46 57
3 45 57 56
3 56 57 68
3 56 68 67
3 67 68 79
3 67 79 78
3 78 79 90
3 78 90 89
3 0 3 2
3 2 3 14
3 2 14 13
3 13 14 25
3 13 25 24
3 24 25 36
3 24 36 35
3 35 36 47
3 35 47 46
3 46 47 58
3 46 58 57
3 57 58 69
3 57 69 68
3 68 69 80
3 68 80 79
3 79 80 91
3 79 91 90
3 0 4 3
3 3 4 15
3 3 15 14
3 14 15 26
3 14 26 25
3 25 26 37
3 25 37 36
3 36 37 48
3 36 48 47
3 47 48 59
3 47 59 58
3 58 59 70
3 58 70 69
3 69 70 81
3 69 81 80
3 80 81 92
3 80 92 91
3 0 5 4
3 4 5 16
3 4 16 15
3 15 16 27
3 15 27 26
3 26 27 38
3 26 38 37
3 37 38 49
3 37 49 48
3 48 49 60
3 48 60 59
3 59 60 71
3 59 71 70
3 70 71 82
3 70 82 81
3 81 82 93
3 81 93 92
3 0 6 5
3 5 6 17
3 5 17 16
3 16 17 28
3 16 28 27
3 27 28 39
3 27 39 38
3 38 39 50
3 38 50 49
3 49 50 61
3 49 61 60
3 60 61 72
3 60 72 71
3 71 72 83
3 71 83 82
3 82 83 94
3 82 94 93
3 0 7 6
3 6 7 18
3 6 18 17
3 17 18 29
3 17 29 28
3 28 29 40
3 28 40 39
3 39 40 51
3 39 51 50
3 50 51 62
3 50 62 61
3 61 62 73
3 61 73 72
3 72 73 84
3 72 84 83
3 83 84 95
3 83 95 94
3 0 8 7
3 7 8 19
3 7 19 18
3 18 19 30
3 18 30 29
3 29 30 41
3 29 41 40
3 40 41 52
3 40 52 51
3 51 52 63
3 51 63 62
3 62 63 74
3 62 74 73
3 73 74 85
3 73 85 84
3 84 85 96
3 84 96 95
3 0 9 8
3 8 9 20
3 8 20 19
3 19 20 31
3 19 31 30
3 30 31 42
3 30 42 41
3 41 42 53
3 41 53 52
3 52 53 64
3 52 64 63
3 63 64 75
3 63 75 74
3 74 75 86
3 74 86 85
3 85 86 97
3 85 97 96
3 0 10 9
3 9 10 21
3 9 21 20
3 20 21 32
3 20 32 31
3 31 32 43
3 31 43 42
3 42 43 54
3 42 54 53
3 53 54 65
3 53 65 64
3 64 65 76
3 64 76 75
3 75 76 87
3 75 87 86
3 86 87 98
3 86 98 97
3 0 11 10
3 10 11 22
3 10 22 21
3 21 22 33
3 21 33 32
3 32 33 44
3 32 44 43
3 43 44 55
3 43 55 54
3 54 55 66
3 54 66 65
3 65 66 77
3 65 77 76
3 76 77 88
3 76 88 87
3 87 88 99
3 87 99 98
