ply
format ascii 1.0
comment Created by Open3D
element vertex 110
property double x
property double y
property double z
element face 180
property list uchar uint vertex_indices
end_header
1 5.55112e-17 5.55112e-17
1 5.55112e-17 0.1
1 5.55112e-17 0.2
1 5.55112e-17 0.3
1 5.55112e-17 0.4
1 5.55112e-17 0.5
1 5.55112e-17 0.6
1 5.55112e-17 0.7
1 5.55112e-17 0.8
1 5.55112e-17 0.9
1 5.55112e-17 1
1 5.55112e-17 0.12069
0.989655 5.55112e-17 0.208621
0.97931 5.55112e-17 0.296552
0.968966 5.55112e-17 0.384483
0.958621 5.55112e-17 0.472414
0.948276 5.55112e-17 0.560345
0.937931 5.55112e-17 0.648276
0.927586 5.55112e-17 0.736207
0.917241 5.55112e-17 0.824138
0.906897 5.55112e-17 0.912069
0.896552 5.55112e-17 1
1 5.55112e-17 0.224138
0.97931 5.55112e-17 0.301724
0.958621 5.55112e-17 0.37931
0.937931 5.55112e-17 0.456897
0.917241 5.55112e-17 0.534483
0.896552 5.55112e-17 0.612069
0.875862 5.55112e-17 0.689655
0.855172 5.55112e-17 0.767241
0.834483 5.55112e-17 0.844828
0.813793 5.55112e-17 0.922414
0.793103 5.55112e-17 1
1 5.55112e-17 0.344828
0.967241 5.55112e-17 0.410345
0.934483 5.55112e-17 0.475862
0.901724 5.55112e-17 0.541379
0.868966 5.55112e-17 0.606897
0.836207 5.55112e-17 0.672414
0.803448 5.55112e-17 0.737931
0.77069 5.55112e-17 0.803448
0.737931 5.55112e-17 0.868966
0.705172 5.55112e-17 0.934483
0.672414 5.55112e-17 1
1 5.55112e-17 0.448276
0.956897 5.55112e-17 0.503448
0.913793 5.55112e-17 0.558621
0.87069 5.55112e-17 0.613793
0.827586 5.55112e-17 0.668966
0.784483 5.55112e-17 0.724138
0.741379 5.55112e-17 0.77931
0.698276 5.55112e-17 0.834483
0.655172 5.55112e-17 0.889655
0.612069 5.55112e-17 0.944828
0.568966 5.55112e-17 1
1 5.55112e-17 0.568966
0.944828 5.55112e-17 0.612069
0.889655 5.55112e-17 0.655172
0.834483 5.55112e-17 0.698276
0.77931 5.55112e-17 0.741379
0.724138 5.55112e-17 0.784483
0.668966 5.55112e-17 0.827586
0.613793 5.55112e-17 0.87069
0.558621 5.55112e-17 0.913793
0.503448 5.55112e-17 0.956897
0.448276 5.55112e-17 1
1 5.55112e-17 0.672414
0.934483 5.55112e-17 0.705172
0.868966 5.55112e-17 0.737931
0.803448 5.55112e-17 0.77069
0.737931 5.55112e-17 0.803448
0.672414 5.55112e-17 0.836207
0.606897 5.55112e-17 0.868966
0.541379 5.55112e-17 0.901724
0.475862 5.55112e-17 0.934483
0.410345 5.55112e-17 0.967241
0.344828 5.55112e-17 1
1 5.55112e-17 0.793103
0.922414 5.55112e-17 0.813793
0.844828 5.55112e-17 0.834483
0.767241 5.55112e-17 0.855172
0.689655 5.55112e-17 0.875862
0.612069 5.55112e-17 0.896552
0.534483 5.55112e-17 0.917241
0.456897 5.55112e-17 0.937931
0.37931 5.55112e-17 0.958621
0.301724 5.55112e-17 0.97931
0.224138 5.55112e-17 1
1 5.55112e-17 0.896552
0.912069 5.55112e-17 0.906897
0.824138 5.55112e-17 0.917241
0.736207 5.55112e-17 0.927586
0.648276 5.55112e-17 0.937931
0.560345 5.55112e-17 0.948276
0.472414 5.55112e-17 0.958621
0.384483 5.55112e-17 0.968966
0.296552 5.55112e-17 0.97931
0.208621 5.55112e-17 0.989655
0.12069 5.55112e-17 1
1 5.55112e-17 1
0.9 5.55112e-17 1
0.8 5.55112e-17 1
0.7 5.55112e-17 1
0.6 5.55112e-17 1
0.5 5.55112e-17 1
0.4 5.55112e-17 1
0.3 5.55112e-17 1
0.2 5.55112e-17 1
0.1 5.55112e-17 1
0 5.55112e-17 1
3 0 1 12
3 0 12 11
3 11 12 23
3 11 23 22
3 22 23 34
3 22 34 33
3 33 34 45
3 33 45 44
3 44 45 56
3 44 56 55
3 55 56 67
3 55 67 66
3 66 67 78
3 66 78 77
3 77 78 89
3 77 89 88
3 88 89 100
3 88 100 99
3 1 2 13
3 1 13 12
3 12 13 24
3 12 24 23
3 23 24 35
3 23 35 34
3 34 35 46
3 34 46 45
3 45 46 57
3 45 57 56
3 56 57 68
3 56 68 67
3 67 68 79
3 67 79 78
3 78 79 90
3 78 90 89
3 89 90 101
3 89 101 100
3 2 3 14
3 2 14 13
3 13 14 25
3 13 25 24
3 24 25 36
3 24 36 35
3 35 36 47
3 35 47 46
3 46 47 58
3 46 58 57
3 57 58 69
3 57 69 68
3 68 69 80
3 68 80 79
3 79 80 91
3 79 91 90
3 90 91 102
3 90 102 101
3 3 4 15
3 3 15 14
3 14 15 26
3 14 26 25
3 25 26 37
3 25 37 36
3 36 37 48
3 36 48 47
3 47 48 59
3 47 59 58
3 58 59 70
3 58 70 69
3 69 70 81
3 69 81 80
3 80 81 92
3 80 92 91
3 91 92 103
3 91 103 102
3 4 5 16
3 4 16 15
3 15 16 27
3 15 27 26
3 26 27 38
3 26 38 37
3 37 38 49
3 37 49 48
3 48 49 60
3 48 60 59
3 59 60 71
3 59 71 70
3 70 71 82
3 70 82 81
3 81 82 93
3 81 93 92
3 92 93 104
3 92 104 103
3 5 6 17
3 5 17 16
3 16 17 28
3 16 28 27
3 27 28 39
3 27 39 38
3 38 39 50
3 38 50 49
3 49 50 61
3 49 61 60
3 60 61 72
3 60 72 71
3 71 72 83
3 71 83 82
3 82 83 94
3 82 94 93
3 93 94 105
3 93 105 104
3 6 7 18
3 6 18 17
3 17 18 29
3 17 29 28
3 28 29 40
3 28 40 39
3 39 40 51
3 39 51 50
3 50 51 62
3 50 62 61
3 61 62 73
3 61 73 72
3 72 73 84
3 72 84 83
3 83 84 95
3 83 95 94
3 94 95 106
3 94 106 105
3 7 8 19
3 7 19 18
3 18 19 30
3 18 30 29
3 29 30 41
3 29 41 40
3 40 41 52
3 40 52 51
3 51 52 63
3 51 63 62
3 62 63 74
3 62 74 73
3 73 74 85
3 73 85 84
3 84 85 96
3 84 96 95
3 95 96 107
3 95 107 106
3 8 9 20
3 8 20 19
3 19 20 31
3 19 31 30
3 30 31 42
3 30 42 41
3 41 42 53
3 41 53 52
3 52 53 64
3 52 64 63
3 63 64 75
3 63 75 74
3 74 75 86
3 74 86 85
3 85 86 97
3 85 97 96
3 96 97 108
3 96 108 107
3 9 10 21
3 9 21 20
3 20 21 32
3 20 32 31
3 31 32 43
3 31 43 42
3 42 43 54
3 42 54 53
3 53 54 65
3 53 65 64
3 64 65 76
3 64 76 75
3 75 76 87
3 75 87 86
3 86 87 98
3 86 98 97
3 97 98 109
3 97 109 108
