ply
format ascii 1.0
comment Created by Open3D
element vertex 878
property double x
property double y
property double z
element face 1688
property list uchar uint vertex_indices
end_header
1 1 5.55112e-17
1 1 5.55112e-17
1 0.965517 5.55112e-17
1 0.966667 0.000555556
1 0.967816 0.00111111
1 0.968966 0.00166667
1 0.970115 0.00222222
1 0.971264 0.00277778
1 0.972414 0.00333333
1 0.973563 0.00388889
1 0.974713 0.00444444
1 0.975862 0.005
1 0.977011 0.00555556
1 0.978161 0.00611111
1 0.97931 0.00666667
1 0.98046 0.00722222
1 0.981609 0.00777778
1 0.982759 0.00833333
1 0.983908 0.00888889
1 0.985057 0.00944444
1 0.986207 0.01
1 0.987356 0.0105556
1 0.988506 0.0111111
1 0.989655 0.0116667
1 0.990805 0.0122222
1 0.991954 0.0127778
1 0.993103 0.0133333
1 0.994253 0.0138889
1 0.995402 0.0144444
1 0.996552 0.015
1 0.997701 0.0155556
1 0.998851 0.0161111
1 1 0.0166667
1 0.931034 5.55112e-17
1 0.933333 0.000555556
1 0.935632 0.00111111
1 0.937931 0.00166667
1 0.94023 0.00222222
1 0.942529 0.00277778
1 0.944828 0.00333333
1 0.947126 0.00388889
1 0.949425 0.00444444
1 0.951724 0.005
1 0.954023 0.00555556
1 0.956322 0.00611111
1 0.958621 0.00666667
1 0.96092 0.00722222
1 0.963218 0.00777778
1 0.965517 0.00833333
1 0.967816 0.00888889
1 0.970115 0.00944444
1 0.972414 0.01
1 0.974713 0.0105556
1 0.977011 0.0111111
1 0.97931 0.0116667
1 0.981609 0.0122222
1 0.983908 0.0127778
1 0.986207 0.0133333
1 0.988506 0.0138889
1 0.990805 0.0144444
1 0.993103 0.015
1 0.995402 0.0155556
1 0.997701 0.0161111
1 0.896552 5.55112e-17
1 0.9 0.000555556
1 0.903448 0.00111111
1 0.906897 0.00166667
1 0.910345 0.00222222
1 0.913793 0.00277778
1 0.917241 0.00333333
1 0.92069 0.00388889
1 0.924138 0.00444444
1 0.927586 0.005
1 0.931034 0.00555556
1 0.934483 0.00611111
1 0.937931 0.00666667
1 0.941379 0.00722222
1 0.944828 0.00777778
1 0.948276 0.00833333
1 0.951724 0.00888889
1 0.955172 0.00944444
1 0.958621 0.01
1 0.962069 0.0105556
1 0.965517 0.0111111
1 0.968966 0.0116667
1 0.972414 0.0122222
1 0.975862 0.0127778
1 0.97931 0.0133333
1 0.982759 0.0138889
1 0.986207 0.0144444
1 0.989655 0.015
1 0.993103 0.0155556
1 0.996552 0.0161111
1 0.862069 5.55112e-17
1 0.866667 0.000555556
1 0.871264 0.00111111
1 0.875862 0.00166667
1 0.88046 0.00222222
1 0.885057 0.00277778
1 0.889655 0.00333333
1 0.894253 0.00388889
1 0.898851 0.00444444
1 0.903448 0.005
1 0.908046 0.00555556
1 0.912644 0.00611111
1 0.917241 0.00666667
1 0.921839 0.00722222
1 0.926437 0.00777778
1 0.931034 0.00833333
1 0.935632 0.00888889
1 0.94023 0.00944444
1 0.944828 0.01
1 0.949425 0.0105556
1 0.954023 0.0111111
1 0.958621 0.0116667
1 0.963218 0.0122222
1 0.967816 0.0127778
1 0.972414 0.0133333
1 0.977011 0.0138889
1 0.981609 0.0144444
1 0.986207 0.015
1 0.990805 0.0155556
1 0.995402 0.0161111
1 0.827586 5.55112e-17
1 0.833333 0.00111111
1 0.83908 0.00222222
1 0.844828 0.00333333
1 0.850575 0.00444444
1 0.856322 0.00555556
1 0.862069 0.00666667
1 0.867816 0.00777778
1 0.873563 0.00888889
1 0.87931 0.01
1 0.885057 0.0111111
1 0.890805 0.0122222
1 0.896552 0.0133333
1 0.902299 0.0144444
1 0.908046 0.0155556
1 0.913793 0.0166667
1 0.91954 0.0177778
1 0.925287 0.0188889
1 0.931034 0.02
1 0.936782 0.0211111
1 0.942529 0.0222222
1 0.948276 0.0233333
1 0.954023 0.0244444
1 0.95977 0.0255556
1 0.965517 0.0266667
1 0.971264 0.0277778
1 0.977011 0.0288889
1 0.982759 0.03
1 0.988506 0.0311111
1 0.994253 0.0322222
1 1 0.0333333
1 0.793103 5.55112e-17
1 0.8 0.00111111
1 0.806897 0.00222222
1 0.813793 0.00333333
1 0.82069 0.00444444
1 0.827586 0.00555556
1 0.834483 0.00666667
1 0.841379 0.00777778
1 0.848276 0.00888889
1 0.855172 0.01
1 0.862069 0.0111111
1 0.868966 0.0122222
1 0.875862 0.0133333
1 0.882759 0.0144444
1 0.889655 0.0155556
1 0.896552 0.0166667
1 0.903448 0.0177778
1 0.910345 0.0188889
1 0.917241 0.02
1 0.924138 0.0211111
1 0.931034 0.0222222
1 0.937931 0.0233333
1 0.944828 0.0244444
1 0.951724 0.0255556
1 0.958621 0.0266667
1 0.965517 0.0277778
1 0.972414 0.0288889
1 0.97931 0.03
1 0.986207 0.0311111
1 0.993103 0.0322222
1 0.758621 5.55112e-17
1 0.766667 0.00111111
1 0.774713 0.00222222
1 0.782759 0.00333333
1 0.790805 0.00444444
1 0.798851 0.00555556
1 0.806897 0.00666667
1 0.814943 0.00777778
1 0.822989 0.00888889
1 0.831034 0.01
1 0.83908 0.0111111
1 0.847126 0.0122222
1 0.855172 0.0133333
1 0.863218 0.0144444
1 0.871264 0.0155556
1 0.87931 0.0166667
1 0.887356 0.0177778
1 0.895402 0.0188889
1 0.903448 0.02
1 0.911494 0.0211111
1 0.91954 0.0222222
1 0.927586 0.0233333
1 0.935632 0.0244444
1 0.943678 0.0255556
1 0.951724 0.0266667
1 0.95977 0.0277778
1 0.967816 0.0288889
1 0.975862 0.03
1 0.983908 0.0311111
1 0.991954 0.0322222
1 0.724138 5.55112e-17
1 0.733333 0.00111111
1 0.742529 0.00222222
1 0.751724 0.00333333
1 0.76092 0.00444444
1 0.770115 0.00555556
1 0.77931 0.00666667
1 0.788506 0.00777778
1 0.797701 0.00888889
1 0.806897 0.01
1 0.816092 0.0111111
1 0.825287 0.0122222
1 0.834483 0.0133333
1 0.843678 0.0144444
1 0.852874 0.0155556
1 0.862069 0.0166667
1 0.871264 0.0177778
1 0.88046 0.0188889
1 0.889655 0.02
1 0.898851 0.0211111
1 0.908046 0.0222222
1 0.917241 0.0233333
1 0.926437 0.0244444
1 0.935632 0.0255556
1 0.944828 0.0266667
1 0.954023 0.0277778
1 0.963218 0.0288889
1 0.972414 0.03
1 0.981609 0.0311111
1 0.990805 0.0322222
1 0.689655 5.55112e-17
1 0.7 0.00111111
1 0.710345 0.00222222
1 0.72069 0.00333333
1 0.731034 0.00444444
1 0.741379 0.00555556
1 0.751724 0.00666667
1 0.762069 0.00777778
1 0.772414 0.00888889
1 0.782759 0.01
1 0.793103 0.0111111
1 0.803448 0.0122222
1 0.813793 0.0133333
1 0.824138 0.0144444
1 0.834483 0.0155556
1 0.844828 0.0166667
1 0.855172 0.0177778
1 0.865517 0.0188889
1 0.875862 0.02
1 0.886207 0.0211111
1 0.896552 0.0222222
1 0.906897 0.0233333
1 0.917241 0.0244444
1 0.927586 0.0255556
1 0.937931 0.0266667
1 0.948276 0.0277778
1 0.958621 0.0288889
1 0.968966 0.03
1 0.97931 0.0311111
1 0.989655 0.0322222
1 0.655172 5.55112e-17
1 0.666667 0.00166667
1 0.678161 0.00333333
1 0.689655 0.005
1 0.701149 0.00666667
1 0.712644 0.00833333
1 0.724138 0.01
1 0.735632 0.0116667
1 0.747126 0.0133333
1 0.758621 0.015
1 0.770115 0.0166667
1 0.781609 0.0183333
1 0.793103 0.02
1 0.804598 0.0216667
1 0.816092 0.0233333
1 0.827586 0.025
1 0.83908 0.0266667
1 0.850575 0.0283333
1 0.862069 0.03
1 0.873563 0.0316667
1 0.885057 0.0333333
1 0.896552 0.035
1 0.908046 0.0366667
1 0.91954 0.0383333
1 0.931034 0.04
1 0.942529 0.0416667
1 0.954023 0.0433333
1 0.965517 0.045
1 0.977011 0.0466667
1 0.988506 0.0483333
1 1 0.05
1 0.62069 5.55112e-17
1 0.633333 0.00166667
1 0.645977 0.00333333
1 0.658621 0.005
1 0.671264 0.00666667
1 0.683908 0.00833333
1 0.696552 0.01
1 0.709195 0.0116667
1 0.721839 0.0133333
1 0.734483 0.015
1 0.747126 0.0166667
1 0.75977 0.0183333
1 0.772414 0.02
1 0.785057 0.0216667
1 0.797701 0.0233333
1 0.810345 0.025
1 0.822989 0.0266667
1 0.835632 0.0283333
1 0.848276 0.03
1 0.86092 0.0316667
1 0.873563 0.0333333
1 0.886207 0.035
1 0.898851 0.0366667
1 0.911494 0.0383333
1 0.924138 0.04
1 0.936782 0.0416667
1 0.949425 0.0433333
1 0.962069 0.045
1 0.974713 0.0466667
1 0.987356 0.0483333
1 0.586207 5.55112e-17
1 0.6 0.00166667
1 0.613793 0.00333333
1 0.627586 0.005
1 0.641379 0.00666667
1 0.655172 0.00833333
1 0.668966 0.01
1 0.682759 0.0116667
1 0.696552 0.0133333
1 0.710345 0.015
1 0.724138 0.0166667
1 0.737931 0.0183333
1 0.751724 0.02
1 0.765517 0.0216667
1 0.77931 0.0233333
1 0.793103 0.025
1 0.806897 0.0266667
1 0.82069 0.0283333
1 0.834483 0.03
1 0.848276 0.0316667
1 0.862069 0.0333333
1 0.875862 0.035
1 0.889655 0.0366667
1 0.903448 0.0383333
1 0.917241 0.04
1 0.931034 0.0416667
1 0.944828 0.0433333
1 0.958621 0.045
1 0.972414 0.0466667
1 0.986207 0.0483333
1 0.551724 5.55112e-17
1 0.566667 0.00166667
1 0.581609 0.00333333
1 0.596552 0.005
1 0.611494 0.00666667
1 0.626437 0.00833333
1 0.641379 0.01
1 0.656322 0.0116667
1 0.671264 0.0133333
1 0.686207 0.015
1 0.701149 0.0166667
1 0.716092 0.0183333
1 0.731034 0.02
1 0.745977 0.0216667
1 0.76092 0.0233333
1 0.775862 0.025
1 0.790805 0.0266667
1 0.805747 0.0283333
1 0.82069 0.03
1 0.835632 0.0316667
1 0.850575 0.0333333
1 0.865517 0.035
1 0.88046 0.0366667
1 0.895402 0.0383333
1 0.910345 0.04
1 0.925287 0.0416667
1 0.94023 0.0433333
1 0.955172 0.045
1 0.970115 0.0466667
1 0.985057 0.0483333
1 0.517241 5.55112e-17
1 0.533333 0.00166667
1 0.549425 0.00333333
1 0.565517 0.005
1 0.581609 0.00666667
1 0.597701 0.00833333
1 0.613793 0.01
1 0.629885 0.0116667
1 0.645977 0.0133333
1 0.662069 0.015
1 0.678161 0.0166667
1 0.694253 0.0183333
1 0.710345 0.02
1 0.726437 0.0216667
1 0.742529 0.0233333
1 0.758621 0.025
1 0.774713 0.0266667
1 0.790805 0.0283333
1 0.806897 0.03
1 0.822989 0.0316667
1 0.83908 0.0333333
1 0.855172 0.035
1 0.871264 0.0366667
1 0.887356 0.0383333
1 0.903448 0.04
1 0.91954 0.0416667
1 0.935632 0.0433333
1 0.951724 0.045
1 0.967816 0.0466667
1 0.983908 0.0483333
1 0.482759 5.55112e-17
1 0.5 0.00222222
1 0.517241 0.00444444
1 0.534483 0.00666667
1 0.551724 0.00888889
1 0.568966 0.0111111
1 0.586207 0.0133333
1 0.603448 0.0155556
1 0.62069 0.0177778
1 0.637931 0.02
1 0.655172 0.0222222
1 0.672414 0.0244444
1 0.689655 0.0266667
1 0.706897 0.0288889
1 0.724138 0.0311111
1 0.741379 0.0333333
1 0.758621 0.0355556
1 0.775862 0.0377778
1 0.793103 0.04
1 0.810345 0.0422222
1 0.827586 0.0444444
1 0.844828 0.0466667
1 0.862069 0.0488889
1 0.87931 0.0511111
1 0.896552 0.0533333
1 0.913793 0.0555556
1 0.931034 0.0577778
1 0.948276 0.06
1 0.965517 0.0622222
1 0.982759 0.0644444
1 1 0.0666667
1 0.448276 5.55112e-17
1 0.466667 0.00222222
1 0.485057 0.00444444
1 0.503448 0.00666667
1 0.521839 0.00888889
1 0.54023 0.0111111
1 0.558621 0.0133333
1 0.577011 0.0155556
1 0.595402 0.0177778
1 0.613793 0.02
1 0.632184 0.0222222
1 0.650575 0.0244444
1 0.668966 0.0266667
1 0.687356 0.0288889
1 0.705747 0.0311111
1 0.724138 0.0333333
1 0.742529 0.0355556
1 0.76092 0.0377778
1 0.77931 0.04
1 0.797701 0.0422222
1 0.816092 0.0444444
1 0.834483 0.0466667
1 0.852874 0.0488889
1 0.871264 0.0511111
1 0.889655 0.0533333
1 0.908046 0.0555556
1 0.926437 0.0577778
1 0.944828 0.06
1 0.963218 0.0622222
1 0.981609 0.0644444
1 0.413793 5.55112e-17
1 0.433333 0.00222222
1 0.452874 0.00444444
1 0.472414 0.00666667
1 0.491954 0.00888889
1 0.511494 0.0111111
1 0.531034 0.0133333
1 0.550575 0.0155556
1 0.570115 0.0177778
1 0.589655 0.02
1 0.609195 0.0222222
1 0.628736 0.0244444
1 0.648276 0.0266667
1 0.667816 0.0288889
1 0.687356 0.0311111
1 0.706897 0.0333333
1 0.726437 0.0355556
1 0.745977 0.0377778
1 0.765517 0.04
1 0.785057 0.0422222
1 0.804598 0.0444444
1 0.824138 0.0466667
1 0.843678 0.0488889
1 0.863218 0.0511111
1 0.882759 0.0533333
1 0.902299 0.0555556
1 0.921839 0.0577778
1 0.941379 0.06
1 0.96092 0.0622222
1 0.98046 0.0644444
1 0.37931 5.55112e-17
1 0.4 0.00222222
1 0.42069 0.00444444
1 0.441379 0.00666667
1 0.462069 0.00888889
1 0.482759 0.0111111
1 0.503448 0.0133333
1 0.524138 0.0155556
1 0.544828 0.0177778
1 0.565517 0.02
1 0.586207 0.0222222
1 0.606897 0.0244444
1 0.627586 0.0266667
1 0.648276 0.0288889
1 0.668966 0.0311111
1 0.689655 0.0333333
1 0.710345 0.0355556
1 0.731034 0.0377778
1 0.751724 0.04
1 0.772414 0.0422222
1 0.793103 0.0444444
1 0.813793 0.0466667
1 0.834483 0.0488889
1 0.855172 0.0511111
1 0.875862 0.0533333
1 0.896552 0.0555556
1 0.917241 0.0577778
1 0.937931 0.06
1 0.958621 0.0622222
1 0.97931 0.0644444
1 0.344828 5.55112e-17
1 0.366667 0.00222222
1 0.388506 0.00444444
1 0.410345 0.00666667
1 0.432184 0.00888889
1 0.454023 0.0111111
1 0.475862 0.0133333
1 0.497701 0.0155556
1 0.51954 0.0177778
1 0.541379 0.02
1 0.563218 0.0222222
1 0.585057 0.0244444
1 0.606897 0.0266667
1 0.628736 0.0288889
1 0.650575 0.0311111
1 0.672414 0.0333333
1 0.694253 0.0355556
1 0.716092 0.0377778
1 0.737931 0.04
1 0.75977 0.0422222
1 0.781609 0.0444444
1 0.803448 0.0466667
1 0.825287 0.0488889
1 0.847126 0.0511111
1 0.868966 0.0533333
1 0.890805 0.0555556
1 0.912644 0.0577778
1 0.934483 0.06
1 0.956322 0.0622222
1 0.978161 0.0644444
1 0.310345 5.55112e-17
1 0.333333 0.00277778
1 0.356322 0.00555556
1 0.37931 0.00833333
1 0.402299 0.0111111
1 0.425287 0.0138889
1 0.448276 0.0166667
1 0.471264 0.0194444
1 0.494253 0.0222222
1 0.517241 0.025
1 0.54023 0.0277778
1 0.563218 0.0305556
1 0.586207 0.0333333
1 0.609195 0.0361111
1 0.632184 0.0388889
1 0.655172 0.0416667
1 0.678161 0.0444444
1 0.701149 0.0472222
1 0.724138 0.05
1 0.747126 0.0527778
1 0.770115 0.0555556
1 0.793103 0.0583333
1 0.816092 0.0611111
1 0.83908 0.0638889
1 0.862069 0.0666667
1 0.885057 0.0694444
1 0.908046 0.0722222
1 0.931034 0.075
1 0.954023 0.0777778
1 0.977011 0.0805556
1 1 0.0833333
1 0.275862 5.55112e-17
1 0.3 0.00277778
1 0.324138 0.00555556
1 0.348276 0.00833333
1 0.372414 0.0111111
1 0.396552 0.0138889
1 0.42069 0.0166667
1 0.444828 0.0194444
1 0.468966 0.0222222
1 0.493103 0.025
1 0.517241 0.0277778
1 0.541379 0.0305556
1 0.565517 0.0333333
1 0.589655 0.0361111
1 0.613793 0.0388889
1 0.637931 0.0416667
1 0.662069 0.0444444
1 0.686207 0.0472222
1 0.710345 0.05
1 0.734483 0.0527778
1 0.758621 0.0555556
1 0.782759 0.0583333
1 0.806897 0.0611111
1 0.831034 0.0638889
1 0.855172 0.0666667
1 0.87931 0.0694444
1 0.903448 0.0722222
1 0.927586 0.075
1 0.951724 0.0777778
1 0.975862 0.0805556
1 0.241379 5.55112e-17
1 0.266667 0.00277778
1 0.291954 0.00555556
1 0.317241 0.00833333
1 0.342529 0.0111111
1 0.367816 0.0138889
1 0.393103 0.0166667
1 0.418391 0.0194444
1 0.443678 0.0222222
1 0.468966 0.025
1 0.494253 0.0277778
1 0.51954 0.0305556
1 0.544828 0.0333333
1 0.570115 0.0361111
1 0.595402 0.0388889
1 0.62069 0.0416667
1 0.645977 0.0444444
1 0.671264 0.0472222
1 0.696552 0.05
1 0.721839 0.0527778
1 0.747126 0.0555556
1 0.772414 0.0583333
1 0.797701 0.0611111
1 0.822989 0.0638889
1 0.848276 0.0666667
1 0.873563 0.0694444
1 0.898851 0.0722222
1 0.924138 0.075
1 0.949425 0.0777778
1 0.974713 0.0805556
1 0.206897 5.55112e-17
1 0.233333 0.00277778
1 0.25977 0.00555556
1 0.286207 0.00833333
1 0.312644 0.0111111
1 0.33908 0.0138889
1 0.365517 0.0166667
1 0.391954 0.0194444
1 0.418391 0.0222222
1 0.444828 0.025
1 0.471264 0.0277778
1 0.497701 0.0305556
1 0.524138 0.0333333
1 0.550575 0.0361111
1 0.577011 0.0388889
1 0.603448 0.0416667
1 0.629885 0.0444444
1 0.656322 0.0472222
1 0.682759 0.05
1 0.709195 0.0527778
1 0.735632 0.0555556
1 0.762069 0.0583333
1 0.788506 0.0611111
1 0.814943 0.0638889
1 0.841379 0.0666667
1 0.867816 0.0694444
1 0.894253 0.0722222
1 0.92069 0.075
1 0.947126 0.0777778
1 0.973563 0.0805556
1 0.172414 5.55112e-17
1 0.2 0.00277778
1 0.227586 0.00555556
1 0.255172 0.00833333
1 0.282759 0.0111111
1 0.310345 0.0138889
1 0.337931 0.0166667
1 0.365517 0.0194444
1 0.393103 0.0222222
1 0.42069 0.025
1 0.448276 0.0277778
1 0.475862 0.0305556
1 0.503448 0.0333333
1 0.531034 0.0361111
1 0.558621 0.0388889
1 0.586207 0.0416667
1 0.613793 0.0444444
1 0.641379 0.0472222
1 0.668966 0.05
1 0.696552 0.0527778
1 0.724138 0.0555556
1 0.751724 0.0583333
1 0.77931 0.0611111
1 0.806897 0.0638889
1 0.834483 0.0666667
1 0.862069 0.0694444
1 0.889655 0.0722222
1 0.917241 0.075
1 0.944828 0.0777778
1 0.972414 0.0805556
1 0.137931 5.55112e-17
1 0.166667 0.00333333
1 0.195402 0.00666667
1 0.224138 0.01
1 0.252874 0.0133333
1 0.281609 0.0166667
1 0.310345 0.02
1 0.33908 0.0233333
1 0.367816 0.0266667
1 0.396552 0.03
1 0.425287 0.0333333
1 0.454023 0.0366667
1 0.482759 0.04
1 0.511494 0.0433333
1 0.54023 0.0466667
1 0.568966 0.05
1 0.597701 0.0533333
1 0.626437 0.0566667
1 0.655172 0.06
1 0.683908 0.0633333
1 0.712644 0.0666667
1 0.741379 0.07
1 0.770115 0.0733333
1 0.798851 0.0766667
1 0.827586 0.08
1 0.856322 0.0833333
1 0.885057 0.0866667
1 0.913793 0.09
1 0.942529 0.0933333
1 0.971264 0.0966667
1 1 0.1
1 0.103448 5.55112e-17
1 0.133333 0.00333333
1 0.163218 0.00666667
1 0.193103 0.01
1 0.222989 0.0133333
1 0.252874 0.0166667
1 0.282759 0.02
1 0.312644 0.0233333
1 0.342529 0.0266667
1 0.372414 0.03
1 0.402299 0.0333333
1 0.432184 0.0366667
1 0.462069 0.04
1 0.491954 0.0433333
1 0.521839 0.0466667
1 0.551724 0.05
1 0.581609 0.0533333
1 0.611494 0.0566667
1 0.641379 0.06
1 0.671264 0.0633333
1 0.701149 0.0666667
1 0.731034 0.07
1 0.76092 0.0733333
1 0.790805 0.0766667
1 0.82069 0.08
1 0.850575 0.0833333
1 0.88046 0.0866667
1 0.910345 0.09
1 0.94023 0.0933333
1 0.970115 0.0966667
1 0.0689655 5.55112e-17
1 0.1 0.00333333
1 0.131034 0.00666667
1 0.162069 0.01
1 0.193103 0.0133333
1 0.224138 0.0166667
1 0.255172 0.02
1 0.286207 0.0233333
1 0.317241 0.0266667
1 0.348276 0.03
1 0.37931 0.0333333
1 0.410345 0.0366667
1 0.441379 0.04
1 0.472414 0.0433333
1 0.503448 0.0466667
1 0.534483 0.05
1 0.565517 0.0533333
1 0.596552 0.0566667
1 0.627586 0.06
1 0.658621 0.0633333
1 0.689655 0.0666667
1 0.72069 0.07
1 0.751724 0.0733333
1 0.782759 0.0766667
1 0.813793 0.08
1 0.844828 0.0833333
1 0.875862 0.0866667
1 0.906897 0.09
1 0.937931 0.0933333
1 0.968966 0.0966667
1 0.0344828 5.55112e-17
1 0.0666667 0.00333333
1 0.0988506 0.00666667
1 0.131034 0.01
1 0.163218 0.0133333
1 0.195402 0.0166667
1 0.227586 0.02
1 0.25977 0.0233333
1 0.291954 0.0266667
1 0.324138 0.03
1 0.356322 0.0333333
1 0.388506 0.0366667
1 0.42069 0.04
1 0.452874 0.0433333
1 0.485057 0.0466667
1 0.517241 0.05
1 0.549425 0.0533333
1 0.581609 0.0566667
1 0.613793 0.06
1 0.645977 0.0633333
1 0.678161 0.0666667
1 0.710345 0.07
1 0.742529 0.0733333
1 0.774713 0.0766667
1 0.806897 0.08
1 0.83908 0.0833333
1 0.871264 0.0866667
1 0.903448 0.09
1 0.935632 0.0933333
1 0.967816 0.0966667
1 5.55112e-17 5.55112e-17
1 0.0333333 0.00333333
1 0.0666667 0.00666667
1 0.1 0.01
1 0.133333 0.0133333
1 0.166667 0.0166667
1 0.2 0.02
1 0.233333 0.0233333
1 0.266667 0.0266667
1 0.3 0.03
1 0.333333 0.0333333
1 0.366667 0.0366667
1 0.4 0.04
1 0.433333 0.0433333
1 0.466667 0.0466667
1 0.5 0.05
1 0.533333 0.0533333
1 0.566667 0.0566667
1 0.6 0.06
1 0.633333 0.0633333
1 0.666667 0.0666667
1 0.7 0.07
1 0.733333 0.0733333
1 0.766667 0.0766667
1 0.8 0.08
1 0.833333 0.0833333
1 0.866667 0.0866667
1 0.9 0.09
1 0.933333 0.0933333
1 0.966667 0.0966667
3 0 3 2
3 2 3 34
3 2 34 33
3 33 34 64
3 33 64 63
3 63 64 94
3 63 94 93
3 93 94 124
3 93 124 123
3 123 124 155
3 123 155 154
3 154 155 185
3 154 185 184
3 184 185 215
3 184 215 214
3 214 215 245
3 214 245 244
3 244 245 275
3 244 275 274
3 274 275 306
3 274 306 305
3 305 306 336
3 305 336 335
3 335 336 366
3 335 366 365
3 365 366 396
3 365 396 395
3 395 396 426
3 395 426 425
3 425 426 457
3 425 457 456
3 456 457 487
3 456 487 486
3 486 487 517
3 486 517 516
3 516 517 547
3 516 547 546
3 546 547 577
3 546 577 576
3 576 577 608
3 576 608 607
3 607 608 638
3 607 638 637
3 637 638 668
3 637 668 667
3 667 668 698
3 667 698 697
3 697 698 728
3 697 728 727
3 727 728 759
3 727 759 758
3 758 759 789
3 758 789 788
3 788 789 819
3 788 819 818
3 818 819 849
3 818 849 848
3 0 4 3
3 3 4 35
3 3 35 34
3 34 35 65
3 34 65 64
3 64 65 95
3 64 95 94
3 94 95 125
3 94 125 124
3 124 125 156
3 124 156 155
3 155 156 186
3 155 186 185
3 185 186 216
3 185 216 215
3 215 216 246
3 215 246 245
3 245 246 276
3 245 276 275
3 275 276 307
3 275 307 306
3 306 307 337
3 306 337 336
3 336 337 367
3 336 367 366
3 366 367 397
3 366 397 396
3 396 397 427
3 396 427 426
3 426 427 458
3 426 458 457
3 457 458 488
3 457 488 487
3 487 488 518
3 487 518 517
3 517 518 548
3 517 548 547
3 547 548 578
3 547 578 577
3 577 578 609
3 577 609 608
3 608 609 639
3 608 639 638
3 638 639 669
3 638 669 668
3 668 669 699
3 668 699 698
3 698 699 729
3 698 729 728
3 728 729 760
3 728 760 759
3 759 760 790
3 759 790 789
3 789 790 820
3 789 820 819
3 819 820 850
3 819 850 849
3 0 5 4
3 4 5 36
3 4 36 35
3 35 36 66
3 35 66 65
3 65 66 96
3 65 96 95
3 95 96 126
3 95 126 125
3 125 126 157
3 125 157 156
3 156 157 187
3 156 187 186
3 186 187 217
3 186 217 216
3 216 217 247
3 216 247 246
3 246 247 277
3 246 277 276
3 276 277 308
3 276 308 307
3 307 308 338
3 307 338 337
3 337 338 368
3 337 368 367
3 367 368 398
3 367 398 397
3 397 398 428
3 397 428 427
3 427 428 459
3 427 459 458
3 458 459 489
3 458 489 488
3 488 489 519
3 488 519 518
3 518 519 549
3 518 549 548
3 548 549 579
3 548 579 578
3 578 579 610
3 578 610 609
3 609 610 640
3 609 640 639
3 639 640 670
3 639 670 669
3 669 670 700
3 669 700 699
3 699 700 730
3 699 730 729
3 729 730 761
3 729 761 760
3 760 761 791
3 760 791 790
3 790 791 821
3 790 821 820
3 820 821 851
3 820 851 850
3 0 6 5
3 5 6 37
3 5 37 36
3 36 37 67
3 36 67 66
3 66 67 97
3 66 97 96
3 96 97 127
3 96 127 126
3 126 127 158
3 126 158 157
3 157 158 188
3 157 188 187
3 187 188 218
3 187 218 217
3 217 218 248
3 217 248 247
3 247 248 278
3 247 278 277
3 277 278 309
3 277 309 308
3 308 309 339
3 308 339 338
3 338 339 369
3 338 369 368
3 368 369 399
3 368 399 398
3 398 399 429
3 398 429 428
3 428 429 460
3 428 460 459
3 459 460 490
3 459 490 489
3 489 490 520
3 489 520 519
3 519 520 550
3 519 550 549
3 549 550 580
3 549 580 579
3 579 580 611
3 579 611 610
3 610 611 641
3 610 641 640
3 640 641 671
3 640 671 670
3 670 671 701
3 670 701 700
3 700 701 731
3 700 731 730
3 730 731 762
3 730 762 761
3 761 762 792
3 761 792 791
3 791 792 822
3 791 822 821
3 821 822 852
3 821 852 851
3 0 7 6
3 6 7 38
3 6 38 37
3 37 38 68
3 37 68 67
3 67 68 98
3 67 98 97
3 97 98 128
3 97 128 127
3 127 128 159
3 127 159 158
3 158 159 189
3 158 189 188
3 188 189 219
3 188 219 218
3 218 219 249
3 218 249 248
3 248 249 279
3 248 279 278
3 278 279 310
3 278 310 309
3 309 310 340
3 309 340 339
3 339 340 370
3 339 370 369
3 369 370 400
3 369 400 399
3 399 400 430
3 399 430 429
3 429 430 461
3 429 461 460
3 460 461 491
3 460 491 490
3 490 491 521
3 490 521 520
3 520 521 551
3 520 551 550
3 550 551 581
3 550 581 580
3 580 581 612
3 580 612 611
3 611 612 642
3 611 642 641
3 641 642 672
3 641 672 671
3 671 672 702
3 671 702 701
3 701 702 732
3 701 732 731
3 731 732 763
3 731 763 762
3 762 763 793
3 762 793 792
3 792 793 823
3 792 823 822
3 822 823 853
3 822 853 852
3 0 8 7
3 7 8 39
3 7 39 38
3 38 39 69
3 38 69 68
3 68 69 99
3 68 99 98
3 98 99 129
3 98 129 128
3 128 129 160
3 128 160 159
3 159 160 190
3 159 190 189
3 189 190 220
3 189 220 219
3 219 220 250
3 219 250 249
3 249 250 280
3 249 280 279
3 279 280 311
3 279 311 310
3 310 311 341
3 310 341 340
3 340 341 371
3 340 371 370
3 370 371 401
3 370 401 400
3 400 401 431
3 400 431 430
3 430 431 462
3 430 462 461
3 461 462 492
3 461 492 491
3 491 492 522
3 491 522 521
3 521 522 552
3 521 552 551
3 551 552 582
3 551 582 581
3 581 582 613
3 581 613 612
3 612 613 643
3 612 643 642
3 642 643 673
3 642 673 672
3 672 673 703
3 672 703 702
3 702 703 733
3 702 733 732
3 732 733 764
3 732 764 763
3 763 764 794
3 763 794 793
3 793 794 824
3 793 824 823
3 823 824 854
3 823 854 853
3 0 9 8
3 8 9 40
3 8 40 39
3 39 40 70
3 39 70 69
3 69 70 100
3 69 100 99
3 99 100 130
3 99 130 129
3 129 130 161
3 129 161 160
3 160 161 191
3 160 191 190
3 190 191 221
3 190 221 220
3 220 221 251
3 220 251 250
3 250 251 281
3 250 281 280
3 280 281 312
3 280 312 311
3 311 312 342
3 311 342 341
3 341 342 372
3 341 372 371
3 371 372 402
3 371 402 401
3 401 402 432
3 401 432 431
3 431 432 463
3 431 463 462
3 462 463 493
3 462 493 492
3 492 493 523
3 492 523 522
3 522 523 553
3 522 553 552
3 552 553 583
3 552 583 582
3 582 583 614
3 582 614 613
3 613 614 644
3 613 644 643
3 643 644 674
3 643 674 673
3 673 674 704
3 673 704 703
3 703 704 734
3 703 734 733
3 733 734 765
3 733 765 764
3 764 765 795
3 764 795 794
3 794 795 825
3 794 825 824
3 824 825 855
3 824 855 854
3 0 10 9
3 9 10 41
3 9 41 40
3 40 41 71
3 40 71 70
3 70 71 101
3 70 101 100
3 100 101 131
3 100 131 130
3 130 131 162
3 130 162 161
3 161 162 192
3 161 192 191
3 191 192 222
3 191 222 221
3 221 222 252
3 221 252 251
3 251 252 282
3 251 282 281
3 281 282 313
3 281 313 312
3 312 313 343
3 312 343 342
3 342 343 373
3 342 373 372
3 372 373 403
3 372 403 402
3 402 403 433
3 402 433 432
3 432 433 464
3 432 464 463
3 463 464 494
3 463 494 493
3 493 494 524
3 493 524 523
3 523 524 554
3 523 554 553
3 553 554 584
3 553 584 583
3 583 584 615
3 583 615 614
3 614 615 645
3 614 645 644
3 644 645 675
3 644 675 674
3 674 675 705
3 674 705 704
3 704 705 735
3 704 735 734
3 734 735 766
3 734 766 765
3 765 766 796
3 765 796 795
3 795 796 826
3 795 826 825
3 825 826 856
3 825 856 855
3 0 11 10
3 10 11 42
3 10 42 41
3 41 42 72
3 41 72 71
3 71 72 102
3 71 102 101
3 101 102 132
3 101 132 131
3 131 132 163
3 131 163 162
3 162 163 193
3 162 193 192
3 192 193 223
3 192 223 222
3 222 223 253
3 222 253 252
3 252 253 283
3 252 283 282
3 282 283 314
3 282 314 313
3 313 314 344
3 313 344 343
3 343 344 374
3 343 374 373
3 373 374 404
3 373 404 403
3 403 404 434
3 403 434 433
3 433 434 465
3 433 465 464
3 464 465 495
3 464 495 494
3 494 495 525
3 494 525 524
3 524 525 555
3 524 555 554
3 554 555 585
3 554 585 584
3 584 585 616
3 584 616 615
3 615 616 646
3 615 646 645
3 645 646 676
3 645 676 675
3 675 676 706
3 675 706 705
3 705 706 736
3 705 736 735
3 735 736 767
3 735 767 766
3 766 767 797
3 766 797 796
3 796 797 827
3 796 827 826
3 826 827 857
3 826 857 856
3 0 12 11
3 11 12 43
3 11 43 42
3 42 43 73
3 42 73 72
3 72 73 103
3 72 103 102
3 102 103 133
3 102 133 132
3 132 133 164
3 132 164 163
3 163 164 194
3 163 194 193
3 193 194 224
3 193 224 223
3 223 224 254
3 223 254 253
3 253 254 284
3 253 284 283
3 283 284 315
3 283 315 314
3 314 315 345
3 314 345 344
3 344 345 375
3 344 375 374
3 374 375 405
3 374 405 404
3 404 405 435
3 404 435 434
3 434 435 466
3 434 466 465
3 465 466 496
3 465 496 495
3 495 496 526
3 495 526 525
3 525 526 556
3 525 556 555
3 555 556 586
3 555 586 585
3 585 586 617
3 585 617 616
3 616 617 647
3 616 647 646
3 646 647 677
3 646 677 676
3 676 677 707
3 676 707 706
3 706 707 737
3 706 737 736
3 736 737 768
3 736 768 767
3 767 768 798
3 767 798 797
3 797 798 828
3 797 828 827
3 827 828 858
3 827 858 857
3 0 13 12
3 12 13 44
3 12 44 43
3 43 44 74
3 43 74 73
3 73 74 104
3 73 104 103
3 103 104 134
3 103 134 133
3 133 134 165
3 133 165 164
3 164 165 195
3 164 195 194
3 194 195 225
3 194 225 224
3 224 225 255
3 224 255 254
3 254 255 285
3 254 285 284
3 284 285 316
3 284 316 315
3 315 316 346
3 315 346 345
3 345 346 376
3 345 376 375
3 375 376 406
3 375 406 405
3 405 406 436
3 405 436 435
3 435 436 467
3 435 467 466
3 466 467 497
3 466 497 496
3 496 497 527
3 496 527 526
3 526 527 557
3 526 557 556
3 556 557 587
3 556 587 586
3 586 587 618
3 586 618 617
3 617 618 648
3 617 648 647
3 647 648 678
3 647 678 677
3 677 678 708
3 677 708 707
3 707 708 738
3 707 738 737
3 737 738 769
3 737 769 768
3 768 769 799
3 768 799 798
3 798 799 829
3 798 829 828
3 828 829 859
3 828 859 858
3 0 14 13
3 13 14 45
3 13 45 44
3 44 45 75
3 44 75 74
3 74 75 105
3 74 105 104
3 104 105 135
3 104 135 134
3 134 135 166
3 134 166 165
3 165 166 196
3 165 196 195
3 195 196 226
3 195 226 225
3 225 226 256
3 225 256 255
3 255 256 286
3 255 286 285
3 285 286 317
3 285 317 316
3 316 317 347
3 316 347 346
3 346 347 377
3 346 377 376
3 376 377 407
3 376 407 406
3 406 407 437
3 406 437 436
3 436 437 468
3 436 468 467
3 467 468 498
3 467 498 497
3 497 498 528
3 497 528 527
3 527 528 558
3 527 558 557
3 557 558 588
3 557 588 587
3 587 588 619
3 587 619 618
3 618 619 649
3 618 649 648
3 648 649 679
3 648 679 678
3 678 679 709
3 678 709 708
3 708 709 739
3 708 739 738
3 738 739 770
3 738 770 769
3 769 770 800
3 769 800 799
3 799 800 830
3 799 830 829
3 829 830 860
3 829 860 859
3 0 15 14
3 14 15 46
3 14 46 45
3 45 46 76
3 45 76 75
3 75 76 106
3 75 106 105
3 105 106 136
3 105 136 135
3 135 136 167
3 135 167 166
3 166 167 197
3 166 197 196
3 196 197 227
3 196 227 226
3 226 227 257
3 226 257 256
3 256 257 287
3 256 287 286
3 286 287 318
3 286 318 317
3 317 318 348
3 317 348 347
3 347 348 378
3 347 378 377
3 377 378 408
3 377 408 407
3 407 408 438
3 407 438 437
3 437 438 469
3 437 469 468
3 468 469 499
3 468 499 498
3 498 499 529
3 498 529 528
3 528 529 559
3 528 559 558
3 558 559 589
3 558 589 588
3 588 589 620
3 588 620 619
3 619 620 650
3 619 650 649
3 649 650 680
3 649 680 679
3 679 680 710
3 679 710 709
3 709 710 740
3 709 740 739
3 739 740 771
3 739 771 770
3 770 771 801
3 770 801 800
3 800 801 831
3 800 831 830
3 830 831 861
3 830 861 860
3 0 16 15
3 15 16 47
3 15 47 46
3 46 47 77
3 46 77 76
3 76 77 107
3 76 107 106
3 106 107 137
3 106 137 136
3 136 137 168
3 136 168 167
3 167 168 198
3 167 198 197
3 197 198 228
3 197 228 227
3 227 228 258
3 227 258 257
3 257 258 288
3 257 288 287
3 287 288 319
3 287 319 318
3 318 319 349
3 318 349 348
3 348 349 379
3 348 379 378
3 378 379 409
3 378 409 408
3 408 409 439
3 408 439 438
3 438 439 470
3 438 470 469
3 469 470 500
3 469 500 499
3 499 500 530
3 499 530 529
3 529 530 560
3 529 560 559
3 559 560 590
3 559 590 589
3 589 590 621
3 589 621 620
3 620 621 651
3 620 651 650
3 650 651 681
3 650 681 680
3 680 681 711
3 680 711 710
3 710 711 741
3 710 741 740
3 740 741 772
3 740 772 771
3 771 772 802
3 771 802 801
3 801 802 832
3 801 832 831
3 831 832 862
3 831 862 861
3 0 17 16
3 16 17 48
3 16 48 47
3 47 48 78
3 47 78 77
3 77 78 108
3 77 108 107
3 107 108 138
3 107 138 137
3 137 138 169
3 137 169 168
3 168 169 199
3 168 199 198
3 198 199 229
3 198 229 228
3 228 229 259
3 228 259 258
3 258 259 289
3 258 289 288
3 288 289 320
3 288 320 319
3 319 320 350
3 319 350 349
3 349 350 380
3 349 380 379
3 379 380 410
3 379 410 409
3 409 410 440
3 409 440 439
3 439 440 471
3 439 471 470
3 470 471 501
3 470 501 500
3 500 501 531
3 500 531 530
3 530 531 561
3 530 561 560
3 560 561 591
3 560 591 590
3 590 591 622
3 590 622 621
3 621 622 652
3 621 652 651
3 651 652 682
3 651 682 681
3 681 682 712
3 681 712 711
3 711 712 742
3 711 742 741
3 741 742 773
3 741 773 772
3 772 773 803
3 772 803 802
3 802 803 833
3 802 833 832
3 832 833 863
3 832 863 862
3 0 18 17
3 17 18 49
3 17 49 48
3 48 49 79
3 48 79 78
3 78 79 109
3 78 109 108
3 108 109 139
3 108 139 138
3 138 139 170
3 138 170 169
3 169 170 200
3 169 200 199
3 199 200 230
3 199 230 229
3 229 230 260
3 229 260 259
3 259 260 290
3 259 290 289
3 289 290 321
3 289 321 320
3 320 321 351
3 320 351 350
3 350 351 381
3 350 381 380
3 380 381 411
3 380 411 410
3 410 411 441
3 410 441 440
3 440 441 472
3 440 472 471
3 471 472 502
3 471 502 501
3 501 502 532
3 501 532 531
3 531 532 562
3 531 562 561
3 561 562 592
3 561 592 591
3 591 592 623
3 591 623 622
3 622 623 653
3 622 653 652
3 652 653 683
3 652 683 682
3 682 683 713
3 682 713 712
3 712 713 743
3 712 743 742
3 742 743 774
3 742 774 773
3 773 774 804
3 773 804 803
3 803 804 834
3 803 834 833
3 833 834 864
3 833 864 863
3 0 19 18
3 18 19 50
3 18 50 49
3 49 50 80
3 49 80 79
3 79 80 110
3 79 110 109
3 109 110 140
3 109 140 139
3 139 140 171
3 139 171 170
3 170 171 201
3 170 201 200
3 200 201 231
3 200 231 230
3 230 231 261
3 230 261 260
3 260 261 291
3 260 291 290
3 290 291 322
3 290 322 321
3 321 322 352
3 321 352 351
3 351 352 382
3 351 382 381
3 381 382 412
3 381 412 411
3 411 412 442
3 411 442 441
3 441 442 473
3 441 473 472
3 472 473 503
3 472 503 502
3 502 503 533
3 502 533 532
3 532 533 563
3 532 563 562
3 562 563 593
3 562 593 592
3 592 593 624
3 592 624 623
3 623 624 654
3 623 654 653
3 653 654 684
3 653 684 683
3 683 684 714
3 683 714 713
3 713 714 744
3 713 744 743
3 743 744 775
3 743 775 774
3 774 775 805
3 774 805 804
3 804 805 835
3 804 835 834
3 834 835 865
3 834 865 864
3 0 20 19
3 19 20 51
3 19 51 50
3 50 51 81
3 50 81 80
3 80 81 111
3 80 111 110
3 110 111 141
3 110 141 140
3 140 141 172
3 140 172 171
3 171 172 202
3 171 202 201
3 201 202 232
3 201 232 231
3 231 232 262
3 231 262 261
3 261 262 292
3 261 292 291
3 291 292 323
3 291 323 322
3 322 323 353
3 322 353 352
3 352 353 383
3 352 383 382
3 382 383 413
3 382 413 412
3 412 413 443
3 412 443 442
3 442 443 474
3 442 474 473
3 473 474 504
3 473 504 503
3 503 504 534
3 503 534 533
3 533 534 564
3 533 564 563
3 563 564 594
3 563 594 593
3 593 594 625
3 593 625 624
3 624 625 655
3 624 655 654
3 654 655 685
3 654 685 684
3 684 685 715
3 684 715 714
3 714 715 745
3 714 745 744
3 744 745 776
3 744 776 775
3 775 776 806
3 775 806 805
3 805 806 836
3 805 836 835
3 835 836 866
3 835 866 865
3 0 21 20
3 20 21 52
3 20 52 51
3 51 52 82
3 51 82 81
3 81 82 112
3 81 112 111
3 111 112 142
3 111 142 141
3 141 142 173
3 141 173 172
3 172 173 203
3 172 203 202
3 202 203 233
3 202 233 232
3 232 233 263
3 232 263 262
3 262 263 293
3 262 293 292
3 292 293 324
3 292 324 323
3 323 324 354
3 323 354 353
3 353 354 384
3 353 384 383
3 383 384 414
3 383 414 413
3 413 414 444
3 413 444 443
3 443 444 475
3 443 475 474
3 474 475 505
3 474 505 504
3 504 505 535
3 504 535 534
3 534 535 565
3 534 565 564
3 564 565 595
3 564 595 594
3 594 595 626
3 594 626 625
3 625 626 656
3 625 656 655
3 655 656 686
3 655 686 685
3 685 686 716
3 685 716 715
3 715 716 746
3 715 746 745
3 745 746 777
3 745 777 776
3 776 777 807
3 776 807 806
3 806 807 837
3 806 837 836
3 836 837 867
3 836 867 866
3 0 22 21
3 21 22 53
3 21 53 52
3 52 53 83
3 52 83 82
3 82 83 113
3 82 113 112
3 112 113 143
3 112 143 142
3 142 143 174
3 142 174 173
3 173 174 204
3 173 204 203
3 203 204 234
3 203 234 233
3 233 234 264
3 233 264 263
3 263 264 294
3 263 294 293
3 293 294 325
3 293 325 324
3 324 325 355
3 324 355 354
3 354 355 385
3 354 385 384
3 384 385 415
3 384 415 414
3 414 415 445
3 414 445 444
3 444 445 476
3 444 476 475
3 475 476 506
3 475 506 505
3 505 506 536
3 505 536 535
3 535 536 566
3 535 566 565
3 565 566 596
3 565 596 595
3 595 596 627
3 595 627 626
3 626 627 657
3 626 657 656
3 656 657 687
3 656 687 686
3 686 687 717
3 686 717 716
3 716 717 747
3 716 747 746
3 746 747 778
3 746 778 777
3 777 778 808
3 777 808 807
3 807 808 838
3 807 838 837
3 837 838 868
3 837 868 867
3 0 23 22
3 22 23 54
3 22 54 53
3 53 54 84
3 53 84 83
3 83 84 114
3 83 114 113
3 113 114 144
3 113 144 143
3 143 144 175
3 143 175 174
3 174 175 205
3 174 205 204
3 204 205 235
3 204 235 234
3 234 235 265
3 234 265 264
3 264 265 295
3 264 295 294
3 294 295 326
3 294 326 325
3 325 326 356
3 325 356 355
3 355 356 386
3 355 386 385
3 385 386 416
3 385 416 415
3 415 416 446
3 415 446 445
3 445 446 477
3 445 477 476
3 476 477 507
3 476 507 506
3 506 507 537
3 506 537 536
3 536 537 567
3 536 567 566
3 566 567 597
3 566 597 596
3 596 597 628
3 596 628 627
3 627 628 658
3 627 658 657
3 657 658 688
3 657 688 687
3 687 688 718
3 687 718 717
3 717 718 748
3 717 748 747
3 747 748 779
3 747 779 778
3 778 779 809
3 778 809 808
3 808 809 839
3 808 839 838
3 838 839 869
3 838 869 868
3 0 24 23
3 23 24 55
3 23 55 54
3 54 55 85
3 54 85 84
3 84 85 115
3 84 115 114
3 114 115 145
3 114 145 144
3 144 145 176
3 144 176 175
3 175 176 206
3 175 206 205
3 205 206 236
3 205 236 235
3 235 236 266
3 235 266 265
3 265 266 296
3 265 296 295
3 295 296 327
3 295 327 326
3 326 327 357
3 326 357 356
3 356 357 387
3 356 387 386
3 386 387 417
3 386 417 416
3 416 417 447
3 416 447 446
3 446 447 478
3 446 478 477
3 477 478 508
3 477 508 507
3 507 508 538
3 507 538 537
3 537 538 568
3 537 568 567
3 567 568 598
3 567 598 597
3 597 598 629
3 597 629 628
3 628 629 659
3 628 659 658
3 658 659 689
3 658 689 688
3 688 689 719
3 688 719 718
3 718 719 749
3 718 749 748
3 748 749 780
3 748 780 779
3 779 780 810
3 779 810 809
3 809 810 840
3 809 840 839
3 839 840 870
3 839 870 869
3 0 25 24
3 24 25 56
3 24 56 55
3 55 56 86
3 55 86 85
3 85 86 116
3 85 116 115
3 115 116 146
3 115 146 145
3 145 146 177
3 145 177 176
3 176 177 207
3 176 207 206
3 206 207 237
3 206 237 236
3 236 237 267
3 236 267 266
3 266 267 297
3 266 297 296
3 296 297 328
3 296 328 327
3 327 328 358
3 327 358 357
3 357 358 388
3 357 388 387
3 387 388 418
3 387 418 417
3 417 418 448
3 417 448 447
3 447 448 479
3 447 479 478
3 478 479 509
3 478 509 508
3 508 509 539
3 508 539 538
3 538 539 569
3 538 569 568
3 568 569 599
3 568 599 598
3 598 599 630
3 598 630 629
3 629 630 660
3 629 660 659
3 659 660 690
3 659 690 689
3 689 690 720
3 689 720 719
3 719 720 750
3 719 750 749
3 749 750 781
3 749 781 780
3 780 781 811
3 780 811 810
3 810 811 841
3 810 841 840
3 840 841 871
3 840 871 870
3 0 26 25
3 25 26 57
3 25 57 56
3 56 57 87
3 56 87 86
3 86 87 117
3 86 117 116
3 116 117 147
3 116 147 146
3 146 147 178
3 146 178 177
3 177 178 208
3 177 208 207
3 207 208 238
3 207 238 237
3 237 238 268
3 237 268 267
3 267 268 298
3 267 298 297
3 297 298 329
3 297 329 328
3 328 329 359
3 328 359 358
3 358 359 389
3 358 389 388
3 388 389 419
3 388 419 418
3 418 419 449
3 418 449 448
3 448 449 480
3 448 480 479
3 479 480 510
3 479 510 509
3 509 510 540
3 509 540 539
3 539 540 570
3 539 570 569
3 569 570 600
3 569 600 599
3 599 600 631
3 599 631 630
3 630 631 661
3 630 661 660
3 660 661 691
3 660 691 690
3 690 691 721
3 690 721 720
3 720 721 751
3 720 751 750
3 750 751 782
3 750 782 781
3 781 782 812
3 781 812 811
3 811 812 842
3 811 842 841
3 841 842 872
3 841 872 871
3 0 27 26
3 26 27 58
3 26 58 57
3 57 58 88
3 57 88 87
3 87 88 118
3 87 118 117
3 117 118 148
3 117 148 147
3 147 148 179
3 147 179 178
3 178 179 209
3 178 209 208
3 208 209 239
3 208 239 238
3 238 239 269
3 238 269 268
3 268 269 299
3 268 299 298
3 298 299 330
3 298 330 329
3 329 330 360
3 329 360 359
3 359 360 390
3 359 390 389
3 389 390 420
3 389 420 419
3 419 420 450
3 419 450 449
3 449 450 481
3 449 481 480
3 480 481 511
3 480 511 510
3 510 511 541
3 510 541 540
3 540 541 571
3 540 571 570
3 570 571 601
3 570 601 600
3 600 601 632
3 600 632 631
3 631 632 662
3 631 662 661
3 661 662 692
3 661 692 691
3 691 692 722
3 691 722 721
3 721 722 752
3 721 752 751
3 751 752 783
3 751 783 782
3 782 783 813
3 782 813 812
3 812 813 843
3 812 843 842
3 842 843 873
3 842 873 872
3 0 28 27
3 27 28 59
3 27 59 58
3 58 59 89
3 58 89 88
3 88 89 119
3 88 119 118
3 118 119 149
3 118 149 148
3 148 149 180
3 148 180 179
3 179 180 210
3 179 210 209
3 209 210 240
3 209 240 239
3 239 240 270
3 239 270 269
3 269 270 300
3 269 300 299
3 299 300 331
3 299 331 330
3 330 331 361
3 330 361 360
3 360 361 391
3 360 391 390
3 390 391 421
3 390 421 420
3 420 421 451
3 420 451 450
3 450 451 482
3 450 482 481
3 481 482 512
3 481 512 511
3 511 512 542
3 511 542 541
3 541 542 572
3 541 572 571
3 571 572 602
3 571 602 601
3 601 602 633
3 601 633 632
3 632 633 663
3 632 663 662
3 662 663 693
3 662 693 692
3 692 693 723
3 692 723 722
3 722 723 753
3 722 753 752
3 752 753 784
3 752 784 783
3 783 784 814
3 783 814 813
3 813 814 844
3 813 844 843
3 843 844 874
3 843 874 873
3 0 29 28
3 28 29 60
3 28 60 59
3 59 60 90
3 59 90 89
3 89 90 120
3 89 120 119
3 119 120 150
3 119 150 149
3 149 150 181
3 149 181 180
3 180 181 211
3 180 211 210
3 210 211 241
3 210 241 240
3 240 241 271
3 240 271 270
3 270 271 301
3 270 301 300
3 300 301 332
3 300 332 331
3 331 332 362
3 331 362 361
3 361 362 392
3 361 392 391
3 391 392 422
3 391 422 421
3 421 422 452
3 421 452 451
3 451 452 483
3 451 483 482
3 482 483 513
3 482 513 512
3 512 513 543
3 512 543 542
3 542 543 573
3 542 573 572
3 572 573 603
3 572 603 602
3 602 603 634
3 602 634 633
3 633 634 664
3 633 664 663
3 663 664 694
3 663 694 693
3 693 694 724
3 693 724 723
3 723 724 754
3 723 754 753
3 753 754 785
3 753 785 784
3 784 785 815
3 784 815 814
3 814 815 845
3 814 845 844
3 844 845 875
3 844 875 874
3 0 30 29
3 29 30 61
3 29 61 60
3 60 61 91
3 60 91 90
3 90 91 121
3 90 121 120
3 120 121 151
3 120 151 150
3 150 151 182
3 150 182 181
3 181 182 212
3 181 212 211
3 211 212 242
3 211 242 241
3 241 242 272
3 241 272 271
3 271 272 302
3 271 302 301
3 301 302 333
3 301 333 332
3 332 333 363
3 332 363 362
3 362 363 393
3 362 393 392
3 392 393 423
3 392 423 422
3 422 423 453
3 422 453 452
3 452 453 484
3 452 484 483
3 483 484 514
3 483 514 513
3 513 514 544
3 513 544 543
3 543 544 574
3 543 574 573
3 573 574 604
3 573 604 603
3 603 604 635
3 603 635 634
3 634 635 665
3 634 665 664
3 664 665 695
3 664 695 694
3 694 695 725
3 694 725 724
3 724 725 755
3 724 755 754
3 754 755 786
3 754 786 785
3 785 786 816
3 785 816 815
3 815 816 846
3 815 846 845
3 845 846 876
3 845 876 875
3 0 31 30
3 30 31 62
3 30 62 61
3 61 62 92
3 61 92 91
3 91 92 122
3 91 122 121
3 121 122 152
3 121 152 151
3 151 152 183
3 151 183 182
3 182 183 213
3 182 213 212
3 212 213 243
3 212 243 242
3 242 243 273
3 242 273 272
3 272 273 303
3 272 303 302
3 302 303 334
3 302 334 333
3 333 334 364
3 333 364 363
3 363 364 394
3 363 394 393
3 393 394 424
3 393 424 423
3 423 424 454
3 423 454 453
3 453 454 485
3 453 485 484
3 484 485 515
3 484 515 514
3 514 515 545
3 514 545 544
3 544 545 575
3 544 575 574
3 574 575 605
3 574 605 604
3 604 605 636
3 604 636 635
3 635 636 666
3 635 666 665
3 665 666 696
3 665 696 695
3 695 696 726
3 695 726 725
3 725 726 756
3 725 756 755
3 755 756 787
3 755 787 786
3 786 787 817
3 786 817 816
3 816 817 847
3 816 847 846
3 846 847 877
3 846 877 876
3 0 1 32
3 0 32 31
3 31 32 62
3 62 32 92
3 92 32 122
3 122 32 153
3 122 153 152
3 152 153 183
3 183 153 213
3 213 153 243
3 243 153 273
3 273 153 304
3 273 304 303
3 303 304 334
3 334 304 364
3 364 304 394
3 394 304 424
3 424 304 455
3 424 455 454
3 454 455 485
3 485 455 515
3 515 455 545
3 545 455 575
3 575 455 606
3 575 606 605
3 605 606 636
3 636 606 666
3 666 606 696
3 696 606 726
3 726 606 757
3 726 757 756
3 756 757 787
3 787 757 817
3 817 757 847
3 847 757 877
