ply
format ascii 1.0
comment Created by Open3D
element vertex 110
property double x
property double y
property double z
element face 180
property list uchar uint vertex_indices
end_header
1 0.1 0.1
0.91 0.1 0.19
0.82 0.1 0.28
0.73 0.1 0.37
0.64 0.1 0.46
0.55 0.1 0.55
0.46 0.1 0.64
0.37 0.1 0.73
0.28 0.1 0.82
0.19 0.1 0.91
0.1 0.1 1
1 0.1 0.203846
0.91 0.108654 0.283462
0.82 0.117308 0.363077
0.73 0.125962 0.442692
0.64 0.134615 0.522308
0.55 0.143269 0.601923
0.46 0.151923 0.681538
0.37 0.160577 0.761154
0.28 0.169231 0.840769
0.19 0.177885 0.920385
0.1 0.186538 1
1 0.1 0.307692
0.91 0.119038 0.376923
0.82 0.138077 0.446154
0.73 0.157115 0.515385
0.64 0.176154 0.584615
0.55 0.195192 0.653846
0.46 0.214231 0.723077
0.37 0.233269 0.792308
0.28 0.252308 0.861538
0.19 0.271346 0.930769
0.1 0.290385 1
1 0.1 0.411538
0.91 0.129423 0.470385
0.82 0.158846 0.529231
0.73 0.188269 0.588077
0.64 0.217692 0.646923
0.55 0.247115 0.705769
0.46 0.276538 0.764615
0.37 0.305962 0.823462
0.28 0.335385 0.882308
0.19 0.364808 0.941154
0.1 0.394231 1
1 0.1 0.515385
0.91 0.139808 0.563846
0.82 0.179615 0.612308
0.73 0.219423 0.660769
0.64 0.259231 0.709231
0.55 0.299038 0.757692
0.46 0.338846 0.806154
0.37 0.378654 0.854615
0.28 0.418462 0.903077
0.19 0.458269 0.951538
0.1 0.498077 1
1 0.1 0.601923
0.91 0.148462 0.641731
0.82 0.196923 0.681538
0.73 0.245385 0.721346
0.64 0.293846 0.761154
0.55 0.342308 0.800962
0.46 0.390769 0.840769
0.37 0.439231 0.880577
0.28 0.487692 0.920385
0.19 0.536154 0.960192
0.1 0.584615 1
1 0.1 0.705769
0.91 0.158846 0.735192
0.82 0.217692 0.764615
0.73 0.276538 0.794038
0.64 0.335385 0.823462
0.55 0.394231 0.852885
0.46 0.453077 0.882308
0.37 0.511923 0.911731
0.28 0.570769 0.941154
0.19 0.629615 0.970577
0.1 0.688462 1
1 0.1 0.809615
0.91 0.169231 0.828654
0.82 0.238462 0.847692
0.73 0.307692 0.866731
0.64 0.376923 0.885769
0.55 0.446154 0.904808
0.46 0.515385 0.923846
0.37 0.584615 0.942885
0.28 0.653846 0.961923
0.19 0.723077 0.980962
0.1 0.792308 1
1 0.1 0.913462
0.91 0.179615 0.922115
0.82 0.259231 0.930769
0.73 0.338846 0.939423
0.64 0.418462 0.948077
0.55 0.498077 0.956731
0.46 0.577692 0.965385
0.37 0.657308 0.974038
0.28 0.736923 0.982692
0.19 0.816538 0.991346
0.1 0.896154 1
1 0.1 1
0.91 0.19 1
0.82 0.28 1
0.73 0.37 1
0.64 0.46 1
0.55 0.55 1
0.46 0.64 1
0.37 0.73 1
0.28 0.82 1
0.19 0.91 1
0.1 1 1
3 0 1 12
3 0 12 11
3 11 12 23
3 11 23 22
3 22 23 34
3 22 34 33
3 33 34 45
3 33 45 44
3 44 45 56
3 44 56 55
3 55 56 67
3 55 67 66
3 66 67 78
3 66 78 77
3 77 78 89
3 77 89 88
3 88 89 100
3 88 100 99
3 1 2 13
3 1 13 12
3 12 13 24
3 12 24 23
3 23 24 35
3 23 35 34
3 34 35 46
3 34 46 45
3 45 46 57
3 45 57 56
3 56 57 68
3 56 68 67
3 67 68 79
3 67 79 78
3 78 79 90
3 78 90 89
3 89 90 101
3 89 101 100
3 2 3 14
3 2 14 13
3 13 14 25
3 13 25 24
3 24 25 36
3 24 36 35
3 35 36 47
3 35 47 46
3 46 47 58
3 46 58 57
3 57 58 69
3 57 69 68
3 68 69 80
3 68 80 79
3 79 80 91
3 79 91 90
3 90 91 102
3 90 102 101
3 3 4 15
3 3 15 14
3 14 15 26
3 14 26 25
3 25 26 37
3 25 37 36
3 36 37 48
3 36 48 47
3 47 48 59
3 47 59 58
3 58 59 70
3 58 70 69
3 69 70 81
3 69 81 80
3 80 81 92
3 80 92 91
3 91 92 103
3 91 103 102
3 4 5 16
3 4 16 15
3 15 16 27
3 15 27 26
3 26 27 38
3 26 38 37
3 37 38 49
3 37 49 48
3 48 49 60
3 48 60 59
3 59 60 71
3 59 71 70
3 70 71 82
3 70 82 81
3 81 82 93
3 81 93 92
3 92 93 104
3 92 104 103
3 5 6 17
3 5 17 16
3 16 17 28
3 16 28 27
3 27 28 39
3 27 39 38
3 38 39 50
3 38 50 49
3 49 50 61
3 49 61 60
3 60 61 72
3 60 72 71
3 71 72 83
3 71 83 82
3 82 83 94
3 82 94 93
3 93 94 105
3 93 105 104
3 6 7 18
3 6 18 17
3 17 18 29
3 17 29 28
3 28 29 40
3 28 40 39
3 39 40 51
3 39 51 50
3 50 51 62
3 50 62 61
3 61 62 73
3 61 73 72
3 72 73 84
3 72 84 83
3 83 84 95
3 83 95 94
3 94 95 106
3 94 106 105
3 7 8 19
3 7 19 18
3 18 19 30
3 18 30 29
3 29 30 41
3 29 41 40
3 40 41 52
3 40 52 51
3 51 52 63
3 51 63 62
3 62 63 74
3 62 74 73
3 73 74 85
3 73 85 84
3 84 85 96
3 84 96 95
3 95 96 107
3 95 107 106
3 8 9 20
3 8 20 19
3 19 20 31
3 19 31 30
3 30 31 42
3 30 42 41
3 41 42 53
3 41 53 52
3 52 53 64
3 52 64 63
3 63 64 75
3 63 75 74
3 74 75 86
3 74 86 85
3 85 86 97
3 85 97 96
3 96 97 108
3 96 108 107
3 9 10 21
3 9 21 20
3 20 21 32
3 20 32 31
3 31 32 43
3 31 43 42
3 42 43 54
3 42 54 53
3 53 54 65
3 53 65 64
3 64 65 76
3 64 76 75
3 75 76 87
3 75 87 86
3 86 87 98
3 86 98 97
3 97 98 109
3 97 109 108
